%TF.GenerationSoftware,KiCad,Pcbnew,9.0.7*%
%TF.CreationDate,2026-04-23T18:20:29+02:00*%
%TF.ProjectId,carte elec,63617274-6520-4656-9c65-632e6b696361,rev?*%
%TF.SameCoordinates,Original*%
%TF.FileFunction,Legend,Top*%
%TF.FilePolarity,Positive*%
%FSLAX46Y46*%
G04 Gerber Fmt 4.6, Leading zero omitted, Abs format (unit mm)*
G04 Created by KiCad (PCBNEW 9.0.7) date 2026-04-23 18:20:29*
%MOMM*%
%LPD*%
G01*
G04 APERTURE LIST*
%ADD10C,0.200000*%
%ADD11C,0.150000*%
%ADD12C,0.120000*%
G04 APERTURE END LIST*
D10*
X81869673Y-65647331D02*
X81869673Y-64647331D01*
X81869673Y-64647331D02*
X82203006Y-65361616D01*
X82203006Y-65361616D02*
X82536339Y-64647331D01*
X82536339Y-64647331D02*
X82536339Y-65647331D01*
X83441101Y-65647331D02*
X83441101Y-65123521D01*
X83441101Y-65123521D02*
X83393482Y-65028283D01*
X83393482Y-65028283D02*
X83298244Y-64980664D01*
X83298244Y-64980664D02*
X83107768Y-64980664D01*
X83107768Y-64980664D02*
X83012530Y-65028283D01*
X83441101Y-65599712D02*
X83345863Y-65647331D01*
X83345863Y-65647331D02*
X83107768Y-65647331D01*
X83107768Y-65647331D02*
X83012530Y-65599712D01*
X83012530Y-65599712D02*
X82964911Y-65504473D01*
X82964911Y-65504473D02*
X82964911Y-65409235D01*
X82964911Y-65409235D02*
X83012530Y-65313997D01*
X83012530Y-65313997D02*
X83107768Y-65266378D01*
X83107768Y-65266378D02*
X83345863Y-65266378D01*
X83345863Y-65266378D02*
X83441101Y-65218759D01*
X84345863Y-65599712D02*
X84250625Y-65647331D01*
X84250625Y-65647331D02*
X84060149Y-65647331D01*
X84060149Y-65647331D02*
X83964911Y-65599712D01*
X83964911Y-65599712D02*
X83917292Y-65552092D01*
X83917292Y-65552092D02*
X83869673Y-65456854D01*
X83869673Y-65456854D02*
X83869673Y-65171140D01*
X83869673Y-65171140D02*
X83917292Y-65075902D01*
X83917292Y-65075902D02*
X83964911Y-65028283D01*
X83964911Y-65028283D02*
X84060149Y-64980664D01*
X84060149Y-64980664D02*
X84250625Y-64980664D01*
X84250625Y-64980664D02*
X84345863Y-65028283D01*
X84774435Y-65647331D02*
X84774435Y-64647331D01*
X85203006Y-65647331D02*
X85203006Y-65123521D01*
X85203006Y-65123521D02*
X85155387Y-65028283D01*
X85155387Y-65028283D02*
X85060149Y-64980664D01*
X85060149Y-64980664D02*
X84917292Y-64980664D01*
X84917292Y-64980664D02*
X84822054Y-65028283D01*
X84822054Y-65028283D02*
X84774435Y-65075902D01*
X85679197Y-65647331D02*
X85679197Y-64980664D01*
X85679197Y-64647331D02*
X85631578Y-64694950D01*
X85631578Y-64694950D02*
X85679197Y-64742569D01*
X85679197Y-64742569D02*
X85726816Y-64694950D01*
X85726816Y-64694950D02*
X85679197Y-64647331D01*
X85679197Y-64647331D02*
X85679197Y-64742569D01*
X86155387Y-64980664D02*
X86155387Y-65647331D01*
X86155387Y-65075902D02*
X86203006Y-65028283D01*
X86203006Y-65028283D02*
X86298244Y-64980664D01*
X86298244Y-64980664D02*
X86441101Y-64980664D01*
X86441101Y-64980664D02*
X86536339Y-65028283D01*
X86536339Y-65028283D02*
X86583958Y-65123521D01*
X86583958Y-65123521D02*
X86583958Y-65647331D01*
X87441101Y-65599712D02*
X87345863Y-65647331D01*
X87345863Y-65647331D02*
X87155387Y-65647331D01*
X87155387Y-65647331D02*
X87060149Y-65599712D01*
X87060149Y-65599712D02*
X87012530Y-65504473D01*
X87012530Y-65504473D02*
X87012530Y-65123521D01*
X87012530Y-65123521D02*
X87060149Y-65028283D01*
X87060149Y-65028283D02*
X87155387Y-64980664D01*
X87155387Y-64980664D02*
X87345863Y-64980664D01*
X87345863Y-64980664D02*
X87441101Y-65028283D01*
X87441101Y-65028283D02*
X87488720Y-65123521D01*
X87488720Y-65123521D02*
X87488720Y-65218759D01*
X87488720Y-65218759D02*
X87012530Y-65313997D01*
X88536340Y-64647331D02*
X89107768Y-64647331D01*
X88822054Y-65647331D02*
X88822054Y-64647331D01*
X89441102Y-65647331D02*
X89441102Y-64647331D01*
X89869673Y-65647331D02*
X89869673Y-65123521D01*
X89869673Y-65123521D02*
X89822054Y-65028283D01*
X89822054Y-65028283D02*
X89726816Y-64980664D01*
X89726816Y-64980664D02*
X89583959Y-64980664D01*
X89583959Y-64980664D02*
X89488721Y-65028283D01*
X89488721Y-65028283D02*
X89441102Y-65075902D01*
X90774435Y-65647331D02*
X90774435Y-65123521D01*
X90774435Y-65123521D02*
X90726816Y-65028283D01*
X90726816Y-65028283D02*
X90631578Y-64980664D01*
X90631578Y-64980664D02*
X90441102Y-64980664D01*
X90441102Y-64980664D02*
X90345864Y-65028283D01*
X90774435Y-65599712D02*
X90679197Y-65647331D01*
X90679197Y-65647331D02*
X90441102Y-65647331D01*
X90441102Y-65647331D02*
X90345864Y-65599712D01*
X90345864Y-65599712D02*
X90298245Y-65504473D01*
X90298245Y-65504473D02*
X90298245Y-65409235D01*
X90298245Y-65409235D02*
X90345864Y-65313997D01*
X90345864Y-65313997D02*
X90441102Y-65266378D01*
X90441102Y-65266378D02*
X90679197Y-65266378D01*
X90679197Y-65266378D02*
X90774435Y-65218759D01*
X91107769Y-64980664D02*
X91488721Y-64980664D01*
X91250626Y-64647331D02*
X91250626Y-65504473D01*
X91250626Y-65504473D02*
X91298245Y-65599712D01*
X91298245Y-65599712D02*
X91393483Y-65647331D01*
X91393483Y-65647331D02*
X91488721Y-65647331D01*
X92583960Y-65647331D02*
X92583960Y-64647331D01*
X92583960Y-64647331D02*
X92822055Y-64647331D01*
X92822055Y-64647331D02*
X92964912Y-64694950D01*
X92964912Y-64694950D02*
X93060150Y-64790188D01*
X93060150Y-64790188D02*
X93107769Y-64885426D01*
X93107769Y-64885426D02*
X93155388Y-65075902D01*
X93155388Y-65075902D02*
X93155388Y-65218759D01*
X93155388Y-65218759D02*
X93107769Y-65409235D01*
X93107769Y-65409235D02*
X93060150Y-65504473D01*
X93060150Y-65504473D02*
X92964912Y-65599712D01*
X92964912Y-65599712D02*
X92822055Y-65647331D01*
X92822055Y-65647331D02*
X92583960Y-65647331D01*
X93583960Y-65647331D02*
X93583960Y-64980664D01*
X93583960Y-65171140D02*
X93631579Y-65075902D01*
X93631579Y-65075902D02*
X93679198Y-65028283D01*
X93679198Y-65028283D02*
X93774436Y-64980664D01*
X93774436Y-64980664D02*
X93869674Y-64980664D01*
X94631579Y-65647331D02*
X94631579Y-65123521D01*
X94631579Y-65123521D02*
X94583960Y-65028283D01*
X94583960Y-65028283D02*
X94488722Y-64980664D01*
X94488722Y-64980664D02*
X94298246Y-64980664D01*
X94298246Y-64980664D02*
X94203008Y-65028283D01*
X94631579Y-65599712D02*
X94536341Y-65647331D01*
X94536341Y-65647331D02*
X94298246Y-65647331D01*
X94298246Y-65647331D02*
X94203008Y-65599712D01*
X94203008Y-65599712D02*
X94155389Y-65504473D01*
X94155389Y-65504473D02*
X94155389Y-65409235D01*
X94155389Y-65409235D02*
X94203008Y-65313997D01*
X94203008Y-65313997D02*
X94298246Y-65266378D01*
X94298246Y-65266378D02*
X94536341Y-65266378D01*
X94536341Y-65266378D02*
X94631579Y-65218759D01*
X95012532Y-64980664D02*
X95203008Y-65647331D01*
X95203008Y-65647331D02*
X95393484Y-65171140D01*
X95393484Y-65171140D02*
X95583960Y-65647331D01*
X95583960Y-65647331D02*
X95774436Y-64980664D01*
X96107770Y-65599712D02*
X96203008Y-65647331D01*
X96203008Y-65647331D02*
X96393484Y-65647331D01*
X96393484Y-65647331D02*
X96488722Y-65599712D01*
X96488722Y-65599712D02*
X96536341Y-65504473D01*
X96536341Y-65504473D02*
X96536341Y-65456854D01*
X96536341Y-65456854D02*
X96488722Y-65361616D01*
X96488722Y-65361616D02*
X96393484Y-65313997D01*
X96393484Y-65313997D02*
X96250627Y-65313997D01*
X96250627Y-65313997D02*
X96155389Y-65266378D01*
X96155389Y-65266378D02*
X96107770Y-65171140D01*
X96107770Y-65171140D02*
X96107770Y-65123521D01*
X96107770Y-65123521D02*
X96155389Y-65028283D01*
X96155389Y-65028283D02*
X96250627Y-64980664D01*
X96250627Y-64980664D02*
X96393484Y-64980664D01*
X96393484Y-64980664D02*
X96488722Y-65028283D01*
X82393482Y-66304894D02*
X82298244Y-66257275D01*
X82298244Y-66257275D02*
X82155387Y-66257275D01*
X82155387Y-66257275D02*
X82012530Y-66304894D01*
X82012530Y-66304894D02*
X81917292Y-66400132D01*
X81917292Y-66400132D02*
X81869673Y-66495370D01*
X81869673Y-66495370D02*
X81822054Y-66685846D01*
X81822054Y-66685846D02*
X81822054Y-66828703D01*
X81822054Y-66828703D02*
X81869673Y-67019179D01*
X81869673Y-67019179D02*
X81917292Y-67114417D01*
X81917292Y-67114417D02*
X82012530Y-67209656D01*
X82012530Y-67209656D02*
X82155387Y-67257275D01*
X82155387Y-67257275D02*
X82250625Y-67257275D01*
X82250625Y-67257275D02*
X82393482Y-67209656D01*
X82393482Y-67209656D02*
X82441101Y-67162036D01*
X82441101Y-67162036D02*
X82441101Y-66828703D01*
X82441101Y-66828703D02*
X82250625Y-66828703D01*
X82869673Y-67257275D02*
X82869673Y-66590608D01*
X82869673Y-66781084D02*
X82917292Y-66685846D01*
X82917292Y-66685846D02*
X82964911Y-66638227D01*
X82964911Y-66638227D02*
X83060149Y-66590608D01*
X83060149Y-66590608D02*
X83155387Y-66590608D01*
X83631578Y-67257275D02*
X83536340Y-67209656D01*
X83536340Y-67209656D02*
X83488721Y-67162036D01*
X83488721Y-67162036D02*
X83441102Y-67066798D01*
X83441102Y-67066798D02*
X83441102Y-66781084D01*
X83441102Y-66781084D02*
X83488721Y-66685846D01*
X83488721Y-66685846D02*
X83536340Y-66638227D01*
X83536340Y-66638227D02*
X83631578Y-66590608D01*
X83631578Y-66590608D02*
X83774435Y-66590608D01*
X83774435Y-66590608D02*
X83869673Y-66638227D01*
X83869673Y-66638227D02*
X83917292Y-66685846D01*
X83917292Y-66685846D02*
X83964911Y-66781084D01*
X83964911Y-66781084D02*
X83964911Y-67066798D01*
X83964911Y-67066798D02*
X83917292Y-67162036D01*
X83917292Y-67162036D02*
X83869673Y-67209656D01*
X83869673Y-67209656D02*
X83774435Y-67257275D01*
X83774435Y-67257275D02*
X83631578Y-67257275D01*
X84822054Y-66590608D02*
X84822054Y-67257275D01*
X84393483Y-66590608D02*
X84393483Y-67114417D01*
X84393483Y-67114417D02*
X84441102Y-67209656D01*
X84441102Y-67209656D02*
X84536340Y-67257275D01*
X84536340Y-67257275D02*
X84679197Y-67257275D01*
X84679197Y-67257275D02*
X84774435Y-67209656D01*
X84774435Y-67209656D02*
X84822054Y-67162036D01*
X85298245Y-66590608D02*
X85298245Y-67590608D01*
X85298245Y-66638227D02*
X85393483Y-66590608D01*
X85393483Y-66590608D02*
X85583959Y-66590608D01*
X85583959Y-66590608D02*
X85679197Y-66638227D01*
X85679197Y-66638227D02*
X85726816Y-66685846D01*
X85726816Y-66685846D02*
X85774435Y-66781084D01*
X85774435Y-66781084D02*
X85774435Y-67066798D01*
X85774435Y-67066798D02*
X85726816Y-67162036D01*
X85726816Y-67162036D02*
X85679197Y-67209656D01*
X85679197Y-67209656D02*
X85583959Y-67257275D01*
X85583959Y-67257275D02*
X85393483Y-67257275D01*
X85393483Y-67257275D02*
X85298245Y-67209656D01*
X86583959Y-67209656D02*
X86488721Y-67257275D01*
X86488721Y-67257275D02*
X86298245Y-67257275D01*
X86298245Y-67257275D02*
X86203007Y-67209656D01*
X86203007Y-67209656D02*
X86155388Y-67114417D01*
X86155388Y-67114417D02*
X86155388Y-66733465D01*
X86155388Y-66733465D02*
X86203007Y-66638227D01*
X86203007Y-66638227D02*
X86298245Y-66590608D01*
X86298245Y-66590608D02*
X86488721Y-66590608D01*
X86488721Y-66590608D02*
X86583959Y-66638227D01*
X86583959Y-66638227D02*
X86631578Y-66733465D01*
X86631578Y-66733465D02*
X86631578Y-66828703D01*
X86631578Y-66828703D02*
X86155388Y-66923941D01*
X88298245Y-66257275D02*
X87822055Y-66257275D01*
X87822055Y-66257275D02*
X87774436Y-66733465D01*
X87774436Y-66733465D02*
X87822055Y-66685846D01*
X87822055Y-66685846D02*
X87917293Y-66638227D01*
X87917293Y-66638227D02*
X88155388Y-66638227D01*
X88155388Y-66638227D02*
X88250626Y-66685846D01*
X88250626Y-66685846D02*
X88298245Y-66733465D01*
X88298245Y-66733465D02*
X88345864Y-66828703D01*
X88345864Y-66828703D02*
X88345864Y-67066798D01*
X88345864Y-67066798D02*
X88298245Y-67162036D01*
X88298245Y-67162036D02*
X88250626Y-67209656D01*
X88250626Y-67209656D02*
X88155388Y-67257275D01*
X88155388Y-67257275D02*
X87917293Y-67257275D01*
X87917293Y-67257275D02*
X87822055Y-67209656D01*
X87822055Y-67209656D02*
X87774436Y-67162036D01*
X81822054Y-67962457D02*
X81869673Y-67914838D01*
X81869673Y-67914838D02*
X81964911Y-67867219D01*
X81964911Y-67867219D02*
X82203006Y-67867219D01*
X82203006Y-67867219D02*
X82298244Y-67914838D01*
X82298244Y-67914838D02*
X82345863Y-67962457D01*
X82345863Y-67962457D02*
X82393482Y-68057695D01*
X82393482Y-68057695D02*
X82393482Y-68152933D01*
X82393482Y-68152933D02*
X82345863Y-68295790D01*
X82345863Y-68295790D02*
X81774435Y-68867219D01*
X81774435Y-68867219D02*
X82393482Y-68867219D01*
X82774435Y-67962457D02*
X82822054Y-67914838D01*
X82822054Y-67914838D02*
X82917292Y-67867219D01*
X82917292Y-67867219D02*
X83155387Y-67867219D01*
X83155387Y-67867219D02*
X83250625Y-67914838D01*
X83250625Y-67914838D02*
X83298244Y-67962457D01*
X83298244Y-67962457D02*
X83345863Y-68057695D01*
X83345863Y-68057695D02*
X83345863Y-68152933D01*
X83345863Y-68152933D02*
X83298244Y-68295790D01*
X83298244Y-68295790D02*
X82726816Y-68867219D01*
X82726816Y-68867219D02*
X83345863Y-68867219D01*
X84488720Y-67819600D02*
X83631578Y-69105314D01*
X85012530Y-67867219D02*
X85107768Y-67867219D01*
X85107768Y-67867219D02*
X85203006Y-67914838D01*
X85203006Y-67914838D02*
X85250625Y-67962457D01*
X85250625Y-67962457D02*
X85298244Y-68057695D01*
X85298244Y-68057695D02*
X85345863Y-68248171D01*
X85345863Y-68248171D02*
X85345863Y-68486266D01*
X85345863Y-68486266D02*
X85298244Y-68676742D01*
X85298244Y-68676742D02*
X85250625Y-68771980D01*
X85250625Y-68771980D02*
X85203006Y-68819600D01*
X85203006Y-68819600D02*
X85107768Y-68867219D01*
X85107768Y-68867219D02*
X85012530Y-68867219D01*
X85012530Y-68867219D02*
X84917292Y-68819600D01*
X84917292Y-68819600D02*
X84869673Y-68771980D01*
X84869673Y-68771980D02*
X84822054Y-68676742D01*
X84822054Y-68676742D02*
X84774435Y-68486266D01*
X84774435Y-68486266D02*
X84774435Y-68248171D01*
X84774435Y-68248171D02*
X84822054Y-68057695D01*
X84822054Y-68057695D02*
X84869673Y-67962457D01*
X84869673Y-67962457D02*
X84917292Y-67914838D01*
X84917292Y-67914838D02*
X85012530Y-67867219D01*
X86203006Y-68200552D02*
X86203006Y-68867219D01*
X85964911Y-67819600D02*
X85726816Y-68533885D01*
X85726816Y-68533885D02*
X86345863Y-68533885D01*
X87441101Y-67819600D02*
X86583959Y-69105314D01*
X87726816Y-67962457D02*
X87774435Y-67914838D01*
X87774435Y-67914838D02*
X87869673Y-67867219D01*
X87869673Y-67867219D02*
X88107768Y-67867219D01*
X88107768Y-67867219D02*
X88203006Y-67914838D01*
X88203006Y-67914838D02*
X88250625Y-67962457D01*
X88250625Y-67962457D02*
X88298244Y-68057695D01*
X88298244Y-68057695D02*
X88298244Y-68152933D01*
X88298244Y-68152933D02*
X88250625Y-68295790D01*
X88250625Y-68295790D02*
X87679197Y-68867219D01*
X87679197Y-68867219D02*
X88298244Y-68867219D01*
X88917292Y-67867219D02*
X89012530Y-67867219D01*
X89012530Y-67867219D02*
X89107768Y-67914838D01*
X89107768Y-67914838D02*
X89155387Y-67962457D01*
X89155387Y-67962457D02*
X89203006Y-68057695D01*
X89203006Y-68057695D02*
X89250625Y-68248171D01*
X89250625Y-68248171D02*
X89250625Y-68486266D01*
X89250625Y-68486266D02*
X89203006Y-68676742D01*
X89203006Y-68676742D02*
X89155387Y-68771980D01*
X89155387Y-68771980D02*
X89107768Y-68819600D01*
X89107768Y-68819600D02*
X89012530Y-68867219D01*
X89012530Y-68867219D02*
X88917292Y-68867219D01*
X88917292Y-68867219D02*
X88822054Y-68819600D01*
X88822054Y-68819600D02*
X88774435Y-68771980D01*
X88774435Y-68771980D02*
X88726816Y-68676742D01*
X88726816Y-68676742D02*
X88679197Y-68486266D01*
X88679197Y-68486266D02*
X88679197Y-68248171D01*
X88679197Y-68248171D02*
X88726816Y-68057695D01*
X88726816Y-68057695D02*
X88774435Y-67962457D01*
X88774435Y-67962457D02*
X88822054Y-67914838D01*
X88822054Y-67914838D02*
X88917292Y-67867219D01*
X89631578Y-67962457D02*
X89679197Y-67914838D01*
X89679197Y-67914838D02*
X89774435Y-67867219D01*
X89774435Y-67867219D02*
X90012530Y-67867219D01*
X90012530Y-67867219D02*
X90107768Y-67914838D01*
X90107768Y-67914838D02*
X90155387Y-67962457D01*
X90155387Y-67962457D02*
X90203006Y-68057695D01*
X90203006Y-68057695D02*
X90203006Y-68152933D01*
X90203006Y-68152933D02*
X90155387Y-68295790D01*
X90155387Y-68295790D02*
X89583959Y-68867219D01*
X89583959Y-68867219D02*
X90203006Y-68867219D01*
X91060149Y-67867219D02*
X90869673Y-67867219D01*
X90869673Y-67867219D02*
X90774435Y-67914838D01*
X90774435Y-67914838D02*
X90726816Y-67962457D01*
X90726816Y-67962457D02*
X90631578Y-68105314D01*
X90631578Y-68105314D02*
X90583959Y-68295790D01*
X90583959Y-68295790D02*
X90583959Y-68676742D01*
X90583959Y-68676742D02*
X90631578Y-68771980D01*
X90631578Y-68771980D02*
X90679197Y-68819600D01*
X90679197Y-68819600D02*
X90774435Y-68867219D01*
X90774435Y-68867219D02*
X90964911Y-68867219D01*
X90964911Y-68867219D02*
X91060149Y-68819600D01*
X91060149Y-68819600D02*
X91107768Y-68771980D01*
X91107768Y-68771980D02*
X91155387Y-68676742D01*
X91155387Y-68676742D02*
X91155387Y-68438647D01*
X91155387Y-68438647D02*
X91107768Y-68343409D01*
X91107768Y-68343409D02*
X91060149Y-68295790D01*
X91060149Y-68295790D02*
X90964911Y-68248171D01*
X90964911Y-68248171D02*
X90774435Y-68248171D01*
X90774435Y-68248171D02*
X90679197Y-68295790D01*
X90679197Y-68295790D02*
X90631578Y-68343409D01*
X90631578Y-68343409D02*
X90583959Y-68438647D01*
D11*
X62581309Y-108904819D02*
X62581309Y-108238152D01*
X62581309Y-108428628D02*
X62628928Y-108333390D01*
X62628928Y-108333390D02*
X62676547Y-108285771D01*
X62676547Y-108285771D02*
X62771785Y-108238152D01*
X62771785Y-108238152D02*
X62867023Y-108238152D01*
X63200357Y-108904819D02*
X63200357Y-108238152D01*
X63200357Y-107904819D02*
X63152738Y-107952438D01*
X63152738Y-107952438D02*
X63200357Y-108000057D01*
X63200357Y-108000057D02*
X63247976Y-107952438D01*
X63247976Y-107952438D02*
X63200357Y-107904819D01*
X63200357Y-107904819D02*
X63200357Y-108000057D01*
X64105118Y-108238152D02*
X64105118Y-109047676D01*
X64105118Y-109047676D02*
X64057499Y-109142914D01*
X64057499Y-109142914D02*
X64009880Y-109190533D01*
X64009880Y-109190533D02*
X63914642Y-109238152D01*
X63914642Y-109238152D02*
X63771785Y-109238152D01*
X63771785Y-109238152D02*
X63676547Y-109190533D01*
X64105118Y-108857200D02*
X64009880Y-108904819D01*
X64009880Y-108904819D02*
X63819404Y-108904819D01*
X63819404Y-108904819D02*
X63724166Y-108857200D01*
X63724166Y-108857200D02*
X63676547Y-108809580D01*
X63676547Y-108809580D02*
X63628928Y-108714342D01*
X63628928Y-108714342D02*
X63628928Y-108428628D01*
X63628928Y-108428628D02*
X63676547Y-108333390D01*
X63676547Y-108333390D02*
X63724166Y-108285771D01*
X63724166Y-108285771D02*
X63819404Y-108238152D01*
X63819404Y-108238152D02*
X64009880Y-108238152D01*
X64009880Y-108238152D02*
X64105118Y-108285771D01*
X64581309Y-108904819D02*
X64581309Y-107904819D01*
X65009880Y-108904819D02*
X65009880Y-108381009D01*
X65009880Y-108381009D02*
X64962261Y-108285771D01*
X64962261Y-108285771D02*
X64867023Y-108238152D01*
X64867023Y-108238152D02*
X64724166Y-108238152D01*
X64724166Y-108238152D02*
X64628928Y-108285771D01*
X64628928Y-108285771D02*
X64581309Y-108333390D01*
X65343214Y-108238152D02*
X65724166Y-108238152D01*
X65486071Y-107904819D02*
X65486071Y-108761961D01*
X65486071Y-108761961D02*
X65533690Y-108857200D01*
X65533690Y-108857200D02*
X65628928Y-108904819D01*
X65628928Y-108904819D02*
X65724166Y-108904819D01*
X66581309Y-108904819D02*
X66009881Y-108904819D01*
X66295595Y-108904819D02*
X66295595Y-107904819D01*
X66295595Y-107904819D02*
X66200357Y-108047676D01*
X66200357Y-108047676D02*
X66105119Y-108142914D01*
X66105119Y-108142914D02*
X66009881Y-108190533D01*
X41357142Y-119784819D02*
X41023809Y-119308628D01*
X40785714Y-119784819D02*
X40785714Y-118784819D01*
X40785714Y-118784819D02*
X41166666Y-118784819D01*
X41166666Y-118784819D02*
X41261904Y-118832438D01*
X41261904Y-118832438D02*
X41309523Y-118880057D01*
X41309523Y-118880057D02*
X41357142Y-118975295D01*
X41357142Y-118975295D02*
X41357142Y-119118152D01*
X41357142Y-119118152D02*
X41309523Y-119213390D01*
X41309523Y-119213390D02*
X41261904Y-119261009D01*
X41261904Y-119261009D02*
X41166666Y-119308628D01*
X41166666Y-119308628D02*
X40785714Y-119308628D01*
X42309523Y-119784819D02*
X41738095Y-119784819D01*
X42023809Y-119784819D02*
X42023809Y-118784819D01*
X42023809Y-118784819D02*
X41928571Y-118927676D01*
X41928571Y-118927676D02*
X41833333Y-119022914D01*
X41833333Y-119022914D02*
X41738095Y-119070533D01*
X43166666Y-118784819D02*
X42976190Y-118784819D01*
X42976190Y-118784819D02*
X42880952Y-118832438D01*
X42880952Y-118832438D02*
X42833333Y-118880057D01*
X42833333Y-118880057D02*
X42738095Y-119022914D01*
X42738095Y-119022914D02*
X42690476Y-119213390D01*
X42690476Y-119213390D02*
X42690476Y-119594342D01*
X42690476Y-119594342D02*
X42738095Y-119689580D01*
X42738095Y-119689580D02*
X42785714Y-119737200D01*
X42785714Y-119737200D02*
X42880952Y-119784819D01*
X42880952Y-119784819D02*
X43071428Y-119784819D01*
X43071428Y-119784819D02*
X43166666Y-119737200D01*
X43166666Y-119737200D02*
X43214285Y-119689580D01*
X43214285Y-119689580D02*
X43261904Y-119594342D01*
X43261904Y-119594342D02*
X43261904Y-119356247D01*
X43261904Y-119356247D02*
X43214285Y-119261009D01*
X43214285Y-119261009D02*
X43166666Y-119213390D01*
X43166666Y-119213390D02*
X43071428Y-119165771D01*
X43071428Y-119165771D02*
X42880952Y-119165771D01*
X42880952Y-119165771D02*
X42785714Y-119213390D01*
X42785714Y-119213390D02*
X42738095Y-119261009D01*
X42738095Y-119261009D02*
X42690476Y-119356247D01*
X58285714Y-98288152D02*
X58285714Y-98954819D01*
X57857143Y-98288152D02*
X57857143Y-98811961D01*
X57857143Y-98811961D02*
X57904762Y-98907200D01*
X57904762Y-98907200D02*
X58000000Y-98954819D01*
X58000000Y-98954819D02*
X58142857Y-98954819D01*
X58142857Y-98954819D02*
X58238095Y-98907200D01*
X58238095Y-98907200D02*
X58285714Y-98859580D01*
X58761905Y-98288152D02*
X58761905Y-99288152D01*
X58761905Y-98335771D02*
X58857143Y-98288152D01*
X58857143Y-98288152D02*
X59047619Y-98288152D01*
X59047619Y-98288152D02*
X59142857Y-98335771D01*
X59142857Y-98335771D02*
X59190476Y-98383390D01*
X59190476Y-98383390D02*
X59238095Y-98478628D01*
X59238095Y-98478628D02*
X59238095Y-98764342D01*
X59238095Y-98764342D02*
X59190476Y-98859580D01*
X59190476Y-98859580D02*
X59142857Y-98907200D01*
X59142857Y-98907200D02*
X59047619Y-98954819D01*
X59047619Y-98954819D02*
X58857143Y-98954819D01*
X58857143Y-98954819D02*
X58761905Y-98907200D01*
X60190476Y-98954819D02*
X59619048Y-98954819D01*
X59904762Y-98954819D02*
X59904762Y-97954819D01*
X59904762Y-97954819D02*
X59809524Y-98097676D01*
X59809524Y-98097676D02*
X59714286Y-98192914D01*
X59714286Y-98192914D02*
X59619048Y-98240533D01*
X52142856Y-103954819D02*
X52047618Y-103907200D01*
X52047618Y-103907200D02*
X51999999Y-103811961D01*
X51999999Y-103811961D02*
X51999999Y-102954819D01*
X52904761Y-103907200D02*
X52809523Y-103954819D01*
X52809523Y-103954819D02*
X52619047Y-103954819D01*
X52619047Y-103954819D02*
X52523809Y-103907200D01*
X52523809Y-103907200D02*
X52476190Y-103811961D01*
X52476190Y-103811961D02*
X52476190Y-103431009D01*
X52476190Y-103431009D02*
X52523809Y-103335771D01*
X52523809Y-103335771D02*
X52619047Y-103288152D01*
X52619047Y-103288152D02*
X52809523Y-103288152D01*
X52809523Y-103288152D02*
X52904761Y-103335771D01*
X52904761Y-103335771D02*
X52952380Y-103431009D01*
X52952380Y-103431009D02*
X52952380Y-103526247D01*
X52952380Y-103526247D02*
X52476190Y-103621485D01*
X53238095Y-103288152D02*
X53619047Y-103288152D01*
X53380952Y-103954819D02*
X53380952Y-103097676D01*
X53380952Y-103097676D02*
X53428571Y-103002438D01*
X53428571Y-103002438D02*
X53523809Y-102954819D01*
X53523809Y-102954819D02*
X53619047Y-102954819D01*
X53809524Y-103288152D02*
X54190476Y-103288152D01*
X53952381Y-102954819D02*
X53952381Y-103811961D01*
X53952381Y-103811961D02*
X54000000Y-103907200D01*
X54000000Y-103907200D02*
X54095238Y-103954819D01*
X54095238Y-103954819D02*
X54190476Y-103954819D01*
X55047619Y-103954819D02*
X54476191Y-103954819D01*
X54761905Y-103954819D02*
X54761905Y-102954819D01*
X54761905Y-102954819D02*
X54666667Y-103097676D01*
X54666667Y-103097676D02*
X54571429Y-103192914D01*
X54571429Y-103192914D02*
X54476191Y-103240533D01*
X37857142Y-110454819D02*
X37523809Y-109978628D01*
X37285714Y-110454819D02*
X37285714Y-109454819D01*
X37285714Y-109454819D02*
X37666666Y-109454819D01*
X37666666Y-109454819D02*
X37761904Y-109502438D01*
X37761904Y-109502438D02*
X37809523Y-109550057D01*
X37809523Y-109550057D02*
X37857142Y-109645295D01*
X37857142Y-109645295D02*
X37857142Y-109788152D01*
X37857142Y-109788152D02*
X37809523Y-109883390D01*
X37809523Y-109883390D02*
X37761904Y-109931009D01*
X37761904Y-109931009D02*
X37666666Y-109978628D01*
X37666666Y-109978628D02*
X37285714Y-109978628D01*
X38809523Y-110454819D02*
X38238095Y-110454819D01*
X38523809Y-110454819D02*
X38523809Y-109454819D01*
X38523809Y-109454819D02*
X38428571Y-109597676D01*
X38428571Y-109597676D02*
X38333333Y-109692914D01*
X38333333Y-109692914D02*
X38238095Y-109740533D01*
X39714285Y-109454819D02*
X39238095Y-109454819D01*
X39238095Y-109454819D02*
X39190476Y-109931009D01*
X39190476Y-109931009D02*
X39238095Y-109883390D01*
X39238095Y-109883390D02*
X39333333Y-109835771D01*
X39333333Y-109835771D02*
X39571428Y-109835771D01*
X39571428Y-109835771D02*
X39666666Y-109883390D01*
X39666666Y-109883390D02*
X39714285Y-109931009D01*
X39714285Y-109931009D02*
X39761904Y-110026247D01*
X39761904Y-110026247D02*
X39761904Y-110264342D01*
X39761904Y-110264342D02*
X39714285Y-110359580D01*
X39714285Y-110359580D02*
X39666666Y-110407200D01*
X39666666Y-110407200D02*
X39571428Y-110454819D01*
X39571428Y-110454819D02*
X39333333Y-110454819D01*
X39333333Y-110454819D02*
X39238095Y-110407200D01*
X39238095Y-110407200D02*
X39190476Y-110359580D01*
X36357142Y-113954819D02*
X36023809Y-113478628D01*
X35785714Y-113954819D02*
X35785714Y-112954819D01*
X35785714Y-112954819D02*
X36166666Y-112954819D01*
X36166666Y-112954819D02*
X36261904Y-113002438D01*
X36261904Y-113002438D02*
X36309523Y-113050057D01*
X36309523Y-113050057D02*
X36357142Y-113145295D01*
X36357142Y-113145295D02*
X36357142Y-113288152D01*
X36357142Y-113288152D02*
X36309523Y-113383390D01*
X36309523Y-113383390D02*
X36261904Y-113431009D01*
X36261904Y-113431009D02*
X36166666Y-113478628D01*
X36166666Y-113478628D02*
X35785714Y-113478628D01*
X37309523Y-113954819D02*
X36738095Y-113954819D01*
X37023809Y-113954819D02*
X37023809Y-112954819D01*
X37023809Y-112954819D02*
X36928571Y-113097676D01*
X36928571Y-113097676D02*
X36833333Y-113192914D01*
X36833333Y-113192914D02*
X36738095Y-113240533D01*
X38166666Y-113288152D02*
X38166666Y-113954819D01*
X37928571Y-112907200D02*
X37690476Y-113621485D01*
X37690476Y-113621485D02*
X38309523Y-113621485D01*
X50857142Y-102454819D02*
X50523809Y-101978628D01*
X50285714Y-102454819D02*
X50285714Y-101454819D01*
X50285714Y-101454819D02*
X50666666Y-101454819D01*
X50666666Y-101454819D02*
X50761904Y-101502438D01*
X50761904Y-101502438D02*
X50809523Y-101550057D01*
X50809523Y-101550057D02*
X50857142Y-101645295D01*
X50857142Y-101645295D02*
X50857142Y-101788152D01*
X50857142Y-101788152D02*
X50809523Y-101883390D01*
X50809523Y-101883390D02*
X50761904Y-101931009D01*
X50761904Y-101931009D02*
X50666666Y-101978628D01*
X50666666Y-101978628D02*
X50285714Y-101978628D01*
X51809523Y-102454819D02*
X51238095Y-102454819D01*
X51523809Y-102454819D02*
X51523809Y-101454819D01*
X51523809Y-101454819D02*
X51428571Y-101597676D01*
X51428571Y-101597676D02*
X51333333Y-101692914D01*
X51333333Y-101692914D02*
X51238095Y-101740533D01*
X52142857Y-101454819D02*
X52761904Y-101454819D01*
X52761904Y-101454819D02*
X52428571Y-101835771D01*
X52428571Y-101835771D02*
X52571428Y-101835771D01*
X52571428Y-101835771D02*
X52666666Y-101883390D01*
X52666666Y-101883390D02*
X52714285Y-101931009D01*
X52714285Y-101931009D02*
X52761904Y-102026247D01*
X52761904Y-102026247D02*
X52761904Y-102264342D01*
X52761904Y-102264342D02*
X52714285Y-102359580D01*
X52714285Y-102359580D02*
X52666666Y-102407200D01*
X52666666Y-102407200D02*
X52571428Y-102454819D01*
X52571428Y-102454819D02*
X52285714Y-102454819D01*
X52285714Y-102454819D02*
X52190476Y-102407200D01*
X52190476Y-102407200D02*
X52142857Y-102359580D01*
X57309523Y-112904819D02*
X57309523Y-111904819D01*
X57309523Y-112857200D02*
X57214285Y-112904819D01*
X57214285Y-112904819D02*
X57023809Y-112904819D01*
X57023809Y-112904819D02*
X56928571Y-112857200D01*
X56928571Y-112857200D02*
X56880952Y-112809580D01*
X56880952Y-112809580D02*
X56833333Y-112714342D01*
X56833333Y-112714342D02*
X56833333Y-112428628D01*
X56833333Y-112428628D02*
X56880952Y-112333390D01*
X56880952Y-112333390D02*
X56928571Y-112285771D01*
X56928571Y-112285771D02*
X57023809Y-112238152D01*
X57023809Y-112238152D02*
X57214285Y-112238152D01*
X57214285Y-112238152D02*
X57309523Y-112285771D01*
X57928571Y-112904819D02*
X57833333Y-112857200D01*
X57833333Y-112857200D02*
X57785714Y-112809580D01*
X57785714Y-112809580D02*
X57738095Y-112714342D01*
X57738095Y-112714342D02*
X57738095Y-112428628D01*
X57738095Y-112428628D02*
X57785714Y-112333390D01*
X57785714Y-112333390D02*
X57833333Y-112285771D01*
X57833333Y-112285771D02*
X57928571Y-112238152D01*
X57928571Y-112238152D02*
X58071428Y-112238152D01*
X58071428Y-112238152D02*
X58166666Y-112285771D01*
X58166666Y-112285771D02*
X58214285Y-112333390D01*
X58214285Y-112333390D02*
X58261904Y-112428628D01*
X58261904Y-112428628D02*
X58261904Y-112714342D01*
X58261904Y-112714342D02*
X58214285Y-112809580D01*
X58214285Y-112809580D02*
X58166666Y-112857200D01*
X58166666Y-112857200D02*
X58071428Y-112904819D01*
X58071428Y-112904819D02*
X57928571Y-112904819D01*
X58595238Y-112238152D02*
X58785714Y-112904819D01*
X58785714Y-112904819D02*
X58976190Y-112428628D01*
X58976190Y-112428628D02*
X59166666Y-112904819D01*
X59166666Y-112904819D02*
X59357142Y-112238152D01*
X59738095Y-112238152D02*
X59738095Y-112904819D01*
X59738095Y-112333390D02*
X59785714Y-112285771D01*
X59785714Y-112285771D02*
X59880952Y-112238152D01*
X59880952Y-112238152D02*
X60023809Y-112238152D01*
X60023809Y-112238152D02*
X60119047Y-112285771D01*
X60119047Y-112285771D02*
X60166666Y-112381009D01*
X60166666Y-112381009D02*
X60166666Y-112904819D01*
X61166666Y-112904819D02*
X60595238Y-112904819D01*
X60880952Y-112904819D02*
X60880952Y-111904819D01*
X60880952Y-111904819D02*
X60785714Y-112047676D01*
X60785714Y-112047676D02*
X60690476Y-112142914D01*
X60690476Y-112142914D02*
X60595238Y-112190533D01*
X54333333Y-133954819D02*
X54000000Y-133478628D01*
X53761905Y-133954819D02*
X53761905Y-132954819D01*
X53761905Y-132954819D02*
X54142857Y-132954819D01*
X54142857Y-132954819D02*
X54238095Y-133002438D01*
X54238095Y-133002438D02*
X54285714Y-133050057D01*
X54285714Y-133050057D02*
X54333333Y-133145295D01*
X54333333Y-133145295D02*
X54333333Y-133288152D01*
X54333333Y-133288152D02*
X54285714Y-133383390D01*
X54285714Y-133383390D02*
X54238095Y-133431009D01*
X54238095Y-133431009D02*
X54142857Y-133478628D01*
X54142857Y-133478628D02*
X53761905Y-133478628D01*
X55190476Y-133288152D02*
X55190476Y-133954819D01*
X54952381Y-132907200D02*
X54714286Y-133621485D01*
X54714286Y-133621485D02*
X55333333Y-133621485D01*
X65833333Y-62954819D02*
X65500000Y-62478628D01*
X65261905Y-62954819D02*
X65261905Y-61954819D01*
X65261905Y-61954819D02*
X65642857Y-61954819D01*
X65642857Y-61954819D02*
X65738095Y-62002438D01*
X65738095Y-62002438D02*
X65785714Y-62050057D01*
X65785714Y-62050057D02*
X65833333Y-62145295D01*
X65833333Y-62145295D02*
X65833333Y-62288152D01*
X65833333Y-62288152D02*
X65785714Y-62383390D01*
X65785714Y-62383390D02*
X65738095Y-62431009D01*
X65738095Y-62431009D02*
X65642857Y-62478628D01*
X65642857Y-62478628D02*
X65261905Y-62478628D01*
X66214286Y-62050057D02*
X66261905Y-62002438D01*
X66261905Y-62002438D02*
X66357143Y-61954819D01*
X66357143Y-61954819D02*
X66595238Y-61954819D01*
X66595238Y-61954819D02*
X66690476Y-62002438D01*
X66690476Y-62002438D02*
X66738095Y-62050057D01*
X66738095Y-62050057D02*
X66785714Y-62145295D01*
X66785714Y-62145295D02*
X66785714Y-62240533D01*
X66785714Y-62240533D02*
X66738095Y-62383390D01*
X66738095Y-62383390D02*
X66166667Y-62954819D01*
X66166667Y-62954819D02*
X66785714Y-62954819D01*
X65333333Y-81454819D02*
X65000000Y-80978628D01*
X64761905Y-81454819D02*
X64761905Y-80454819D01*
X64761905Y-80454819D02*
X65142857Y-80454819D01*
X65142857Y-80454819D02*
X65238095Y-80502438D01*
X65238095Y-80502438D02*
X65285714Y-80550057D01*
X65285714Y-80550057D02*
X65333333Y-80645295D01*
X65333333Y-80645295D02*
X65333333Y-80788152D01*
X65333333Y-80788152D02*
X65285714Y-80883390D01*
X65285714Y-80883390D02*
X65238095Y-80931009D01*
X65238095Y-80931009D02*
X65142857Y-80978628D01*
X65142857Y-80978628D02*
X64761905Y-80978628D01*
X66285714Y-81454819D02*
X65714286Y-81454819D01*
X66000000Y-81454819D02*
X66000000Y-80454819D01*
X66000000Y-80454819D02*
X65904762Y-80597676D01*
X65904762Y-80597676D02*
X65809524Y-80692914D01*
X65809524Y-80692914D02*
X65714286Y-80740533D01*
X65166666Y-69954819D02*
X65166666Y-70669104D01*
X65166666Y-70669104D02*
X65119047Y-70811961D01*
X65119047Y-70811961D02*
X65023809Y-70907200D01*
X65023809Y-70907200D02*
X64880952Y-70954819D01*
X64880952Y-70954819D02*
X64785714Y-70954819D01*
X66166666Y-70954819D02*
X65595238Y-70954819D01*
X65880952Y-70954819D02*
X65880952Y-69954819D01*
X65880952Y-69954819D02*
X65785714Y-70097676D01*
X65785714Y-70097676D02*
X65690476Y-70192914D01*
X65690476Y-70192914D02*
X65595238Y-70240533D01*
X90333333Y-128954819D02*
X90000000Y-128478628D01*
X89761905Y-128954819D02*
X89761905Y-127954819D01*
X89761905Y-127954819D02*
X90142857Y-127954819D01*
X90142857Y-127954819D02*
X90238095Y-128002438D01*
X90238095Y-128002438D02*
X90285714Y-128050057D01*
X90285714Y-128050057D02*
X90333333Y-128145295D01*
X90333333Y-128145295D02*
X90333333Y-128288152D01*
X90333333Y-128288152D02*
X90285714Y-128383390D01*
X90285714Y-128383390D02*
X90238095Y-128431009D01*
X90238095Y-128431009D02*
X90142857Y-128478628D01*
X90142857Y-128478628D02*
X89761905Y-128478628D01*
X90904762Y-128383390D02*
X90809524Y-128335771D01*
X90809524Y-128335771D02*
X90761905Y-128288152D01*
X90761905Y-128288152D02*
X90714286Y-128192914D01*
X90714286Y-128192914D02*
X90714286Y-128145295D01*
X90714286Y-128145295D02*
X90761905Y-128050057D01*
X90761905Y-128050057D02*
X90809524Y-128002438D01*
X90809524Y-128002438D02*
X90904762Y-127954819D01*
X90904762Y-127954819D02*
X91095238Y-127954819D01*
X91095238Y-127954819D02*
X91190476Y-128002438D01*
X91190476Y-128002438D02*
X91238095Y-128050057D01*
X91238095Y-128050057D02*
X91285714Y-128145295D01*
X91285714Y-128145295D02*
X91285714Y-128192914D01*
X91285714Y-128192914D02*
X91238095Y-128288152D01*
X91238095Y-128288152D02*
X91190476Y-128335771D01*
X91190476Y-128335771D02*
X91095238Y-128383390D01*
X91095238Y-128383390D02*
X90904762Y-128383390D01*
X90904762Y-128383390D02*
X90809524Y-128431009D01*
X90809524Y-128431009D02*
X90761905Y-128478628D01*
X90761905Y-128478628D02*
X90714286Y-128573866D01*
X90714286Y-128573866D02*
X90714286Y-128764342D01*
X90714286Y-128764342D02*
X90761905Y-128859580D01*
X90761905Y-128859580D02*
X90809524Y-128907200D01*
X90809524Y-128907200D02*
X90904762Y-128954819D01*
X90904762Y-128954819D02*
X91095238Y-128954819D01*
X91095238Y-128954819D02*
X91190476Y-128907200D01*
X91190476Y-128907200D02*
X91238095Y-128859580D01*
X91238095Y-128859580D02*
X91285714Y-128764342D01*
X91285714Y-128764342D02*
X91285714Y-128573866D01*
X91285714Y-128573866D02*
X91238095Y-128478628D01*
X91238095Y-128478628D02*
X91190476Y-128431009D01*
X91190476Y-128431009D02*
X91095238Y-128383390D01*
X81206666Y-135761009D02*
X80873333Y-135761009D01*
X80873333Y-136284819D02*
X80873333Y-135284819D01*
X80873333Y-135284819D02*
X81349523Y-135284819D01*
X82254285Y-136284819D02*
X81682857Y-136284819D01*
X81968571Y-136284819D02*
X81968571Y-135284819D01*
X81968571Y-135284819D02*
X81873333Y-135427676D01*
X81873333Y-135427676D02*
X81778095Y-135522914D01*
X81778095Y-135522914D02*
X81682857Y-135570533D01*
X68880952Y-84954819D02*
X68880952Y-83954819D01*
X68880952Y-83954819D02*
X69214285Y-84669104D01*
X69214285Y-84669104D02*
X69547618Y-83954819D01*
X69547618Y-83954819D02*
X69547618Y-84954819D01*
X69785714Y-85050057D02*
X70547618Y-85050057D01*
X70976190Y-84478628D02*
X70976190Y-84954819D01*
X70642857Y-83954819D02*
X70976190Y-84478628D01*
X70976190Y-84478628D02*
X71309523Y-83954819D01*
X72166666Y-84954819D02*
X71595238Y-84954819D01*
X71880952Y-84954819D02*
X71880952Y-83954819D01*
X71880952Y-83954819D02*
X71785714Y-84097676D01*
X71785714Y-84097676D02*
X71690476Y-84192914D01*
X71690476Y-84192914D02*
X71595238Y-84240533D01*
X71119047Y-131454819D02*
X71119047Y-132169104D01*
X71119047Y-132169104D02*
X71071428Y-132311961D01*
X71071428Y-132311961D02*
X70976190Y-132407200D01*
X70976190Y-132407200D02*
X70833333Y-132454819D01*
X70833333Y-132454819D02*
X70738095Y-132454819D01*
X71595238Y-131454819D02*
X71595238Y-132264342D01*
X71595238Y-132264342D02*
X71642857Y-132359580D01*
X71642857Y-132359580D02*
X71690476Y-132407200D01*
X71690476Y-132407200D02*
X71785714Y-132454819D01*
X71785714Y-132454819D02*
X71976190Y-132454819D01*
X71976190Y-132454819D02*
X72071428Y-132407200D01*
X72071428Y-132407200D02*
X72119047Y-132359580D01*
X72119047Y-132359580D02*
X72166666Y-132264342D01*
X72166666Y-132264342D02*
X72166666Y-131454819D01*
X72642857Y-132454819D02*
X72642857Y-131454819D01*
X72642857Y-131454819D02*
X72976190Y-132169104D01*
X72976190Y-132169104D02*
X73309523Y-131454819D01*
X73309523Y-131454819D02*
X73309523Y-132454819D01*
X73785714Y-132454819D02*
X73785714Y-131454819D01*
X73785714Y-131454819D02*
X74166666Y-131454819D01*
X74166666Y-131454819D02*
X74261904Y-131502438D01*
X74261904Y-131502438D02*
X74309523Y-131550057D01*
X74309523Y-131550057D02*
X74357142Y-131645295D01*
X74357142Y-131645295D02*
X74357142Y-131788152D01*
X74357142Y-131788152D02*
X74309523Y-131883390D01*
X74309523Y-131883390D02*
X74261904Y-131931009D01*
X74261904Y-131931009D02*
X74166666Y-131978628D01*
X74166666Y-131978628D02*
X73785714Y-131978628D01*
X74785714Y-131931009D02*
X75119047Y-131931009D01*
X75261904Y-132454819D02*
X74785714Y-132454819D01*
X74785714Y-132454819D02*
X74785714Y-131454819D01*
X74785714Y-131454819D02*
X75261904Y-131454819D01*
X76261904Y-132454819D02*
X75928571Y-131978628D01*
X75690476Y-132454819D02*
X75690476Y-131454819D01*
X75690476Y-131454819D02*
X76071428Y-131454819D01*
X76071428Y-131454819D02*
X76166666Y-131502438D01*
X76166666Y-131502438D02*
X76214285Y-131550057D01*
X76214285Y-131550057D02*
X76261904Y-131645295D01*
X76261904Y-131645295D02*
X76261904Y-131788152D01*
X76261904Y-131788152D02*
X76214285Y-131883390D01*
X76214285Y-131883390D02*
X76166666Y-131931009D01*
X76166666Y-131931009D02*
X76071428Y-131978628D01*
X76071428Y-131978628D02*
X75690476Y-131978628D01*
X76595238Y-131454819D02*
X77214285Y-131454819D01*
X77214285Y-131454819D02*
X76880952Y-131835771D01*
X76880952Y-131835771D02*
X77023809Y-131835771D01*
X77023809Y-131835771D02*
X77119047Y-131883390D01*
X77119047Y-131883390D02*
X77166666Y-131931009D01*
X77166666Y-131931009D02*
X77214285Y-132026247D01*
X77214285Y-132026247D02*
X77214285Y-132264342D01*
X77214285Y-132264342D02*
X77166666Y-132359580D01*
X77166666Y-132359580D02*
X77119047Y-132407200D01*
X77119047Y-132407200D02*
X77023809Y-132454819D01*
X77023809Y-132454819D02*
X76738095Y-132454819D01*
X76738095Y-132454819D02*
X76642857Y-132407200D01*
X76642857Y-132407200D02*
X76595238Y-132359580D01*
X84333333Y-122954819D02*
X84000000Y-122478628D01*
X83761905Y-122954819D02*
X83761905Y-121954819D01*
X83761905Y-121954819D02*
X84142857Y-121954819D01*
X84142857Y-121954819D02*
X84238095Y-122002438D01*
X84238095Y-122002438D02*
X84285714Y-122050057D01*
X84285714Y-122050057D02*
X84333333Y-122145295D01*
X84333333Y-122145295D02*
X84333333Y-122288152D01*
X84333333Y-122288152D02*
X84285714Y-122383390D01*
X84285714Y-122383390D02*
X84238095Y-122431009D01*
X84238095Y-122431009D02*
X84142857Y-122478628D01*
X84142857Y-122478628D02*
X83761905Y-122478628D01*
X84809524Y-122954819D02*
X85000000Y-122954819D01*
X85000000Y-122954819D02*
X85095238Y-122907200D01*
X85095238Y-122907200D02*
X85142857Y-122859580D01*
X85142857Y-122859580D02*
X85238095Y-122716723D01*
X85238095Y-122716723D02*
X85285714Y-122526247D01*
X85285714Y-122526247D02*
X85285714Y-122145295D01*
X85285714Y-122145295D02*
X85238095Y-122050057D01*
X85238095Y-122050057D02*
X85190476Y-122002438D01*
X85190476Y-122002438D02*
X85095238Y-121954819D01*
X85095238Y-121954819D02*
X84904762Y-121954819D01*
X84904762Y-121954819D02*
X84809524Y-122002438D01*
X84809524Y-122002438D02*
X84761905Y-122050057D01*
X84761905Y-122050057D02*
X84714286Y-122145295D01*
X84714286Y-122145295D02*
X84714286Y-122383390D01*
X84714286Y-122383390D02*
X84761905Y-122478628D01*
X84761905Y-122478628D02*
X84809524Y-122526247D01*
X84809524Y-122526247D02*
X84904762Y-122573866D01*
X84904762Y-122573866D02*
X85095238Y-122573866D01*
X85095238Y-122573866D02*
X85190476Y-122526247D01*
X85190476Y-122526247D02*
X85238095Y-122478628D01*
X85238095Y-122478628D02*
X85285714Y-122383390D01*
X63785714Y-122431009D02*
X63452381Y-122431009D01*
X63452381Y-122954819D02*
X63452381Y-121954819D01*
X63452381Y-121954819D02*
X63928571Y-121954819D01*
X64738095Y-122954819D02*
X64738095Y-121954819D01*
X64738095Y-122907200D02*
X64642857Y-122954819D01*
X64642857Y-122954819D02*
X64452381Y-122954819D01*
X64452381Y-122954819D02*
X64357143Y-122907200D01*
X64357143Y-122907200D02*
X64309524Y-122859580D01*
X64309524Y-122859580D02*
X64261905Y-122764342D01*
X64261905Y-122764342D02*
X64261905Y-122478628D01*
X64261905Y-122478628D02*
X64309524Y-122383390D01*
X64309524Y-122383390D02*
X64357143Y-122335771D01*
X64357143Y-122335771D02*
X64452381Y-122288152D01*
X64452381Y-122288152D02*
X64642857Y-122288152D01*
X64642857Y-122288152D02*
X64738095Y-122335771D01*
X65642857Y-122907200D02*
X65547619Y-122954819D01*
X65547619Y-122954819D02*
X65357143Y-122954819D01*
X65357143Y-122954819D02*
X65261905Y-122907200D01*
X65261905Y-122907200D02*
X65214286Y-122859580D01*
X65214286Y-122859580D02*
X65166667Y-122764342D01*
X65166667Y-122764342D02*
X65166667Y-122478628D01*
X65166667Y-122478628D02*
X65214286Y-122383390D01*
X65214286Y-122383390D02*
X65261905Y-122335771D01*
X65261905Y-122335771D02*
X65357143Y-122288152D01*
X65357143Y-122288152D02*
X65547619Y-122288152D01*
X65547619Y-122288152D02*
X65642857Y-122335771D01*
X66595238Y-122954819D02*
X66023810Y-122954819D01*
X66309524Y-122954819D02*
X66309524Y-121954819D01*
X66309524Y-121954819D02*
X66214286Y-122097676D01*
X66214286Y-122097676D02*
X66119048Y-122192914D01*
X66119048Y-122192914D02*
X66023810Y-122240533D01*
X72809047Y-97844819D02*
X72809047Y-98559104D01*
X72809047Y-98559104D02*
X72761428Y-98701961D01*
X72761428Y-98701961D02*
X72666190Y-98797200D01*
X72666190Y-98797200D02*
X72523333Y-98844819D01*
X72523333Y-98844819D02*
X72428095Y-98844819D01*
X73285238Y-97844819D02*
X73285238Y-98654342D01*
X73285238Y-98654342D02*
X73332857Y-98749580D01*
X73332857Y-98749580D02*
X73380476Y-98797200D01*
X73380476Y-98797200D02*
X73475714Y-98844819D01*
X73475714Y-98844819D02*
X73666190Y-98844819D01*
X73666190Y-98844819D02*
X73761428Y-98797200D01*
X73761428Y-98797200D02*
X73809047Y-98749580D01*
X73809047Y-98749580D02*
X73856666Y-98654342D01*
X73856666Y-98654342D02*
X73856666Y-97844819D01*
X74332857Y-98844819D02*
X74332857Y-97844819D01*
X74332857Y-97844819D02*
X74666190Y-98559104D01*
X74666190Y-98559104D02*
X74999523Y-97844819D01*
X74999523Y-97844819D02*
X74999523Y-98844819D01*
X75475714Y-98844819D02*
X75475714Y-97844819D01*
X75475714Y-97844819D02*
X75856666Y-97844819D01*
X75856666Y-97844819D02*
X75951904Y-97892438D01*
X75951904Y-97892438D02*
X75999523Y-97940057D01*
X75999523Y-97940057D02*
X76047142Y-98035295D01*
X76047142Y-98035295D02*
X76047142Y-98178152D01*
X76047142Y-98178152D02*
X75999523Y-98273390D01*
X75999523Y-98273390D02*
X75951904Y-98321009D01*
X75951904Y-98321009D02*
X75856666Y-98368628D01*
X75856666Y-98368628D02*
X75475714Y-98368628D01*
X76475714Y-98321009D02*
X76809047Y-98321009D01*
X76951904Y-98844819D02*
X76475714Y-98844819D01*
X76475714Y-98844819D02*
X76475714Y-97844819D01*
X76475714Y-97844819D02*
X76951904Y-97844819D01*
X77951904Y-98844819D02*
X77618571Y-98368628D01*
X77380476Y-98844819D02*
X77380476Y-97844819D01*
X77380476Y-97844819D02*
X77761428Y-97844819D01*
X77761428Y-97844819D02*
X77856666Y-97892438D01*
X77856666Y-97892438D02*
X77904285Y-97940057D01*
X77904285Y-97940057D02*
X77951904Y-98035295D01*
X77951904Y-98035295D02*
X77951904Y-98178152D01*
X77951904Y-98178152D02*
X77904285Y-98273390D01*
X77904285Y-98273390D02*
X77856666Y-98321009D01*
X77856666Y-98321009D02*
X77761428Y-98368628D01*
X77761428Y-98368628D02*
X77380476Y-98368628D01*
X78809047Y-98178152D02*
X78809047Y-98844819D01*
X78570952Y-97797200D02*
X78332857Y-98511485D01*
X78332857Y-98511485D02*
X78951904Y-98511485D01*
X60333333Y-122359580D02*
X60285714Y-122407200D01*
X60285714Y-122407200D02*
X60142857Y-122454819D01*
X60142857Y-122454819D02*
X60047619Y-122454819D01*
X60047619Y-122454819D02*
X59904762Y-122407200D01*
X59904762Y-122407200D02*
X59809524Y-122311961D01*
X59809524Y-122311961D02*
X59761905Y-122216723D01*
X59761905Y-122216723D02*
X59714286Y-122026247D01*
X59714286Y-122026247D02*
X59714286Y-121883390D01*
X59714286Y-121883390D02*
X59761905Y-121692914D01*
X59761905Y-121692914D02*
X59809524Y-121597676D01*
X59809524Y-121597676D02*
X59904762Y-121502438D01*
X59904762Y-121502438D02*
X60047619Y-121454819D01*
X60047619Y-121454819D02*
X60142857Y-121454819D01*
X60142857Y-121454819D02*
X60285714Y-121502438D01*
X60285714Y-121502438D02*
X60333333Y-121550057D01*
X60666667Y-121454819D02*
X61285714Y-121454819D01*
X61285714Y-121454819D02*
X60952381Y-121835771D01*
X60952381Y-121835771D02*
X61095238Y-121835771D01*
X61095238Y-121835771D02*
X61190476Y-121883390D01*
X61190476Y-121883390D02*
X61238095Y-121931009D01*
X61238095Y-121931009D02*
X61285714Y-122026247D01*
X61285714Y-122026247D02*
X61285714Y-122264342D01*
X61285714Y-122264342D02*
X61238095Y-122359580D01*
X61238095Y-122359580D02*
X61190476Y-122407200D01*
X61190476Y-122407200D02*
X61095238Y-122454819D01*
X61095238Y-122454819D02*
X60809524Y-122454819D01*
X60809524Y-122454819D02*
X60714286Y-122407200D01*
X60714286Y-122407200D02*
X60666667Y-122359580D01*
X101761905Y-114954819D02*
X101761905Y-113954819D01*
X101761905Y-113954819D02*
X102000000Y-113954819D01*
X102000000Y-113954819D02*
X102142857Y-114002438D01*
X102142857Y-114002438D02*
X102238095Y-114097676D01*
X102238095Y-114097676D02*
X102285714Y-114192914D01*
X102285714Y-114192914D02*
X102333333Y-114383390D01*
X102333333Y-114383390D02*
X102333333Y-114526247D01*
X102333333Y-114526247D02*
X102285714Y-114716723D01*
X102285714Y-114716723D02*
X102238095Y-114811961D01*
X102238095Y-114811961D02*
X102142857Y-114907200D01*
X102142857Y-114907200D02*
X102000000Y-114954819D01*
X102000000Y-114954819D02*
X101761905Y-114954819D01*
X102714286Y-114050057D02*
X102761905Y-114002438D01*
X102761905Y-114002438D02*
X102857143Y-113954819D01*
X102857143Y-113954819D02*
X103095238Y-113954819D01*
X103095238Y-113954819D02*
X103190476Y-114002438D01*
X103190476Y-114002438D02*
X103238095Y-114050057D01*
X103238095Y-114050057D02*
X103285714Y-114145295D01*
X103285714Y-114145295D02*
X103285714Y-114240533D01*
X103285714Y-114240533D02*
X103238095Y-114383390D01*
X103238095Y-114383390D02*
X102666667Y-114954819D01*
X102666667Y-114954819D02*
X103285714Y-114954819D01*
X97299642Y-109819580D02*
X97252023Y-109867200D01*
X97252023Y-109867200D02*
X97109166Y-109914819D01*
X97109166Y-109914819D02*
X97013928Y-109914819D01*
X97013928Y-109914819D02*
X96871071Y-109867200D01*
X96871071Y-109867200D02*
X96775833Y-109771961D01*
X96775833Y-109771961D02*
X96728214Y-109676723D01*
X96728214Y-109676723D02*
X96680595Y-109486247D01*
X96680595Y-109486247D02*
X96680595Y-109343390D01*
X96680595Y-109343390D02*
X96728214Y-109152914D01*
X96728214Y-109152914D02*
X96775833Y-109057676D01*
X96775833Y-109057676D02*
X96871071Y-108962438D01*
X96871071Y-108962438D02*
X97013928Y-108914819D01*
X97013928Y-108914819D02*
X97109166Y-108914819D01*
X97109166Y-108914819D02*
X97252023Y-108962438D01*
X97252023Y-108962438D02*
X97299642Y-109010057D01*
X98252023Y-109914819D02*
X97680595Y-109914819D01*
X97966309Y-109914819D02*
X97966309Y-108914819D01*
X97966309Y-108914819D02*
X97871071Y-109057676D01*
X97871071Y-109057676D02*
X97775833Y-109152914D01*
X97775833Y-109152914D02*
X97680595Y-109200533D01*
X99204404Y-109914819D02*
X98632976Y-109914819D01*
X98918690Y-109914819D02*
X98918690Y-108914819D01*
X98918690Y-108914819D02*
X98823452Y-109057676D01*
X98823452Y-109057676D02*
X98728214Y-109152914D01*
X98728214Y-109152914D02*
X98632976Y-109200533D01*
X83815714Y-75049104D02*
X84291904Y-75049104D01*
X83720476Y-75334819D02*
X84053809Y-74334819D01*
X84053809Y-74334819D02*
X84387142Y-75334819D01*
X84672857Y-74430057D02*
X84720476Y-74382438D01*
X84720476Y-74382438D02*
X84815714Y-74334819D01*
X84815714Y-74334819D02*
X85053809Y-74334819D01*
X85053809Y-74334819D02*
X85149047Y-74382438D01*
X85149047Y-74382438D02*
X85196666Y-74430057D01*
X85196666Y-74430057D02*
X85244285Y-74525295D01*
X85244285Y-74525295D02*
X85244285Y-74620533D01*
X85244285Y-74620533D02*
X85196666Y-74763390D01*
X85196666Y-74763390D02*
X84625238Y-75334819D01*
X84625238Y-75334819D02*
X85244285Y-75334819D01*
X63785714Y-126931009D02*
X63452381Y-126931009D01*
X63452381Y-127454819D02*
X63452381Y-126454819D01*
X63452381Y-126454819D02*
X63928571Y-126454819D01*
X64738095Y-127454819D02*
X64738095Y-126454819D01*
X64738095Y-127407200D02*
X64642857Y-127454819D01*
X64642857Y-127454819D02*
X64452381Y-127454819D01*
X64452381Y-127454819D02*
X64357143Y-127407200D01*
X64357143Y-127407200D02*
X64309524Y-127359580D01*
X64309524Y-127359580D02*
X64261905Y-127264342D01*
X64261905Y-127264342D02*
X64261905Y-126978628D01*
X64261905Y-126978628D02*
X64309524Y-126883390D01*
X64309524Y-126883390D02*
X64357143Y-126835771D01*
X64357143Y-126835771D02*
X64452381Y-126788152D01*
X64452381Y-126788152D02*
X64642857Y-126788152D01*
X64642857Y-126788152D02*
X64738095Y-126835771D01*
X65642857Y-127407200D02*
X65547619Y-127454819D01*
X65547619Y-127454819D02*
X65357143Y-127454819D01*
X65357143Y-127454819D02*
X65261905Y-127407200D01*
X65261905Y-127407200D02*
X65214286Y-127359580D01*
X65214286Y-127359580D02*
X65166667Y-127264342D01*
X65166667Y-127264342D02*
X65166667Y-126978628D01*
X65166667Y-126978628D02*
X65214286Y-126883390D01*
X65214286Y-126883390D02*
X65261905Y-126835771D01*
X65261905Y-126835771D02*
X65357143Y-126788152D01*
X65357143Y-126788152D02*
X65547619Y-126788152D01*
X65547619Y-126788152D02*
X65642857Y-126835771D01*
X66023810Y-126550057D02*
X66071429Y-126502438D01*
X66071429Y-126502438D02*
X66166667Y-126454819D01*
X66166667Y-126454819D02*
X66404762Y-126454819D01*
X66404762Y-126454819D02*
X66500000Y-126502438D01*
X66500000Y-126502438D02*
X66547619Y-126550057D01*
X66547619Y-126550057D02*
X66595238Y-126645295D01*
X66595238Y-126645295D02*
X66595238Y-126740533D01*
X66595238Y-126740533D02*
X66547619Y-126883390D01*
X66547619Y-126883390D02*
X65976191Y-127454819D01*
X65976191Y-127454819D02*
X66595238Y-127454819D01*
X83833333Y-93954819D02*
X83500000Y-93478628D01*
X83261905Y-93954819D02*
X83261905Y-92954819D01*
X83261905Y-92954819D02*
X83642857Y-92954819D01*
X83642857Y-92954819D02*
X83738095Y-93002438D01*
X83738095Y-93002438D02*
X83785714Y-93050057D01*
X83785714Y-93050057D02*
X83833333Y-93145295D01*
X83833333Y-93145295D02*
X83833333Y-93288152D01*
X83833333Y-93288152D02*
X83785714Y-93383390D01*
X83785714Y-93383390D02*
X83738095Y-93431009D01*
X83738095Y-93431009D02*
X83642857Y-93478628D01*
X83642857Y-93478628D02*
X83261905Y-93478628D01*
X84690476Y-92954819D02*
X84500000Y-92954819D01*
X84500000Y-92954819D02*
X84404762Y-93002438D01*
X84404762Y-93002438D02*
X84357143Y-93050057D01*
X84357143Y-93050057D02*
X84261905Y-93192914D01*
X84261905Y-93192914D02*
X84214286Y-93383390D01*
X84214286Y-93383390D02*
X84214286Y-93764342D01*
X84214286Y-93764342D02*
X84261905Y-93859580D01*
X84261905Y-93859580D02*
X84309524Y-93907200D01*
X84309524Y-93907200D02*
X84404762Y-93954819D01*
X84404762Y-93954819D02*
X84595238Y-93954819D01*
X84595238Y-93954819D02*
X84690476Y-93907200D01*
X84690476Y-93907200D02*
X84738095Y-93859580D01*
X84738095Y-93859580D02*
X84785714Y-93764342D01*
X84785714Y-93764342D02*
X84785714Y-93526247D01*
X84785714Y-93526247D02*
X84738095Y-93431009D01*
X84738095Y-93431009D02*
X84690476Y-93383390D01*
X84690476Y-93383390D02*
X84595238Y-93335771D01*
X84595238Y-93335771D02*
X84404762Y-93335771D01*
X84404762Y-93335771D02*
X84309524Y-93383390D01*
X84309524Y-93383390D02*
X84261905Y-93431009D01*
X84261905Y-93431009D02*
X84214286Y-93526247D01*
X70833333Y-106859580D02*
X70785714Y-106907200D01*
X70785714Y-106907200D02*
X70642857Y-106954819D01*
X70642857Y-106954819D02*
X70547619Y-106954819D01*
X70547619Y-106954819D02*
X70404762Y-106907200D01*
X70404762Y-106907200D02*
X70309524Y-106811961D01*
X70309524Y-106811961D02*
X70261905Y-106716723D01*
X70261905Y-106716723D02*
X70214286Y-106526247D01*
X70214286Y-106526247D02*
X70214286Y-106383390D01*
X70214286Y-106383390D02*
X70261905Y-106192914D01*
X70261905Y-106192914D02*
X70309524Y-106097676D01*
X70309524Y-106097676D02*
X70404762Y-106002438D01*
X70404762Y-106002438D02*
X70547619Y-105954819D01*
X70547619Y-105954819D02*
X70642857Y-105954819D01*
X70642857Y-105954819D02*
X70785714Y-106002438D01*
X70785714Y-106002438D02*
X70833333Y-106050057D01*
X71309524Y-106954819D02*
X71500000Y-106954819D01*
X71500000Y-106954819D02*
X71595238Y-106907200D01*
X71595238Y-106907200D02*
X71642857Y-106859580D01*
X71642857Y-106859580D02*
X71738095Y-106716723D01*
X71738095Y-106716723D02*
X71785714Y-106526247D01*
X71785714Y-106526247D02*
X71785714Y-106145295D01*
X71785714Y-106145295D02*
X71738095Y-106050057D01*
X71738095Y-106050057D02*
X71690476Y-106002438D01*
X71690476Y-106002438D02*
X71595238Y-105954819D01*
X71595238Y-105954819D02*
X71404762Y-105954819D01*
X71404762Y-105954819D02*
X71309524Y-106002438D01*
X71309524Y-106002438D02*
X71261905Y-106050057D01*
X71261905Y-106050057D02*
X71214286Y-106145295D01*
X71214286Y-106145295D02*
X71214286Y-106383390D01*
X71214286Y-106383390D02*
X71261905Y-106478628D01*
X71261905Y-106478628D02*
X71309524Y-106526247D01*
X71309524Y-106526247D02*
X71404762Y-106573866D01*
X71404762Y-106573866D02*
X71595238Y-106573866D01*
X71595238Y-106573866D02*
X71690476Y-106526247D01*
X71690476Y-106526247D02*
X71738095Y-106478628D01*
X71738095Y-106478628D02*
X71785714Y-106383390D01*
X101761905Y-108954819D02*
X101761905Y-107954819D01*
X101761905Y-107954819D02*
X102000000Y-107954819D01*
X102000000Y-107954819D02*
X102142857Y-108002438D01*
X102142857Y-108002438D02*
X102238095Y-108097676D01*
X102238095Y-108097676D02*
X102285714Y-108192914D01*
X102285714Y-108192914D02*
X102333333Y-108383390D01*
X102333333Y-108383390D02*
X102333333Y-108526247D01*
X102333333Y-108526247D02*
X102285714Y-108716723D01*
X102285714Y-108716723D02*
X102238095Y-108811961D01*
X102238095Y-108811961D02*
X102142857Y-108907200D01*
X102142857Y-108907200D02*
X102000000Y-108954819D01*
X102000000Y-108954819D02*
X101761905Y-108954819D01*
X103285714Y-108954819D02*
X102714286Y-108954819D01*
X103000000Y-108954819D02*
X103000000Y-107954819D01*
X103000000Y-107954819D02*
X102904762Y-108097676D01*
X102904762Y-108097676D02*
X102809524Y-108192914D01*
X102809524Y-108192914D02*
X102714286Y-108240533D01*
X51833333Y-114509580D02*
X51785714Y-114557200D01*
X51785714Y-114557200D02*
X51642857Y-114604819D01*
X51642857Y-114604819D02*
X51547619Y-114604819D01*
X51547619Y-114604819D02*
X51404762Y-114557200D01*
X51404762Y-114557200D02*
X51309524Y-114461961D01*
X51309524Y-114461961D02*
X51261905Y-114366723D01*
X51261905Y-114366723D02*
X51214286Y-114176247D01*
X51214286Y-114176247D02*
X51214286Y-114033390D01*
X51214286Y-114033390D02*
X51261905Y-113842914D01*
X51261905Y-113842914D02*
X51309524Y-113747676D01*
X51309524Y-113747676D02*
X51404762Y-113652438D01*
X51404762Y-113652438D02*
X51547619Y-113604819D01*
X51547619Y-113604819D02*
X51642857Y-113604819D01*
X51642857Y-113604819D02*
X51785714Y-113652438D01*
X51785714Y-113652438D02*
X51833333Y-113700057D01*
X52690476Y-113604819D02*
X52500000Y-113604819D01*
X52500000Y-113604819D02*
X52404762Y-113652438D01*
X52404762Y-113652438D02*
X52357143Y-113700057D01*
X52357143Y-113700057D02*
X52261905Y-113842914D01*
X52261905Y-113842914D02*
X52214286Y-114033390D01*
X52214286Y-114033390D02*
X52214286Y-114414342D01*
X52214286Y-114414342D02*
X52261905Y-114509580D01*
X52261905Y-114509580D02*
X52309524Y-114557200D01*
X52309524Y-114557200D02*
X52404762Y-114604819D01*
X52404762Y-114604819D02*
X52595238Y-114604819D01*
X52595238Y-114604819D02*
X52690476Y-114557200D01*
X52690476Y-114557200D02*
X52738095Y-114509580D01*
X52738095Y-114509580D02*
X52785714Y-114414342D01*
X52785714Y-114414342D02*
X52785714Y-114176247D01*
X52785714Y-114176247D02*
X52738095Y-114081009D01*
X52738095Y-114081009D02*
X52690476Y-114033390D01*
X52690476Y-114033390D02*
X52595238Y-113985771D01*
X52595238Y-113985771D02*
X52404762Y-113985771D01*
X52404762Y-113985771D02*
X52309524Y-114033390D01*
X52309524Y-114033390D02*
X52261905Y-114081009D01*
X52261905Y-114081009D02*
X52214286Y-114176247D01*
X67333333Y-76859580D02*
X67285714Y-76907200D01*
X67285714Y-76907200D02*
X67142857Y-76954819D01*
X67142857Y-76954819D02*
X67047619Y-76954819D01*
X67047619Y-76954819D02*
X66904762Y-76907200D01*
X66904762Y-76907200D02*
X66809524Y-76811961D01*
X66809524Y-76811961D02*
X66761905Y-76716723D01*
X66761905Y-76716723D02*
X66714286Y-76526247D01*
X66714286Y-76526247D02*
X66714286Y-76383390D01*
X66714286Y-76383390D02*
X66761905Y-76192914D01*
X66761905Y-76192914D02*
X66809524Y-76097676D01*
X66809524Y-76097676D02*
X66904762Y-76002438D01*
X66904762Y-76002438D02*
X67047619Y-75954819D01*
X67047619Y-75954819D02*
X67142857Y-75954819D01*
X67142857Y-75954819D02*
X67285714Y-76002438D01*
X67285714Y-76002438D02*
X67333333Y-76050057D01*
X68238095Y-75954819D02*
X67761905Y-75954819D01*
X67761905Y-75954819D02*
X67714286Y-76431009D01*
X67714286Y-76431009D02*
X67761905Y-76383390D01*
X67761905Y-76383390D02*
X67857143Y-76335771D01*
X67857143Y-76335771D02*
X68095238Y-76335771D01*
X68095238Y-76335771D02*
X68190476Y-76383390D01*
X68190476Y-76383390D02*
X68238095Y-76431009D01*
X68238095Y-76431009D02*
X68285714Y-76526247D01*
X68285714Y-76526247D02*
X68285714Y-76764342D01*
X68285714Y-76764342D02*
X68238095Y-76859580D01*
X68238095Y-76859580D02*
X68190476Y-76907200D01*
X68190476Y-76907200D02*
X68095238Y-76954819D01*
X68095238Y-76954819D02*
X67857143Y-76954819D01*
X67857143Y-76954819D02*
X67761905Y-76907200D01*
X67761905Y-76907200D02*
X67714286Y-76859580D01*
X64619047Y-124859580D02*
X64571428Y-124907200D01*
X64571428Y-124907200D02*
X64428571Y-124954819D01*
X64428571Y-124954819D02*
X64333333Y-124954819D01*
X64333333Y-124954819D02*
X64190476Y-124907200D01*
X64190476Y-124907200D02*
X64095238Y-124811961D01*
X64095238Y-124811961D02*
X64047619Y-124716723D01*
X64047619Y-124716723D02*
X64000000Y-124526247D01*
X64000000Y-124526247D02*
X64000000Y-124383390D01*
X64000000Y-124383390D02*
X64047619Y-124192914D01*
X64047619Y-124192914D02*
X64095238Y-124097676D01*
X64095238Y-124097676D02*
X64190476Y-124002438D01*
X64190476Y-124002438D02*
X64333333Y-123954819D01*
X64333333Y-123954819D02*
X64428571Y-123954819D01*
X64428571Y-123954819D02*
X64571428Y-124002438D01*
X64571428Y-124002438D02*
X64619047Y-124050057D01*
X65047619Y-124954819D02*
X65047619Y-124288152D01*
X65047619Y-124478628D02*
X65095238Y-124383390D01*
X65095238Y-124383390D02*
X65142857Y-124335771D01*
X65142857Y-124335771D02*
X65238095Y-124288152D01*
X65238095Y-124288152D02*
X65333333Y-124288152D01*
X66095238Y-124954819D02*
X66095238Y-124431009D01*
X66095238Y-124431009D02*
X66047619Y-124335771D01*
X66047619Y-124335771D02*
X65952381Y-124288152D01*
X65952381Y-124288152D02*
X65761905Y-124288152D01*
X65761905Y-124288152D02*
X65666667Y-124335771D01*
X66095238Y-124907200D02*
X66000000Y-124954819D01*
X66000000Y-124954819D02*
X65761905Y-124954819D01*
X65761905Y-124954819D02*
X65666667Y-124907200D01*
X65666667Y-124907200D02*
X65619048Y-124811961D01*
X65619048Y-124811961D02*
X65619048Y-124716723D01*
X65619048Y-124716723D02*
X65666667Y-124621485D01*
X65666667Y-124621485D02*
X65761905Y-124573866D01*
X65761905Y-124573866D02*
X66000000Y-124573866D01*
X66000000Y-124573866D02*
X66095238Y-124526247D01*
X67000000Y-124954819D02*
X67000000Y-123954819D01*
X67000000Y-124907200D02*
X66904762Y-124954819D01*
X66904762Y-124954819D02*
X66714286Y-124954819D01*
X66714286Y-124954819D02*
X66619048Y-124907200D01*
X66619048Y-124907200D02*
X66571429Y-124859580D01*
X66571429Y-124859580D02*
X66523810Y-124764342D01*
X66523810Y-124764342D02*
X66523810Y-124478628D01*
X66523810Y-124478628D02*
X66571429Y-124383390D01*
X66571429Y-124383390D02*
X66619048Y-124335771D01*
X66619048Y-124335771D02*
X66714286Y-124288152D01*
X66714286Y-124288152D02*
X66904762Y-124288152D01*
X66904762Y-124288152D02*
X67000000Y-124335771D01*
X68000000Y-124954819D02*
X67428572Y-124954819D01*
X67714286Y-124954819D02*
X67714286Y-123954819D01*
X67714286Y-123954819D02*
X67619048Y-124097676D01*
X67619048Y-124097676D02*
X67523810Y-124192914D01*
X67523810Y-124192914D02*
X67428572Y-124240533D01*
X73857142Y-127454819D02*
X73523809Y-126978628D01*
X73285714Y-127454819D02*
X73285714Y-126454819D01*
X73285714Y-126454819D02*
X73666666Y-126454819D01*
X73666666Y-126454819D02*
X73761904Y-126502438D01*
X73761904Y-126502438D02*
X73809523Y-126550057D01*
X73809523Y-126550057D02*
X73857142Y-126645295D01*
X73857142Y-126645295D02*
X73857142Y-126788152D01*
X73857142Y-126788152D02*
X73809523Y-126883390D01*
X73809523Y-126883390D02*
X73761904Y-126931009D01*
X73761904Y-126931009D02*
X73666666Y-126978628D01*
X73666666Y-126978628D02*
X73285714Y-126978628D01*
X74809523Y-127454819D02*
X74238095Y-127454819D01*
X74523809Y-127454819D02*
X74523809Y-126454819D01*
X74523809Y-126454819D02*
X74428571Y-126597676D01*
X74428571Y-126597676D02*
X74333333Y-126692914D01*
X74333333Y-126692914D02*
X74238095Y-126740533D01*
X75428571Y-126454819D02*
X75523809Y-126454819D01*
X75523809Y-126454819D02*
X75619047Y-126502438D01*
X75619047Y-126502438D02*
X75666666Y-126550057D01*
X75666666Y-126550057D02*
X75714285Y-126645295D01*
X75714285Y-126645295D02*
X75761904Y-126835771D01*
X75761904Y-126835771D02*
X75761904Y-127073866D01*
X75761904Y-127073866D02*
X75714285Y-127264342D01*
X75714285Y-127264342D02*
X75666666Y-127359580D01*
X75666666Y-127359580D02*
X75619047Y-127407200D01*
X75619047Y-127407200D02*
X75523809Y-127454819D01*
X75523809Y-127454819D02*
X75428571Y-127454819D01*
X75428571Y-127454819D02*
X75333333Y-127407200D01*
X75333333Y-127407200D02*
X75285714Y-127359580D01*
X75285714Y-127359580D02*
X75238095Y-127264342D01*
X75238095Y-127264342D02*
X75190476Y-127073866D01*
X75190476Y-127073866D02*
X75190476Y-126835771D01*
X75190476Y-126835771D02*
X75238095Y-126645295D01*
X75238095Y-126645295D02*
X75285714Y-126550057D01*
X75285714Y-126550057D02*
X75333333Y-126502438D01*
X75333333Y-126502438D02*
X75428571Y-126454819D01*
X73833333Y-134859580D02*
X73785714Y-134907200D01*
X73785714Y-134907200D02*
X73642857Y-134954819D01*
X73642857Y-134954819D02*
X73547619Y-134954819D01*
X73547619Y-134954819D02*
X73404762Y-134907200D01*
X73404762Y-134907200D02*
X73309524Y-134811961D01*
X73309524Y-134811961D02*
X73261905Y-134716723D01*
X73261905Y-134716723D02*
X73214286Y-134526247D01*
X73214286Y-134526247D02*
X73214286Y-134383390D01*
X73214286Y-134383390D02*
X73261905Y-134192914D01*
X73261905Y-134192914D02*
X73309524Y-134097676D01*
X73309524Y-134097676D02*
X73404762Y-134002438D01*
X73404762Y-134002438D02*
X73547619Y-133954819D01*
X73547619Y-133954819D02*
X73642857Y-133954819D01*
X73642857Y-133954819D02*
X73785714Y-134002438D01*
X73785714Y-134002438D02*
X73833333Y-134050057D01*
X74785714Y-134954819D02*
X74214286Y-134954819D01*
X74500000Y-134954819D02*
X74500000Y-133954819D01*
X74500000Y-133954819D02*
X74404762Y-134097676D01*
X74404762Y-134097676D02*
X74309524Y-134192914D01*
X74309524Y-134192914D02*
X74214286Y-134240533D01*
X55571428Y-139454819D02*
X55761904Y-139454819D01*
X55761904Y-139454819D02*
X55857142Y-139502438D01*
X55857142Y-139502438D02*
X55952380Y-139597676D01*
X55952380Y-139597676D02*
X55999999Y-139788152D01*
X55999999Y-139788152D02*
X55999999Y-140121485D01*
X55999999Y-140121485D02*
X55952380Y-140311961D01*
X55952380Y-140311961D02*
X55857142Y-140407200D01*
X55857142Y-140407200D02*
X55761904Y-140454819D01*
X55761904Y-140454819D02*
X55571428Y-140454819D01*
X55571428Y-140454819D02*
X55476190Y-140407200D01*
X55476190Y-140407200D02*
X55380952Y-140311961D01*
X55380952Y-140311961D02*
X55333333Y-140121485D01*
X55333333Y-140121485D02*
X55333333Y-139788152D01*
X55333333Y-139788152D02*
X55380952Y-139597676D01*
X55380952Y-139597676D02*
X55476190Y-139502438D01*
X55476190Y-139502438D02*
X55571428Y-139454819D01*
X56904761Y-140454819D02*
X56428571Y-140454819D01*
X56428571Y-140454819D02*
X56428571Y-139454819D01*
X57238095Y-139931009D02*
X57571428Y-139931009D01*
X57714285Y-140454819D02*
X57238095Y-140454819D01*
X57238095Y-140454819D02*
X57238095Y-139454819D01*
X57238095Y-139454819D02*
X57714285Y-139454819D01*
X58142857Y-140454819D02*
X58142857Y-139454819D01*
X58142857Y-139454819D02*
X58380952Y-139454819D01*
X58380952Y-139454819D02*
X58523809Y-139502438D01*
X58523809Y-139502438D02*
X58619047Y-139597676D01*
X58619047Y-139597676D02*
X58666666Y-139692914D01*
X58666666Y-139692914D02*
X58714285Y-139883390D01*
X58714285Y-139883390D02*
X58714285Y-140026247D01*
X58714285Y-140026247D02*
X58666666Y-140216723D01*
X58666666Y-140216723D02*
X58619047Y-140311961D01*
X58619047Y-140311961D02*
X58523809Y-140407200D01*
X58523809Y-140407200D02*
X58380952Y-140454819D01*
X58380952Y-140454819D02*
X58142857Y-140454819D01*
X59666666Y-140454819D02*
X59095238Y-140454819D01*
X59380952Y-140454819D02*
X59380952Y-139454819D01*
X59380952Y-139454819D02*
X59285714Y-139597676D01*
X59285714Y-139597676D02*
X59190476Y-139692914D01*
X59190476Y-139692914D02*
X59095238Y-139740533D01*
X66465595Y-145277319D02*
X66465595Y-146086842D01*
X66465595Y-146086842D02*
X66513214Y-146182080D01*
X66513214Y-146182080D02*
X66560833Y-146229700D01*
X66560833Y-146229700D02*
X66656071Y-146277319D01*
X66656071Y-146277319D02*
X66846547Y-146277319D01*
X66846547Y-146277319D02*
X66941785Y-146229700D01*
X66941785Y-146229700D02*
X66989404Y-146182080D01*
X66989404Y-146182080D02*
X67037023Y-146086842D01*
X67037023Y-146086842D02*
X67037023Y-145277319D01*
X67465595Y-145372557D02*
X67513214Y-145324938D01*
X67513214Y-145324938D02*
X67608452Y-145277319D01*
X67608452Y-145277319D02*
X67846547Y-145277319D01*
X67846547Y-145277319D02*
X67941785Y-145324938D01*
X67941785Y-145324938D02*
X67989404Y-145372557D01*
X67989404Y-145372557D02*
X68037023Y-145467795D01*
X68037023Y-145467795D02*
X68037023Y-145563033D01*
X68037023Y-145563033D02*
X67989404Y-145705890D01*
X67989404Y-145705890D02*
X67417976Y-146277319D01*
X67417976Y-146277319D02*
X68037023Y-146277319D01*
X56333333Y-137954819D02*
X56000000Y-137478628D01*
X55761905Y-137954819D02*
X55761905Y-136954819D01*
X55761905Y-136954819D02*
X56142857Y-136954819D01*
X56142857Y-136954819D02*
X56238095Y-137002438D01*
X56238095Y-137002438D02*
X56285714Y-137050057D01*
X56285714Y-137050057D02*
X56333333Y-137145295D01*
X56333333Y-137145295D02*
X56333333Y-137288152D01*
X56333333Y-137288152D02*
X56285714Y-137383390D01*
X56285714Y-137383390D02*
X56238095Y-137431009D01*
X56238095Y-137431009D02*
X56142857Y-137478628D01*
X56142857Y-137478628D02*
X55761905Y-137478628D01*
X56666667Y-136954819D02*
X57285714Y-136954819D01*
X57285714Y-136954819D02*
X56952381Y-137335771D01*
X56952381Y-137335771D02*
X57095238Y-137335771D01*
X57095238Y-137335771D02*
X57190476Y-137383390D01*
X57190476Y-137383390D02*
X57238095Y-137431009D01*
X57238095Y-137431009D02*
X57285714Y-137526247D01*
X57285714Y-137526247D02*
X57285714Y-137764342D01*
X57285714Y-137764342D02*
X57238095Y-137859580D01*
X57238095Y-137859580D02*
X57190476Y-137907200D01*
X57190476Y-137907200D02*
X57095238Y-137954819D01*
X57095238Y-137954819D02*
X56809524Y-137954819D01*
X56809524Y-137954819D02*
X56714286Y-137907200D01*
X56714286Y-137907200D02*
X56666667Y-137859580D01*
X56333333Y-119407200D02*
X56476190Y-119454819D01*
X56476190Y-119454819D02*
X56714285Y-119454819D01*
X56714285Y-119454819D02*
X56809523Y-119407200D01*
X56809523Y-119407200D02*
X56857142Y-119359580D01*
X56857142Y-119359580D02*
X56904761Y-119264342D01*
X56904761Y-119264342D02*
X56904761Y-119169104D01*
X56904761Y-119169104D02*
X56857142Y-119073866D01*
X56857142Y-119073866D02*
X56809523Y-119026247D01*
X56809523Y-119026247D02*
X56714285Y-118978628D01*
X56714285Y-118978628D02*
X56523809Y-118931009D01*
X56523809Y-118931009D02*
X56428571Y-118883390D01*
X56428571Y-118883390D02*
X56380952Y-118835771D01*
X56380952Y-118835771D02*
X56333333Y-118740533D01*
X56333333Y-118740533D02*
X56333333Y-118645295D01*
X56333333Y-118645295D02*
X56380952Y-118550057D01*
X56380952Y-118550057D02*
X56428571Y-118502438D01*
X56428571Y-118502438D02*
X56523809Y-118454819D01*
X56523809Y-118454819D02*
X56761904Y-118454819D01*
X56761904Y-118454819D02*
X56904761Y-118502438D01*
X57333333Y-118931009D02*
X57666666Y-118931009D01*
X57809523Y-119454819D02*
X57333333Y-119454819D01*
X57333333Y-119454819D02*
X57333333Y-118454819D01*
X57333333Y-118454819D02*
X57809523Y-118454819D01*
X58809523Y-119454819D02*
X58476190Y-118978628D01*
X58238095Y-119454819D02*
X58238095Y-118454819D01*
X58238095Y-118454819D02*
X58619047Y-118454819D01*
X58619047Y-118454819D02*
X58714285Y-118502438D01*
X58714285Y-118502438D02*
X58761904Y-118550057D01*
X58761904Y-118550057D02*
X58809523Y-118645295D01*
X58809523Y-118645295D02*
X58809523Y-118788152D01*
X58809523Y-118788152D02*
X58761904Y-118883390D01*
X58761904Y-118883390D02*
X58714285Y-118931009D01*
X58714285Y-118931009D02*
X58619047Y-118978628D01*
X58619047Y-118978628D02*
X58238095Y-118978628D01*
X59095238Y-118454819D02*
X59428571Y-119454819D01*
X59428571Y-119454819D02*
X59761904Y-118454819D01*
X60285714Y-118454819D02*
X60476190Y-118454819D01*
X60476190Y-118454819D02*
X60571428Y-118502438D01*
X60571428Y-118502438D02*
X60666666Y-118597676D01*
X60666666Y-118597676D02*
X60714285Y-118788152D01*
X60714285Y-118788152D02*
X60714285Y-119121485D01*
X60714285Y-119121485D02*
X60666666Y-119311961D01*
X60666666Y-119311961D02*
X60571428Y-119407200D01*
X60571428Y-119407200D02*
X60476190Y-119454819D01*
X60476190Y-119454819D02*
X60285714Y-119454819D01*
X60285714Y-119454819D02*
X60190476Y-119407200D01*
X60190476Y-119407200D02*
X60095238Y-119311961D01*
X60095238Y-119311961D02*
X60047619Y-119121485D01*
X60047619Y-119121485D02*
X60047619Y-118788152D01*
X60047619Y-118788152D02*
X60095238Y-118597676D01*
X60095238Y-118597676D02*
X60190476Y-118502438D01*
X60190476Y-118502438D02*
X60285714Y-118454819D01*
X61666666Y-119454819D02*
X61095238Y-119454819D01*
X61380952Y-119454819D02*
X61380952Y-118454819D01*
X61380952Y-118454819D02*
X61285714Y-118597676D01*
X61285714Y-118597676D02*
X61190476Y-118692914D01*
X61190476Y-118692914D02*
X61095238Y-118740533D01*
X91333333Y-98064819D02*
X91000000Y-97588628D01*
X90761905Y-98064819D02*
X90761905Y-97064819D01*
X90761905Y-97064819D02*
X91142857Y-97064819D01*
X91142857Y-97064819D02*
X91238095Y-97112438D01*
X91238095Y-97112438D02*
X91285714Y-97160057D01*
X91285714Y-97160057D02*
X91333333Y-97255295D01*
X91333333Y-97255295D02*
X91333333Y-97398152D01*
X91333333Y-97398152D02*
X91285714Y-97493390D01*
X91285714Y-97493390D02*
X91238095Y-97541009D01*
X91238095Y-97541009D02*
X91142857Y-97588628D01*
X91142857Y-97588628D02*
X90761905Y-97588628D01*
X91666667Y-97064819D02*
X92333333Y-97064819D01*
X92333333Y-97064819D02*
X91904762Y-98064819D01*
X63833333Y-113954819D02*
X63833333Y-112954819D01*
X63833333Y-112954819D02*
X64166666Y-113669104D01*
X64166666Y-113669104D02*
X64499999Y-112954819D01*
X64499999Y-112954819D02*
X64499999Y-113954819D01*
X64738095Y-114050057D02*
X65499999Y-114050057D01*
X65642857Y-112954819D02*
X66309523Y-113954819D01*
X66309523Y-112954819D02*
X65642857Y-113954819D01*
X67214285Y-113954819D02*
X66642857Y-113954819D01*
X66928571Y-113954819D02*
X66928571Y-112954819D01*
X66928571Y-112954819D02*
X66833333Y-113097676D01*
X66833333Y-113097676D02*
X66738095Y-113192914D01*
X66738095Y-113192914D02*
X66642857Y-113240533D01*
X64857142Y-132359580D02*
X64809523Y-132407200D01*
X64809523Y-132407200D02*
X64666666Y-132454819D01*
X64666666Y-132454819D02*
X64571428Y-132454819D01*
X64571428Y-132454819D02*
X64428571Y-132407200D01*
X64428571Y-132407200D02*
X64333333Y-132311961D01*
X64333333Y-132311961D02*
X64285714Y-132216723D01*
X64285714Y-132216723D02*
X64238095Y-132026247D01*
X64238095Y-132026247D02*
X64238095Y-131883390D01*
X64238095Y-131883390D02*
X64285714Y-131692914D01*
X64285714Y-131692914D02*
X64333333Y-131597676D01*
X64333333Y-131597676D02*
X64428571Y-131502438D01*
X64428571Y-131502438D02*
X64571428Y-131454819D01*
X64571428Y-131454819D02*
X64666666Y-131454819D01*
X64666666Y-131454819D02*
X64809523Y-131502438D01*
X64809523Y-131502438D02*
X64857142Y-131550057D01*
X65809523Y-132454819D02*
X65238095Y-132454819D01*
X65523809Y-132454819D02*
X65523809Y-131454819D01*
X65523809Y-131454819D02*
X65428571Y-131597676D01*
X65428571Y-131597676D02*
X65333333Y-131692914D01*
X65333333Y-131692914D02*
X65238095Y-131740533D01*
X66428571Y-131454819D02*
X66523809Y-131454819D01*
X66523809Y-131454819D02*
X66619047Y-131502438D01*
X66619047Y-131502438D02*
X66666666Y-131550057D01*
X66666666Y-131550057D02*
X66714285Y-131645295D01*
X66714285Y-131645295D02*
X66761904Y-131835771D01*
X66761904Y-131835771D02*
X66761904Y-132073866D01*
X66761904Y-132073866D02*
X66714285Y-132264342D01*
X66714285Y-132264342D02*
X66666666Y-132359580D01*
X66666666Y-132359580D02*
X66619047Y-132407200D01*
X66619047Y-132407200D02*
X66523809Y-132454819D01*
X66523809Y-132454819D02*
X66428571Y-132454819D01*
X66428571Y-132454819D02*
X66333333Y-132407200D01*
X66333333Y-132407200D02*
X66285714Y-132359580D01*
X66285714Y-132359580D02*
X66238095Y-132264342D01*
X66238095Y-132264342D02*
X66190476Y-132073866D01*
X66190476Y-132073866D02*
X66190476Y-131835771D01*
X66190476Y-131835771D02*
X66238095Y-131645295D01*
X66238095Y-131645295D02*
X66285714Y-131550057D01*
X66285714Y-131550057D02*
X66333333Y-131502438D01*
X66333333Y-131502438D02*
X66428571Y-131454819D01*
X71433333Y-74859580D02*
X71385714Y-74907200D01*
X71385714Y-74907200D02*
X71242857Y-74954819D01*
X71242857Y-74954819D02*
X71147619Y-74954819D01*
X71147619Y-74954819D02*
X71004762Y-74907200D01*
X71004762Y-74907200D02*
X70909524Y-74811961D01*
X70909524Y-74811961D02*
X70861905Y-74716723D01*
X70861905Y-74716723D02*
X70814286Y-74526247D01*
X70814286Y-74526247D02*
X70814286Y-74383390D01*
X70814286Y-74383390D02*
X70861905Y-74192914D01*
X70861905Y-74192914D02*
X70909524Y-74097676D01*
X70909524Y-74097676D02*
X71004762Y-74002438D01*
X71004762Y-74002438D02*
X71147619Y-73954819D01*
X71147619Y-73954819D02*
X71242857Y-73954819D01*
X71242857Y-73954819D02*
X71385714Y-74002438D01*
X71385714Y-74002438D02*
X71433333Y-74050057D01*
X72004762Y-74383390D02*
X71909524Y-74335771D01*
X71909524Y-74335771D02*
X71861905Y-74288152D01*
X71861905Y-74288152D02*
X71814286Y-74192914D01*
X71814286Y-74192914D02*
X71814286Y-74145295D01*
X71814286Y-74145295D02*
X71861905Y-74050057D01*
X71861905Y-74050057D02*
X71909524Y-74002438D01*
X71909524Y-74002438D02*
X72004762Y-73954819D01*
X72004762Y-73954819D02*
X72195238Y-73954819D01*
X72195238Y-73954819D02*
X72290476Y-74002438D01*
X72290476Y-74002438D02*
X72338095Y-74050057D01*
X72338095Y-74050057D02*
X72385714Y-74145295D01*
X72385714Y-74145295D02*
X72385714Y-74192914D01*
X72385714Y-74192914D02*
X72338095Y-74288152D01*
X72338095Y-74288152D02*
X72290476Y-74335771D01*
X72290476Y-74335771D02*
X72195238Y-74383390D01*
X72195238Y-74383390D02*
X72004762Y-74383390D01*
X72004762Y-74383390D02*
X71909524Y-74431009D01*
X71909524Y-74431009D02*
X71861905Y-74478628D01*
X71861905Y-74478628D02*
X71814286Y-74573866D01*
X71814286Y-74573866D02*
X71814286Y-74764342D01*
X71814286Y-74764342D02*
X71861905Y-74859580D01*
X71861905Y-74859580D02*
X71909524Y-74907200D01*
X71909524Y-74907200D02*
X72004762Y-74954819D01*
X72004762Y-74954819D02*
X72195238Y-74954819D01*
X72195238Y-74954819D02*
X72290476Y-74907200D01*
X72290476Y-74907200D02*
X72338095Y-74859580D01*
X72338095Y-74859580D02*
X72385714Y-74764342D01*
X72385714Y-74764342D02*
X72385714Y-74573866D01*
X72385714Y-74573866D02*
X72338095Y-74478628D01*
X72338095Y-74478628D02*
X72290476Y-74431009D01*
X72290476Y-74431009D02*
X72195238Y-74383390D01*
X98333333Y-124359580D02*
X98285714Y-124407200D01*
X98285714Y-124407200D02*
X98142857Y-124454819D01*
X98142857Y-124454819D02*
X98047619Y-124454819D01*
X98047619Y-124454819D02*
X97904762Y-124407200D01*
X97904762Y-124407200D02*
X97809524Y-124311961D01*
X97809524Y-124311961D02*
X97761905Y-124216723D01*
X97761905Y-124216723D02*
X97714286Y-124026247D01*
X97714286Y-124026247D02*
X97714286Y-123883390D01*
X97714286Y-123883390D02*
X97761905Y-123692914D01*
X97761905Y-123692914D02*
X97809524Y-123597676D01*
X97809524Y-123597676D02*
X97904762Y-123502438D01*
X97904762Y-123502438D02*
X98047619Y-123454819D01*
X98047619Y-123454819D02*
X98142857Y-123454819D01*
X98142857Y-123454819D02*
X98285714Y-123502438D01*
X98285714Y-123502438D02*
X98333333Y-123550057D01*
X99190476Y-123788152D02*
X99190476Y-124454819D01*
X98952381Y-123407200D02*
X98714286Y-124121485D01*
X98714286Y-124121485D02*
X99333333Y-124121485D01*
X66619047Y-89359580D02*
X66571428Y-89407200D01*
X66571428Y-89407200D02*
X66428571Y-89454819D01*
X66428571Y-89454819D02*
X66333333Y-89454819D01*
X66333333Y-89454819D02*
X66190476Y-89407200D01*
X66190476Y-89407200D02*
X66095238Y-89311961D01*
X66095238Y-89311961D02*
X66047619Y-89216723D01*
X66047619Y-89216723D02*
X66000000Y-89026247D01*
X66000000Y-89026247D02*
X66000000Y-88883390D01*
X66000000Y-88883390D02*
X66047619Y-88692914D01*
X66047619Y-88692914D02*
X66095238Y-88597676D01*
X66095238Y-88597676D02*
X66190476Y-88502438D01*
X66190476Y-88502438D02*
X66333333Y-88454819D01*
X66333333Y-88454819D02*
X66428571Y-88454819D01*
X66428571Y-88454819D02*
X66571428Y-88502438D01*
X66571428Y-88502438D02*
X66619047Y-88550057D01*
X67047619Y-89454819D02*
X67047619Y-88788152D01*
X67047619Y-88978628D02*
X67095238Y-88883390D01*
X67095238Y-88883390D02*
X67142857Y-88835771D01*
X67142857Y-88835771D02*
X67238095Y-88788152D01*
X67238095Y-88788152D02*
X67333333Y-88788152D01*
X68095238Y-89454819D02*
X68095238Y-88931009D01*
X68095238Y-88931009D02*
X68047619Y-88835771D01*
X68047619Y-88835771D02*
X67952381Y-88788152D01*
X67952381Y-88788152D02*
X67761905Y-88788152D01*
X67761905Y-88788152D02*
X67666667Y-88835771D01*
X68095238Y-89407200D02*
X68000000Y-89454819D01*
X68000000Y-89454819D02*
X67761905Y-89454819D01*
X67761905Y-89454819D02*
X67666667Y-89407200D01*
X67666667Y-89407200D02*
X67619048Y-89311961D01*
X67619048Y-89311961D02*
X67619048Y-89216723D01*
X67619048Y-89216723D02*
X67666667Y-89121485D01*
X67666667Y-89121485D02*
X67761905Y-89073866D01*
X67761905Y-89073866D02*
X68000000Y-89073866D01*
X68000000Y-89073866D02*
X68095238Y-89026247D01*
X69000000Y-89454819D02*
X69000000Y-88454819D01*
X69000000Y-89407200D02*
X68904762Y-89454819D01*
X68904762Y-89454819D02*
X68714286Y-89454819D01*
X68714286Y-89454819D02*
X68619048Y-89407200D01*
X68619048Y-89407200D02*
X68571429Y-89359580D01*
X68571429Y-89359580D02*
X68523810Y-89264342D01*
X68523810Y-89264342D02*
X68523810Y-88978628D01*
X68523810Y-88978628D02*
X68571429Y-88883390D01*
X68571429Y-88883390D02*
X68619048Y-88835771D01*
X68619048Y-88835771D02*
X68714286Y-88788152D01*
X68714286Y-88788152D02*
X68904762Y-88788152D01*
X68904762Y-88788152D02*
X69000000Y-88835771D01*
X69428572Y-88550057D02*
X69476191Y-88502438D01*
X69476191Y-88502438D02*
X69571429Y-88454819D01*
X69571429Y-88454819D02*
X69809524Y-88454819D01*
X69809524Y-88454819D02*
X69904762Y-88502438D01*
X69904762Y-88502438D02*
X69952381Y-88550057D01*
X69952381Y-88550057D02*
X70000000Y-88645295D01*
X70000000Y-88645295D02*
X70000000Y-88740533D01*
X70000000Y-88740533D02*
X69952381Y-88883390D01*
X69952381Y-88883390D02*
X69380953Y-89454819D01*
X69380953Y-89454819D02*
X70000000Y-89454819D01*
X72649047Y-99459819D02*
X72649047Y-100174104D01*
X72649047Y-100174104D02*
X72601428Y-100316961D01*
X72601428Y-100316961D02*
X72506190Y-100412200D01*
X72506190Y-100412200D02*
X72363333Y-100459819D01*
X72363333Y-100459819D02*
X72268095Y-100459819D01*
X73125238Y-99459819D02*
X73125238Y-100269342D01*
X73125238Y-100269342D02*
X73172857Y-100364580D01*
X73172857Y-100364580D02*
X73220476Y-100412200D01*
X73220476Y-100412200D02*
X73315714Y-100459819D01*
X73315714Y-100459819D02*
X73506190Y-100459819D01*
X73506190Y-100459819D02*
X73601428Y-100412200D01*
X73601428Y-100412200D02*
X73649047Y-100364580D01*
X73649047Y-100364580D02*
X73696666Y-100269342D01*
X73696666Y-100269342D02*
X73696666Y-99459819D01*
X74172857Y-100459819D02*
X74172857Y-99459819D01*
X74172857Y-99459819D02*
X74506190Y-100174104D01*
X74506190Y-100174104D02*
X74839523Y-99459819D01*
X74839523Y-99459819D02*
X74839523Y-100459819D01*
X75315714Y-100459819D02*
X75315714Y-99459819D01*
X75315714Y-99459819D02*
X75696666Y-99459819D01*
X75696666Y-99459819D02*
X75791904Y-99507438D01*
X75791904Y-99507438D02*
X75839523Y-99555057D01*
X75839523Y-99555057D02*
X75887142Y-99650295D01*
X75887142Y-99650295D02*
X75887142Y-99793152D01*
X75887142Y-99793152D02*
X75839523Y-99888390D01*
X75839523Y-99888390D02*
X75791904Y-99936009D01*
X75791904Y-99936009D02*
X75696666Y-99983628D01*
X75696666Y-99983628D02*
X75315714Y-99983628D01*
X76315714Y-99936009D02*
X76649047Y-99936009D01*
X76791904Y-100459819D02*
X76315714Y-100459819D01*
X76315714Y-100459819D02*
X76315714Y-99459819D01*
X76315714Y-99459819D02*
X76791904Y-99459819D01*
X77791904Y-100459819D02*
X77458571Y-99983628D01*
X77220476Y-100459819D02*
X77220476Y-99459819D01*
X77220476Y-99459819D02*
X77601428Y-99459819D01*
X77601428Y-99459819D02*
X77696666Y-99507438D01*
X77696666Y-99507438D02*
X77744285Y-99555057D01*
X77744285Y-99555057D02*
X77791904Y-99650295D01*
X77791904Y-99650295D02*
X77791904Y-99793152D01*
X77791904Y-99793152D02*
X77744285Y-99888390D01*
X77744285Y-99888390D02*
X77696666Y-99936009D01*
X77696666Y-99936009D02*
X77601428Y-99983628D01*
X77601428Y-99983628D02*
X77220476Y-99983628D01*
X78696666Y-99459819D02*
X78220476Y-99459819D01*
X78220476Y-99459819D02*
X78172857Y-99936009D01*
X78172857Y-99936009D02*
X78220476Y-99888390D01*
X78220476Y-99888390D02*
X78315714Y-99840771D01*
X78315714Y-99840771D02*
X78553809Y-99840771D01*
X78553809Y-99840771D02*
X78649047Y-99888390D01*
X78649047Y-99888390D02*
X78696666Y-99936009D01*
X78696666Y-99936009D02*
X78744285Y-100031247D01*
X78744285Y-100031247D02*
X78744285Y-100269342D01*
X78744285Y-100269342D02*
X78696666Y-100364580D01*
X78696666Y-100364580D02*
X78649047Y-100412200D01*
X78649047Y-100412200D02*
X78553809Y-100459819D01*
X78553809Y-100459819D02*
X78315714Y-100459819D01*
X78315714Y-100459819D02*
X78220476Y-100412200D01*
X78220476Y-100412200D02*
X78172857Y-100364580D01*
X52833333Y-140359580D02*
X52785714Y-140407200D01*
X52785714Y-140407200D02*
X52642857Y-140454819D01*
X52642857Y-140454819D02*
X52547619Y-140454819D01*
X52547619Y-140454819D02*
X52404762Y-140407200D01*
X52404762Y-140407200D02*
X52309524Y-140311961D01*
X52309524Y-140311961D02*
X52261905Y-140216723D01*
X52261905Y-140216723D02*
X52214286Y-140026247D01*
X52214286Y-140026247D02*
X52214286Y-139883390D01*
X52214286Y-139883390D02*
X52261905Y-139692914D01*
X52261905Y-139692914D02*
X52309524Y-139597676D01*
X52309524Y-139597676D02*
X52404762Y-139502438D01*
X52404762Y-139502438D02*
X52547619Y-139454819D01*
X52547619Y-139454819D02*
X52642857Y-139454819D01*
X52642857Y-139454819D02*
X52785714Y-139502438D01*
X52785714Y-139502438D02*
X52833333Y-139550057D01*
X53166667Y-139454819D02*
X53833333Y-139454819D01*
X53833333Y-139454819D02*
X53404762Y-140454819D01*
X71119047Y-128454819D02*
X71119047Y-129169104D01*
X71119047Y-129169104D02*
X71071428Y-129311961D01*
X71071428Y-129311961D02*
X70976190Y-129407200D01*
X70976190Y-129407200D02*
X70833333Y-129454819D01*
X70833333Y-129454819D02*
X70738095Y-129454819D01*
X71595238Y-128454819D02*
X71595238Y-129264342D01*
X71595238Y-129264342D02*
X71642857Y-129359580D01*
X71642857Y-129359580D02*
X71690476Y-129407200D01*
X71690476Y-129407200D02*
X71785714Y-129454819D01*
X71785714Y-129454819D02*
X71976190Y-129454819D01*
X71976190Y-129454819D02*
X72071428Y-129407200D01*
X72071428Y-129407200D02*
X72119047Y-129359580D01*
X72119047Y-129359580D02*
X72166666Y-129264342D01*
X72166666Y-129264342D02*
X72166666Y-128454819D01*
X72642857Y-129454819D02*
X72642857Y-128454819D01*
X72642857Y-128454819D02*
X72976190Y-129169104D01*
X72976190Y-129169104D02*
X73309523Y-128454819D01*
X73309523Y-128454819D02*
X73309523Y-129454819D01*
X73785714Y-129454819D02*
X73785714Y-128454819D01*
X73785714Y-128454819D02*
X74166666Y-128454819D01*
X74166666Y-128454819D02*
X74261904Y-128502438D01*
X74261904Y-128502438D02*
X74309523Y-128550057D01*
X74309523Y-128550057D02*
X74357142Y-128645295D01*
X74357142Y-128645295D02*
X74357142Y-128788152D01*
X74357142Y-128788152D02*
X74309523Y-128883390D01*
X74309523Y-128883390D02*
X74261904Y-128931009D01*
X74261904Y-128931009D02*
X74166666Y-128978628D01*
X74166666Y-128978628D02*
X73785714Y-128978628D01*
X74785714Y-128931009D02*
X75119047Y-128931009D01*
X75261904Y-129454819D02*
X74785714Y-129454819D01*
X74785714Y-129454819D02*
X74785714Y-128454819D01*
X74785714Y-128454819D02*
X75261904Y-128454819D01*
X76261904Y-129454819D02*
X75928571Y-128978628D01*
X75690476Y-129454819D02*
X75690476Y-128454819D01*
X75690476Y-128454819D02*
X76071428Y-128454819D01*
X76071428Y-128454819D02*
X76166666Y-128502438D01*
X76166666Y-128502438D02*
X76214285Y-128550057D01*
X76214285Y-128550057D02*
X76261904Y-128645295D01*
X76261904Y-128645295D02*
X76261904Y-128788152D01*
X76261904Y-128788152D02*
X76214285Y-128883390D01*
X76214285Y-128883390D02*
X76166666Y-128931009D01*
X76166666Y-128931009D02*
X76071428Y-128978628D01*
X76071428Y-128978628D02*
X75690476Y-128978628D01*
X77214285Y-129454819D02*
X76642857Y-129454819D01*
X76928571Y-129454819D02*
X76928571Y-128454819D01*
X76928571Y-128454819D02*
X76833333Y-128597676D01*
X76833333Y-128597676D02*
X76738095Y-128692914D01*
X76738095Y-128692914D02*
X76642857Y-128740533D01*
X72619047Y-100954819D02*
X72619047Y-101669104D01*
X72619047Y-101669104D02*
X72571428Y-101811961D01*
X72571428Y-101811961D02*
X72476190Y-101907200D01*
X72476190Y-101907200D02*
X72333333Y-101954819D01*
X72333333Y-101954819D02*
X72238095Y-101954819D01*
X73095238Y-100954819D02*
X73095238Y-101764342D01*
X73095238Y-101764342D02*
X73142857Y-101859580D01*
X73142857Y-101859580D02*
X73190476Y-101907200D01*
X73190476Y-101907200D02*
X73285714Y-101954819D01*
X73285714Y-101954819D02*
X73476190Y-101954819D01*
X73476190Y-101954819D02*
X73571428Y-101907200D01*
X73571428Y-101907200D02*
X73619047Y-101859580D01*
X73619047Y-101859580D02*
X73666666Y-101764342D01*
X73666666Y-101764342D02*
X73666666Y-100954819D01*
X74142857Y-101954819D02*
X74142857Y-100954819D01*
X74142857Y-100954819D02*
X74476190Y-101669104D01*
X74476190Y-101669104D02*
X74809523Y-100954819D01*
X74809523Y-100954819D02*
X74809523Y-101954819D01*
X75285714Y-101954819D02*
X75285714Y-100954819D01*
X75285714Y-100954819D02*
X75666666Y-100954819D01*
X75666666Y-100954819D02*
X75761904Y-101002438D01*
X75761904Y-101002438D02*
X75809523Y-101050057D01*
X75809523Y-101050057D02*
X75857142Y-101145295D01*
X75857142Y-101145295D02*
X75857142Y-101288152D01*
X75857142Y-101288152D02*
X75809523Y-101383390D01*
X75809523Y-101383390D02*
X75761904Y-101431009D01*
X75761904Y-101431009D02*
X75666666Y-101478628D01*
X75666666Y-101478628D02*
X75285714Y-101478628D01*
X76285714Y-101431009D02*
X76619047Y-101431009D01*
X76761904Y-101954819D02*
X76285714Y-101954819D01*
X76285714Y-101954819D02*
X76285714Y-100954819D01*
X76285714Y-100954819D02*
X76761904Y-100954819D01*
X77761904Y-101954819D02*
X77428571Y-101478628D01*
X77190476Y-101954819D02*
X77190476Y-100954819D01*
X77190476Y-100954819D02*
X77571428Y-100954819D01*
X77571428Y-100954819D02*
X77666666Y-101002438D01*
X77666666Y-101002438D02*
X77714285Y-101050057D01*
X77714285Y-101050057D02*
X77761904Y-101145295D01*
X77761904Y-101145295D02*
X77761904Y-101288152D01*
X77761904Y-101288152D02*
X77714285Y-101383390D01*
X77714285Y-101383390D02*
X77666666Y-101431009D01*
X77666666Y-101431009D02*
X77571428Y-101478628D01*
X77571428Y-101478628D02*
X77190476Y-101478628D01*
X78619047Y-100954819D02*
X78428571Y-100954819D01*
X78428571Y-100954819D02*
X78333333Y-101002438D01*
X78333333Y-101002438D02*
X78285714Y-101050057D01*
X78285714Y-101050057D02*
X78190476Y-101192914D01*
X78190476Y-101192914D02*
X78142857Y-101383390D01*
X78142857Y-101383390D02*
X78142857Y-101764342D01*
X78142857Y-101764342D02*
X78190476Y-101859580D01*
X78190476Y-101859580D02*
X78238095Y-101907200D01*
X78238095Y-101907200D02*
X78333333Y-101954819D01*
X78333333Y-101954819D02*
X78523809Y-101954819D01*
X78523809Y-101954819D02*
X78619047Y-101907200D01*
X78619047Y-101907200D02*
X78666666Y-101859580D01*
X78666666Y-101859580D02*
X78714285Y-101764342D01*
X78714285Y-101764342D02*
X78714285Y-101526247D01*
X78714285Y-101526247D02*
X78666666Y-101431009D01*
X78666666Y-101431009D02*
X78619047Y-101383390D01*
X78619047Y-101383390D02*
X78523809Y-101335771D01*
X78523809Y-101335771D02*
X78333333Y-101335771D01*
X78333333Y-101335771D02*
X78238095Y-101383390D01*
X78238095Y-101383390D02*
X78190476Y-101431009D01*
X78190476Y-101431009D02*
X78142857Y-101526247D01*
X75833333Y-96954819D02*
X75500000Y-96478628D01*
X75261905Y-96954819D02*
X75261905Y-95954819D01*
X75261905Y-95954819D02*
X75642857Y-95954819D01*
X75642857Y-95954819D02*
X75738095Y-96002438D01*
X75738095Y-96002438D02*
X75785714Y-96050057D01*
X75785714Y-96050057D02*
X75833333Y-96145295D01*
X75833333Y-96145295D02*
X75833333Y-96288152D01*
X75833333Y-96288152D02*
X75785714Y-96383390D01*
X75785714Y-96383390D02*
X75738095Y-96431009D01*
X75738095Y-96431009D02*
X75642857Y-96478628D01*
X75642857Y-96478628D02*
X75261905Y-96478628D01*
X76738095Y-95954819D02*
X76261905Y-95954819D01*
X76261905Y-95954819D02*
X76214286Y-96431009D01*
X76214286Y-96431009D02*
X76261905Y-96383390D01*
X76261905Y-96383390D02*
X76357143Y-96335771D01*
X76357143Y-96335771D02*
X76595238Y-96335771D01*
X76595238Y-96335771D02*
X76690476Y-96383390D01*
X76690476Y-96383390D02*
X76738095Y-96431009D01*
X76738095Y-96431009D02*
X76785714Y-96526247D01*
X76785714Y-96526247D02*
X76785714Y-96764342D01*
X76785714Y-96764342D02*
X76738095Y-96859580D01*
X76738095Y-96859580D02*
X76690476Y-96907200D01*
X76690476Y-96907200D02*
X76595238Y-96954819D01*
X76595238Y-96954819D02*
X76357143Y-96954819D01*
X76357143Y-96954819D02*
X76261905Y-96907200D01*
X76261905Y-96907200D02*
X76214286Y-96859580D01*
X83785714Y-105169104D02*
X84261904Y-105169104D01*
X83690476Y-105454819D02*
X84023809Y-104454819D01*
X84023809Y-104454819D02*
X84357142Y-105454819D01*
X85214285Y-105454819D02*
X84642857Y-105454819D01*
X84928571Y-105454819D02*
X84928571Y-104454819D01*
X84928571Y-104454819D02*
X84833333Y-104597676D01*
X84833333Y-104597676D02*
X84738095Y-104692914D01*
X84738095Y-104692914D02*
X84642857Y-104740533D01*
X52904761Y-131454819D02*
X52904761Y-130788152D01*
X52904761Y-130978628D02*
X52952380Y-130883390D01*
X52952380Y-130883390D02*
X52999999Y-130835771D01*
X52999999Y-130835771D02*
X53095237Y-130788152D01*
X53095237Y-130788152D02*
X53190475Y-130788152D01*
X53904761Y-131407200D02*
X53809523Y-131454819D01*
X53809523Y-131454819D02*
X53619047Y-131454819D01*
X53619047Y-131454819D02*
X53523809Y-131407200D01*
X53523809Y-131407200D02*
X53476190Y-131311961D01*
X53476190Y-131311961D02*
X53476190Y-130931009D01*
X53476190Y-130931009D02*
X53523809Y-130835771D01*
X53523809Y-130835771D02*
X53619047Y-130788152D01*
X53619047Y-130788152D02*
X53809523Y-130788152D01*
X53809523Y-130788152D02*
X53904761Y-130835771D01*
X53904761Y-130835771D02*
X53952380Y-130931009D01*
X53952380Y-130931009D02*
X53952380Y-131026247D01*
X53952380Y-131026247D02*
X53476190Y-131121485D01*
X54333333Y-131407200D02*
X54428571Y-131454819D01*
X54428571Y-131454819D02*
X54619047Y-131454819D01*
X54619047Y-131454819D02*
X54714285Y-131407200D01*
X54714285Y-131407200D02*
X54761904Y-131311961D01*
X54761904Y-131311961D02*
X54761904Y-131264342D01*
X54761904Y-131264342D02*
X54714285Y-131169104D01*
X54714285Y-131169104D02*
X54619047Y-131121485D01*
X54619047Y-131121485D02*
X54476190Y-131121485D01*
X54476190Y-131121485D02*
X54380952Y-131073866D01*
X54380952Y-131073866D02*
X54333333Y-130978628D01*
X54333333Y-130978628D02*
X54333333Y-130931009D01*
X54333333Y-130931009D02*
X54380952Y-130835771D01*
X54380952Y-130835771D02*
X54476190Y-130788152D01*
X54476190Y-130788152D02*
X54619047Y-130788152D01*
X54619047Y-130788152D02*
X54714285Y-130835771D01*
X55571428Y-131407200D02*
X55476190Y-131454819D01*
X55476190Y-131454819D02*
X55285714Y-131454819D01*
X55285714Y-131454819D02*
X55190476Y-131407200D01*
X55190476Y-131407200D02*
X55142857Y-131311961D01*
X55142857Y-131311961D02*
X55142857Y-130931009D01*
X55142857Y-130931009D02*
X55190476Y-130835771D01*
X55190476Y-130835771D02*
X55285714Y-130788152D01*
X55285714Y-130788152D02*
X55476190Y-130788152D01*
X55476190Y-130788152D02*
X55571428Y-130835771D01*
X55571428Y-130835771D02*
X55619047Y-130931009D01*
X55619047Y-130931009D02*
X55619047Y-131026247D01*
X55619047Y-131026247D02*
X55142857Y-131121485D01*
X55904762Y-130788152D02*
X56285714Y-130788152D01*
X56047619Y-130454819D02*
X56047619Y-131311961D01*
X56047619Y-131311961D02*
X56095238Y-131407200D01*
X56095238Y-131407200D02*
X56190476Y-131454819D01*
X56190476Y-131454819D02*
X56285714Y-131454819D01*
X57142857Y-131454819D02*
X56571429Y-131454819D01*
X56857143Y-131454819D02*
X56857143Y-130454819D01*
X56857143Y-130454819D02*
X56761905Y-130597676D01*
X56761905Y-130597676D02*
X56666667Y-130692914D01*
X56666667Y-130692914D02*
X56571429Y-130740533D01*
X100156666Y-133904819D02*
X100156666Y-134619104D01*
X100156666Y-134619104D02*
X100109047Y-134761961D01*
X100109047Y-134761961D02*
X100013809Y-134857200D01*
X100013809Y-134857200D02*
X99870952Y-134904819D01*
X99870952Y-134904819D02*
X99775714Y-134904819D01*
X100585238Y-134000057D02*
X100632857Y-133952438D01*
X100632857Y-133952438D02*
X100728095Y-133904819D01*
X100728095Y-133904819D02*
X100966190Y-133904819D01*
X100966190Y-133904819D02*
X101061428Y-133952438D01*
X101061428Y-133952438D02*
X101109047Y-134000057D01*
X101109047Y-134000057D02*
X101156666Y-134095295D01*
X101156666Y-134095295D02*
X101156666Y-134190533D01*
X101156666Y-134190533D02*
X101109047Y-134333390D01*
X101109047Y-134333390D02*
X100537619Y-134904819D01*
X100537619Y-134904819D02*
X101156666Y-134904819D01*
X55833333Y-129859580D02*
X55785714Y-129907200D01*
X55785714Y-129907200D02*
X55642857Y-129954819D01*
X55642857Y-129954819D02*
X55547619Y-129954819D01*
X55547619Y-129954819D02*
X55404762Y-129907200D01*
X55404762Y-129907200D02*
X55309524Y-129811961D01*
X55309524Y-129811961D02*
X55261905Y-129716723D01*
X55261905Y-129716723D02*
X55214286Y-129526247D01*
X55214286Y-129526247D02*
X55214286Y-129383390D01*
X55214286Y-129383390D02*
X55261905Y-129192914D01*
X55261905Y-129192914D02*
X55309524Y-129097676D01*
X55309524Y-129097676D02*
X55404762Y-129002438D01*
X55404762Y-129002438D02*
X55547619Y-128954819D01*
X55547619Y-128954819D02*
X55642857Y-128954819D01*
X55642857Y-128954819D02*
X55785714Y-129002438D01*
X55785714Y-129002438D02*
X55833333Y-129050057D01*
X56214286Y-129050057D02*
X56261905Y-129002438D01*
X56261905Y-129002438D02*
X56357143Y-128954819D01*
X56357143Y-128954819D02*
X56595238Y-128954819D01*
X56595238Y-128954819D02*
X56690476Y-129002438D01*
X56690476Y-129002438D02*
X56738095Y-129050057D01*
X56738095Y-129050057D02*
X56785714Y-129145295D01*
X56785714Y-129145295D02*
X56785714Y-129240533D01*
X56785714Y-129240533D02*
X56738095Y-129383390D01*
X56738095Y-129383390D02*
X56166667Y-129954819D01*
X56166667Y-129954819D02*
X56785714Y-129954819D01*
X97857142Y-100454819D02*
X97523809Y-99978628D01*
X97285714Y-100454819D02*
X97285714Y-99454819D01*
X97285714Y-99454819D02*
X97666666Y-99454819D01*
X97666666Y-99454819D02*
X97761904Y-99502438D01*
X97761904Y-99502438D02*
X97809523Y-99550057D01*
X97809523Y-99550057D02*
X97857142Y-99645295D01*
X97857142Y-99645295D02*
X97857142Y-99788152D01*
X97857142Y-99788152D02*
X97809523Y-99883390D01*
X97809523Y-99883390D02*
X97761904Y-99931009D01*
X97761904Y-99931009D02*
X97666666Y-99978628D01*
X97666666Y-99978628D02*
X97285714Y-99978628D01*
X98809523Y-100454819D02*
X98238095Y-100454819D01*
X98523809Y-100454819D02*
X98523809Y-99454819D01*
X98523809Y-99454819D02*
X98428571Y-99597676D01*
X98428571Y-99597676D02*
X98333333Y-99692914D01*
X98333333Y-99692914D02*
X98238095Y-99740533D01*
X99761904Y-100454819D02*
X99190476Y-100454819D01*
X99476190Y-100454819D02*
X99476190Y-99454819D01*
X99476190Y-99454819D02*
X99380952Y-99597676D01*
X99380952Y-99597676D02*
X99285714Y-99692914D01*
X99285714Y-99692914D02*
X99190476Y-99740533D01*
X71119047Y-129954819D02*
X71119047Y-130669104D01*
X71119047Y-130669104D02*
X71071428Y-130811961D01*
X71071428Y-130811961D02*
X70976190Y-130907200D01*
X70976190Y-130907200D02*
X70833333Y-130954819D01*
X70833333Y-130954819D02*
X70738095Y-130954819D01*
X71595238Y-129954819D02*
X71595238Y-130764342D01*
X71595238Y-130764342D02*
X71642857Y-130859580D01*
X71642857Y-130859580D02*
X71690476Y-130907200D01*
X71690476Y-130907200D02*
X71785714Y-130954819D01*
X71785714Y-130954819D02*
X71976190Y-130954819D01*
X71976190Y-130954819D02*
X72071428Y-130907200D01*
X72071428Y-130907200D02*
X72119047Y-130859580D01*
X72119047Y-130859580D02*
X72166666Y-130764342D01*
X72166666Y-130764342D02*
X72166666Y-129954819D01*
X72642857Y-130954819D02*
X72642857Y-129954819D01*
X72642857Y-129954819D02*
X72976190Y-130669104D01*
X72976190Y-130669104D02*
X73309523Y-129954819D01*
X73309523Y-129954819D02*
X73309523Y-130954819D01*
X73785714Y-130954819D02*
X73785714Y-129954819D01*
X73785714Y-129954819D02*
X74166666Y-129954819D01*
X74166666Y-129954819D02*
X74261904Y-130002438D01*
X74261904Y-130002438D02*
X74309523Y-130050057D01*
X74309523Y-130050057D02*
X74357142Y-130145295D01*
X74357142Y-130145295D02*
X74357142Y-130288152D01*
X74357142Y-130288152D02*
X74309523Y-130383390D01*
X74309523Y-130383390D02*
X74261904Y-130431009D01*
X74261904Y-130431009D02*
X74166666Y-130478628D01*
X74166666Y-130478628D02*
X73785714Y-130478628D01*
X74785714Y-130431009D02*
X75119047Y-130431009D01*
X75261904Y-130954819D02*
X74785714Y-130954819D01*
X74785714Y-130954819D02*
X74785714Y-129954819D01*
X74785714Y-129954819D02*
X75261904Y-129954819D01*
X76261904Y-130954819D02*
X75928571Y-130478628D01*
X75690476Y-130954819D02*
X75690476Y-129954819D01*
X75690476Y-129954819D02*
X76071428Y-129954819D01*
X76071428Y-129954819D02*
X76166666Y-130002438D01*
X76166666Y-130002438D02*
X76214285Y-130050057D01*
X76214285Y-130050057D02*
X76261904Y-130145295D01*
X76261904Y-130145295D02*
X76261904Y-130288152D01*
X76261904Y-130288152D02*
X76214285Y-130383390D01*
X76214285Y-130383390D02*
X76166666Y-130431009D01*
X76166666Y-130431009D02*
X76071428Y-130478628D01*
X76071428Y-130478628D02*
X75690476Y-130478628D01*
X76642857Y-130050057D02*
X76690476Y-130002438D01*
X76690476Y-130002438D02*
X76785714Y-129954819D01*
X76785714Y-129954819D02*
X77023809Y-129954819D01*
X77023809Y-129954819D02*
X77119047Y-130002438D01*
X77119047Y-130002438D02*
X77166666Y-130050057D01*
X77166666Y-130050057D02*
X77214285Y-130145295D01*
X77214285Y-130145295D02*
X77214285Y-130240533D01*
X77214285Y-130240533D02*
X77166666Y-130383390D01*
X77166666Y-130383390D02*
X76595238Y-130954819D01*
X76595238Y-130954819D02*
X77214285Y-130954819D01*
D12*
%TO.C,right1*%
X66757500Y-105950000D02*
X66757500Y-106050000D01*
X66757500Y-104450000D02*
X62357500Y-104450000D01*
X62357500Y-107550000D02*
X66757500Y-107550000D01*
X62357500Y-105950000D02*
X62357500Y-106050000D01*
%TO.C,R16*%
X42727064Y-118410000D02*
X41272936Y-118410000D01*
X42727064Y-116590000D02*
X41272936Y-116590000D01*
%TO.C,up1*%
X56800000Y-101550000D02*
X56800000Y-101450000D01*
X56800000Y-103050000D02*
X61200000Y-103050000D01*
X61200000Y-99950000D02*
X56800000Y-99950000D01*
X61200000Y-101550000D02*
X61200000Y-101450000D01*
%TO.C,left1*%
X50800000Y-106050000D02*
X50800000Y-105950000D01*
X50800000Y-107550000D02*
X55200000Y-107550000D01*
X55200000Y-104450000D02*
X50800000Y-104450000D01*
X55200000Y-106050000D02*
X55200000Y-105950000D01*
%TO.C,R15*%
X43227064Y-110910000D02*
X41772936Y-110910000D01*
X43227064Y-109090000D02*
X41772936Y-109090000D01*
%TO.C,R14*%
X43227064Y-114910000D02*
X41772936Y-114910000D01*
X43227064Y-113090000D02*
X41772936Y-113090000D01*
%TO.C,R13*%
X51090000Y-99727064D02*
X51090000Y-98272936D01*
X52910000Y-99727064D02*
X52910000Y-98272936D01*
%TO.C,down1*%
X61200000Y-109950000D02*
X61200000Y-110050000D01*
X61200000Y-108450000D02*
X56800000Y-108450000D01*
X56800000Y-111550000D02*
X61200000Y-111550000D01*
X56800000Y-109950000D02*
X56800000Y-110050000D01*
%TO.C,R4*%
X48772936Y-133590000D02*
X50227064Y-133590000D01*
X48772936Y-135410000D02*
X50227064Y-135410000D01*
%TO.C,R2*%
X64590000Y-65272936D02*
X64590000Y-66727064D01*
X66410000Y-65272936D02*
X66410000Y-66727064D01*
%TO.C,R1*%
X64590000Y-84727064D02*
X64590000Y-83272936D01*
X66410000Y-84727064D02*
X66410000Y-83272936D01*
%TO.C,J1*%
X32050000Y-62300000D02*
X35790000Y-62300000D01*
X32050000Y-90700000D02*
X32050000Y-62300000D01*
X35790000Y-90700000D02*
X32050000Y-90700000D01*
X38310000Y-62300000D02*
X38740000Y-62300000D01*
X40260000Y-62300000D02*
X41340000Y-62300000D01*
X42870000Y-62300000D02*
X50290000Y-62300000D01*
X51810000Y-62300000D02*
X54440000Y-62300000D01*
X54440000Y-90690000D02*
X38310000Y-90700000D01*
X56960000Y-62300000D02*
X62950000Y-62300000D01*
X61650000Y-64800000D02*
X61650000Y-65140000D01*
X62950000Y-62300000D02*
X62950000Y-64800000D01*
X62950000Y-64800000D02*
X61650000Y-64800000D01*
X62950000Y-86800000D02*
X61650000Y-86800000D01*
X62950000Y-90700000D02*
X56960000Y-90700000D01*
X62950000Y-90700000D02*
X62950000Y-86800000D01*
%TO.C,R8*%
X89189564Y-125590000D02*
X87735436Y-125590000D01*
X89189564Y-127410000D02*
X87735436Y-127410000D01*
%TO.C,F1*%
X73440000Y-136730000D02*
X73440000Y-143670000D01*
X73440000Y-143670000D02*
X89640000Y-143670000D01*
X79940000Y-138200000D02*
X83140000Y-138200000D01*
X80790000Y-140200000D02*
X82290000Y-140200000D01*
X83140000Y-142200000D02*
X79940000Y-142200000D01*
X89640000Y-136730000D02*
X73440000Y-136730000D01*
X89640000Y-143670000D02*
X89640000Y-136730000D01*
%TO.C,M_Y1*%
X72490000Y-78270000D02*
X73870000Y-78270000D01*
X72490000Y-79650000D02*
X72490000Y-78270000D01*
X72490000Y-80920000D02*
X72490000Y-88650000D01*
X72490000Y-80920000D02*
X75250000Y-80920000D01*
X72490000Y-88650000D02*
X75250000Y-88650000D01*
X75250000Y-80920000D02*
X75250000Y-88650000D01*
%TO.C,JUMPER3*%
X85620000Y-128120000D02*
X87000000Y-128120000D01*
X85620000Y-129500000D02*
X85620000Y-128120000D01*
X85620000Y-130770000D02*
X85620000Y-133420000D01*
X85620000Y-130770000D02*
X88380000Y-130770000D01*
X85620000Y-133420000D02*
X88380000Y-133420000D01*
X88380000Y-130770000D02*
X88380000Y-133420000D01*
%TO.C,R9*%
X84227064Y-125590000D02*
X82772936Y-125590000D01*
X84227064Y-127410000D02*
X82772936Y-127410000D01*
%TO.C,Fdc1*%
X47630000Y-121670000D02*
X48960000Y-121670000D01*
X47630000Y-123000000D02*
X47630000Y-121670000D01*
X50230000Y-121670000D02*
X55370000Y-121670000D01*
X50230000Y-124330000D02*
X50230000Y-121670000D01*
X50230000Y-124330000D02*
X55370000Y-124330000D01*
X55370000Y-124330000D02*
X55370000Y-121670000D01*
%TO.C,JUMPER4*%
X79350000Y-97040000D02*
X80730000Y-97040000D01*
X79350000Y-98420000D02*
X79350000Y-97040000D01*
X79350000Y-99690000D02*
X79350000Y-102340000D01*
X79350000Y-99690000D02*
X82110000Y-99690000D01*
X79350000Y-102340000D02*
X82110000Y-102340000D01*
X82110000Y-99690000D02*
X82110000Y-102340000D01*
%TO.C,C3*%
X57090000Y-123711252D02*
X57090000Y-122288748D01*
X58910000Y-123711252D02*
X58910000Y-122288748D01*
%TO.C,D2*%
X101540000Y-116000000D02*
X101540000Y-118685000D01*
X101540000Y-118685000D02*
X103460000Y-118685000D01*
X103460000Y-118685000D02*
X103460000Y-116000000D01*
%TO.C,C11*%
X97288748Y-105590000D02*
X98711252Y-105590000D01*
X97288748Y-107410000D02*
X98711252Y-107410000D01*
%TO.C,A2*%
X76830000Y-73520000D02*
X76830000Y-74920000D01*
X76830000Y-76190000D02*
X76830000Y-94100000D01*
X76830000Y-94100000D02*
X92330000Y-94100000D01*
X78230000Y-73520000D02*
X76830000Y-73520000D01*
X79500000Y-73520000D02*
X79500000Y-76190000D01*
X79500000Y-76190000D02*
X76830000Y-76190000D01*
X79500000Y-76190000D02*
X79500000Y-94100000D01*
X89660000Y-73520000D02*
X89660000Y-94100000D01*
X92330000Y-73520000D02*
X79500000Y-73520000D01*
X92330000Y-94100000D02*
X92330000Y-73520000D01*
%TO.C,Fdc2*%
X47645000Y-125645000D02*
X48975000Y-125645000D01*
X47645000Y-126975000D02*
X47645000Y-125645000D01*
X50245000Y-125645000D02*
X55385000Y-125645000D01*
X50245000Y-128305000D02*
X50245000Y-125645000D01*
X50245000Y-128305000D02*
X55385000Y-128305000D01*
X55385000Y-128305000D02*
X55385000Y-125645000D01*
%TO.C,R6*%
X83502936Y-94510000D02*
X84957064Y-94510000D01*
X83502936Y-96330000D02*
X84957064Y-96330000D01*
%TO.C,C9*%
X73590000Y-105288748D02*
X73590000Y-106711252D01*
X75410000Y-105288748D02*
X75410000Y-106711252D01*
%TO.C,D1*%
X101040000Y-105000000D02*
X101040000Y-107685000D01*
X101040000Y-107685000D02*
X102960000Y-107685000D01*
X102960000Y-107685000D02*
X102960000Y-105000000D01*
%TO.C,C6*%
X51288748Y-115090000D02*
X52711252Y-115090000D01*
X51288748Y-116910000D02*
X52711252Y-116910000D01*
%TO.C,C5*%
X64590000Y-75788748D02*
X64590000Y-77211252D01*
X66410000Y-75788748D02*
X66410000Y-77211252D01*
%TO.C,Crad1*%
X75770000Y-123000000D02*
G75*
G02*
X69230000Y-123000000I-3270000J0D01*
G01*
X69230000Y-123000000D02*
G75*
G02*
X75770000Y-123000000I3270000J0D01*
G01*
%TO.C,R10*%
X77772936Y-125590000D02*
X79227064Y-125590000D01*
X77772936Y-127410000D02*
X79227064Y-127410000D01*
%TO.C,C1*%
X69788748Y-133590000D02*
X71211252Y-133590000D01*
X69788748Y-135410000D02*
X71211252Y-135410000D01*
%TO.C,OLED1*%
X47310000Y-141120000D02*
X47310000Y-143880000D01*
X55040000Y-141120000D02*
X47310000Y-141120000D01*
X55040000Y-141120000D02*
X55040000Y-143880000D01*
X55040000Y-143880000D02*
X47310000Y-143880000D01*
X56310000Y-141120000D02*
X57690000Y-141120000D01*
X57690000Y-141120000D02*
X57690000Y-142500000D01*
%TO.C,U2*%
X60637500Y-136232500D02*
X72357500Y-136232500D01*
X60637500Y-144852500D02*
X60637500Y-136232500D01*
X72357500Y-136232500D02*
X72357500Y-144852500D01*
X72357500Y-144852500D02*
X60637500Y-144852500D01*
X72597500Y-135992500D02*
X71357500Y-135992500D01*
X72597500Y-137232500D02*
X72597500Y-135992500D01*
%TO.C,R3*%
X49272936Y-136090000D02*
X50727064Y-136090000D01*
X49272936Y-137910000D02*
X50727064Y-137910000D01*
%TO.C,SERVO1*%
X47580000Y-120380000D02*
X47580000Y-119000000D01*
X48960000Y-120380000D02*
X47580000Y-120380000D01*
X50230000Y-117620000D02*
X55420000Y-117620000D01*
X50230000Y-120380000D02*
X50230000Y-117620000D01*
X50230000Y-120380000D02*
X55420000Y-120380000D01*
X55420000Y-120380000D02*
X55420000Y-117620000D01*
%TO.C,R7*%
X89994564Y-94510000D02*
X88540436Y-94510000D01*
X89994564Y-96330000D02*
X88540436Y-96330000D01*
%TO.C,M_X1*%
X72620000Y-108810000D02*
X74000000Y-108810000D01*
X72620000Y-110190000D02*
X72620000Y-108810000D01*
X72620000Y-111460000D02*
X72620000Y-119190000D01*
X72620000Y-111460000D02*
X75380000Y-111460000D01*
X72620000Y-119190000D02*
X75380000Y-119190000D01*
X75380000Y-111460000D02*
X75380000Y-119190000D01*
%TO.C,C10*%
X63328748Y-133290000D02*
X64751252Y-133290000D01*
X63328748Y-135110000D02*
X64751252Y-135110000D01*
%TO.C,C8*%
X72960000Y-74518748D02*
X72960000Y-75941252D01*
X74780000Y-74518748D02*
X74780000Y-75941252D01*
%TO.C,C4*%
X98711252Y-121090000D02*
X97288748Y-121090000D01*
X98711252Y-122910000D02*
X97288748Y-122910000D01*
%TO.C,Crad2*%
X75140000Y-92980000D02*
G75*
G02*
X68600000Y-92980000I-3270000J0D01*
G01*
X68600000Y-92980000D02*
G75*
G02*
X75140000Y-92980000I3270000J0D01*
G01*
%TO.C,R12*%
X98272936Y-115090000D02*
X99727064Y-115090000D01*
X98272936Y-116910000D02*
X99727064Y-116910000D01*
%TO.C,JUMPER5*%
X83350000Y-97265000D02*
X84730000Y-97265000D01*
X83350000Y-98645000D02*
X83350000Y-97265000D01*
X83350000Y-99915000D02*
X83350000Y-102565000D01*
X83350000Y-99915000D02*
X86110000Y-99915000D01*
X83350000Y-102565000D02*
X86110000Y-102565000D01*
X86110000Y-99915000D02*
X86110000Y-102565000D01*
%TO.C,C7*%
X50481252Y-138590000D02*
X49058748Y-138590000D01*
X50481252Y-140410000D02*
X49058748Y-140410000D01*
%TO.C,JUMPER1*%
X81620000Y-128120000D02*
X83000000Y-128120000D01*
X81620000Y-129500000D02*
X81620000Y-128120000D01*
X81620000Y-130770000D02*
X81620000Y-133420000D01*
X81620000Y-130770000D02*
X84380000Y-130770000D01*
X81620000Y-133420000D02*
X84380000Y-133420000D01*
X84380000Y-130770000D02*
X84380000Y-133420000D01*
%TO.C,JUMPER6*%
X87350000Y-97265000D02*
X88730000Y-97265000D01*
X87350000Y-98645000D02*
X87350000Y-97265000D01*
X87350000Y-99915000D02*
X87350000Y-102565000D01*
X87350000Y-99915000D02*
X90110000Y-99915000D01*
X87350000Y-102565000D02*
X90110000Y-102565000D01*
X90110000Y-99915000D02*
X90110000Y-102565000D01*
%TO.C,R5*%
X78502936Y-94510000D02*
X79957064Y-94510000D01*
X78502936Y-96330000D02*
X79957064Y-96330000D01*
%TO.C,A1*%
X76760000Y-103710000D02*
X76760000Y-105110000D01*
X76760000Y-106380000D02*
X76760000Y-124290000D01*
X76760000Y-124290000D02*
X92260000Y-124290000D01*
X78160000Y-103710000D02*
X76760000Y-103710000D01*
X79430000Y-103710000D02*
X79430000Y-106380000D01*
X79430000Y-106380000D02*
X76760000Y-106380000D01*
X79430000Y-106380000D02*
X79430000Y-124290000D01*
X89590000Y-103710000D02*
X89590000Y-124290000D01*
X92260000Y-103710000D02*
X79430000Y-103710000D01*
X92260000Y-124290000D02*
X92260000Y-103710000D01*
%TO.C,reset1*%
X47800000Y-131050000D02*
X47800000Y-130950000D01*
X47800000Y-132550000D02*
X52200000Y-132550000D01*
X52200000Y-129450000D02*
X47800000Y-129450000D01*
X52200000Y-131050000D02*
X52200000Y-130950000D01*
%TO.C,J2*%
X90940000Y-143950000D02*
X90940000Y-145000000D01*
X91140000Y-135600000D02*
X93040000Y-135600000D01*
X91140000Y-138300000D02*
X91140000Y-135600000D01*
X91140000Y-144800000D02*
X91140000Y-142200000D01*
X91990000Y-145000000D02*
X90940000Y-145000000D01*
X97040000Y-135600000D02*
X105840000Y-135600000D01*
X105840000Y-135600000D02*
X105840000Y-144800000D01*
X105840000Y-144800000D02*
X91140000Y-144800000D01*
%TO.C,C2*%
X57090000Y-129211252D02*
X57090000Y-127788748D01*
X58910000Y-129211252D02*
X58910000Y-127788748D01*
%TO.C,R11*%
X97772936Y-102090000D02*
X99227064Y-102090000D01*
X97772936Y-103910000D02*
X99227064Y-103910000D01*
%TO.C,JUMPER2*%
X77620000Y-128120000D02*
X79000000Y-128120000D01*
X77620000Y-129500000D02*
X77620000Y-128120000D01*
X77620000Y-130770000D02*
X77620000Y-133420000D01*
X77620000Y-130770000D02*
X80380000Y-130770000D01*
X77620000Y-133420000D02*
X80380000Y-133420000D01*
X80380000Y-130770000D02*
X80380000Y-133420000D01*
%TD*%
M02*
