M48
; DRILL file {KiCad 9.0.7} date 2026-04-23T18:20:34+0200
; FORMAT={-:-/ absolute / metric / decimal}
; #@! TF.CreationDate,2026-04-23T18:20:34+02:00
; #@! TF.GenerationSoftware,Kicad,Pcbnew,9.0.7
; #@! TF.FileFunction,Plated,1,2,PTH
FMAT,2
METRIC
; #@! TA.AperFunction,Plated,PTH,ViaDrill
T1C0.300
; #@! TA.AperFunction,Plated,PTH,ComponentDrill
T2C0.800
; #@! TA.AperFunction,Plated,PTH,ComponentDrill
T3C1.000
; #@! TA.AperFunction,Plated,PTH,ComponentDrill
T4C1.780
%
G90
G05
T1
X47.0Y-112.0
X59.0Y-80.0
X60.5Y-129.5
X62.565Y-132.0
X67.0Y-72.5
X67.5Y-86.5
X96.5Y-124.5
T2
X71.87Y-91.73
X71.87Y-94.23
X72.5Y-121.75
X72.5Y-124.25
X78.16Y-105.11
X78.16Y-107.65
X78.16Y-110.19
X78.16Y-112.73
X78.16Y-115.27
X78.16Y-117.81
X78.16Y-120.35
X78.16Y-122.89
X78.23Y-74.92
X78.23Y-77.46
X78.23Y-80.0
X78.23Y-82.54
X78.23Y-85.08
X78.23Y-87.62
X78.23Y-90.16
X78.23Y-92.7
X90.86Y-105.11
X90.86Y-107.65
X90.86Y-110.19
X90.86Y-112.73
X90.86Y-115.27
X90.86Y-117.81
X90.86Y-120.35
X90.86Y-122.89
X90.93Y-74.92
X90.93Y-77.46
X90.93Y-80.0
X90.93Y-82.54
X90.93Y-85.08
X90.93Y-87.62
X90.93Y-90.16
X90.93Y-92.7
T3
X46.0Y-92.3
X46.0Y-94.84
X46.0Y-97.38
X46.0Y-99.92
X46.0Y-102.46
X46.0Y-105.0
X46.0Y-107.54
X46.0Y-110.08
X46.0Y-114.14
X46.0Y-116.68
X46.0Y-119.22
X46.0Y-121.76
X46.0Y-124.3
X46.0Y-126.84
X46.0Y-129.38
X46.0Y-131.92
X46.0Y-134.46
X46.0Y-137.0
X48.69Y-142.5
X48.96Y-119.0
X48.96Y-123.0
X48.975Y-126.975
X51.23Y-142.5
X51.5Y-119.0
X51.5Y-123.0
X51.515Y-126.975
X53.77Y-142.5
X54.04Y-119.0
X54.04Y-123.0
X54.055Y-126.975
X56.31Y-142.5
X63.907Y-138.292
X66.447Y-138.292
X68.987Y-138.292
X73.87Y-79.65
X73.87Y-82.19
X73.87Y-84.73
X73.87Y-87.27
X74.0Y-110.19
X74.0Y-112.73
X74.0Y-115.27
X74.0Y-117.81
X79.0Y-129.5
X79.0Y-132.04
X80.73Y-98.42
X80.73Y-100.96
X83.0Y-129.5
X83.0Y-132.04
X84.73Y-98.645
X84.73Y-101.185
X87.0Y-129.5
X87.0Y-132.04
X88.73Y-98.645
X88.73Y-101.185
X94.26Y-92.3
X94.26Y-94.84
X94.26Y-97.38
X94.26Y-99.92
X94.26Y-102.46
X94.26Y-105.0
X94.26Y-110.08
X94.26Y-112.62
X94.26Y-115.16
X94.26Y-117.7
X94.26Y-120.24
X94.26Y-122.78
X94.26Y-125.32
X94.26Y-127.86
T4
X76.58Y-138.5
X76.58Y-141.9
X86.5Y-138.5
X86.5Y-141.9
T3
G00X92.04Y-141.2
M15
G01X92.04Y-139.2
M16
G05
G00X96.04Y-135.5
M15
G01X94.04Y-135.5
M16
G05
G00X98.04Y-141.2
M15
G01X98.04Y-139.2
M16
G05
M30
