%TF.GenerationSoftware,KiCad,Pcbnew,9.0.7*%
%TF.CreationDate,2026-04-12T11:49:20+02:00*%
%TF.ProjectId,carte elec,63617274-6520-4656-9c65-632e6b696361,rev?*%
%TF.SameCoordinates,Original*%
%TF.FileFunction,Paste,Top*%
%TF.FilePolarity,Positive*%
%FSLAX46Y46*%
G04 Gerber Fmt 4.6, Leading zero omitted, Abs format (unit mm)*
G04 Created by KiCad (PCBNEW 9.0.7) date 2026-04-12 11:49:20*
%MOMM*%
%LPD*%
G01*
G04 APERTURE LIST*
G04 Aperture macros list*
%AMRoundRect*
0 Rectangle with rounded corners*
0 $1 Rounding radius*
0 $2 $3 $4 $5 $6 $7 $8 $9 X,Y pos of 4 corners*
0 Add a 4 corners polygon primitive as box body*
4,1,4,$2,$3,$4,$5,$6,$7,$8,$9,$2,$3,0*
0 Add four circle primitives for the rounded corners*
1,1,$1+$1,$2,$3*
1,1,$1+$1,$4,$5*
1,1,$1+$1,$6,$7*
1,1,$1+$1,$8,$9*
0 Add four rect primitives between the rounded corners*
20,1,$1+$1,$2,$3,$4,$5,0*
20,1,$1+$1,$4,$5,$6,$7,0*
20,1,$1+$1,$6,$7,$8,$9,0*
20,1,$1+$1,$8,$9,$2,$3,0*%
G04 Aperture macros list end*
%ADD10RoundRect,0.250000X0.312500X0.625000X-0.312500X0.625000X-0.312500X-0.625000X0.312500X-0.625000X0*%
%ADD11RoundRect,0.250000X-0.312500X-0.625000X0.312500X-0.625000X0.312500X0.625000X-0.312500X0.625000X0*%
%ADD12RoundRect,0.250000X0.650000X-0.325000X0.650000X0.325000X-0.650000X0.325000X-0.650000X-0.325000X0*%
%ADD13RoundRect,0.250000X-0.325000X-0.650000X0.325000X-0.650000X0.325000X0.650000X-0.325000X0.650000X0*%
%ADD14RoundRect,0.250000X0.325000X0.650000X-0.325000X0.650000X-0.325000X-0.650000X0.325000X-0.650000X0*%
%ADD15RoundRect,0.250000X-0.625000X0.312500X-0.625000X-0.312500X0.625000X-0.312500X0.625000X0.312500X0*%
%ADD16R,0.900000X1.000000*%
%ADD17RoundRect,0.250000X0.625000X-0.312500X0.625000X0.312500X-0.625000X0.312500X-0.625000X-0.312500X0*%
%ADD18R,1.000000X2.000000*%
%ADD19R,2.000000X2.000000*%
%ADD20R,2.000000X1.100000*%
%ADD21RoundRect,0.243750X0.243750X0.456250X-0.243750X0.456250X-0.243750X-0.456250X0.243750X-0.456250X0*%
G04 APERTURE END LIST*
D10*
%TO.C,R10*%
X172537500Y-93000000D03*
X175462500Y-93000000D03*
%TD*%
D11*
%TO.C,R9*%
X170462500Y-93000000D03*
X167537500Y-93000000D03*
%TD*%
%TO.C,R8*%
X165500000Y-93000000D03*
X162575000Y-93000000D03*
%TD*%
D12*
%TO.C,C9*%
X178000000Y-112025000D03*
X178000000Y-114975000D03*
%TD*%
D13*
%TO.C,C10*%
X170485000Y-129700000D03*
X173435000Y-129700000D03*
%TD*%
D14*
%TO.C,C1*%
X178435000Y-129700000D03*
X175485000Y-129700000D03*
%TD*%
D11*
%TO.C,R7*%
X161267500Y-61190000D03*
X164192500Y-61190000D03*
%TD*%
D10*
%TO.C,R5*%
X174692500Y-61190000D03*
X171767500Y-61190000D03*
%TD*%
D12*
%TO.C,C8*%
X178230000Y-83665000D03*
X178230000Y-80715000D03*
%TD*%
D11*
%TO.C,R6*%
X166267500Y-61190000D03*
X169192500Y-61190000D03*
%TD*%
%TO.C,R3*%
X107537500Y-138000000D03*
X110462500Y-138000000D03*
%TD*%
D15*
%TO.C,R12*%
X162000000Y-122962500D03*
X162000000Y-120037500D03*
%TD*%
D14*
%TO.C,C2*%
X101345000Y-122500000D03*
X98395000Y-122500000D03*
%TD*%
%TO.C,C7*%
X119525000Y-139500000D03*
X122475000Y-139500000D03*
%TD*%
D16*
%TO.C,bouton_reset1*%
X99450000Y-128710000D03*
X103550000Y-128710000D03*
X99450000Y-130310000D03*
X103550000Y-130310000D03*
%TD*%
D15*
%TO.C,R11*%
X158000000Y-112962500D03*
X158000000Y-110037500D03*
%TD*%
D12*
%TO.C,C5*%
X112050000Y-65975000D03*
X112050000Y-68925000D03*
%TD*%
D15*
%TO.C,R2*%
X112050000Y-61387500D03*
X112050000Y-58462500D03*
%TD*%
D17*
%TO.C,R1*%
X112050000Y-76462500D03*
X112050000Y-79387500D03*
%TD*%
D18*
%TO.C,J1*%
X88650000Y-56825000D03*
X86050000Y-56825000D03*
D19*
X83600000Y-84925000D03*
X102250000Y-84925000D03*
X83600000Y-55925000D03*
X102250000Y-55925000D03*
D18*
X97600000Y-56825000D03*
D20*
X109000000Y-79000000D03*
X109000000Y-59875000D03*
X109000000Y-61575000D03*
X109000000Y-64000000D03*
X109000000Y-66500000D03*
X109000000Y-69000000D03*
X109000000Y-71500000D03*
X109000000Y-74000000D03*
X109000000Y-76500000D03*
%TD*%
D15*
%TO.C,R4*%
X110500000Y-132537500D03*
X110500000Y-135462500D03*
%TD*%
D14*
%TO.C,C3*%
X101345000Y-116500000D03*
X98395000Y-116500000D03*
%TD*%
D21*
%TO.C,D2*%
X164562500Y-123037500D03*
X166437500Y-123037500D03*
%TD*%
%TO.C,D1*%
X157562500Y-117000000D03*
X159437500Y-117000000D03*
%TD*%
D14*
%TO.C,C6*%
X178475000Y-126000000D03*
X175525000Y-126000000D03*
%TD*%
%TO.C,C11*%
X155475000Y-106000000D03*
X152525000Y-106000000D03*
%TD*%
D12*
%TO.C,C4*%
X159000000Y-122975000D03*
X159000000Y-120025000D03*
%TD*%
M02*
