%TF.GenerationSoftware,KiCad,Pcbnew,9.0.7*%
%TF.CreationDate,2026-04-23T18:20:58+02:00*%
%TF.ProjectId,carte elec,63617274-6520-4656-9c65-632e6b696361,rev?*%
%TF.SameCoordinates,Original*%
%TF.FileFunction,Drillmap*%
%TF.FilePolarity,Positive*%
%FSLAX45Y45*%
G04 Gerber Fmt 4.5, Leading zero omitted, Abs format (unit mm)*
G04 Created by KiCad (PCBNEW 9.0.7) date 2026-04-23 18:20:58*
%MOMM*%
%LPD*%
G01*
G04 APERTURE LIST*
%ADD10C,0.050000*%
%ADD11C,0.200000*%
%ADD12C,0.100000*%
%ADD13C,0.178000*%
G04 APERTURE END LIST*
D10*
X3150000Y-6000000D02*
X10650000Y-6000000D01*
X10650000Y-14850000D01*
X3150000Y-14850000D01*
X3150000Y-6000000D01*
D11*
D12*
X4685000Y-11185000D02*
X4715000Y-11215000D01*
X4715000Y-11185000D02*
X4685000Y-11215000D01*
X5885000Y-7985000D02*
X5915000Y-8015000D01*
X5915000Y-7985000D02*
X5885000Y-8015000D01*
X6035000Y-12935000D02*
X6065000Y-12965000D01*
X6065000Y-12935000D02*
X6035000Y-12965000D01*
X6241500Y-13185000D02*
X6271500Y-13215000D01*
X6271500Y-13185000D02*
X6241500Y-13215000D01*
X6685000Y-7235000D02*
X6715000Y-7265000D01*
X6715000Y-7235000D02*
X6685000Y-7265000D01*
X6735000Y-8635000D02*
X6765000Y-8665000D01*
X6765000Y-8635000D02*
X6735000Y-8665000D01*
X9635000Y-12435000D02*
X9665000Y-12465000D01*
X9665000Y-12435000D02*
X9635000Y-12465000D01*
X7227000Y-9173000D02*
G75*
G02*
X7147000Y-9173000I-40000J0D01*
G01*
X7147000Y-9173000D02*
G75*
G02*
X7227000Y-9173000I40000J0D01*
G01*
X7227000Y-9423000D02*
G75*
G02*
X7147000Y-9423000I-40000J0D01*
G01*
X7147000Y-9423000D02*
G75*
G02*
X7227000Y-9423000I40000J0D01*
G01*
X7290000Y-12175000D02*
G75*
G02*
X7210000Y-12175000I-40000J0D01*
G01*
X7210000Y-12175000D02*
G75*
G02*
X7290000Y-12175000I40000J0D01*
G01*
X7290000Y-12425000D02*
G75*
G02*
X7210000Y-12425000I-40000J0D01*
G01*
X7210000Y-12425000D02*
G75*
G02*
X7290000Y-12425000I40000J0D01*
G01*
X7856000Y-10511000D02*
G75*
G02*
X7776000Y-10511000I-40000J0D01*
G01*
X7776000Y-10511000D02*
G75*
G02*
X7856000Y-10511000I40000J0D01*
G01*
X7856000Y-10765000D02*
G75*
G02*
X7776000Y-10765000I-40000J0D01*
G01*
X7776000Y-10765000D02*
G75*
G02*
X7856000Y-10765000I40000J0D01*
G01*
X7856000Y-11019000D02*
G75*
G02*
X7776000Y-11019000I-40000J0D01*
G01*
X7776000Y-11019000D02*
G75*
G02*
X7856000Y-11019000I40000J0D01*
G01*
X7856000Y-11273000D02*
G75*
G02*
X7776000Y-11273000I-40000J0D01*
G01*
X7776000Y-11273000D02*
G75*
G02*
X7856000Y-11273000I40000J0D01*
G01*
X7856000Y-11527000D02*
G75*
G02*
X7776000Y-11527000I-40000J0D01*
G01*
X7776000Y-11527000D02*
G75*
G02*
X7856000Y-11527000I40000J0D01*
G01*
X7856000Y-11781000D02*
G75*
G02*
X7776000Y-11781000I-40000J0D01*
G01*
X7776000Y-11781000D02*
G75*
G02*
X7856000Y-11781000I40000J0D01*
G01*
X7856000Y-12035000D02*
G75*
G02*
X7776000Y-12035000I-40000J0D01*
G01*
X7776000Y-12035000D02*
G75*
G02*
X7856000Y-12035000I40000J0D01*
G01*
X7856000Y-12289000D02*
G75*
G02*
X7776000Y-12289000I-40000J0D01*
G01*
X7776000Y-12289000D02*
G75*
G02*
X7856000Y-12289000I40000J0D01*
G01*
X7863000Y-7492000D02*
G75*
G02*
X7783000Y-7492000I-40000J0D01*
G01*
X7783000Y-7492000D02*
G75*
G02*
X7863000Y-7492000I40000J0D01*
G01*
X7863000Y-7746000D02*
G75*
G02*
X7783000Y-7746000I-40000J0D01*
G01*
X7783000Y-7746000D02*
G75*
G02*
X7863000Y-7746000I40000J0D01*
G01*
X7863000Y-8000000D02*
G75*
G02*
X7783000Y-8000000I-40000J0D01*
G01*
X7783000Y-8000000D02*
G75*
G02*
X7863000Y-8000000I40000J0D01*
G01*
X7863000Y-8254000D02*
G75*
G02*
X7783000Y-8254000I-40000J0D01*
G01*
X7783000Y-8254000D02*
G75*
G02*
X7863000Y-8254000I40000J0D01*
G01*
X7863000Y-8508000D02*
G75*
G02*
X7783000Y-8508000I-40000J0D01*
G01*
X7783000Y-8508000D02*
G75*
G02*
X7863000Y-8508000I40000J0D01*
G01*
X7863000Y-8762000D02*
G75*
G02*
X7783000Y-8762000I-40000J0D01*
G01*
X7783000Y-8762000D02*
G75*
G02*
X7863000Y-8762000I40000J0D01*
G01*
X7863000Y-9016000D02*
G75*
G02*
X7783000Y-9016000I-40000J0D01*
G01*
X7783000Y-9016000D02*
G75*
G02*
X7863000Y-9016000I40000J0D01*
G01*
X7863000Y-9270000D02*
G75*
G02*
X7783000Y-9270000I-40000J0D01*
G01*
X7783000Y-9270000D02*
G75*
G02*
X7863000Y-9270000I40000J0D01*
G01*
X9126000Y-10511000D02*
G75*
G02*
X9046000Y-10511000I-40000J0D01*
G01*
X9046000Y-10511000D02*
G75*
G02*
X9126000Y-10511000I40000J0D01*
G01*
X9126000Y-10765000D02*
G75*
G02*
X9046000Y-10765000I-40000J0D01*
G01*
X9046000Y-10765000D02*
G75*
G02*
X9126000Y-10765000I40000J0D01*
G01*
X9126000Y-11019000D02*
G75*
G02*
X9046000Y-11019000I-40000J0D01*
G01*
X9046000Y-11019000D02*
G75*
G02*
X9126000Y-11019000I40000J0D01*
G01*
X9126000Y-11273000D02*
G75*
G02*
X9046000Y-11273000I-40000J0D01*
G01*
X9046000Y-11273000D02*
G75*
G02*
X9126000Y-11273000I40000J0D01*
G01*
X9126000Y-11527000D02*
G75*
G02*
X9046000Y-11527000I-40000J0D01*
G01*
X9046000Y-11527000D02*
G75*
G02*
X9126000Y-11527000I40000J0D01*
G01*
X9126000Y-11781000D02*
G75*
G02*
X9046000Y-11781000I-40000J0D01*
G01*
X9046000Y-11781000D02*
G75*
G02*
X9126000Y-11781000I40000J0D01*
G01*
X9126000Y-12035000D02*
G75*
G02*
X9046000Y-12035000I-40000J0D01*
G01*
X9046000Y-12035000D02*
G75*
G02*
X9126000Y-12035000I40000J0D01*
G01*
X9126000Y-12289000D02*
G75*
G02*
X9046000Y-12289000I-40000J0D01*
G01*
X9046000Y-12289000D02*
G75*
G02*
X9126000Y-12289000I40000J0D01*
G01*
X9133000Y-7492000D02*
G75*
G02*
X9053000Y-7492000I-40000J0D01*
G01*
X9053000Y-7492000D02*
G75*
G02*
X9133000Y-7492000I40000J0D01*
G01*
X9133000Y-7746000D02*
G75*
G02*
X9053000Y-7746000I-40000J0D01*
G01*
X9053000Y-7746000D02*
G75*
G02*
X9133000Y-7746000I40000J0D01*
G01*
X9133000Y-8000000D02*
G75*
G02*
X9053000Y-8000000I-40000J0D01*
G01*
X9053000Y-8000000D02*
G75*
G02*
X9133000Y-8000000I40000J0D01*
G01*
X9133000Y-8254000D02*
G75*
G02*
X9053000Y-8254000I-40000J0D01*
G01*
X9053000Y-8254000D02*
G75*
G02*
X9133000Y-8254000I40000J0D01*
G01*
X9133000Y-8508000D02*
G75*
G02*
X9053000Y-8508000I-40000J0D01*
G01*
X9053000Y-8508000D02*
G75*
G02*
X9133000Y-8508000I40000J0D01*
G01*
X9133000Y-8762000D02*
G75*
G02*
X9053000Y-8762000I-40000J0D01*
G01*
X9053000Y-8762000D02*
G75*
G02*
X9133000Y-8762000I40000J0D01*
G01*
X9133000Y-9016000D02*
G75*
G02*
X9053000Y-9016000I-40000J0D01*
G01*
X9053000Y-9016000D02*
G75*
G02*
X9133000Y-9016000I40000J0D01*
G01*
X9133000Y-9270000D02*
G75*
G02*
X9053000Y-9270000I-40000J0D01*
G01*
X9053000Y-9270000D02*
G75*
G02*
X9133000Y-9270000I40000J0D01*
G01*
X4600000Y-9180000D02*
X4600000Y-9280000D01*
X4550000Y-9230000D02*
X4650000Y-9230000D01*
X4600000Y-9434000D02*
X4600000Y-9534000D01*
X4550000Y-9484000D02*
X4650000Y-9484000D01*
X4600000Y-9688000D02*
X4600000Y-9788000D01*
X4550000Y-9738000D02*
X4650000Y-9738000D01*
X4600000Y-9942000D02*
X4600000Y-10042000D01*
X4550000Y-9992000D02*
X4650000Y-9992000D01*
X4600000Y-10196000D02*
X4600000Y-10296000D01*
X4550000Y-10246000D02*
X4650000Y-10246000D01*
X4600000Y-10450000D02*
X4600000Y-10550000D01*
X4550000Y-10500000D02*
X4650000Y-10500000D01*
X4600000Y-10704000D02*
X4600000Y-10804000D01*
X4550000Y-10754000D02*
X4650000Y-10754000D01*
X4600000Y-10958000D02*
X4600000Y-11058000D01*
X4550000Y-11008000D02*
X4650000Y-11008000D01*
X4600000Y-11364000D02*
X4600000Y-11464000D01*
X4550000Y-11414000D02*
X4650000Y-11414000D01*
X4600000Y-11618000D02*
X4600000Y-11718000D01*
X4550000Y-11668000D02*
X4650000Y-11668000D01*
X4600000Y-11872000D02*
X4600000Y-11972000D01*
X4550000Y-11922000D02*
X4650000Y-11922000D01*
X4600000Y-12126000D02*
X4600000Y-12226000D01*
X4550000Y-12176000D02*
X4650000Y-12176000D01*
X4600000Y-12380000D02*
X4600000Y-12480000D01*
X4550000Y-12430000D02*
X4650000Y-12430000D01*
X4600000Y-12634000D02*
X4600000Y-12734000D01*
X4550000Y-12684000D02*
X4650000Y-12684000D01*
X4600000Y-12888000D02*
X4600000Y-12988000D01*
X4550000Y-12938000D02*
X4650000Y-12938000D01*
X4600000Y-13142000D02*
X4600000Y-13242000D01*
X4550000Y-13192000D02*
X4650000Y-13192000D01*
X4600000Y-13396000D02*
X4600000Y-13496000D01*
X4550000Y-13446000D02*
X4650000Y-13446000D01*
X4600000Y-13650000D02*
X4600000Y-13750000D01*
X4550000Y-13700000D02*
X4650000Y-13700000D01*
X4869000Y-14200000D02*
X4869000Y-14300000D01*
X4819000Y-14250000D02*
X4919000Y-14250000D01*
X4896000Y-11850000D02*
X4896000Y-11950000D01*
X4846000Y-11900000D02*
X4946000Y-11900000D01*
X4896000Y-12250000D02*
X4896000Y-12350000D01*
X4846000Y-12300000D02*
X4946000Y-12300000D01*
X4897500Y-12647500D02*
X4897500Y-12747500D01*
X4847500Y-12697500D02*
X4947500Y-12697500D01*
X5123000Y-14200000D02*
X5123000Y-14300000D01*
X5073000Y-14250000D02*
X5173000Y-14250000D01*
X5150000Y-11850000D02*
X5150000Y-11950000D01*
X5100000Y-11900000D02*
X5200000Y-11900000D01*
X5150000Y-12250000D02*
X5150000Y-12350000D01*
X5100000Y-12300000D02*
X5200000Y-12300000D01*
X5151500Y-12647500D02*
X5151500Y-12747500D01*
X5101500Y-12697500D02*
X5201500Y-12697500D01*
X5377000Y-14200000D02*
X5377000Y-14300000D01*
X5327000Y-14250000D02*
X5427000Y-14250000D01*
X5404000Y-11850000D02*
X5404000Y-11950000D01*
X5354000Y-11900000D02*
X5454000Y-11900000D01*
X5404000Y-12250000D02*
X5404000Y-12350000D01*
X5354000Y-12300000D02*
X5454000Y-12300000D01*
X5405500Y-12647500D02*
X5405500Y-12747500D01*
X5355500Y-12697500D02*
X5455500Y-12697500D01*
X5631000Y-14200000D02*
X5631000Y-14300000D01*
X5581000Y-14250000D02*
X5681000Y-14250000D01*
X6390750Y-13779250D02*
X6390750Y-13879250D01*
X6340750Y-13829250D02*
X6440750Y-13829250D01*
X6644750Y-13779250D02*
X6644750Y-13879250D01*
X6594750Y-13829250D02*
X6694750Y-13829250D01*
X6898750Y-13779250D02*
X6898750Y-13879250D01*
X6848750Y-13829250D02*
X6948750Y-13829250D01*
X7387000Y-7915000D02*
X7387000Y-8015000D01*
X7337000Y-7965000D02*
X7437000Y-7965000D01*
X7387000Y-8169000D02*
X7387000Y-8269000D01*
X7337000Y-8219000D02*
X7437000Y-8219000D01*
X7387000Y-8423000D02*
X7387000Y-8523000D01*
X7337000Y-8473000D02*
X7437000Y-8473000D01*
X7387000Y-8677000D02*
X7387000Y-8777000D01*
X7337000Y-8727000D02*
X7437000Y-8727000D01*
X7400000Y-10969000D02*
X7400000Y-11069000D01*
X7350000Y-11019000D02*
X7450000Y-11019000D01*
X7400000Y-11223000D02*
X7400000Y-11323000D01*
X7350000Y-11273000D02*
X7450000Y-11273000D01*
X7400000Y-11477000D02*
X7400000Y-11577000D01*
X7350000Y-11527000D02*
X7450000Y-11527000D01*
X7400000Y-11731000D02*
X7400000Y-11831000D01*
X7350000Y-11781000D02*
X7450000Y-11781000D01*
X7900000Y-12900000D02*
X7900000Y-13000000D01*
X7850000Y-12950000D02*
X7950000Y-12950000D01*
X7900000Y-13154000D02*
X7900000Y-13254000D01*
X7850000Y-13204000D02*
X7950000Y-13204000D01*
X8073000Y-9792000D02*
X8073000Y-9892000D01*
X8023000Y-9842000D02*
X8123000Y-9842000D01*
X8073000Y-10046000D02*
X8073000Y-10146000D01*
X8023000Y-10096000D02*
X8123000Y-10096000D01*
X8300000Y-12900000D02*
X8300000Y-13000000D01*
X8250000Y-12950000D02*
X8350000Y-12950000D01*
X8300000Y-13154000D02*
X8300000Y-13254000D01*
X8250000Y-13204000D02*
X8350000Y-13204000D01*
X8473000Y-9814500D02*
X8473000Y-9914500D01*
X8423000Y-9864500D02*
X8523000Y-9864500D01*
X8473000Y-10068500D02*
X8473000Y-10168500D01*
X8423000Y-10118500D02*
X8523000Y-10118500D01*
X8700000Y-12900000D02*
X8700000Y-13000000D01*
X8650000Y-12950000D02*
X8750000Y-12950000D01*
X8700000Y-13154000D02*
X8700000Y-13254000D01*
X8650000Y-13204000D02*
X8750000Y-13204000D01*
X8873000Y-9814500D02*
X8873000Y-9914500D01*
X8823000Y-9864500D02*
X8923000Y-9864500D01*
X8873000Y-10068500D02*
X8873000Y-10168500D01*
X8823000Y-10118500D02*
X8923000Y-10118500D01*
X9204000Y-13970000D02*
X9204000Y-14070000D01*
X9154000Y-14020000D02*
X9254000Y-14020000D01*
X9254000Y-14120000D02*
X9254000Y-13920000D01*
X9154000Y-13920000D02*
G75*
G02*
X9254000Y-13920000I50000J0D01*
G01*
X9154000Y-13920000D02*
X9154000Y-14120000D01*
X9154000Y-14120000D02*
G75*
G03*
X9254000Y-14120000I50000J0D01*
G01*
X9426000Y-9180000D02*
X9426000Y-9280000D01*
X9376000Y-9230000D02*
X9476000Y-9230000D01*
X9426000Y-9434000D02*
X9426000Y-9534000D01*
X9376000Y-9484000D02*
X9476000Y-9484000D01*
X9426000Y-9688000D02*
X9426000Y-9788000D01*
X9376000Y-9738000D02*
X9476000Y-9738000D01*
X9426000Y-9942000D02*
X9426000Y-10042000D01*
X9376000Y-9992000D02*
X9476000Y-9992000D01*
X9426000Y-10196000D02*
X9426000Y-10296000D01*
X9376000Y-10246000D02*
X9476000Y-10246000D01*
X9426000Y-10450000D02*
X9426000Y-10550000D01*
X9376000Y-10500000D02*
X9476000Y-10500000D01*
X9426000Y-10958000D02*
X9426000Y-11058000D01*
X9376000Y-11008000D02*
X9476000Y-11008000D01*
X9426000Y-11212000D02*
X9426000Y-11312000D01*
X9376000Y-11262000D02*
X9476000Y-11262000D01*
X9426000Y-11466000D02*
X9426000Y-11566000D01*
X9376000Y-11516000D02*
X9476000Y-11516000D01*
X9426000Y-11720000D02*
X9426000Y-11820000D01*
X9376000Y-11770000D02*
X9476000Y-11770000D01*
X9426000Y-11974000D02*
X9426000Y-12074000D01*
X9376000Y-12024000D02*
X9476000Y-12024000D01*
X9426000Y-12228000D02*
X9426000Y-12328000D01*
X9376000Y-12278000D02*
X9476000Y-12278000D01*
X9426000Y-12482000D02*
X9426000Y-12582000D01*
X9376000Y-12532000D02*
X9476000Y-12532000D01*
X9426000Y-12736000D02*
X9426000Y-12836000D01*
X9376000Y-12786000D02*
X9476000Y-12786000D01*
X9504000Y-13500000D02*
X9504000Y-13600000D01*
X9454000Y-13550000D02*
X9554000Y-13550000D01*
X9604000Y-13500000D02*
X9404000Y-13500000D01*
X9404000Y-13600000D02*
G75*
G02*
X9404000Y-13500000I0J50000D01*
G01*
X9404000Y-13600000D02*
X9604000Y-13600000D01*
X9604000Y-13600000D02*
G75*
G03*
X9604000Y-13500000I0J50000D01*
G01*
X9804000Y-13970000D02*
X9804000Y-14070000D01*
X9754000Y-14020000D02*
X9854000Y-14020000D01*
X9854000Y-14120000D02*
X9854000Y-13920000D01*
X9754000Y-13920000D02*
G75*
G02*
X9854000Y-13920000I50000J0D01*
G01*
X9754000Y-13920000D02*
X9754000Y-14120000D01*
X9754000Y-14120000D02*
G75*
G03*
X9854000Y-14120000I50000J0D01*
G01*
D13*
X7720933Y-13912933D02*
X7720933Y-13787067D01*
X7595067Y-13787067D01*
X7595067Y-13912933D01*
X7720933Y-13912933D01*
X7720933Y-14252933D02*
X7720933Y-14127067D01*
X7595067Y-14127067D01*
X7595067Y-14252933D01*
X7720933Y-14252933D01*
X8712933Y-13912933D02*
X8712933Y-13787067D01*
X8587067Y-13787067D01*
X8587067Y-13912933D01*
X8712933Y-13912933D01*
X8712933Y-14252933D02*
X8712933Y-14127067D01*
X8587067Y-14127067D01*
X8587067Y-14252933D01*
X8712933Y-14252933D01*
D11*
X3408277Y-15163984D02*
X3408277Y-14963984D01*
X3408277Y-14963984D02*
X3455896Y-14963984D01*
X3455896Y-14963984D02*
X3484467Y-14973508D01*
X3484467Y-14973508D02*
X3503515Y-14992555D01*
X3503515Y-14992555D02*
X3513039Y-15011603D01*
X3513039Y-15011603D02*
X3522562Y-15049698D01*
X3522562Y-15049698D02*
X3522562Y-15078269D01*
X3522562Y-15078269D02*
X3513039Y-15116365D01*
X3513039Y-15116365D02*
X3503515Y-15135412D01*
X3503515Y-15135412D02*
X3484467Y-15154460D01*
X3484467Y-15154460D02*
X3455896Y-15163984D01*
X3455896Y-15163984D02*
X3408277Y-15163984D01*
X3608277Y-15163984D02*
X3608277Y-15030650D01*
X3608277Y-15068746D02*
X3617801Y-15049698D01*
X3617801Y-15049698D02*
X3627324Y-15040174D01*
X3627324Y-15040174D02*
X3646372Y-15030650D01*
X3646372Y-15030650D02*
X3665420Y-15030650D01*
X3732086Y-15163984D02*
X3732086Y-15030650D01*
X3732086Y-14963984D02*
X3722562Y-14973508D01*
X3722562Y-14973508D02*
X3732086Y-14983031D01*
X3732086Y-14983031D02*
X3741610Y-14973508D01*
X3741610Y-14973508D02*
X3732086Y-14963984D01*
X3732086Y-14963984D02*
X3732086Y-14983031D01*
X3855896Y-15163984D02*
X3836848Y-15154460D01*
X3836848Y-15154460D02*
X3827324Y-15135412D01*
X3827324Y-15135412D02*
X3827324Y-14963984D01*
X3960658Y-15163984D02*
X3941610Y-15154460D01*
X3941610Y-15154460D02*
X3932086Y-15135412D01*
X3932086Y-15135412D02*
X3932086Y-14963984D01*
X4189229Y-15163984D02*
X4189229Y-14963984D01*
X4189229Y-14963984D02*
X4255896Y-15106841D01*
X4255896Y-15106841D02*
X4322563Y-14963984D01*
X4322563Y-14963984D02*
X4322563Y-15163984D01*
X4503515Y-15163984D02*
X4503515Y-15059222D01*
X4503515Y-15059222D02*
X4493991Y-15040174D01*
X4493991Y-15040174D02*
X4474944Y-15030650D01*
X4474944Y-15030650D02*
X4436848Y-15030650D01*
X4436848Y-15030650D02*
X4417801Y-15040174D01*
X4503515Y-15154460D02*
X4484467Y-15163984D01*
X4484467Y-15163984D02*
X4436848Y-15163984D01*
X4436848Y-15163984D02*
X4417801Y-15154460D01*
X4417801Y-15154460D02*
X4408277Y-15135412D01*
X4408277Y-15135412D02*
X4408277Y-15116365D01*
X4408277Y-15116365D02*
X4417801Y-15097317D01*
X4417801Y-15097317D02*
X4436848Y-15087793D01*
X4436848Y-15087793D02*
X4484467Y-15087793D01*
X4484467Y-15087793D02*
X4503515Y-15078269D01*
X4598753Y-15030650D02*
X4598753Y-15230650D01*
X4598753Y-15040174D02*
X4617801Y-15030650D01*
X4617801Y-15030650D02*
X4655896Y-15030650D01*
X4655896Y-15030650D02*
X4674944Y-15040174D01*
X4674944Y-15040174D02*
X4684467Y-15049698D01*
X4684467Y-15049698D02*
X4693991Y-15068746D01*
X4693991Y-15068746D02*
X4693991Y-15125888D01*
X4693991Y-15125888D02*
X4684467Y-15144936D01*
X4684467Y-15144936D02*
X4674944Y-15154460D01*
X4674944Y-15154460D02*
X4655896Y-15163984D01*
X4655896Y-15163984D02*
X4617801Y-15163984D01*
X4617801Y-15163984D02*
X4598753Y-15154460D01*
X4779705Y-15144936D02*
X4789229Y-15154460D01*
X4789229Y-15154460D02*
X4779705Y-15163984D01*
X4779705Y-15163984D02*
X4770182Y-15154460D01*
X4770182Y-15154460D02*
X4779705Y-15144936D01*
X4779705Y-15144936D02*
X4779705Y-15163984D01*
X4779705Y-15040174D02*
X4789229Y-15049698D01*
X4789229Y-15049698D02*
X4779705Y-15059222D01*
X4779705Y-15059222D02*
X4770182Y-15049698D01*
X4770182Y-15049698D02*
X4779705Y-15040174D01*
X4779705Y-15040174D02*
X4779705Y-15059222D01*
D12*
X3117500Y-15477500D02*
X3147500Y-15507500D01*
X3147500Y-15477500D02*
X3117500Y-15507500D01*
D11*
X3446372Y-15383984D02*
X3465420Y-15383984D01*
X3465420Y-15383984D02*
X3484467Y-15393508D01*
X3484467Y-15393508D02*
X3493991Y-15403031D01*
X3493991Y-15403031D02*
X3503515Y-15422079D01*
X3503515Y-15422079D02*
X3513039Y-15460174D01*
X3513039Y-15460174D02*
X3513039Y-15507793D01*
X3513039Y-15507793D02*
X3503515Y-15545888D01*
X3503515Y-15545888D02*
X3493991Y-15564936D01*
X3493991Y-15564936D02*
X3484467Y-15574460D01*
X3484467Y-15574460D02*
X3465420Y-15583984D01*
X3465420Y-15583984D02*
X3446372Y-15583984D01*
X3446372Y-15583984D02*
X3427324Y-15574460D01*
X3427324Y-15574460D02*
X3417801Y-15564936D01*
X3417801Y-15564936D02*
X3408277Y-15545888D01*
X3408277Y-15545888D02*
X3398753Y-15507793D01*
X3398753Y-15507793D02*
X3398753Y-15460174D01*
X3398753Y-15460174D02*
X3408277Y-15422079D01*
X3408277Y-15422079D02*
X3417801Y-15403031D01*
X3417801Y-15403031D02*
X3427324Y-15393508D01*
X3427324Y-15393508D02*
X3446372Y-15383984D01*
X3598753Y-15564936D02*
X3608277Y-15574460D01*
X3608277Y-15574460D02*
X3598753Y-15583984D01*
X3598753Y-15583984D02*
X3589229Y-15574460D01*
X3589229Y-15574460D02*
X3598753Y-15564936D01*
X3598753Y-15564936D02*
X3598753Y-15583984D01*
X3674943Y-15383984D02*
X3798753Y-15383984D01*
X3798753Y-15383984D02*
X3732086Y-15460174D01*
X3732086Y-15460174D02*
X3760658Y-15460174D01*
X3760658Y-15460174D02*
X3779705Y-15469698D01*
X3779705Y-15469698D02*
X3789229Y-15479222D01*
X3789229Y-15479222D02*
X3798753Y-15498269D01*
X3798753Y-15498269D02*
X3798753Y-15545888D01*
X3798753Y-15545888D02*
X3789229Y-15564936D01*
X3789229Y-15564936D02*
X3779705Y-15574460D01*
X3779705Y-15574460D02*
X3760658Y-15583984D01*
X3760658Y-15583984D02*
X3703515Y-15583984D01*
X3703515Y-15583984D02*
X3684467Y-15574460D01*
X3684467Y-15574460D02*
X3674943Y-15564936D01*
X3922562Y-15383984D02*
X3941610Y-15383984D01*
X3941610Y-15383984D02*
X3960658Y-15393508D01*
X3960658Y-15393508D02*
X3970182Y-15403031D01*
X3970182Y-15403031D02*
X3979705Y-15422079D01*
X3979705Y-15422079D02*
X3989229Y-15460174D01*
X3989229Y-15460174D02*
X3989229Y-15507793D01*
X3989229Y-15507793D02*
X3979705Y-15545888D01*
X3979705Y-15545888D02*
X3970182Y-15564936D01*
X3970182Y-15564936D02*
X3960658Y-15574460D01*
X3960658Y-15574460D02*
X3941610Y-15583984D01*
X3941610Y-15583984D02*
X3922562Y-15583984D01*
X3922562Y-15583984D02*
X3903515Y-15574460D01*
X3903515Y-15574460D02*
X3893991Y-15564936D01*
X3893991Y-15564936D02*
X3884467Y-15545888D01*
X3884467Y-15545888D02*
X3874943Y-15507793D01*
X3874943Y-15507793D02*
X3874943Y-15460174D01*
X3874943Y-15460174D02*
X3884467Y-15422079D01*
X3884467Y-15422079D02*
X3893991Y-15403031D01*
X3893991Y-15403031D02*
X3903515Y-15393508D01*
X3903515Y-15393508D02*
X3922562Y-15383984D01*
X4113039Y-15383984D02*
X4132086Y-15383984D01*
X4132086Y-15383984D02*
X4151134Y-15393508D01*
X4151134Y-15393508D02*
X4160658Y-15403031D01*
X4160658Y-15403031D02*
X4170182Y-15422079D01*
X4170182Y-15422079D02*
X4179705Y-15460174D01*
X4179705Y-15460174D02*
X4179705Y-15507793D01*
X4179705Y-15507793D02*
X4170182Y-15545888D01*
X4170182Y-15545888D02*
X4160658Y-15564936D01*
X4160658Y-15564936D02*
X4151134Y-15574460D01*
X4151134Y-15574460D02*
X4132086Y-15583984D01*
X4132086Y-15583984D02*
X4113039Y-15583984D01*
X4113039Y-15583984D02*
X4093991Y-15574460D01*
X4093991Y-15574460D02*
X4084467Y-15564936D01*
X4084467Y-15564936D02*
X4074943Y-15545888D01*
X4074943Y-15545888D02*
X4065420Y-15507793D01*
X4065420Y-15507793D02*
X4065420Y-15460174D01*
X4065420Y-15460174D02*
X4074943Y-15422079D01*
X4074943Y-15422079D02*
X4084467Y-15403031D01*
X4084467Y-15403031D02*
X4093991Y-15393508D01*
X4093991Y-15393508D02*
X4113039Y-15383984D01*
X4265420Y-15583984D02*
X4265420Y-15450650D01*
X4265420Y-15469698D02*
X4274944Y-15460174D01*
X4274944Y-15460174D02*
X4293991Y-15450650D01*
X4293991Y-15450650D02*
X4322563Y-15450650D01*
X4322563Y-15450650D02*
X4341610Y-15460174D01*
X4341610Y-15460174D02*
X4351134Y-15479222D01*
X4351134Y-15479222D02*
X4351134Y-15583984D01*
X4351134Y-15479222D02*
X4360658Y-15460174D01*
X4360658Y-15460174D02*
X4379705Y-15450650D01*
X4379705Y-15450650D02*
X4408277Y-15450650D01*
X4408277Y-15450650D02*
X4427325Y-15460174D01*
X4427325Y-15460174D02*
X4436848Y-15479222D01*
X4436848Y-15479222D02*
X4436848Y-15583984D01*
X4532086Y-15583984D02*
X4532086Y-15450650D01*
X4532086Y-15469698D02*
X4541610Y-15460174D01*
X4541610Y-15460174D02*
X4560658Y-15450650D01*
X4560658Y-15450650D02*
X4589229Y-15450650D01*
X4589229Y-15450650D02*
X4608277Y-15460174D01*
X4608277Y-15460174D02*
X4617801Y-15479222D01*
X4617801Y-15479222D02*
X4617801Y-15583984D01*
X4617801Y-15479222D02*
X4627325Y-15460174D01*
X4627325Y-15460174D02*
X4646372Y-15450650D01*
X4646372Y-15450650D02*
X4674944Y-15450650D01*
X4674944Y-15450650D02*
X4693991Y-15460174D01*
X4693991Y-15460174D02*
X4703515Y-15479222D01*
X4703515Y-15479222D02*
X4703515Y-15583984D01*
X5093991Y-15374460D02*
X4922563Y-15631603D01*
X5351134Y-15383984D02*
X5370182Y-15383984D01*
X5370182Y-15383984D02*
X5389229Y-15393508D01*
X5389229Y-15393508D02*
X5398753Y-15403031D01*
X5398753Y-15403031D02*
X5408277Y-15422079D01*
X5408277Y-15422079D02*
X5417801Y-15460174D01*
X5417801Y-15460174D02*
X5417801Y-15507793D01*
X5417801Y-15507793D02*
X5408277Y-15545888D01*
X5408277Y-15545888D02*
X5398753Y-15564936D01*
X5398753Y-15564936D02*
X5389229Y-15574460D01*
X5389229Y-15574460D02*
X5370182Y-15583984D01*
X5370182Y-15583984D02*
X5351134Y-15583984D01*
X5351134Y-15583984D02*
X5332087Y-15574460D01*
X5332087Y-15574460D02*
X5322563Y-15564936D01*
X5322563Y-15564936D02*
X5313039Y-15545888D01*
X5313039Y-15545888D02*
X5303515Y-15507793D01*
X5303515Y-15507793D02*
X5303515Y-15460174D01*
X5303515Y-15460174D02*
X5313039Y-15422079D01*
X5313039Y-15422079D02*
X5322563Y-15403031D01*
X5322563Y-15403031D02*
X5332087Y-15393508D01*
X5332087Y-15393508D02*
X5351134Y-15383984D01*
X5503515Y-15564936D02*
X5513039Y-15574460D01*
X5513039Y-15574460D02*
X5503515Y-15583984D01*
X5503515Y-15583984D02*
X5493991Y-15574460D01*
X5493991Y-15574460D02*
X5503515Y-15564936D01*
X5503515Y-15564936D02*
X5503515Y-15583984D01*
X5636848Y-15383984D02*
X5655896Y-15383984D01*
X5655896Y-15383984D02*
X5674944Y-15393508D01*
X5674944Y-15393508D02*
X5684467Y-15403031D01*
X5684467Y-15403031D02*
X5693991Y-15422079D01*
X5693991Y-15422079D02*
X5703515Y-15460174D01*
X5703515Y-15460174D02*
X5703515Y-15507793D01*
X5703515Y-15507793D02*
X5693991Y-15545888D01*
X5693991Y-15545888D02*
X5684467Y-15564936D01*
X5684467Y-15564936D02*
X5674944Y-15574460D01*
X5674944Y-15574460D02*
X5655896Y-15583984D01*
X5655896Y-15583984D02*
X5636848Y-15583984D01*
X5636848Y-15583984D02*
X5617801Y-15574460D01*
X5617801Y-15574460D02*
X5608277Y-15564936D01*
X5608277Y-15564936D02*
X5598753Y-15545888D01*
X5598753Y-15545888D02*
X5589229Y-15507793D01*
X5589229Y-15507793D02*
X5589229Y-15460174D01*
X5589229Y-15460174D02*
X5598753Y-15422079D01*
X5598753Y-15422079D02*
X5608277Y-15403031D01*
X5608277Y-15403031D02*
X5617801Y-15393508D01*
X5617801Y-15393508D02*
X5636848Y-15383984D01*
X5893991Y-15583984D02*
X5779706Y-15583984D01*
X5836848Y-15583984D02*
X5836848Y-15383984D01*
X5836848Y-15383984D02*
X5817801Y-15412555D01*
X5817801Y-15412555D02*
X5798753Y-15431603D01*
X5798753Y-15431603D02*
X5779706Y-15441127D01*
X6084467Y-15583984D02*
X5970182Y-15583984D01*
X6027325Y-15583984D02*
X6027325Y-15383984D01*
X6027325Y-15383984D02*
X6008277Y-15412555D01*
X6008277Y-15412555D02*
X5989229Y-15431603D01*
X5989229Y-15431603D02*
X5970182Y-15441127D01*
X6198753Y-15469698D02*
X6179706Y-15460174D01*
X6179706Y-15460174D02*
X6170182Y-15450650D01*
X6170182Y-15450650D02*
X6160658Y-15431603D01*
X6160658Y-15431603D02*
X6160658Y-15422079D01*
X6160658Y-15422079D02*
X6170182Y-15403031D01*
X6170182Y-15403031D02*
X6179706Y-15393508D01*
X6179706Y-15393508D02*
X6198753Y-15383984D01*
X6198753Y-15383984D02*
X6236848Y-15383984D01*
X6236848Y-15383984D02*
X6255896Y-15393508D01*
X6255896Y-15393508D02*
X6265420Y-15403031D01*
X6265420Y-15403031D02*
X6274944Y-15422079D01*
X6274944Y-15422079D02*
X6274944Y-15431603D01*
X6274944Y-15431603D02*
X6265420Y-15450650D01*
X6265420Y-15450650D02*
X6255896Y-15460174D01*
X6255896Y-15460174D02*
X6236848Y-15469698D01*
X6236848Y-15469698D02*
X6198753Y-15469698D01*
X6198753Y-15469698D02*
X6179706Y-15479222D01*
X6179706Y-15479222D02*
X6170182Y-15488746D01*
X6170182Y-15488746D02*
X6160658Y-15507793D01*
X6160658Y-15507793D02*
X6160658Y-15545888D01*
X6160658Y-15545888D02*
X6170182Y-15564936D01*
X6170182Y-15564936D02*
X6179706Y-15574460D01*
X6179706Y-15574460D02*
X6198753Y-15583984D01*
X6198753Y-15583984D02*
X6236848Y-15583984D01*
X6236848Y-15583984D02*
X6255896Y-15574460D01*
X6255896Y-15574460D02*
X6265420Y-15564936D01*
X6265420Y-15564936D02*
X6274944Y-15545888D01*
X6274944Y-15545888D02*
X6274944Y-15507793D01*
X6274944Y-15507793D02*
X6265420Y-15488746D01*
X6265420Y-15488746D02*
X6255896Y-15479222D01*
X6255896Y-15479222D02*
X6236848Y-15469698D01*
X6351134Y-15383984D02*
X6351134Y-15422079D01*
X6427325Y-15383984D02*
X6427325Y-15422079D01*
X6722563Y-15660174D02*
X6713039Y-15650650D01*
X6713039Y-15650650D02*
X6693991Y-15622079D01*
X6693991Y-15622079D02*
X6684468Y-15603031D01*
X6684468Y-15603031D02*
X6674944Y-15574460D01*
X6674944Y-15574460D02*
X6665420Y-15526841D01*
X6665420Y-15526841D02*
X6665420Y-15488746D01*
X6665420Y-15488746D02*
X6674944Y-15441127D01*
X6674944Y-15441127D02*
X6684468Y-15412555D01*
X6684468Y-15412555D02*
X6693991Y-15393508D01*
X6693991Y-15393508D02*
X6713039Y-15364936D01*
X6713039Y-15364936D02*
X6722563Y-15355412D01*
X6779706Y-15383984D02*
X6913039Y-15383984D01*
X6913039Y-15383984D02*
X6827325Y-15583984D01*
X7141610Y-15583984D02*
X7141610Y-15383984D01*
X7227325Y-15583984D02*
X7227325Y-15479222D01*
X7227325Y-15479222D02*
X7217801Y-15460174D01*
X7217801Y-15460174D02*
X7198753Y-15450650D01*
X7198753Y-15450650D02*
X7170182Y-15450650D01*
X7170182Y-15450650D02*
X7151134Y-15460174D01*
X7151134Y-15460174D02*
X7141610Y-15469698D01*
X7351134Y-15583984D02*
X7332087Y-15574460D01*
X7332087Y-15574460D02*
X7322563Y-15564936D01*
X7322563Y-15564936D02*
X7313039Y-15545888D01*
X7313039Y-15545888D02*
X7313039Y-15488746D01*
X7313039Y-15488746D02*
X7322563Y-15469698D01*
X7322563Y-15469698D02*
X7332087Y-15460174D01*
X7332087Y-15460174D02*
X7351134Y-15450650D01*
X7351134Y-15450650D02*
X7379706Y-15450650D01*
X7379706Y-15450650D02*
X7398753Y-15460174D01*
X7398753Y-15460174D02*
X7408277Y-15469698D01*
X7408277Y-15469698D02*
X7417801Y-15488746D01*
X7417801Y-15488746D02*
X7417801Y-15545888D01*
X7417801Y-15545888D02*
X7408277Y-15564936D01*
X7408277Y-15564936D02*
X7398753Y-15574460D01*
X7398753Y-15574460D02*
X7379706Y-15583984D01*
X7379706Y-15583984D02*
X7351134Y-15583984D01*
X7532087Y-15583984D02*
X7513039Y-15574460D01*
X7513039Y-15574460D02*
X7503515Y-15555412D01*
X7503515Y-15555412D02*
X7503515Y-15383984D01*
X7684468Y-15574460D02*
X7665420Y-15583984D01*
X7665420Y-15583984D02*
X7627325Y-15583984D01*
X7627325Y-15583984D02*
X7608277Y-15574460D01*
X7608277Y-15574460D02*
X7598753Y-15555412D01*
X7598753Y-15555412D02*
X7598753Y-15479222D01*
X7598753Y-15479222D02*
X7608277Y-15460174D01*
X7608277Y-15460174D02*
X7627325Y-15450650D01*
X7627325Y-15450650D02*
X7665420Y-15450650D01*
X7665420Y-15450650D02*
X7684468Y-15460174D01*
X7684468Y-15460174D02*
X7693991Y-15479222D01*
X7693991Y-15479222D02*
X7693991Y-15498269D01*
X7693991Y-15498269D02*
X7598753Y-15517317D01*
X7770182Y-15574460D02*
X7789230Y-15583984D01*
X7789230Y-15583984D02*
X7827325Y-15583984D01*
X7827325Y-15583984D02*
X7846372Y-15574460D01*
X7846372Y-15574460D02*
X7855896Y-15555412D01*
X7855896Y-15555412D02*
X7855896Y-15545888D01*
X7855896Y-15545888D02*
X7846372Y-15526841D01*
X7846372Y-15526841D02*
X7827325Y-15517317D01*
X7827325Y-15517317D02*
X7798753Y-15517317D01*
X7798753Y-15517317D02*
X7779706Y-15507793D01*
X7779706Y-15507793D02*
X7770182Y-15488746D01*
X7770182Y-15488746D02*
X7770182Y-15479222D01*
X7770182Y-15479222D02*
X7779706Y-15460174D01*
X7779706Y-15460174D02*
X7798753Y-15450650D01*
X7798753Y-15450650D02*
X7827325Y-15450650D01*
X7827325Y-15450650D02*
X7846372Y-15460174D01*
X7922563Y-15660174D02*
X7932087Y-15650650D01*
X7932087Y-15650650D02*
X7951134Y-15622079D01*
X7951134Y-15622079D02*
X7960658Y-15603031D01*
X7960658Y-15603031D02*
X7970182Y-15574460D01*
X7970182Y-15574460D02*
X7979706Y-15526841D01*
X7979706Y-15526841D02*
X7979706Y-15488746D01*
X7979706Y-15488746D02*
X7970182Y-15441127D01*
X7970182Y-15441127D02*
X7960658Y-15412555D01*
X7960658Y-15412555D02*
X7951134Y-15393508D01*
X7951134Y-15393508D02*
X7932087Y-15364936D01*
X7932087Y-15364936D02*
X7922563Y-15355412D01*
D12*
X3147500Y-15756500D02*
G75*
G02*
X3067500Y-15756500I-40000J0D01*
G01*
X3067500Y-15756500D02*
G75*
G02*
X3147500Y-15756500I40000J0D01*
G01*
D11*
X3446372Y-15647984D02*
X3465420Y-15647984D01*
X3465420Y-15647984D02*
X3484467Y-15657508D01*
X3484467Y-15657508D02*
X3493991Y-15667031D01*
X3493991Y-15667031D02*
X3503515Y-15686079D01*
X3503515Y-15686079D02*
X3513039Y-15724174D01*
X3513039Y-15724174D02*
X3513039Y-15771793D01*
X3513039Y-15771793D02*
X3503515Y-15809888D01*
X3503515Y-15809888D02*
X3493991Y-15828936D01*
X3493991Y-15828936D02*
X3484467Y-15838460D01*
X3484467Y-15838460D02*
X3465420Y-15847984D01*
X3465420Y-15847984D02*
X3446372Y-15847984D01*
X3446372Y-15847984D02*
X3427324Y-15838460D01*
X3427324Y-15838460D02*
X3417801Y-15828936D01*
X3417801Y-15828936D02*
X3408277Y-15809888D01*
X3408277Y-15809888D02*
X3398753Y-15771793D01*
X3398753Y-15771793D02*
X3398753Y-15724174D01*
X3398753Y-15724174D02*
X3408277Y-15686079D01*
X3408277Y-15686079D02*
X3417801Y-15667031D01*
X3417801Y-15667031D02*
X3427324Y-15657508D01*
X3427324Y-15657508D02*
X3446372Y-15647984D01*
X3598753Y-15828936D02*
X3608277Y-15838460D01*
X3608277Y-15838460D02*
X3598753Y-15847984D01*
X3598753Y-15847984D02*
X3589229Y-15838460D01*
X3589229Y-15838460D02*
X3598753Y-15828936D01*
X3598753Y-15828936D02*
X3598753Y-15847984D01*
X3722562Y-15733698D02*
X3703515Y-15724174D01*
X3703515Y-15724174D02*
X3693991Y-15714650D01*
X3693991Y-15714650D02*
X3684467Y-15695603D01*
X3684467Y-15695603D02*
X3684467Y-15686079D01*
X3684467Y-15686079D02*
X3693991Y-15667031D01*
X3693991Y-15667031D02*
X3703515Y-15657508D01*
X3703515Y-15657508D02*
X3722562Y-15647984D01*
X3722562Y-15647984D02*
X3760658Y-15647984D01*
X3760658Y-15647984D02*
X3779705Y-15657508D01*
X3779705Y-15657508D02*
X3789229Y-15667031D01*
X3789229Y-15667031D02*
X3798753Y-15686079D01*
X3798753Y-15686079D02*
X3798753Y-15695603D01*
X3798753Y-15695603D02*
X3789229Y-15714650D01*
X3789229Y-15714650D02*
X3779705Y-15724174D01*
X3779705Y-15724174D02*
X3760658Y-15733698D01*
X3760658Y-15733698D02*
X3722562Y-15733698D01*
X3722562Y-15733698D02*
X3703515Y-15743222D01*
X3703515Y-15743222D02*
X3693991Y-15752746D01*
X3693991Y-15752746D02*
X3684467Y-15771793D01*
X3684467Y-15771793D02*
X3684467Y-15809888D01*
X3684467Y-15809888D02*
X3693991Y-15828936D01*
X3693991Y-15828936D02*
X3703515Y-15838460D01*
X3703515Y-15838460D02*
X3722562Y-15847984D01*
X3722562Y-15847984D02*
X3760658Y-15847984D01*
X3760658Y-15847984D02*
X3779705Y-15838460D01*
X3779705Y-15838460D02*
X3789229Y-15828936D01*
X3789229Y-15828936D02*
X3798753Y-15809888D01*
X3798753Y-15809888D02*
X3798753Y-15771793D01*
X3798753Y-15771793D02*
X3789229Y-15752746D01*
X3789229Y-15752746D02*
X3779705Y-15743222D01*
X3779705Y-15743222D02*
X3760658Y-15733698D01*
X3922562Y-15647984D02*
X3941610Y-15647984D01*
X3941610Y-15647984D02*
X3960658Y-15657508D01*
X3960658Y-15657508D02*
X3970182Y-15667031D01*
X3970182Y-15667031D02*
X3979705Y-15686079D01*
X3979705Y-15686079D02*
X3989229Y-15724174D01*
X3989229Y-15724174D02*
X3989229Y-15771793D01*
X3989229Y-15771793D02*
X3979705Y-15809888D01*
X3979705Y-15809888D02*
X3970182Y-15828936D01*
X3970182Y-15828936D02*
X3960658Y-15838460D01*
X3960658Y-15838460D02*
X3941610Y-15847984D01*
X3941610Y-15847984D02*
X3922562Y-15847984D01*
X3922562Y-15847984D02*
X3903515Y-15838460D01*
X3903515Y-15838460D02*
X3893991Y-15828936D01*
X3893991Y-15828936D02*
X3884467Y-15809888D01*
X3884467Y-15809888D02*
X3874943Y-15771793D01*
X3874943Y-15771793D02*
X3874943Y-15724174D01*
X3874943Y-15724174D02*
X3884467Y-15686079D01*
X3884467Y-15686079D02*
X3893991Y-15667031D01*
X3893991Y-15667031D02*
X3903515Y-15657508D01*
X3903515Y-15657508D02*
X3922562Y-15647984D01*
X4113039Y-15647984D02*
X4132086Y-15647984D01*
X4132086Y-15647984D02*
X4151134Y-15657508D01*
X4151134Y-15657508D02*
X4160658Y-15667031D01*
X4160658Y-15667031D02*
X4170182Y-15686079D01*
X4170182Y-15686079D02*
X4179705Y-15724174D01*
X4179705Y-15724174D02*
X4179705Y-15771793D01*
X4179705Y-15771793D02*
X4170182Y-15809888D01*
X4170182Y-15809888D02*
X4160658Y-15828936D01*
X4160658Y-15828936D02*
X4151134Y-15838460D01*
X4151134Y-15838460D02*
X4132086Y-15847984D01*
X4132086Y-15847984D02*
X4113039Y-15847984D01*
X4113039Y-15847984D02*
X4093991Y-15838460D01*
X4093991Y-15838460D02*
X4084467Y-15828936D01*
X4084467Y-15828936D02*
X4074943Y-15809888D01*
X4074943Y-15809888D02*
X4065420Y-15771793D01*
X4065420Y-15771793D02*
X4065420Y-15724174D01*
X4065420Y-15724174D02*
X4074943Y-15686079D01*
X4074943Y-15686079D02*
X4084467Y-15667031D01*
X4084467Y-15667031D02*
X4093991Y-15657508D01*
X4093991Y-15657508D02*
X4113039Y-15647984D01*
X4265420Y-15847984D02*
X4265420Y-15714650D01*
X4265420Y-15733698D02*
X4274944Y-15724174D01*
X4274944Y-15724174D02*
X4293991Y-15714650D01*
X4293991Y-15714650D02*
X4322563Y-15714650D01*
X4322563Y-15714650D02*
X4341610Y-15724174D01*
X4341610Y-15724174D02*
X4351134Y-15743222D01*
X4351134Y-15743222D02*
X4351134Y-15847984D01*
X4351134Y-15743222D02*
X4360658Y-15724174D01*
X4360658Y-15724174D02*
X4379705Y-15714650D01*
X4379705Y-15714650D02*
X4408277Y-15714650D01*
X4408277Y-15714650D02*
X4427325Y-15724174D01*
X4427325Y-15724174D02*
X4436848Y-15743222D01*
X4436848Y-15743222D02*
X4436848Y-15847984D01*
X4532086Y-15847984D02*
X4532086Y-15714650D01*
X4532086Y-15733698D02*
X4541610Y-15724174D01*
X4541610Y-15724174D02*
X4560658Y-15714650D01*
X4560658Y-15714650D02*
X4589229Y-15714650D01*
X4589229Y-15714650D02*
X4608277Y-15724174D01*
X4608277Y-15724174D02*
X4617801Y-15743222D01*
X4617801Y-15743222D02*
X4617801Y-15847984D01*
X4617801Y-15743222D02*
X4627325Y-15724174D01*
X4627325Y-15724174D02*
X4646372Y-15714650D01*
X4646372Y-15714650D02*
X4674944Y-15714650D01*
X4674944Y-15714650D02*
X4693991Y-15724174D01*
X4693991Y-15724174D02*
X4703515Y-15743222D01*
X4703515Y-15743222D02*
X4703515Y-15847984D01*
X5093991Y-15638460D02*
X4922563Y-15895603D01*
X5351134Y-15647984D02*
X5370182Y-15647984D01*
X5370182Y-15647984D02*
X5389229Y-15657508D01*
X5389229Y-15657508D02*
X5398753Y-15667031D01*
X5398753Y-15667031D02*
X5408277Y-15686079D01*
X5408277Y-15686079D02*
X5417801Y-15724174D01*
X5417801Y-15724174D02*
X5417801Y-15771793D01*
X5417801Y-15771793D02*
X5408277Y-15809888D01*
X5408277Y-15809888D02*
X5398753Y-15828936D01*
X5398753Y-15828936D02*
X5389229Y-15838460D01*
X5389229Y-15838460D02*
X5370182Y-15847984D01*
X5370182Y-15847984D02*
X5351134Y-15847984D01*
X5351134Y-15847984D02*
X5332087Y-15838460D01*
X5332087Y-15838460D02*
X5322563Y-15828936D01*
X5322563Y-15828936D02*
X5313039Y-15809888D01*
X5313039Y-15809888D02*
X5303515Y-15771793D01*
X5303515Y-15771793D02*
X5303515Y-15724174D01*
X5303515Y-15724174D02*
X5313039Y-15686079D01*
X5313039Y-15686079D02*
X5322563Y-15667031D01*
X5322563Y-15667031D02*
X5332087Y-15657508D01*
X5332087Y-15657508D02*
X5351134Y-15647984D01*
X5503515Y-15828936D02*
X5513039Y-15838460D01*
X5513039Y-15838460D02*
X5503515Y-15847984D01*
X5503515Y-15847984D02*
X5493991Y-15838460D01*
X5493991Y-15838460D02*
X5503515Y-15828936D01*
X5503515Y-15828936D02*
X5503515Y-15847984D01*
X5636848Y-15647984D02*
X5655896Y-15647984D01*
X5655896Y-15647984D02*
X5674944Y-15657508D01*
X5674944Y-15657508D02*
X5684467Y-15667031D01*
X5684467Y-15667031D02*
X5693991Y-15686079D01*
X5693991Y-15686079D02*
X5703515Y-15724174D01*
X5703515Y-15724174D02*
X5703515Y-15771793D01*
X5703515Y-15771793D02*
X5693991Y-15809888D01*
X5693991Y-15809888D02*
X5684467Y-15828936D01*
X5684467Y-15828936D02*
X5674944Y-15838460D01*
X5674944Y-15838460D02*
X5655896Y-15847984D01*
X5655896Y-15847984D02*
X5636848Y-15847984D01*
X5636848Y-15847984D02*
X5617801Y-15838460D01*
X5617801Y-15838460D02*
X5608277Y-15828936D01*
X5608277Y-15828936D02*
X5598753Y-15809888D01*
X5598753Y-15809888D02*
X5589229Y-15771793D01*
X5589229Y-15771793D02*
X5589229Y-15724174D01*
X5589229Y-15724174D02*
X5598753Y-15686079D01*
X5598753Y-15686079D02*
X5608277Y-15667031D01*
X5608277Y-15667031D02*
X5617801Y-15657508D01*
X5617801Y-15657508D02*
X5636848Y-15647984D01*
X5770182Y-15647984D02*
X5893991Y-15647984D01*
X5893991Y-15647984D02*
X5827325Y-15724174D01*
X5827325Y-15724174D02*
X5855896Y-15724174D01*
X5855896Y-15724174D02*
X5874944Y-15733698D01*
X5874944Y-15733698D02*
X5884467Y-15743222D01*
X5884467Y-15743222D02*
X5893991Y-15762269D01*
X5893991Y-15762269D02*
X5893991Y-15809888D01*
X5893991Y-15809888D02*
X5884467Y-15828936D01*
X5884467Y-15828936D02*
X5874944Y-15838460D01*
X5874944Y-15838460D02*
X5855896Y-15847984D01*
X5855896Y-15847984D02*
X5798753Y-15847984D01*
X5798753Y-15847984D02*
X5779706Y-15838460D01*
X5779706Y-15838460D02*
X5770182Y-15828936D01*
X6084467Y-15847984D02*
X5970182Y-15847984D01*
X6027325Y-15847984D02*
X6027325Y-15647984D01*
X6027325Y-15647984D02*
X6008277Y-15676555D01*
X6008277Y-15676555D02*
X5989229Y-15695603D01*
X5989229Y-15695603D02*
X5970182Y-15705127D01*
X6265420Y-15647984D02*
X6170182Y-15647984D01*
X6170182Y-15647984D02*
X6160658Y-15743222D01*
X6160658Y-15743222D02*
X6170182Y-15733698D01*
X6170182Y-15733698D02*
X6189229Y-15724174D01*
X6189229Y-15724174D02*
X6236848Y-15724174D01*
X6236848Y-15724174D02*
X6255896Y-15733698D01*
X6255896Y-15733698D02*
X6265420Y-15743222D01*
X6265420Y-15743222D02*
X6274944Y-15762269D01*
X6274944Y-15762269D02*
X6274944Y-15809888D01*
X6274944Y-15809888D02*
X6265420Y-15828936D01*
X6265420Y-15828936D02*
X6255896Y-15838460D01*
X6255896Y-15838460D02*
X6236848Y-15847984D01*
X6236848Y-15847984D02*
X6189229Y-15847984D01*
X6189229Y-15847984D02*
X6170182Y-15838460D01*
X6170182Y-15838460D02*
X6160658Y-15828936D01*
X6351134Y-15647984D02*
X6351134Y-15686079D01*
X6427325Y-15647984D02*
X6427325Y-15686079D01*
X6722563Y-15924174D02*
X6713039Y-15914650D01*
X6713039Y-15914650D02*
X6693991Y-15886079D01*
X6693991Y-15886079D02*
X6684468Y-15867031D01*
X6684468Y-15867031D02*
X6674944Y-15838460D01*
X6674944Y-15838460D02*
X6665420Y-15790841D01*
X6665420Y-15790841D02*
X6665420Y-15752746D01*
X6665420Y-15752746D02*
X6674944Y-15705127D01*
X6674944Y-15705127D02*
X6684468Y-15676555D01*
X6684468Y-15676555D02*
X6693991Y-15657508D01*
X6693991Y-15657508D02*
X6713039Y-15628936D01*
X6713039Y-15628936D02*
X6722563Y-15619412D01*
X6779706Y-15647984D02*
X6903515Y-15647984D01*
X6903515Y-15647984D02*
X6836848Y-15724174D01*
X6836848Y-15724174D02*
X6865420Y-15724174D01*
X6865420Y-15724174D02*
X6884468Y-15733698D01*
X6884468Y-15733698D02*
X6893991Y-15743222D01*
X6893991Y-15743222D02*
X6903515Y-15762269D01*
X6903515Y-15762269D02*
X6903515Y-15809888D01*
X6903515Y-15809888D02*
X6893991Y-15828936D01*
X6893991Y-15828936D02*
X6884468Y-15838460D01*
X6884468Y-15838460D02*
X6865420Y-15847984D01*
X6865420Y-15847984D02*
X6808277Y-15847984D01*
X6808277Y-15847984D02*
X6789229Y-15838460D01*
X6789229Y-15838460D02*
X6779706Y-15828936D01*
X7074944Y-15647984D02*
X7036848Y-15647984D01*
X7036848Y-15647984D02*
X7017801Y-15657508D01*
X7017801Y-15657508D02*
X7008277Y-15667031D01*
X7008277Y-15667031D02*
X6989229Y-15695603D01*
X6989229Y-15695603D02*
X6979706Y-15733698D01*
X6979706Y-15733698D02*
X6979706Y-15809888D01*
X6979706Y-15809888D02*
X6989229Y-15828936D01*
X6989229Y-15828936D02*
X6998753Y-15838460D01*
X6998753Y-15838460D02*
X7017801Y-15847984D01*
X7017801Y-15847984D02*
X7055896Y-15847984D01*
X7055896Y-15847984D02*
X7074944Y-15838460D01*
X7074944Y-15838460D02*
X7084468Y-15828936D01*
X7084468Y-15828936D02*
X7093991Y-15809888D01*
X7093991Y-15809888D02*
X7093991Y-15762269D01*
X7093991Y-15762269D02*
X7084468Y-15743222D01*
X7084468Y-15743222D02*
X7074944Y-15733698D01*
X7074944Y-15733698D02*
X7055896Y-15724174D01*
X7055896Y-15724174D02*
X7017801Y-15724174D01*
X7017801Y-15724174D02*
X6998753Y-15733698D01*
X6998753Y-15733698D02*
X6989229Y-15743222D01*
X6989229Y-15743222D02*
X6979706Y-15762269D01*
X7332087Y-15847984D02*
X7332087Y-15647984D01*
X7417801Y-15847984D02*
X7417801Y-15743222D01*
X7417801Y-15743222D02*
X7408277Y-15724174D01*
X7408277Y-15724174D02*
X7389230Y-15714650D01*
X7389230Y-15714650D02*
X7360658Y-15714650D01*
X7360658Y-15714650D02*
X7341610Y-15724174D01*
X7341610Y-15724174D02*
X7332087Y-15733698D01*
X7541610Y-15847984D02*
X7522563Y-15838460D01*
X7522563Y-15838460D02*
X7513039Y-15828936D01*
X7513039Y-15828936D02*
X7503515Y-15809888D01*
X7503515Y-15809888D02*
X7503515Y-15752746D01*
X7503515Y-15752746D02*
X7513039Y-15733698D01*
X7513039Y-15733698D02*
X7522563Y-15724174D01*
X7522563Y-15724174D02*
X7541610Y-15714650D01*
X7541610Y-15714650D02*
X7570182Y-15714650D01*
X7570182Y-15714650D02*
X7589230Y-15724174D01*
X7589230Y-15724174D02*
X7598753Y-15733698D01*
X7598753Y-15733698D02*
X7608277Y-15752746D01*
X7608277Y-15752746D02*
X7608277Y-15809888D01*
X7608277Y-15809888D02*
X7598753Y-15828936D01*
X7598753Y-15828936D02*
X7589230Y-15838460D01*
X7589230Y-15838460D02*
X7570182Y-15847984D01*
X7570182Y-15847984D02*
X7541610Y-15847984D01*
X7722563Y-15847984D02*
X7703515Y-15838460D01*
X7703515Y-15838460D02*
X7693991Y-15819412D01*
X7693991Y-15819412D02*
X7693991Y-15647984D01*
X7874944Y-15838460D02*
X7855896Y-15847984D01*
X7855896Y-15847984D02*
X7817801Y-15847984D01*
X7817801Y-15847984D02*
X7798753Y-15838460D01*
X7798753Y-15838460D02*
X7789230Y-15819412D01*
X7789230Y-15819412D02*
X7789230Y-15743222D01*
X7789230Y-15743222D02*
X7798753Y-15724174D01*
X7798753Y-15724174D02*
X7817801Y-15714650D01*
X7817801Y-15714650D02*
X7855896Y-15714650D01*
X7855896Y-15714650D02*
X7874944Y-15724174D01*
X7874944Y-15724174D02*
X7884468Y-15743222D01*
X7884468Y-15743222D02*
X7884468Y-15762269D01*
X7884468Y-15762269D02*
X7789230Y-15781317D01*
X7960658Y-15838460D02*
X7979706Y-15847984D01*
X7979706Y-15847984D02*
X8017801Y-15847984D01*
X8017801Y-15847984D02*
X8036849Y-15838460D01*
X8036849Y-15838460D02*
X8046372Y-15819412D01*
X8046372Y-15819412D02*
X8046372Y-15809888D01*
X8046372Y-15809888D02*
X8036849Y-15790841D01*
X8036849Y-15790841D02*
X8017801Y-15781317D01*
X8017801Y-15781317D02*
X7989230Y-15781317D01*
X7989230Y-15781317D02*
X7970182Y-15771793D01*
X7970182Y-15771793D02*
X7960658Y-15752746D01*
X7960658Y-15752746D02*
X7960658Y-15743222D01*
X7960658Y-15743222D02*
X7970182Y-15724174D01*
X7970182Y-15724174D02*
X7989230Y-15714650D01*
X7989230Y-15714650D02*
X8017801Y-15714650D01*
X8017801Y-15714650D02*
X8036849Y-15724174D01*
X8113039Y-15924174D02*
X8122563Y-15914650D01*
X8122563Y-15914650D02*
X8141611Y-15886079D01*
X8141611Y-15886079D02*
X8151134Y-15867031D01*
X8151134Y-15867031D02*
X8160658Y-15838460D01*
X8160658Y-15838460D02*
X8170182Y-15790841D01*
X8170182Y-15790841D02*
X8170182Y-15752746D01*
X8170182Y-15752746D02*
X8160658Y-15705127D01*
X8160658Y-15705127D02*
X8151134Y-15676555D01*
X8151134Y-15676555D02*
X8141611Y-15657508D01*
X8141611Y-15657508D02*
X8122563Y-15628936D01*
X8122563Y-15628936D02*
X8113039Y-15619412D01*
D12*
X3097500Y-15970500D02*
X3097500Y-16070500D01*
X3047500Y-16020500D02*
X3147500Y-16020500D01*
D11*
X3513039Y-16111984D02*
X3398753Y-16111984D01*
X3455896Y-16111984D02*
X3455896Y-15911984D01*
X3455896Y-15911984D02*
X3436848Y-15940555D01*
X3436848Y-15940555D02*
X3417801Y-15959603D01*
X3417801Y-15959603D02*
X3398753Y-15969127D01*
X3598753Y-16092936D02*
X3608277Y-16102460D01*
X3608277Y-16102460D02*
X3598753Y-16111984D01*
X3598753Y-16111984D02*
X3589229Y-16102460D01*
X3589229Y-16102460D02*
X3598753Y-16092936D01*
X3598753Y-16092936D02*
X3598753Y-16111984D01*
X3732086Y-15911984D02*
X3751134Y-15911984D01*
X3751134Y-15911984D02*
X3770182Y-15921508D01*
X3770182Y-15921508D02*
X3779705Y-15931031D01*
X3779705Y-15931031D02*
X3789229Y-15950079D01*
X3789229Y-15950079D02*
X3798753Y-15988174D01*
X3798753Y-15988174D02*
X3798753Y-16035793D01*
X3798753Y-16035793D02*
X3789229Y-16073888D01*
X3789229Y-16073888D02*
X3779705Y-16092936D01*
X3779705Y-16092936D02*
X3770182Y-16102460D01*
X3770182Y-16102460D02*
X3751134Y-16111984D01*
X3751134Y-16111984D02*
X3732086Y-16111984D01*
X3732086Y-16111984D02*
X3713039Y-16102460D01*
X3713039Y-16102460D02*
X3703515Y-16092936D01*
X3703515Y-16092936D02*
X3693991Y-16073888D01*
X3693991Y-16073888D02*
X3684467Y-16035793D01*
X3684467Y-16035793D02*
X3684467Y-15988174D01*
X3684467Y-15988174D02*
X3693991Y-15950079D01*
X3693991Y-15950079D02*
X3703515Y-15931031D01*
X3703515Y-15931031D02*
X3713039Y-15921508D01*
X3713039Y-15921508D02*
X3732086Y-15911984D01*
X3922562Y-15911984D02*
X3941610Y-15911984D01*
X3941610Y-15911984D02*
X3960658Y-15921508D01*
X3960658Y-15921508D02*
X3970182Y-15931031D01*
X3970182Y-15931031D02*
X3979705Y-15950079D01*
X3979705Y-15950079D02*
X3989229Y-15988174D01*
X3989229Y-15988174D02*
X3989229Y-16035793D01*
X3989229Y-16035793D02*
X3979705Y-16073888D01*
X3979705Y-16073888D02*
X3970182Y-16092936D01*
X3970182Y-16092936D02*
X3960658Y-16102460D01*
X3960658Y-16102460D02*
X3941610Y-16111984D01*
X3941610Y-16111984D02*
X3922562Y-16111984D01*
X3922562Y-16111984D02*
X3903515Y-16102460D01*
X3903515Y-16102460D02*
X3893991Y-16092936D01*
X3893991Y-16092936D02*
X3884467Y-16073888D01*
X3884467Y-16073888D02*
X3874943Y-16035793D01*
X3874943Y-16035793D02*
X3874943Y-15988174D01*
X3874943Y-15988174D02*
X3884467Y-15950079D01*
X3884467Y-15950079D02*
X3893991Y-15931031D01*
X3893991Y-15931031D02*
X3903515Y-15921508D01*
X3903515Y-15921508D02*
X3922562Y-15911984D01*
X4113039Y-15911984D02*
X4132086Y-15911984D01*
X4132086Y-15911984D02*
X4151134Y-15921508D01*
X4151134Y-15921508D02*
X4160658Y-15931031D01*
X4160658Y-15931031D02*
X4170182Y-15950079D01*
X4170182Y-15950079D02*
X4179705Y-15988174D01*
X4179705Y-15988174D02*
X4179705Y-16035793D01*
X4179705Y-16035793D02*
X4170182Y-16073888D01*
X4170182Y-16073888D02*
X4160658Y-16092936D01*
X4160658Y-16092936D02*
X4151134Y-16102460D01*
X4151134Y-16102460D02*
X4132086Y-16111984D01*
X4132086Y-16111984D02*
X4113039Y-16111984D01*
X4113039Y-16111984D02*
X4093991Y-16102460D01*
X4093991Y-16102460D02*
X4084467Y-16092936D01*
X4084467Y-16092936D02*
X4074943Y-16073888D01*
X4074943Y-16073888D02*
X4065420Y-16035793D01*
X4065420Y-16035793D02*
X4065420Y-15988174D01*
X4065420Y-15988174D02*
X4074943Y-15950079D01*
X4074943Y-15950079D02*
X4084467Y-15931031D01*
X4084467Y-15931031D02*
X4093991Y-15921508D01*
X4093991Y-15921508D02*
X4113039Y-15911984D01*
X4265420Y-16111984D02*
X4265420Y-15978650D01*
X4265420Y-15997698D02*
X4274944Y-15988174D01*
X4274944Y-15988174D02*
X4293991Y-15978650D01*
X4293991Y-15978650D02*
X4322563Y-15978650D01*
X4322563Y-15978650D02*
X4341610Y-15988174D01*
X4341610Y-15988174D02*
X4351134Y-16007222D01*
X4351134Y-16007222D02*
X4351134Y-16111984D01*
X4351134Y-16007222D02*
X4360658Y-15988174D01*
X4360658Y-15988174D02*
X4379705Y-15978650D01*
X4379705Y-15978650D02*
X4408277Y-15978650D01*
X4408277Y-15978650D02*
X4427325Y-15988174D01*
X4427325Y-15988174D02*
X4436848Y-16007222D01*
X4436848Y-16007222D02*
X4436848Y-16111984D01*
X4532086Y-16111984D02*
X4532086Y-15978650D01*
X4532086Y-15997698D02*
X4541610Y-15988174D01*
X4541610Y-15988174D02*
X4560658Y-15978650D01*
X4560658Y-15978650D02*
X4589229Y-15978650D01*
X4589229Y-15978650D02*
X4608277Y-15988174D01*
X4608277Y-15988174D02*
X4617801Y-16007222D01*
X4617801Y-16007222D02*
X4617801Y-16111984D01*
X4617801Y-16007222D02*
X4627325Y-15988174D01*
X4627325Y-15988174D02*
X4646372Y-15978650D01*
X4646372Y-15978650D02*
X4674944Y-15978650D01*
X4674944Y-15978650D02*
X4693991Y-15988174D01*
X4693991Y-15988174D02*
X4703515Y-16007222D01*
X4703515Y-16007222D02*
X4703515Y-16111984D01*
X5093991Y-15902460D02*
X4922563Y-16159603D01*
X5351134Y-15911984D02*
X5370182Y-15911984D01*
X5370182Y-15911984D02*
X5389229Y-15921508D01*
X5389229Y-15921508D02*
X5398753Y-15931031D01*
X5398753Y-15931031D02*
X5408277Y-15950079D01*
X5408277Y-15950079D02*
X5417801Y-15988174D01*
X5417801Y-15988174D02*
X5417801Y-16035793D01*
X5417801Y-16035793D02*
X5408277Y-16073888D01*
X5408277Y-16073888D02*
X5398753Y-16092936D01*
X5398753Y-16092936D02*
X5389229Y-16102460D01*
X5389229Y-16102460D02*
X5370182Y-16111984D01*
X5370182Y-16111984D02*
X5351134Y-16111984D01*
X5351134Y-16111984D02*
X5332087Y-16102460D01*
X5332087Y-16102460D02*
X5322563Y-16092936D01*
X5322563Y-16092936D02*
X5313039Y-16073888D01*
X5313039Y-16073888D02*
X5303515Y-16035793D01*
X5303515Y-16035793D02*
X5303515Y-15988174D01*
X5303515Y-15988174D02*
X5313039Y-15950079D01*
X5313039Y-15950079D02*
X5322563Y-15931031D01*
X5322563Y-15931031D02*
X5332087Y-15921508D01*
X5332087Y-15921508D02*
X5351134Y-15911984D01*
X5503515Y-16092936D02*
X5513039Y-16102460D01*
X5513039Y-16102460D02*
X5503515Y-16111984D01*
X5503515Y-16111984D02*
X5493991Y-16102460D01*
X5493991Y-16102460D02*
X5503515Y-16092936D01*
X5503515Y-16092936D02*
X5503515Y-16111984D01*
X5636848Y-15911984D02*
X5655896Y-15911984D01*
X5655896Y-15911984D02*
X5674944Y-15921508D01*
X5674944Y-15921508D02*
X5684467Y-15931031D01*
X5684467Y-15931031D02*
X5693991Y-15950079D01*
X5693991Y-15950079D02*
X5703515Y-15988174D01*
X5703515Y-15988174D02*
X5703515Y-16035793D01*
X5703515Y-16035793D02*
X5693991Y-16073888D01*
X5693991Y-16073888D02*
X5684467Y-16092936D01*
X5684467Y-16092936D02*
X5674944Y-16102460D01*
X5674944Y-16102460D02*
X5655896Y-16111984D01*
X5655896Y-16111984D02*
X5636848Y-16111984D01*
X5636848Y-16111984D02*
X5617801Y-16102460D01*
X5617801Y-16102460D02*
X5608277Y-16092936D01*
X5608277Y-16092936D02*
X5598753Y-16073888D01*
X5598753Y-16073888D02*
X5589229Y-16035793D01*
X5589229Y-16035793D02*
X5589229Y-15988174D01*
X5589229Y-15988174D02*
X5598753Y-15950079D01*
X5598753Y-15950079D02*
X5608277Y-15931031D01*
X5608277Y-15931031D02*
X5617801Y-15921508D01*
X5617801Y-15921508D02*
X5636848Y-15911984D01*
X5770182Y-15911984D02*
X5893991Y-15911984D01*
X5893991Y-15911984D02*
X5827325Y-15988174D01*
X5827325Y-15988174D02*
X5855896Y-15988174D01*
X5855896Y-15988174D02*
X5874944Y-15997698D01*
X5874944Y-15997698D02*
X5884467Y-16007222D01*
X5884467Y-16007222D02*
X5893991Y-16026269D01*
X5893991Y-16026269D02*
X5893991Y-16073888D01*
X5893991Y-16073888D02*
X5884467Y-16092936D01*
X5884467Y-16092936D02*
X5874944Y-16102460D01*
X5874944Y-16102460D02*
X5855896Y-16111984D01*
X5855896Y-16111984D02*
X5798753Y-16111984D01*
X5798753Y-16111984D02*
X5779706Y-16102460D01*
X5779706Y-16102460D02*
X5770182Y-16092936D01*
X5989229Y-16111984D02*
X6027325Y-16111984D01*
X6027325Y-16111984D02*
X6046372Y-16102460D01*
X6046372Y-16102460D02*
X6055896Y-16092936D01*
X6055896Y-16092936D02*
X6074944Y-16064365D01*
X6074944Y-16064365D02*
X6084467Y-16026269D01*
X6084467Y-16026269D02*
X6084467Y-15950079D01*
X6084467Y-15950079D02*
X6074944Y-15931031D01*
X6074944Y-15931031D02*
X6065420Y-15921508D01*
X6065420Y-15921508D02*
X6046372Y-15911984D01*
X6046372Y-15911984D02*
X6008277Y-15911984D01*
X6008277Y-15911984D02*
X5989229Y-15921508D01*
X5989229Y-15921508D02*
X5979706Y-15931031D01*
X5979706Y-15931031D02*
X5970182Y-15950079D01*
X5970182Y-15950079D02*
X5970182Y-15997698D01*
X5970182Y-15997698D02*
X5979706Y-16016746D01*
X5979706Y-16016746D02*
X5989229Y-16026269D01*
X5989229Y-16026269D02*
X6008277Y-16035793D01*
X6008277Y-16035793D02*
X6046372Y-16035793D01*
X6046372Y-16035793D02*
X6065420Y-16026269D01*
X6065420Y-16026269D02*
X6074944Y-16016746D01*
X6074944Y-16016746D02*
X6084467Y-15997698D01*
X6255896Y-15978650D02*
X6255896Y-16111984D01*
X6208277Y-15902460D02*
X6160658Y-16045317D01*
X6160658Y-16045317D02*
X6284467Y-16045317D01*
X6351134Y-15911984D02*
X6351134Y-15950079D01*
X6427325Y-15911984D02*
X6427325Y-15950079D01*
X6722563Y-16188174D02*
X6713039Y-16178650D01*
X6713039Y-16178650D02*
X6693991Y-16150079D01*
X6693991Y-16150079D02*
X6684468Y-16131031D01*
X6684468Y-16131031D02*
X6674944Y-16102460D01*
X6674944Y-16102460D02*
X6665420Y-16054841D01*
X6665420Y-16054841D02*
X6665420Y-16016746D01*
X6665420Y-16016746D02*
X6674944Y-15969127D01*
X6674944Y-15969127D02*
X6684468Y-15940555D01*
X6684468Y-15940555D02*
X6693991Y-15921508D01*
X6693991Y-15921508D02*
X6713039Y-15892936D01*
X6713039Y-15892936D02*
X6722563Y-15883412D01*
X6884468Y-15911984D02*
X6846372Y-15911984D01*
X6846372Y-15911984D02*
X6827325Y-15921508D01*
X6827325Y-15921508D02*
X6817801Y-15931031D01*
X6817801Y-15931031D02*
X6798753Y-15959603D01*
X6798753Y-15959603D02*
X6789229Y-15997698D01*
X6789229Y-15997698D02*
X6789229Y-16073888D01*
X6789229Y-16073888D02*
X6798753Y-16092936D01*
X6798753Y-16092936D02*
X6808277Y-16102460D01*
X6808277Y-16102460D02*
X6827325Y-16111984D01*
X6827325Y-16111984D02*
X6865420Y-16111984D01*
X6865420Y-16111984D02*
X6884468Y-16102460D01*
X6884468Y-16102460D02*
X6893991Y-16092936D01*
X6893991Y-16092936D02*
X6903515Y-16073888D01*
X6903515Y-16073888D02*
X6903515Y-16026269D01*
X6903515Y-16026269D02*
X6893991Y-16007222D01*
X6893991Y-16007222D02*
X6884468Y-15997698D01*
X6884468Y-15997698D02*
X6865420Y-15988174D01*
X6865420Y-15988174D02*
X6827325Y-15988174D01*
X6827325Y-15988174D02*
X6808277Y-15997698D01*
X6808277Y-15997698D02*
X6798753Y-16007222D01*
X6798753Y-16007222D02*
X6789229Y-16026269D01*
X7017801Y-15997698D02*
X6998753Y-15988174D01*
X6998753Y-15988174D02*
X6989229Y-15978650D01*
X6989229Y-15978650D02*
X6979706Y-15959603D01*
X6979706Y-15959603D02*
X6979706Y-15950079D01*
X6979706Y-15950079D02*
X6989229Y-15931031D01*
X6989229Y-15931031D02*
X6998753Y-15921508D01*
X6998753Y-15921508D02*
X7017801Y-15911984D01*
X7017801Y-15911984D02*
X7055896Y-15911984D01*
X7055896Y-15911984D02*
X7074944Y-15921508D01*
X7074944Y-15921508D02*
X7084468Y-15931031D01*
X7084468Y-15931031D02*
X7093991Y-15950079D01*
X7093991Y-15950079D02*
X7093991Y-15959603D01*
X7093991Y-15959603D02*
X7084468Y-15978650D01*
X7084468Y-15978650D02*
X7074944Y-15988174D01*
X7074944Y-15988174D02*
X7055896Y-15997698D01*
X7055896Y-15997698D02*
X7017801Y-15997698D01*
X7017801Y-15997698D02*
X6998753Y-16007222D01*
X6998753Y-16007222D02*
X6989229Y-16016746D01*
X6989229Y-16016746D02*
X6979706Y-16035793D01*
X6979706Y-16035793D02*
X6979706Y-16073888D01*
X6979706Y-16073888D02*
X6989229Y-16092936D01*
X6989229Y-16092936D02*
X6998753Y-16102460D01*
X6998753Y-16102460D02*
X7017801Y-16111984D01*
X7017801Y-16111984D02*
X7055896Y-16111984D01*
X7055896Y-16111984D02*
X7074944Y-16102460D01*
X7074944Y-16102460D02*
X7084468Y-16092936D01*
X7084468Y-16092936D02*
X7093991Y-16073888D01*
X7093991Y-16073888D02*
X7093991Y-16035793D01*
X7093991Y-16035793D02*
X7084468Y-16016746D01*
X7084468Y-16016746D02*
X7074944Y-16007222D01*
X7074944Y-16007222D02*
X7055896Y-15997698D01*
X7332087Y-16111984D02*
X7332087Y-15911984D01*
X7417801Y-16111984D02*
X7417801Y-16007222D01*
X7417801Y-16007222D02*
X7408277Y-15988174D01*
X7408277Y-15988174D02*
X7389230Y-15978650D01*
X7389230Y-15978650D02*
X7360658Y-15978650D01*
X7360658Y-15978650D02*
X7341610Y-15988174D01*
X7341610Y-15988174D02*
X7332087Y-15997698D01*
X7541610Y-16111984D02*
X7522563Y-16102460D01*
X7522563Y-16102460D02*
X7513039Y-16092936D01*
X7513039Y-16092936D02*
X7503515Y-16073888D01*
X7503515Y-16073888D02*
X7503515Y-16016746D01*
X7503515Y-16016746D02*
X7513039Y-15997698D01*
X7513039Y-15997698D02*
X7522563Y-15988174D01*
X7522563Y-15988174D02*
X7541610Y-15978650D01*
X7541610Y-15978650D02*
X7570182Y-15978650D01*
X7570182Y-15978650D02*
X7589230Y-15988174D01*
X7589230Y-15988174D02*
X7598753Y-15997698D01*
X7598753Y-15997698D02*
X7608277Y-16016746D01*
X7608277Y-16016746D02*
X7608277Y-16073888D01*
X7608277Y-16073888D02*
X7598753Y-16092936D01*
X7598753Y-16092936D02*
X7589230Y-16102460D01*
X7589230Y-16102460D02*
X7570182Y-16111984D01*
X7570182Y-16111984D02*
X7541610Y-16111984D01*
X7722563Y-16111984D02*
X7703515Y-16102460D01*
X7703515Y-16102460D02*
X7693991Y-16083412D01*
X7693991Y-16083412D02*
X7693991Y-15911984D01*
X7874944Y-16102460D02*
X7855896Y-16111984D01*
X7855896Y-16111984D02*
X7817801Y-16111984D01*
X7817801Y-16111984D02*
X7798753Y-16102460D01*
X7798753Y-16102460D02*
X7789230Y-16083412D01*
X7789230Y-16083412D02*
X7789230Y-16007222D01*
X7789230Y-16007222D02*
X7798753Y-15988174D01*
X7798753Y-15988174D02*
X7817801Y-15978650D01*
X7817801Y-15978650D02*
X7855896Y-15978650D01*
X7855896Y-15978650D02*
X7874944Y-15988174D01*
X7874944Y-15988174D02*
X7884468Y-16007222D01*
X7884468Y-16007222D02*
X7884468Y-16026269D01*
X7884468Y-16026269D02*
X7789230Y-16045317D01*
X7960658Y-16102460D02*
X7979706Y-16111984D01*
X7979706Y-16111984D02*
X8017801Y-16111984D01*
X8017801Y-16111984D02*
X8036849Y-16102460D01*
X8036849Y-16102460D02*
X8046372Y-16083412D01*
X8046372Y-16083412D02*
X8046372Y-16073888D01*
X8046372Y-16073888D02*
X8036849Y-16054841D01*
X8036849Y-16054841D02*
X8017801Y-16045317D01*
X8017801Y-16045317D02*
X7989230Y-16045317D01*
X7989230Y-16045317D02*
X7970182Y-16035793D01*
X7970182Y-16035793D02*
X7960658Y-16016746D01*
X7960658Y-16016746D02*
X7960658Y-16007222D01*
X7960658Y-16007222D02*
X7970182Y-15988174D01*
X7970182Y-15988174D02*
X7989230Y-15978650D01*
X7989230Y-15978650D02*
X8017801Y-15978650D01*
X8017801Y-15978650D02*
X8036849Y-15988174D01*
X8284468Y-16035793D02*
X8436849Y-16035793D01*
X8360658Y-16111984D02*
X8360658Y-15959603D01*
X8665420Y-15911984D02*
X8789230Y-15911984D01*
X8789230Y-15911984D02*
X8722563Y-15988174D01*
X8722563Y-15988174D02*
X8751135Y-15988174D01*
X8751135Y-15988174D02*
X8770182Y-15997698D01*
X8770182Y-15997698D02*
X8779706Y-16007222D01*
X8779706Y-16007222D02*
X8789230Y-16026269D01*
X8789230Y-16026269D02*
X8789230Y-16073888D01*
X8789230Y-16073888D02*
X8779706Y-16092936D01*
X8779706Y-16092936D02*
X8770182Y-16102460D01*
X8770182Y-16102460D02*
X8751135Y-16111984D01*
X8751135Y-16111984D02*
X8693992Y-16111984D01*
X8693992Y-16111984D02*
X8674944Y-16102460D01*
X8674944Y-16102460D02*
X8665420Y-16092936D01*
X9017801Y-16102460D02*
X9036849Y-16111984D01*
X9036849Y-16111984D02*
X9074944Y-16111984D01*
X9074944Y-16111984D02*
X9093992Y-16102460D01*
X9093992Y-16102460D02*
X9103516Y-16083412D01*
X9103516Y-16083412D02*
X9103516Y-16073888D01*
X9103516Y-16073888D02*
X9093992Y-16054841D01*
X9093992Y-16054841D02*
X9074944Y-16045317D01*
X9074944Y-16045317D02*
X9046373Y-16045317D01*
X9046373Y-16045317D02*
X9027325Y-16035793D01*
X9027325Y-16035793D02*
X9017801Y-16016746D01*
X9017801Y-16016746D02*
X9017801Y-16007222D01*
X9017801Y-16007222D02*
X9027325Y-15988174D01*
X9027325Y-15988174D02*
X9046373Y-15978650D01*
X9046373Y-15978650D02*
X9074944Y-15978650D01*
X9074944Y-15978650D02*
X9093992Y-15988174D01*
X9217801Y-16111984D02*
X9198754Y-16102460D01*
X9198754Y-16102460D02*
X9189230Y-16083412D01*
X9189230Y-16083412D02*
X9189230Y-15911984D01*
X9322563Y-16111984D02*
X9303516Y-16102460D01*
X9303516Y-16102460D02*
X9293992Y-16092936D01*
X9293992Y-16092936D02*
X9284468Y-16073888D01*
X9284468Y-16073888D02*
X9284468Y-16016746D01*
X9284468Y-16016746D02*
X9293992Y-15997698D01*
X9293992Y-15997698D02*
X9303516Y-15988174D01*
X9303516Y-15988174D02*
X9322563Y-15978650D01*
X9322563Y-15978650D02*
X9351135Y-15978650D01*
X9351135Y-15978650D02*
X9370182Y-15988174D01*
X9370182Y-15988174D02*
X9379706Y-15997698D01*
X9379706Y-15997698D02*
X9389230Y-16016746D01*
X9389230Y-16016746D02*
X9389230Y-16073888D01*
X9389230Y-16073888D02*
X9379706Y-16092936D01*
X9379706Y-16092936D02*
X9370182Y-16102460D01*
X9370182Y-16102460D02*
X9351135Y-16111984D01*
X9351135Y-16111984D02*
X9322563Y-16111984D01*
X9446373Y-15978650D02*
X9522563Y-15978650D01*
X9474944Y-15911984D02*
X9474944Y-16083412D01*
X9474944Y-16083412D02*
X9484468Y-16102460D01*
X9484468Y-16102460D02*
X9503516Y-16111984D01*
X9503516Y-16111984D02*
X9522563Y-16111984D01*
X9579706Y-16102460D02*
X9598754Y-16111984D01*
X9598754Y-16111984D02*
X9636849Y-16111984D01*
X9636849Y-16111984D02*
X9655897Y-16102460D01*
X9655897Y-16102460D02*
X9665420Y-16083412D01*
X9665420Y-16083412D02*
X9665420Y-16073888D01*
X9665420Y-16073888D02*
X9655897Y-16054841D01*
X9655897Y-16054841D02*
X9636849Y-16045317D01*
X9636849Y-16045317D02*
X9608277Y-16045317D01*
X9608277Y-16045317D02*
X9589230Y-16035793D01*
X9589230Y-16035793D02*
X9579706Y-16016746D01*
X9579706Y-16016746D02*
X9579706Y-16007222D01*
X9579706Y-16007222D02*
X9589230Y-15988174D01*
X9589230Y-15988174D02*
X9608277Y-15978650D01*
X9608277Y-15978650D02*
X9636849Y-15978650D01*
X9636849Y-15978650D02*
X9655897Y-15988174D01*
X9732087Y-16188174D02*
X9741611Y-16178650D01*
X9741611Y-16178650D02*
X9760658Y-16150079D01*
X9760658Y-16150079D02*
X9770182Y-16131031D01*
X9770182Y-16131031D02*
X9779706Y-16102460D01*
X9779706Y-16102460D02*
X9789230Y-16054841D01*
X9789230Y-16054841D02*
X9789230Y-16016746D01*
X9789230Y-16016746D02*
X9779706Y-15969127D01*
X9779706Y-15969127D02*
X9770182Y-15940555D01*
X9770182Y-15940555D02*
X9760658Y-15921508D01*
X9760658Y-15921508D02*
X9741611Y-15892936D01*
X9741611Y-15892936D02*
X9732087Y-15883412D01*
D13*
X3121433Y-16347433D02*
X3121433Y-16221567D01*
X2995567Y-16221567D01*
X2995567Y-16347433D01*
X3121433Y-16347433D01*
D11*
X3513039Y-16375984D02*
X3398753Y-16375984D01*
X3455896Y-16375984D02*
X3455896Y-16175984D01*
X3455896Y-16175984D02*
X3436848Y-16204555D01*
X3436848Y-16204555D02*
X3417801Y-16223603D01*
X3417801Y-16223603D02*
X3398753Y-16233127D01*
X3598753Y-16356936D02*
X3608277Y-16366460D01*
X3608277Y-16366460D02*
X3598753Y-16375984D01*
X3598753Y-16375984D02*
X3589229Y-16366460D01*
X3589229Y-16366460D02*
X3598753Y-16356936D01*
X3598753Y-16356936D02*
X3598753Y-16375984D01*
X3674943Y-16175984D02*
X3808277Y-16175984D01*
X3808277Y-16175984D02*
X3722562Y-16375984D01*
X3913039Y-16261698D02*
X3893991Y-16252174D01*
X3893991Y-16252174D02*
X3884467Y-16242650D01*
X3884467Y-16242650D02*
X3874943Y-16223603D01*
X3874943Y-16223603D02*
X3874943Y-16214079D01*
X3874943Y-16214079D02*
X3884467Y-16195031D01*
X3884467Y-16195031D02*
X3893991Y-16185508D01*
X3893991Y-16185508D02*
X3913039Y-16175984D01*
X3913039Y-16175984D02*
X3951134Y-16175984D01*
X3951134Y-16175984D02*
X3970182Y-16185508D01*
X3970182Y-16185508D02*
X3979705Y-16195031D01*
X3979705Y-16195031D02*
X3989229Y-16214079D01*
X3989229Y-16214079D02*
X3989229Y-16223603D01*
X3989229Y-16223603D02*
X3979705Y-16242650D01*
X3979705Y-16242650D02*
X3970182Y-16252174D01*
X3970182Y-16252174D02*
X3951134Y-16261698D01*
X3951134Y-16261698D02*
X3913039Y-16261698D01*
X3913039Y-16261698D02*
X3893991Y-16271222D01*
X3893991Y-16271222D02*
X3884467Y-16280746D01*
X3884467Y-16280746D02*
X3874943Y-16299793D01*
X3874943Y-16299793D02*
X3874943Y-16337888D01*
X3874943Y-16337888D02*
X3884467Y-16356936D01*
X3884467Y-16356936D02*
X3893991Y-16366460D01*
X3893991Y-16366460D02*
X3913039Y-16375984D01*
X3913039Y-16375984D02*
X3951134Y-16375984D01*
X3951134Y-16375984D02*
X3970182Y-16366460D01*
X3970182Y-16366460D02*
X3979705Y-16356936D01*
X3979705Y-16356936D02*
X3989229Y-16337888D01*
X3989229Y-16337888D02*
X3989229Y-16299793D01*
X3989229Y-16299793D02*
X3979705Y-16280746D01*
X3979705Y-16280746D02*
X3970182Y-16271222D01*
X3970182Y-16271222D02*
X3951134Y-16261698D01*
X4113039Y-16175984D02*
X4132086Y-16175984D01*
X4132086Y-16175984D02*
X4151134Y-16185508D01*
X4151134Y-16185508D02*
X4160658Y-16195031D01*
X4160658Y-16195031D02*
X4170182Y-16214079D01*
X4170182Y-16214079D02*
X4179705Y-16252174D01*
X4179705Y-16252174D02*
X4179705Y-16299793D01*
X4179705Y-16299793D02*
X4170182Y-16337888D01*
X4170182Y-16337888D02*
X4160658Y-16356936D01*
X4160658Y-16356936D02*
X4151134Y-16366460D01*
X4151134Y-16366460D02*
X4132086Y-16375984D01*
X4132086Y-16375984D02*
X4113039Y-16375984D01*
X4113039Y-16375984D02*
X4093991Y-16366460D01*
X4093991Y-16366460D02*
X4084467Y-16356936D01*
X4084467Y-16356936D02*
X4074943Y-16337888D01*
X4074943Y-16337888D02*
X4065420Y-16299793D01*
X4065420Y-16299793D02*
X4065420Y-16252174D01*
X4065420Y-16252174D02*
X4074943Y-16214079D01*
X4074943Y-16214079D02*
X4084467Y-16195031D01*
X4084467Y-16195031D02*
X4093991Y-16185508D01*
X4093991Y-16185508D02*
X4113039Y-16175984D01*
X4265420Y-16375984D02*
X4265420Y-16242650D01*
X4265420Y-16261698D02*
X4274944Y-16252174D01*
X4274944Y-16252174D02*
X4293991Y-16242650D01*
X4293991Y-16242650D02*
X4322563Y-16242650D01*
X4322563Y-16242650D02*
X4341610Y-16252174D01*
X4341610Y-16252174D02*
X4351134Y-16271222D01*
X4351134Y-16271222D02*
X4351134Y-16375984D01*
X4351134Y-16271222D02*
X4360658Y-16252174D01*
X4360658Y-16252174D02*
X4379705Y-16242650D01*
X4379705Y-16242650D02*
X4408277Y-16242650D01*
X4408277Y-16242650D02*
X4427325Y-16252174D01*
X4427325Y-16252174D02*
X4436848Y-16271222D01*
X4436848Y-16271222D02*
X4436848Y-16375984D01*
X4532086Y-16375984D02*
X4532086Y-16242650D01*
X4532086Y-16261698D02*
X4541610Y-16252174D01*
X4541610Y-16252174D02*
X4560658Y-16242650D01*
X4560658Y-16242650D02*
X4589229Y-16242650D01*
X4589229Y-16242650D02*
X4608277Y-16252174D01*
X4608277Y-16252174D02*
X4617801Y-16271222D01*
X4617801Y-16271222D02*
X4617801Y-16375984D01*
X4617801Y-16271222D02*
X4627325Y-16252174D01*
X4627325Y-16252174D02*
X4646372Y-16242650D01*
X4646372Y-16242650D02*
X4674944Y-16242650D01*
X4674944Y-16242650D02*
X4693991Y-16252174D01*
X4693991Y-16252174D02*
X4703515Y-16271222D01*
X4703515Y-16271222D02*
X4703515Y-16375984D01*
X5093991Y-16166460D02*
X4922563Y-16423603D01*
X5351134Y-16175984D02*
X5370182Y-16175984D01*
X5370182Y-16175984D02*
X5389229Y-16185508D01*
X5389229Y-16185508D02*
X5398753Y-16195031D01*
X5398753Y-16195031D02*
X5408277Y-16214079D01*
X5408277Y-16214079D02*
X5417801Y-16252174D01*
X5417801Y-16252174D02*
X5417801Y-16299793D01*
X5417801Y-16299793D02*
X5408277Y-16337888D01*
X5408277Y-16337888D02*
X5398753Y-16356936D01*
X5398753Y-16356936D02*
X5389229Y-16366460D01*
X5389229Y-16366460D02*
X5370182Y-16375984D01*
X5370182Y-16375984D02*
X5351134Y-16375984D01*
X5351134Y-16375984D02*
X5332087Y-16366460D01*
X5332087Y-16366460D02*
X5322563Y-16356936D01*
X5322563Y-16356936D02*
X5313039Y-16337888D01*
X5313039Y-16337888D02*
X5303515Y-16299793D01*
X5303515Y-16299793D02*
X5303515Y-16252174D01*
X5303515Y-16252174D02*
X5313039Y-16214079D01*
X5313039Y-16214079D02*
X5322563Y-16195031D01*
X5322563Y-16195031D02*
X5332087Y-16185508D01*
X5332087Y-16185508D02*
X5351134Y-16175984D01*
X5503515Y-16356936D02*
X5513039Y-16366460D01*
X5513039Y-16366460D02*
X5503515Y-16375984D01*
X5503515Y-16375984D02*
X5493991Y-16366460D01*
X5493991Y-16366460D02*
X5503515Y-16356936D01*
X5503515Y-16356936D02*
X5503515Y-16375984D01*
X5636848Y-16175984D02*
X5655896Y-16175984D01*
X5655896Y-16175984D02*
X5674944Y-16185508D01*
X5674944Y-16185508D02*
X5684467Y-16195031D01*
X5684467Y-16195031D02*
X5693991Y-16214079D01*
X5693991Y-16214079D02*
X5703515Y-16252174D01*
X5703515Y-16252174D02*
X5703515Y-16299793D01*
X5703515Y-16299793D02*
X5693991Y-16337888D01*
X5693991Y-16337888D02*
X5684467Y-16356936D01*
X5684467Y-16356936D02*
X5674944Y-16366460D01*
X5674944Y-16366460D02*
X5655896Y-16375984D01*
X5655896Y-16375984D02*
X5636848Y-16375984D01*
X5636848Y-16375984D02*
X5617801Y-16366460D01*
X5617801Y-16366460D02*
X5608277Y-16356936D01*
X5608277Y-16356936D02*
X5598753Y-16337888D01*
X5598753Y-16337888D02*
X5589229Y-16299793D01*
X5589229Y-16299793D02*
X5589229Y-16252174D01*
X5589229Y-16252174D02*
X5598753Y-16214079D01*
X5598753Y-16214079D02*
X5608277Y-16195031D01*
X5608277Y-16195031D02*
X5617801Y-16185508D01*
X5617801Y-16185508D02*
X5636848Y-16175984D01*
X5770182Y-16175984D02*
X5903515Y-16175984D01*
X5903515Y-16175984D02*
X5817801Y-16375984D01*
X6017801Y-16175984D02*
X6036848Y-16175984D01*
X6036848Y-16175984D02*
X6055896Y-16185508D01*
X6055896Y-16185508D02*
X6065420Y-16195031D01*
X6065420Y-16195031D02*
X6074944Y-16214079D01*
X6074944Y-16214079D02*
X6084467Y-16252174D01*
X6084467Y-16252174D02*
X6084467Y-16299793D01*
X6084467Y-16299793D02*
X6074944Y-16337888D01*
X6074944Y-16337888D02*
X6065420Y-16356936D01*
X6065420Y-16356936D02*
X6055896Y-16366460D01*
X6055896Y-16366460D02*
X6036848Y-16375984D01*
X6036848Y-16375984D02*
X6017801Y-16375984D01*
X6017801Y-16375984D02*
X5998753Y-16366460D01*
X5998753Y-16366460D02*
X5989229Y-16356936D01*
X5989229Y-16356936D02*
X5979706Y-16337888D01*
X5979706Y-16337888D02*
X5970182Y-16299793D01*
X5970182Y-16299793D02*
X5970182Y-16252174D01*
X5970182Y-16252174D02*
X5979706Y-16214079D01*
X5979706Y-16214079D02*
X5989229Y-16195031D01*
X5989229Y-16195031D02*
X5998753Y-16185508D01*
X5998753Y-16185508D02*
X6017801Y-16175984D01*
X6274944Y-16375984D02*
X6160658Y-16375984D01*
X6217801Y-16375984D02*
X6217801Y-16175984D01*
X6217801Y-16175984D02*
X6198753Y-16204555D01*
X6198753Y-16204555D02*
X6179706Y-16223603D01*
X6179706Y-16223603D02*
X6160658Y-16233127D01*
X6351134Y-16175984D02*
X6351134Y-16214079D01*
X6427325Y-16175984D02*
X6427325Y-16214079D01*
X6722563Y-16452174D02*
X6713039Y-16442650D01*
X6713039Y-16442650D02*
X6693991Y-16414079D01*
X6693991Y-16414079D02*
X6684468Y-16395031D01*
X6684468Y-16395031D02*
X6674944Y-16366460D01*
X6674944Y-16366460D02*
X6665420Y-16318841D01*
X6665420Y-16318841D02*
X6665420Y-16280746D01*
X6665420Y-16280746D02*
X6674944Y-16233127D01*
X6674944Y-16233127D02*
X6684468Y-16204555D01*
X6684468Y-16204555D02*
X6693991Y-16185508D01*
X6693991Y-16185508D02*
X6713039Y-16156936D01*
X6713039Y-16156936D02*
X6722563Y-16147412D01*
X6884468Y-16242650D02*
X6884468Y-16375984D01*
X6836848Y-16166460D02*
X6789229Y-16309317D01*
X6789229Y-16309317D02*
X6913039Y-16309317D01*
X7141610Y-16375984D02*
X7141610Y-16175984D01*
X7227325Y-16375984D02*
X7227325Y-16271222D01*
X7227325Y-16271222D02*
X7217801Y-16252174D01*
X7217801Y-16252174D02*
X7198753Y-16242650D01*
X7198753Y-16242650D02*
X7170182Y-16242650D01*
X7170182Y-16242650D02*
X7151134Y-16252174D01*
X7151134Y-16252174D02*
X7141610Y-16261698D01*
X7351134Y-16375984D02*
X7332087Y-16366460D01*
X7332087Y-16366460D02*
X7322563Y-16356936D01*
X7322563Y-16356936D02*
X7313039Y-16337888D01*
X7313039Y-16337888D02*
X7313039Y-16280746D01*
X7313039Y-16280746D02*
X7322563Y-16261698D01*
X7322563Y-16261698D02*
X7332087Y-16252174D01*
X7332087Y-16252174D02*
X7351134Y-16242650D01*
X7351134Y-16242650D02*
X7379706Y-16242650D01*
X7379706Y-16242650D02*
X7398753Y-16252174D01*
X7398753Y-16252174D02*
X7408277Y-16261698D01*
X7408277Y-16261698D02*
X7417801Y-16280746D01*
X7417801Y-16280746D02*
X7417801Y-16337888D01*
X7417801Y-16337888D02*
X7408277Y-16356936D01*
X7408277Y-16356936D02*
X7398753Y-16366460D01*
X7398753Y-16366460D02*
X7379706Y-16375984D01*
X7379706Y-16375984D02*
X7351134Y-16375984D01*
X7532087Y-16375984D02*
X7513039Y-16366460D01*
X7513039Y-16366460D02*
X7503515Y-16347412D01*
X7503515Y-16347412D02*
X7503515Y-16175984D01*
X7684468Y-16366460D02*
X7665420Y-16375984D01*
X7665420Y-16375984D02*
X7627325Y-16375984D01*
X7627325Y-16375984D02*
X7608277Y-16366460D01*
X7608277Y-16366460D02*
X7598753Y-16347412D01*
X7598753Y-16347412D02*
X7598753Y-16271222D01*
X7598753Y-16271222D02*
X7608277Y-16252174D01*
X7608277Y-16252174D02*
X7627325Y-16242650D01*
X7627325Y-16242650D02*
X7665420Y-16242650D01*
X7665420Y-16242650D02*
X7684468Y-16252174D01*
X7684468Y-16252174D02*
X7693991Y-16271222D01*
X7693991Y-16271222D02*
X7693991Y-16290269D01*
X7693991Y-16290269D02*
X7598753Y-16309317D01*
X7770182Y-16366460D02*
X7789230Y-16375984D01*
X7789230Y-16375984D02*
X7827325Y-16375984D01*
X7827325Y-16375984D02*
X7846372Y-16366460D01*
X7846372Y-16366460D02*
X7855896Y-16347412D01*
X7855896Y-16347412D02*
X7855896Y-16337888D01*
X7855896Y-16337888D02*
X7846372Y-16318841D01*
X7846372Y-16318841D02*
X7827325Y-16309317D01*
X7827325Y-16309317D02*
X7798753Y-16309317D01*
X7798753Y-16309317D02*
X7779706Y-16299793D01*
X7779706Y-16299793D02*
X7770182Y-16280746D01*
X7770182Y-16280746D02*
X7770182Y-16271222D01*
X7770182Y-16271222D02*
X7779706Y-16252174D01*
X7779706Y-16252174D02*
X7798753Y-16242650D01*
X7798753Y-16242650D02*
X7827325Y-16242650D01*
X7827325Y-16242650D02*
X7846372Y-16252174D01*
X7922563Y-16452174D02*
X7932087Y-16442650D01*
X7932087Y-16442650D02*
X7951134Y-16414079D01*
X7951134Y-16414079D02*
X7960658Y-16395031D01*
X7960658Y-16395031D02*
X7970182Y-16366460D01*
X7970182Y-16366460D02*
X7979706Y-16318841D01*
X7979706Y-16318841D02*
X7979706Y-16280746D01*
X7979706Y-16280746D02*
X7970182Y-16233127D01*
X7970182Y-16233127D02*
X7960658Y-16204555D01*
X7960658Y-16204555D02*
X7951134Y-16185508D01*
X7951134Y-16185508D02*
X7932087Y-16156936D01*
X7932087Y-16156936D02*
X7922563Y-16147412D01*
M02*
