M48
; DRILL file {KiCad 9.0.7} date 2026-04-12T11:49:31+0200
; FORMAT={-:-/ absolute / metric / decimal}
; #@! TF.CreationDate,2026-04-12T11:49:31+02:00
; #@! TF.GenerationSoftware,Kicad,Pcbnew,9.0.7
; #@! TF.FileFunction,Plated,1,2,PTH
FMAT,2
METRIC
; #@! TA.AperFunction,Plated,PTH,ViaDrill
T1C0.300
; #@! TA.AperFunction,Plated,PTH,ComponentDrill
T2C0.800
; #@! TA.AperFunction,Plated,PTH,ComponentDrill
T3C1.000
; #@! TA.AperFunction,Plated,PTH,ComponentDrill
T4C1.780
%
G90
G05
T1
X106.5Y-66.5
X106.5Y-74.0
X114.5Y-137.0
X136.0Y-119.0
X148.0Y-121.5
X180.0Y-116.5
X181.0Y-81.5
T2
X161.64Y-96.61
X161.64Y-99.15
X161.64Y-101.69
X161.64Y-104.23
X161.64Y-106.77
X161.64Y-109.31
X161.64Y-111.85
X161.64Y-114.39
X161.87Y-64.8
X161.87Y-67.34
X161.87Y-69.88
X161.87Y-72.42
X161.87Y-74.96
X161.87Y-77.5
X161.87Y-80.04
X161.87Y-82.58
X174.34Y-96.61
X174.34Y-99.15
X174.34Y-101.69
X174.34Y-104.23
X174.34Y-106.77
X174.34Y-109.31
X174.34Y-111.85
X174.34Y-114.39
X174.57Y-64.8
X174.57Y-67.34
X174.57Y-69.88
X174.57Y-72.42
X174.57Y-74.96
X174.57Y-77.5
X174.57Y-80.04
X174.57Y-82.58
X180.0Y-95.25
X180.0Y-97.75
X180.23Y-63.19
X180.23Y-65.69
T3
X98.3Y-125.55
X98.37Y-119.5
X100.84Y-125.55
X100.91Y-119.5
X103.38Y-125.55
X103.45Y-119.5
X107.37Y-90.66
X107.37Y-93.2
X107.37Y-95.74
X107.37Y-98.28
X107.37Y-100.82
X107.37Y-103.36
X107.37Y-105.9
X107.37Y-108.44
X107.37Y-112.5
X107.37Y-115.04
X107.37Y-117.58
X107.37Y-120.12
X107.37Y-122.66
X107.37Y-125.2
X107.37Y-127.74
X107.37Y-130.28
X107.37Y-132.82
X107.37Y-135.36
X119.92Y-142.5
X122.46Y-142.5
X125.0Y-142.5
X127.54Y-142.5
X155.63Y-90.66
X155.63Y-93.2
X155.63Y-95.74
X155.63Y-98.28
X155.63Y-100.82
X155.63Y-103.36
X155.63Y-108.44
X155.63Y-110.98
X155.63Y-113.52
X155.63Y-116.06
X155.63Y-118.6
X155.63Y-121.14
X155.63Y-123.68
X155.63Y-126.22
X164.23Y-55.15
X164.23Y-57.69
X165.5Y-87.46
X165.5Y-90.0
X168.23Y-55.425
X168.23Y-57.965
X169.5Y-87.46
X169.5Y-90.0
X171.827Y-133.493
X172.23Y-55.15
X172.23Y-57.69
X172.96Y-122.5
X173.5Y-87.46
X173.5Y-90.0
X174.367Y-133.493
X175.5Y-122.5
X176.907Y-133.493
X178.04Y-122.5
X178.23Y-70.15
X178.23Y-72.69
X178.23Y-75.23
X178.23Y-77.77
X178.5Y-101.69
X178.5Y-104.23
X178.5Y-106.77
X178.5Y-109.31
T4
X184.5Y-134.0
X184.5Y-137.4
X194.42Y-134.0
X194.42Y-137.4
T3
G00X199.96Y-136.7
M15
G01X199.96Y-134.7
M16
G05
G00X203.96Y-131.0
M15
G01X201.96Y-131.0
M16
G05
G00X205.96Y-136.7
M15
G01X205.96Y-134.7
M16
G05
M30
