%TF.GenerationSoftware,KiCad,Pcbnew,9.0.7*%
%TF.CreationDate,2026-04-12T11:49:21+02:00*%
%TF.ProjectId,carte elec,63617274-6520-4656-9c65-632e6b696361,rev?*%
%TF.SameCoordinates,Original*%
%TF.FileFunction,Soldermask,Top*%
%TF.FilePolarity,Negative*%
%FSLAX46Y46*%
G04 Gerber Fmt 4.6, Leading zero omitted, Abs format (unit mm)*
G04 Created by KiCad (PCBNEW 9.0.7) date 2026-04-12 11:49:21*
%MOMM*%
%LPD*%
G01*
G04 APERTURE LIST*
G04 Aperture macros list*
%AMRoundRect*
0 Rectangle with rounded corners*
0 $1 Rounding radius*
0 $2 $3 $4 $5 $6 $7 $8 $9 X,Y pos of 4 corners*
0 Add a 4 corners polygon primitive as box body*
4,1,4,$2,$3,$4,$5,$6,$7,$8,$9,$2,$3,0*
0 Add four circle primitives for the rounded corners*
1,1,$1+$1,$2,$3*
1,1,$1+$1,$4,$5*
1,1,$1+$1,$6,$7*
1,1,$1+$1,$8,$9*
0 Add four rect primitives between the rounded corners*
20,1,$1+$1,$2,$3,$4,$5,0*
20,1,$1+$1,$4,$5,$6,$7,0*
20,1,$1+$1,$6,$7,$8,$9,0*
20,1,$1+$1,$8,$9,$2,$3,0*%
G04 Aperture macros list end*
%ADD10C,1.700000*%
%ADD11R,1.700000X1.700000*%
%ADD12RoundRect,0.250000X0.312500X0.625000X-0.312500X0.625000X-0.312500X-0.625000X0.312500X-0.625000X0*%
%ADD13C,1.600000*%
%ADD14O,1.600000X1.600000*%
%ADD15R,1.600000X1.600000*%
%ADD16RoundRect,0.250000X-0.312500X-0.625000X0.312500X-0.625000X0.312500X0.625000X-0.312500X0.625000X0*%
%ADD17RoundRect,0.250000X0.650000X-0.325000X0.650000X0.325000X-0.650000X0.325000X-0.650000X-0.325000X0*%
%ADD18RoundRect,0.250000X-0.325000X-0.650000X0.325000X-0.650000X0.325000X0.650000X-0.325000X0.650000X0*%
%ADD19R,3.500000X3.500000*%
%ADD20RoundRect,0.750000X0.750000X1.000000X-0.750000X1.000000X-0.750000X-1.000000X0.750000X-1.000000X0*%
%ADD21RoundRect,0.875000X0.875000X0.875000X-0.875000X0.875000X-0.875000X-0.875000X0.875000X-0.875000X0*%
%ADD22R,1.500000X2.300000*%
%ADD23O,1.500000X2.300000*%
%ADD24RoundRect,0.250000X0.325000X0.650000X-0.325000X0.650000X-0.325000X-0.650000X0.325000X-0.650000X0*%
%ADD25C,2.780000*%
%ADD26RoundRect,0.250000X-0.625000X0.312500X-0.625000X-0.312500X0.625000X-0.312500X0.625000X0.312500X0*%
%ADD27R,0.900000X1.000000*%
%ADD28RoundRect,0.250000X0.625000X-0.312500X0.625000X0.312500X-0.625000X0.312500X-0.625000X-0.312500X0*%
%ADD29R,1.000000X2.000000*%
%ADD30R,2.000000X2.000000*%
%ADD31R,2.000000X1.100000*%
%ADD32C,1.300000*%
%ADD33C,3.200000*%
%ADD34RoundRect,0.243750X0.243750X0.456250X-0.243750X0.456250X-0.243750X-0.456250X0.243750X-0.456250X0*%
G04 APERTURE END LIST*
D10*
%TO.C,M_X1*%
X178500000Y-101690000D03*
X178500000Y-104230000D03*
X178500000Y-106770000D03*
D11*
X178500000Y-109310000D03*
%TD*%
D12*
%TO.C,R10*%
X172537500Y-93000000D03*
X175462500Y-93000000D03*
%TD*%
D13*
%TO.C,C12RAD*%
X180000000Y-95250000D03*
X180000000Y-97750000D03*
%TD*%
D10*
%TO.C,JUMPER2*%
X173500000Y-87460000D03*
D11*
X173500000Y-90000000D03*
%TD*%
D10*
%TO.C,JUMPER1*%
X169500000Y-87460000D03*
D11*
X169500000Y-90000000D03*
%TD*%
D14*
%TO.C,A1*%
X161640000Y-114390000D03*
X161640000Y-111850000D03*
X161640000Y-109310000D03*
X161640000Y-106770000D03*
X161640000Y-104230000D03*
X161640000Y-101690000D03*
X161640000Y-99150000D03*
X161640000Y-96610000D03*
X174340000Y-96610000D03*
X174340000Y-99150000D03*
X174340000Y-101690000D03*
X174340000Y-104230000D03*
X174340000Y-106770000D03*
X174340000Y-109310000D03*
X174340000Y-111850000D03*
D15*
X174340000Y-114390000D03*
%TD*%
D16*
%TO.C,R9*%
X170462500Y-93000000D03*
X167537500Y-93000000D03*
%TD*%
%TO.C,R8*%
X165500000Y-93000000D03*
X162575000Y-93000000D03*
%TD*%
D10*
%TO.C,JUMPER3*%
X165500000Y-87460000D03*
D11*
X165500000Y-90000000D03*
%TD*%
D17*
%TO.C,C9*%
X178000000Y-112025000D03*
X178000000Y-114975000D03*
%TD*%
D18*
%TO.C,C10*%
X170485000Y-129700000D03*
X173435000Y-129700000D03*
%TD*%
D19*
%TO.C,J2*%
X199960000Y-135700000D03*
D20*
X205960000Y-135700000D03*
D21*
X202960000Y-131000000D03*
%TD*%
D22*
%TO.C,U2*%
X176907500Y-133492500D03*
D23*
X174367500Y-133492500D03*
X171827500Y-133492500D03*
%TD*%
D24*
%TO.C,C1*%
X178435000Y-129700000D03*
X175485000Y-129700000D03*
%TD*%
D25*
%TO.C,F1*%
X184500000Y-134000000D03*
X184500000Y-137400000D03*
X194420000Y-134000000D03*
X194420000Y-137400000D03*
%TD*%
D15*
%TO.C,A2*%
X174570000Y-82580000D03*
D14*
X174570000Y-80040000D03*
X174570000Y-77500000D03*
X174570000Y-74960000D03*
X174570000Y-72420000D03*
X174570000Y-69880000D03*
X174570000Y-67340000D03*
X174570000Y-64800000D03*
X161870000Y-64800000D03*
X161870000Y-67340000D03*
X161870000Y-69880000D03*
X161870000Y-72420000D03*
X161870000Y-74960000D03*
X161870000Y-77500000D03*
X161870000Y-80040000D03*
X161870000Y-82580000D03*
%TD*%
D13*
%TO.C,C13RAD*%
X180230000Y-65690000D03*
X180230000Y-63190000D03*
%TD*%
D16*
%TO.C,R7*%
X161267500Y-61190000D03*
X164192500Y-61190000D03*
%TD*%
D11*
%TO.C,JUMPER5*%
X168230000Y-57965000D03*
D10*
X168230000Y-55425000D03*
%TD*%
D11*
%TO.C,JUMPER4*%
X172230000Y-57690000D03*
D10*
X172230000Y-55150000D03*
%TD*%
D12*
%TO.C,R5*%
X174692500Y-61190000D03*
X171767500Y-61190000D03*
%TD*%
D11*
%TO.C,JUMPER6*%
X164230000Y-57690000D03*
D10*
X164230000Y-55150000D03*
%TD*%
D17*
%TO.C,C8*%
X178230000Y-83665000D03*
X178230000Y-80715000D03*
%TD*%
D16*
%TO.C,R6*%
X166267500Y-61190000D03*
X169192500Y-61190000D03*
%TD*%
D11*
%TO.C,M_Y1*%
X178230000Y-77770000D03*
D10*
X178230000Y-75230000D03*
X178230000Y-72690000D03*
X178230000Y-70150000D03*
%TD*%
%TO.C,SERVO1*%
X178040000Y-122500000D03*
X175500000Y-122500000D03*
D11*
X172960000Y-122500000D03*
%TD*%
%TO.C,OLED1*%
X127540000Y-142500000D03*
D10*
X125000000Y-142500000D03*
X122460000Y-142500000D03*
X119920000Y-142500000D03*
%TD*%
D16*
%TO.C,R3*%
X107537500Y-138000000D03*
X110462500Y-138000000D03*
%TD*%
D26*
%TO.C,R12*%
X162000000Y-122962500D03*
X162000000Y-120037500D03*
%TD*%
D24*
%TO.C,C2*%
X101345000Y-122500000D03*
X98395000Y-122500000D03*
%TD*%
D15*
%TO.C,U1*%
X155630000Y-126220000D03*
D14*
X155630000Y-123680000D03*
X155630000Y-121140000D03*
X155630000Y-118600000D03*
X155630000Y-116060000D03*
X155630000Y-113520000D03*
X155630000Y-110980000D03*
X155630000Y-108440000D03*
X155630000Y-103360000D03*
X155630000Y-100820000D03*
X155630000Y-98280000D03*
X155630000Y-95740000D03*
X155630000Y-93200000D03*
X155630000Y-90660000D03*
X107370000Y-90660000D03*
X107370000Y-93200000D03*
X107370000Y-95740000D03*
X107370000Y-98280000D03*
X107370000Y-100820000D03*
X107370000Y-103360000D03*
X107370000Y-105900000D03*
X107370000Y-108440000D03*
X107370000Y-112500000D03*
X107370000Y-115040000D03*
X107370000Y-117580000D03*
X107370000Y-120120000D03*
X107370000Y-122660000D03*
X107370000Y-125200000D03*
X107370000Y-127740000D03*
X107370000Y-130280000D03*
X107370000Y-132820000D03*
X107370000Y-135360000D03*
%TD*%
D24*
%TO.C,C7*%
X119525000Y-139500000D03*
X122475000Y-139500000D03*
%TD*%
D27*
%TO.C,bouton_reset1*%
X99450000Y-128710000D03*
X103550000Y-128710000D03*
X99450000Y-130310000D03*
X103550000Y-130310000D03*
%TD*%
D26*
%TO.C,R11*%
X158000000Y-112962500D03*
X158000000Y-110037500D03*
%TD*%
D17*
%TO.C,C5*%
X112050000Y-65975000D03*
X112050000Y-68925000D03*
%TD*%
D26*
%TO.C,R2*%
X112050000Y-61387500D03*
X112050000Y-58462500D03*
%TD*%
D28*
%TO.C,R1*%
X112050000Y-76462500D03*
X112050000Y-79387500D03*
%TD*%
D29*
%TO.C,J1*%
X88650000Y-56825000D03*
X86050000Y-56825000D03*
D30*
X83600000Y-84925000D03*
X102250000Y-84925000D03*
X83600000Y-55925000D03*
X102250000Y-55925000D03*
D29*
X97600000Y-56825000D03*
D31*
X109000000Y-79000000D03*
X109000000Y-59875000D03*
X109000000Y-61575000D03*
X109000000Y-64000000D03*
X109000000Y-66500000D03*
X109000000Y-69000000D03*
X109000000Y-71500000D03*
X109000000Y-74000000D03*
X109000000Y-76500000D03*
D32*
X106800000Y-80925000D03*
X106800000Y-58525000D03*
%TD*%
D33*
%TO.C,REF\u002A\u002A*%
X93500000Y-147500000D03*
%TD*%
D26*
%TO.C,R4*%
X110500000Y-132537500D03*
X110500000Y-135462500D03*
%TD*%
D11*
%TO.C,FinC1*%
X103450000Y-119500000D03*
D10*
X100910000Y-119500000D03*
X98370000Y-119500000D03*
%TD*%
D24*
%TO.C,C3*%
X101345000Y-116500000D03*
X98395000Y-116500000D03*
%TD*%
D34*
%TO.C,D2*%
X164562500Y-123037500D03*
X166437500Y-123037500D03*
%TD*%
%TO.C,D1*%
X157562500Y-117000000D03*
X159437500Y-117000000D03*
%TD*%
D24*
%TO.C,C6*%
X178475000Y-126000000D03*
X175525000Y-126000000D03*
%TD*%
D11*
%TO.C,FinC2*%
X103380000Y-125550000D03*
D10*
X100840000Y-125550000D03*
X98300000Y-125550000D03*
%TD*%
D33*
%TO.C,REF\u002A\u002A*%
X209000000Y-147000000D03*
%TD*%
D24*
%TO.C,C11*%
X155475000Y-106000000D03*
X152525000Y-106000000D03*
%TD*%
D17*
%TO.C,C4*%
X159000000Y-122975000D03*
X159000000Y-120025000D03*
%TD*%
D33*
%TO.C,REF\u002A\u002A*%
X72000000Y-51000000D03*
%TD*%
%TO.C,REF\u002A\u002A*%
X209000000Y-51500000D03*
%TD*%
M02*
