%TF.GenerationSoftware,KiCad,Pcbnew,9.0.7*%
%TF.CreationDate,2026-04-12T11:49:20+02:00*%
%TF.ProjectId,carte elec,63617274-6520-4656-9c65-632e6b696361,rev?*%
%TF.SameCoordinates,Original*%
%TF.FileFunction,Legend,Top*%
%TF.FilePolarity,Positive*%
%FSLAX46Y46*%
G04 Gerber Fmt 4.6, Leading zero omitted, Abs format (unit mm)*
G04 Created by KiCad (PCBNEW 9.0.7) date 2026-04-12 11:49:20*
%MOMM*%
%LPD*%
G01*
G04 APERTURE LIST*
%ADD10C,0.200000*%
%ADD11C,0.150000*%
%ADD12C,0.120000*%
G04 APERTURE END LIST*
D10*
X140869673Y-141147331D02*
X140869673Y-140147331D01*
X140869673Y-140147331D02*
X141203006Y-140861616D01*
X141203006Y-140861616D02*
X141536339Y-140147331D01*
X141536339Y-140147331D02*
X141536339Y-141147331D01*
X142441101Y-141147331D02*
X142441101Y-140623521D01*
X142441101Y-140623521D02*
X142393482Y-140528283D01*
X142393482Y-140528283D02*
X142298244Y-140480664D01*
X142298244Y-140480664D02*
X142107768Y-140480664D01*
X142107768Y-140480664D02*
X142012530Y-140528283D01*
X142441101Y-141099712D02*
X142345863Y-141147331D01*
X142345863Y-141147331D02*
X142107768Y-141147331D01*
X142107768Y-141147331D02*
X142012530Y-141099712D01*
X142012530Y-141099712D02*
X141964911Y-141004473D01*
X141964911Y-141004473D02*
X141964911Y-140909235D01*
X141964911Y-140909235D02*
X142012530Y-140813997D01*
X142012530Y-140813997D02*
X142107768Y-140766378D01*
X142107768Y-140766378D02*
X142345863Y-140766378D01*
X142345863Y-140766378D02*
X142441101Y-140718759D01*
X143345863Y-141099712D02*
X143250625Y-141147331D01*
X143250625Y-141147331D02*
X143060149Y-141147331D01*
X143060149Y-141147331D02*
X142964911Y-141099712D01*
X142964911Y-141099712D02*
X142917292Y-141052092D01*
X142917292Y-141052092D02*
X142869673Y-140956854D01*
X142869673Y-140956854D02*
X142869673Y-140671140D01*
X142869673Y-140671140D02*
X142917292Y-140575902D01*
X142917292Y-140575902D02*
X142964911Y-140528283D01*
X142964911Y-140528283D02*
X143060149Y-140480664D01*
X143060149Y-140480664D02*
X143250625Y-140480664D01*
X143250625Y-140480664D02*
X143345863Y-140528283D01*
X143774435Y-141147331D02*
X143774435Y-140147331D01*
X144203006Y-141147331D02*
X144203006Y-140623521D01*
X144203006Y-140623521D02*
X144155387Y-140528283D01*
X144155387Y-140528283D02*
X144060149Y-140480664D01*
X144060149Y-140480664D02*
X143917292Y-140480664D01*
X143917292Y-140480664D02*
X143822054Y-140528283D01*
X143822054Y-140528283D02*
X143774435Y-140575902D01*
X144679197Y-141147331D02*
X144679197Y-140480664D01*
X144679197Y-140147331D02*
X144631578Y-140194950D01*
X144631578Y-140194950D02*
X144679197Y-140242569D01*
X144679197Y-140242569D02*
X144726816Y-140194950D01*
X144726816Y-140194950D02*
X144679197Y-140147331D01*
X144679197Y-140147331D02*
X144679197Y-140242569D01*
X145155387Y-140480664D02*
X145155387Y-141147331D01*
X145155387Y-140575902D02*
X145203006Y-140528283D01*
X145203006Y-140528283D02*
X145298244Y-140480664D01*
X145298244Y-140480664D02*
X145441101Y-140480664D01*
X145441101Y-140480664D02*
X145536339Y-140528283D01*
X145536339Y-140528283D02*
X145583958Y-140623521D01*
X145583958Y-140623521D02*
X145583958Y-141147331D01*
X146441101Y-141099712D02*
X146345863Y-141147331D01*
X146345863Y-141147331D02*
X146155387Y-141147331D01*
X146155387Y-141147331D02*
X146060149Y-141099712D01*
X146060149Y-141099712D02*
X146012530Y-141004473D01*
X146012530Y-141004473D02*
X146012530Y-140623521D01*
X146012530Y-140623521D02*
X146060149Y-140528283D01*
X146060149Y-140528283D02*
X146155387Y-140480664D01*
X146155387Y-140480664D02*
X146345863Y-140480664D01*
X146345863Y-140480664D02*
X146441101Y-140528283D01*
X146441101Y-140528283D02*
X146488720Y-140623521D01*
X146488720Y-140623521D02*
X146488720Y-140718759D01*
X146488720Y-140718759D02*
X146012530Y-140813997D01*
X147536340Y-140147331D02*
X148107768Y-140147331D01*
X147822054Y-141147331D02*
X147822054Y-140147331D01*
X148441102Y-141147331D02*
X148441102Y-140147331D01*
X148869673Y-141147331D02*
X148869673Y-140623521D01*
X148869673Y-140623521D02*
X148822054Y-140528283D01*
X148822054Y-140528283D02*
X148726816Y-140480664D01*
X148726816Y-140480664D02*
X148583959Y-140480664D01*
X148583959Y-140480664D02*
X148488721Y-140528283D01*
X148488721Y-140528283D02*
X148441102Y-140575902D01*
X149774435Y-141147331D02*
X149774435Y-140623521D01*
X149774435Y-140623521D02*
X149726816Y-140528283D01*
X149726816Y-140528283D02*
X149631578Y-140480664D01*
X149631578Y-140480664D02*
X149441102Y-140480664D01*
X149441102Y-140480664D02*
X149345864Y-140528283D01*
X149774435Y-141099712D02*
X149679197Y-141147331D01*
X149679197Y-141147331D02*
X149441102Y-141147331D01*
X149441102Y-141147331D02*
X149345864Y-141099712D01*
X149345864Y-141099712D02*
X149298245Y-141004473D01*
X149298245Y-141004473D02*
X149298245Y-140909235D01*
X149298245Y-140909235D02*
X149345864Y-140813997D01*
X149345864Y-140813997D02*
X149441102Y-140766378D01*
X149441102Y-140766378D02*
X149679197Y-140766378D01*
X149679197Y-140766378D02*
X149774435Y-140718759D01*
X150107769Y-140480664D02*
X150488721Y-140480664D01*
X150250626Y-140147331D02*
X150250626Y-141004473D01*
X150250626Y-141004473D02*
X150298245Y-141099712D01*
X150298245Y-141099712D02*
X150393483Y-141147331D01*
X150393483Y-141147331D02*
X150488721Y-141147331D01*
X151583960Y-141147331D02*
X151583960Y-140147331D01*
X151583960Y-140147331D02*
X151822055Y-140147331D01*
X151822055Y-140147331D02*
X151964912Y-140194950D01*
X151964912Y-140194950D02*
X152060150Y-140290188D01*
X152060150Y-140290188D02*
X152107769Y-140385426D01*
X152107769Y-140385426D02*
X152155388Y-140575902D01*
X152155388Y-140575902D02*
X152155388Y-140718759D01*
X152155388Y-140718759D02*
X152107769Y-140909235D01*
X152107769Y-140909235D02*
X152060150Y-141004473D01*
X152060150Y-141004473D02*
X151964912Y-141099712D01*
X151964912Y-141099712D02*
X151822055Y-141147331D01*
X151822055Y-141147331D02*
X151583960Y-141147331D01*
X152583960Y-141147331D02*
X152583960Y-140480664D01*
X152583960Y-140671140D02*
X152631579Y-140575902D01*
X152631579Y-140575902D02*
X152679198Y-140528283D01*
X152679198Y-140528283D02*
X152774436Y-140480664D01*
X152774436Y-140480664D02*
X152869674Y-140480664D01*
X153631579Y-141147331D02*
X153631579Y-140623521D01*
X153631579Y-140623521D02*
X153583960Y-140528283D01*
X153583960Y-140528283D02*
X153488722Y-140480664D01*
X153488722Y-140480664D02*
X153298246Y-140480664D01*
X153298246Y-140480664D02*
X153203008Y-140528283D01*
X153631579Y-141099712D02*
X153536341Y-141147331D01*
X153536341Y-141147331D02*
X153298246Y-141147331D01*
X153298246Y-141147331D02*
X153203008Y-141099712D01*
X153203008Y-141099712D02*
X153155389Y-141004473D01*
X153155389Y-141004473D02*
X153155389Y-140909235D01*
X153155389Y-140909235D02*
X153203008Y-140813997D01*
X153203008Y-140813997D02*
X153298246Y-140766378D01*
X153298246Y-140766378D02*
X153536341Y-140766378D01*
X153536341Y-140766378D02*
X153631579Y-140718759D01*
X154012532Y-140480664D02*
X154203008Y-141147331D01*
X154203008Y-141147331D02*
X154393484Y-140671140D01*
X154393484Y-140671140D02*
X154583960Y-141147331D01*
X154583960Y-141147331D02*
X154774436Y-140480664D01*
X155107770Y-141099712D02*
X155203008Y-141147331D01*
X155203008Y-141147331D02*
X155393484Y-141147331D01*
X155393484Y-141147331D02*
X155488722Y-141099712D01*
X155488722Y-141099712D02*
X155536341Y-141004473D01*
X155536341Y-141004473D02*
X155536341Y-140956854D01*
X155536341Y-140956854D02*
X155488722Y-140861616D01*
X155488722Y-140861616D02*
X155393484Y-140813997D01*
X155393484Y-140813997D02*
X155250627Y-140813997D01*
X155250627Y-140813997D02*
X155155389Y-140766378D01*
X155155389Y-140766378D02*
X155107770Y-140671140D01*
X155107770Y-140671140D02*
X155107770Y-140623521D01*
X155107770Y-140623521D02*
X155155389Y-140528283D01*
X155155389Y-140528283D02*
X155250627Y-140480664D01*
X155250627Y-140480664D02*
X155393484Y-140480664D01*
X155393484Y-140480664D02*
X155488722Y-140528283D01*
X141393482Y-141804894D02*
X141298244Y-141757275D01*
X141298244Y-141757275D02*
X141155387Y-141757275D01*
X141155387Y-141757275D02*
X141012530Y-141804894D01*
X141012530Y-141804894D02*
X140917292Y-141900132D01*
X140917292Y-141900132D02*
X140869673Y-141995370D01*
X140869673Y-141995370D02*
X140822054Y-142185846D01*
X140822054Y-142185846D02*
X140822054Y-142328703D01*
X140822054Y-142328703D02*
X140869673Y-142519179D01*
X140869673Y-142519179D02*
X140917292Y-142614417D01*
X140917292Y-142614417D02*
X141012530Y-142709656D01*
X141012530Y-142709656D02*
X141155387Y-142757275D01*
X141155387Y-142757275D02*
X141250625Y-142757275D01*
X141250625Y-142757275D02*
X141393482Y-142709656D01*
X141393482Y-142709656D02*
X141441101Y-142662036D01*
X141441101Y-142662036D02*
X141441101Y-142328703D01*
X141441101Y-142328703D02*
X141250625Y-142328703D01*
X141869673Y-142757275D02*
X141869673Y-142090608D01*
X141869673Y-142281084D02*
X141917292Y-142185846D01*
X141917292Y-142185846D02*
X141964911Y-142138227D01*
X141964911Y-142138227D02*
X142060149Y-142090608D01*
X142060149Y-142090608D02*
X142155387Y-142090608D01*
X142631578Y-142757275D02*
X142536340Y-142709656D01*
X142536340Y-142709656D02*
X142488721Y-142662036D01*
X142488721Y-142662036D02*
X142441102Y-142566798D01*
X142441102Y-142566798D02*
X142441102Y-142281084D01*
X142441102Y-142281084D02*
X142488721Y-142185846D01*
X142488721Y-142185846D02*
X142536340Y-142138227D01*
X142536340Y-142138227D02*
X142631578Y-142090608D01*
X142631578Y-142090608D02*
X142774435Y-142090608D01*
X142774435Y-142090608D02*
X142869673Y-142138227D01*
X142869673Y-142138227D02*
X142917292Y-142185846D01*
X142917292Y-142185846D02*
X142964911Y-142281084D01*
X142964911Y-142281084D02*
X142964911Y-142566798D01*
X142964911Y-142566798D02*
X142917292Y-142662036D01*
X142917292Y-142662036D02*
X142869673Y-142709656D01*
X142869673Y-142709656D02*
X142774435Y-142757275D01*
X142774435Y-142757275D02*
X142631578Y-142757275D01*
X143822054Y-142090608D02*
X143822054Y-142757275D01*
X143393483Y-142090608D02*
X143393483Y-142614417D01*
X143393483Y-142614417D02*
X143441102Y-142709656D01*
X143441102Y-142709656D02*
X143536340Y-142757275D01*
X143536340Y-142757275D02*
X143679197Y-142757275D01*
X143679197Y-142757275D02*
X143774435Y-142709656D01*
X143774435Y-142709656D02*
X143822054Y-142662036D01*
X144298245Y-142090608D02*
X144298245Y-143090608D01*
X144298245Y-142138227D02*
X144393483Y-142090608D01*
X144393483Y-142090608D02*
X144583959Y-142090608D01*
X144583959Y-142090608D02*
X144679197Y-142138227D01*
X144679197Y-142138227D02*
X144726816Y-142185846D01*
X144726816Y-142185846D02*
X144774435Y-142281084D01*
X144774435Y-142281084D02*
X144774435Y-142566798D01*
X144774435Y-142566798D02*
X144726816Y-142662036D01*
X144726816Y-142662036D02*
X144679197Y-142709656D01*
X144679197Y-142709656D02*
X144583959Y-142757275D01*
X144583959Y-142757275D02*
X144393483Y-142757275D01*
X144393483Y-142757275D02*
X144298245Y-142709656D01*
X145583959Y-142709656D02*
X145488721Y-142757275D01*
X145488721Y-142757275D02*
X145298245Y-142757275D01*
X145298245Y-142757275D02*
X145203007Y-142709656D01*
X145203007Y-142709656D02*
X145155388Y-142614417D01*
X145155388Y-142614417D02*
X145155388Y-142233465D01*
X145155388Y-142233465D02*
X145203007Y-142138227D01*
X145203007Y-142138227D02*
X145298245Y-142090608D01*
X145298245Y-142090608D02*
X145488721Y-142090608D01*
X145488721Y-142090608D02*
X145583959Y-142138227D01*
X145583959Y-142138227D02*
X145631578Y-142233465D01*
X145631578Y-142233465D02*
X145631578Y-142328703D01*
X145631578Y-142328703D02*
X145155388Y-142423941D01*
X147298245Y-141757275D02*
X146822055Y-141757275D01*
X146822055Y-141757275D02*
X146774436Y-142233465D01*
X146774436Y-142233465D02*
X146822055Y-142185846D01*
X146822055Y-142185846D02*
X146917293Y-142138227D01*
X146917293Y-142138227D02*
X147155388Y-142138227D01*
X147155388Y-142138227D02*
X147250626Y-142185846D01*
X147250626Y-142185846D02*
X147298245Y-142233465D01*
X147298245Y-142233465D02*
X147345864Y-142328703D01*
X147345864Y-142328703D02*
X147345864Y-142566798D01*
X147345864Y-142566798D02*
X147298245Y-142662036D01*
X147298245Y-142662036D02*
X147250626Y-142709656D01*
X147250626Y-142709656D02*
X147155388Y-142757275D01*
X147155388Y-142757275D02*
X146917293Y-142757275D01*
X146917293Y-142757275D02*
X146822055Y-142709656D01*
X146822055Y-142709656D02*
X146774436Y-142662036D01*
X141393482Y-144367219D02*
X140822054Y-144367219D01*
X141107768Y-144367219D02*
X141107768Y-143367219D01*
X141107768Y-143367219D02*
X141012530Y-143510076D01*
X141012530Y-143510076D02*
X140917292Y-143605314D01*
X140917292Y-143605314D02*
X140822054Y-143652933D01*
X142012530Y-143367219D02*
X142107768Y-143367219D01*
X142107768Y-143367219D02*
X142203006Y-143414838D01*
X142203006Y-143414838D02*
X142250625Y-143462457D01*
X142250625Y-143462457D02*
X142298244Y-143557695D01*
X142298244Y-143557695D02*
X142345863Y-143748171D01*
X142345863Y-143748171D02*
X142345863Y-143986266D01*
X142345863Y-143986266D02*
X142298244Y-144176742D01*
X142298244Y-144176742D02*
X142250625Y-144271980D01*
X142250625Y-144271980D02*
X142203006Y-144319600D01*
X142203006Y-144319600D02*
X142107768Y-144367219D01*
X142107768Y-144367219D02*
X142012530Y-144367219D01*
X142012530Y-144367219D02*
X141917292Y-144319600D01*
X141917292Y-144319600D02*
X141869673Y-144271980D01*
X141869673Y-144271980D02*
X141822054Y-144176742D01*
X141822054Y-144176742D02*
X141774435Y-143986266D01*
X141774435Y-143986266D02*
X141774435Y-143748171D01*
X141774435Y-143748171D02*
X141822054Y-143557695D01*
X141822054Y-143557695D02*
X141869673Y-143462457D01*
X141869673Y-143462457D02*
X141917292Y-143414838D01*
X141917292Y-143414838D02*
X142012530Y-143367219D01*
X143488720Y-143319600D02*
X142631578Y-144605314D01*
X144012530Y-143367219D02*
X144107768Y-143367219D01*
X144107768Y-143367219D02*
X144203006Y-143414838D01*
X144203006Y-143414838D02*
X144250625Y-143462457D01*
X144250625Y-143462457D02*
X144298244Y-143557695D01*
X144298244Y-143557695D02*
X144345863Y-143748171D01*
X144345863Y-143748171D02*
X144345863Y-143986266D01*
X144345863Y-143986266D02*
X144298244Y-144176742D01*
X144298244Y-144176742D02*
X144250625Y-144271980D01*
X144250625Y-144271980D02*
X144203006Y-144319600D01*
X144203006Y-144319600D02*
X144107768Y-144367219D01*
X144107768Y-144367219D02*
X144012530Y-144367219D01*
X144012530Y-144367219D02*
X143917292Y-144319600D01*
X143917292Y-144319600D02*
X143869673Y-144271980D01*
X143869673Y-144271980D02*
X143822054Y-144176742D01*
X143822054Y-144176742D02*
X143774435Y-143986266D01*
X143774435Y-143986266D02*
X143774435Y-143748171D01*
X143774435Y-143748171D02*
X143822054Y-143557695D01*
X143822054Y-143557695D02*
X143869673Y-143462457D01*
X143869673Y-143462457D02*
X143917292Y-143414838D01*
X143917292Y-143414838D02*
X144012530Y-143367219D01*
X145203006Y-143700552D02*
X145203006Y-144367219D01*
X144964911Y-143319600D02*
X144726816Y-144033885D01*
X144726816Y-144033885D02*
X145345863Y-144033885D01*
X146441101Y-143319600D02*
X145583959Y-144605314D01*
X146726816Y-143462457D02*
X146774435Y-143414838D01*
X146774435Y-143414838D02*
X146869673Y-143367219D01*
X146869673Y-143367219D02*
X147107768Y-143367219D01*
X147107768Y-143367219D02*
X147203006Y-143414838D01*
X147203006Y-143414838D02*
X147250625Y-143462457D01*
X147250625Y-143462457D02*
X147298244Y-143557695D01*
X147298244Y-143557695D02*
X147298244Y-143652933D01*
X147298244Y-143652933D02*
X147250625Y-143795790D01*
X147250625Y-143795790D02*
X146679197Y-144367219D01*
X146679197Y-144367219D02*
X147298244Y-144367219D01*
X147917292Y-143367219D02*
X148012530Y-143367219D01*
X148012530Y-143367219D02*
X148107768Y-143414838D01*
X148107768Y-143414838D02*
X148155387Y-143462457D01*
X148155387Y-143462457D02*
X148203006Y-143557695D01*
X148203006Y-143557695D02*
X148250625Y-143748171D01*
X148250625Y-143748171D02*
X148250625Y-143986266D01*
X148250625Y-143986266D02*
X148203006Y-144176742D01*
X148203006Y-144176742D02*
X148155387Y-144271980D01*
X148155387Y-144271980D02*
X148107768Y-144319600D01*
X148107768Y-144319600D02*
X148012530Y-144367219D01*
X148012530Y-144367219D02*
X147917292Y-144367219D01*
X147917292Y-144367219D02*
X147822054Y-144319600D01*
X147822054Y-144319600D02*
X147774435Y-144271980D01*
X147774435Y-144271980D02*
X147726816Y-144176742D01*
X147726816Y-144176742D02*
X147679197Y-143986266D01*
X147679197Y-143986266D02*
X147679197Y-143748171D01*
X147679197Y-143748171D02*
X147726816Y-143557695D01*
X147726816Y-143557695D02*
X147774435Y-143462457D01*
X147774435Y-143462457D02*
X147822054Y-143414838D01*
X147822054Y-143414838D02*
X147917292Y-143367219D01*
X148631578Y-143462457D02*
X148679197Y-143414838D01*
X148679197Y-143414838D02*
X148774435Y-143367219D01*
X148774435Y-143367219D02*
X149012530Y-143367219D01*
X149012530Y-143367219D02*
X149107768Y-143414838D01*
X149107768Y-143414838D02*
X149155387Y-143462457D01*
X149155387Y-143462457D02*
X149203006Y-143557695D01*
X149203006Y-143557695D02*
X149203006Y-143652933D01*
X149203006Y-143652933D02*
X149155387Y-143795790D01*
X149155387Y-143795790D02*
X148583959Y-144367219D01*
X148583959Y-144367219D02*
X149203006Y-144367219D01*
X150060149Y-143367219D02*
X149869673Y-143367219D01*
X149869673Y-143367219D02*
X149774435Y-143414838D01*
X149774435Y-143414838D02*
X149726816Y-143462457D01*
X149726816Y-143462457D02*
X149631578Y-143605314D01*
X149631578Y-143605314D02*
X149583959Y-143795790D01*
X149583959Y-143795790D02*
X149583959Y-144176742D01*
X149583959Y-144176742D02*
X149631578Y-144271980D01*
X149631578Y-144271980D02*
X149679197Y-144319600D01*
X149679197Y-144319600D02*
X149774435Y-144367219D01*
X149774435Y-144367219D02*
X149964911Y-144367219D01*
X149964911Y-144367219D02*
X150060149Y-144319600D01*
X150060149Y-144319600D02*
X150107768Y-144271980D01*
X150107768Y-144271980D02*
X150155387Y-144176742D01*
X150155387Y-144176742D02*
X150155387Y-143938647D01*
X150155387Y-143938647D02*
X150107768Y-143843409D01*
X150107768Y-143843409D02*
X150060149Y-143795790D01*
X150060149Y-143795790D02*
X149964911Y-143748171D01*
X149964911Y-143748171D02*
X149774435Y-143748171D01*
X149774435Y-143748171D02*
X149679197Y-143795790D01*
X149679197Y-143795790D02*
X149631578Y-143843409D01*
X149631578Y-143843409D02*
X149583959Y-143938647D01*
D11*
X185333333Y-106454819D02*
X185333333Y-105454819D01*
X185333333Y-105454819D02*
X185666666Y-106169104D01*
X185666666Y-106169104D02*
X185999999Y-105454819D01*
X185999999Y-105454819D02*
X185999999Y-106454819D01*
X186238095Y-106550057D02*
X186999999Y-106550057D01*
X187142857Y-105454819D02*
X187809523Y-106454819D01*
X187809523Y-105454819D02*
X187142857Y-106454819D01*
X188714285Y-106454819D02*
X188142857Y-106454819D01*
X188428571Y-106454819D02*
X188428571Y-105454819D01*
X188428571Y-105454819D02*
X188333333Y-105597676D01*
X188333333Y-105597676D02*
X188238095Y-105692914D01*
X188238095Y-105692914D02*
X188142857Y-105740533D01*
X177357142Y-92954819D02*
X177023809Y-92478628D01*
X176785714Y-92954819D02*
X176785714Y-91954819D01*
X176785714Y-91954819D02*
X177166666Y-91954819D01*
X177166666Y-91954819D02*
X177261904Y-92002438D01*
X177261904Y-92002438D02*
X177309523Y-92050057D01*
X177309523Y-92050057D02*
X177357142Y-92145295D01*
X177357142Y-92145295D02*
X177357142Y-92288152D01*
X177357142Y-92288152D02*
X177309523Y-92383390D01*
X177309523Y-92383390D02*
X177261904Y-92431009D01*
X177261904Y-92431009D02*
X177166666Y-92478628D01*
X177166666Y-92478628D02*
X176785714Y-92478628D01*
X178309523Y-92954819D02*
X177738095Y-92954819D01*
X178023809Y-92954819D02*
X178023809Y-91954819D01*
X178023809Y-91954819D02*
X177928571Y-92097676D01*
X177928571Y-92097676D02*
X177833333Y-92192914D01*
X177833333Y-92192914D02*
X177738095Y-92240533D01*
X178928571Y-91954819D02*
X179023809Y-91954819D01*
X179023809Y-91954819D02*
X179119047Y-92002438D01*
X179119047Y-92002438D02*
X179166666Y-92050057D01*
X179166666Y-92050057D02*
X179214285Y-92145295D01*
X179214285Y-92145295D02*
X179261904Y-92335771D01*
X179261904Y-92335771D02*
X179261904Y-92573866D01*
X179261904Y-92573866D02*
X179214285Y-92764342D01*
X179214285Y-92764342D02*
X179166666Y-92859580D01*
X179166666Y-92859580D02*
X179119047Y-92907200D01*
X179119047Y-92907200D02*
X179023809Y-92954819D01*
X179023809Y-92954819D02*
X178928571Y-92954819D01*
X178928571Y-92954819D02*
X178833333Y-92907200D01*
X178833333Y-92907200D02*
X178785714Y-92859580D01*
X178785714Y-92859580D02*
X178738095Y-92764342D01*
X178738095Y-92764342D02*
X178690476Y-92573866D01*
X178690476Y-92573866D02*
X178690476Y-92335771D01*
X178690476Y-92335771D02*
X178738095Y-92145295D01*
X178738095Y-92145295D02*
X178785714Y-92050057D01*
X178785714Y-92050057D02*
X178833333Y-92002438D01*
X178833333Y-92002438D02*
X178928571Y-91954819D01*
X184928571Y-94359580D02*
X184880952Y-94407200D01*
X184880952Y-94407200D02*
X184738095Y-94454819D01*
X184738095Y-94454819D02*
X184642857Y-94454819D01*
X184642857Y-94454819D02*
X184500000Y-94407200D01*
X184500000Y-94407200D02*
X184404762Y-94311961D01*
X184404762Y-94311961D02*
X184357143Y-94216723D01*
X184357143Y-94216723D02*
X184309524Y-94026247D01*
X184309524Y-94026247D02*
X184309524Y-93883390D01*
X184309524Y-93883390D02*
X184357143Y-93692914D01*
X184357143Y-93692914D02*
X184404762Y-93597676D01*
X184404762Y-93597676D02*
X184500000Y-93502438D01*
X184500000Y-93502438D02*
X184642857Y-93454819D01*
X184642857Y-93454819D02*
X184738095Y-93454819D01*
X184738095Y-93454819D02*
X184880952Y-93502438D01*
X184880952Y-93502438D02*
X184928571Y-93550057D01*
X185880952Y-94454819D02*
X185309524Y-94454819D01*
X185595238Y-94454819D02*
X185595238Y-93454819D01*
X185595238Y-93454819D02*
X185500000Y-93597676D01*
X185500000Y-93597676D02*
X185404762Y-93692914D01*
X185404762Y-93692914D02*
X185309524Y-93740533D01*
X186261905Y-93550057D02*
X186309524Y-93502438D01*
X186309524Y-93502438D02*
X186404762Y-93454819D01*
X186404762Y-93454819D02*
X186642857Y-93454819D01*
X186642857Y-93454819D02*
X186738095Y-93502438D01*
X186738095Y-93502438D02*
X186785714Y-93550057D01*
X186785714Y-93550057D02*
X186833333Y-93645295D01*
X186833333Y-93645295D02*
X186833333Y-93740533D01*
X186833333Y-93740533D02*
X186785714Y-93883390D01*
X186785714Y-93883390D02*
X186214286Y-94454819D01*
X186214286Y-94454819D02*
X186833333Y-94454819D01*
X187833333Y-94454819D02*
X187500000Y-93978628D01*
X187261905Y-94454819D02*
X187261905Y-93454819D01*
X187261905Y-93454819D02*
X187642857Y-93454819D01*
X187642857Y-93454819D02*
X187738095Y-93502438D01*
X187738095Y-93502438D02*
X187785714Y-93550057D01*
X187785714Y-93550057D02*
X187833333Y-93645295D01*
X187833333Y-93645295D02*
X187833333Y-93788152D01*
X187833333Y-93788152D02*
X187785714Y-93883390D01*
X187785714Y-93883390D02*
X187738095Y-93931009D01*
X187738095Y-93931009D02*
X187642857Y-93978628D01*
X187642857Y-93978628D02*
X187261905Y-93978628D01*
X188214286Y-94169104D02*
X188690476Y-94169104D01*
X188119048Y-94454819D02*
X188452381Y-93454819D01*
X188452381Y-93454819D02*
X188785714Y-94454819D01*
X189119048Y-94454819D02*
X189119048Y-93454819D01*
X189119048Y-93454819D02*
X189357143Y-93454819D01*
X189357143Y-93454819D02*
X189500000Y-93502438D01*
X189500000Y-93502438D02*
X189595238Y-93597676D01*
X189595238Y-93597676D02*
X189642857Y-93692914D01*
X189642857Y-93692914D02*
X189690476Y-93883390D01*
X189690476Y-93883390D02*
X189690476Y-94026247D01*
X189690476Y-94026247D02*
X189642857Y-94216723D01*
X189642857Y-94216723D02*
X189595238Y-94311961D01*
X189595238Y-94311961D02*
X189500000Y-94407200D01*
X189500000Y-94407200D02*
X189357143Y-94454819D01*
X189357143Y-94454819D02*
X189119048Y-94454819D01*
X175999047Y-90614819D02*
X175999047Y-91329104D01*
X175999047Y-91329104D02*
X175951428Y-91471961D01*
X175951428Y-91471961D02*
X175856190Y-91567200D01*
X175856190Y-91567200D02*
X175713333Y-91614819D01*
X175713333Y-91614819D02*
X175618095Y-91614819D01*
X176475238Y-90614819D02*
X176475238Y-91424342D01*
X176475238Y-91424342D02*
X176522857Y-91519580D01*
X176522857Y-91519580D02*
X176570476Y-91567200D01*
X176570476Y-91567200D02*
X176665714Y-91614819D01*
X176665714Y-91614819D02*
X176856190Y-91614819D01*
X176856190Y-91614819D02*
X176951428Y-91567200D01*
X176951428Y-91567200D02*
X176999047Y-91519580D01*
X176999047Y-91519580D02*
X177046666Y-91424342D01*
X177046666Y-91424342D02*
X177046666Y-90614819D01*
X177522857Y-91614819D02*
X177522857Y-90614819D01*
X177522857Y-90614819D02*
X177856190Y-91329104D01*
X177856190Y-91329104D02*
X178189523Y-90614819D01*
X178189523Y-90614819D02*
X178189523Y-91614819D01*
X178665714Y-91614819D02*
X178665714Y-90614819D01*
X178665714Y-90614819D02*
X179046666Y-90614819D01*
X179046666Y-90614819D02*
X179141904Y-90662438D01*
X179141904Y-90662438D02*
X179189523Y-90710057D01*
X179189523Y-90710057D02*
X179237142Y-90805295D01*
X179237142Y-90805295D02*
X179237142Y-90948152D01*
X179237142Y-90948152D02*
X179189523Y-91043390D01*
X179189523Y-91043390D02*
X179141904Y-91091009D01*
X179141904Y-91091009D02*
X179046666Y-91138628D01*
X179046666Y-91138628D02*
X178665714Y-91138628D01*
X179665714Y-91091009D02*
X179999047Y-91091009D01*
X180141904Y-91614819D02*
X179665714Y-91614819D01*
X179665714Y-91614819D02*
X179665714Y-90614819D01*
X179665714Y-90614819D02*
X180141904Y-90614819D01*
X181141904Y-91614819D02*
X180808571Y-91138628D01*
X180570476Y-91614819D02*
X180570476Y-90614819D01*
X180570476Y-90614819D02*
X180951428Y-90614819D01*
X180951428Y-90614819D02*
X181046666Y-90662438D01*
X181046666Y-90662438D02*
X181094285Y-90710057D01*
X181094285Y-90710057D02*
X181141904Y-90805295D01*
X181141904Y-90805295D02*
X181141904Y-90948152D01*
X181141904Y-90948152D02*
X181094285Y-91043390D01*
X181094285Y-91043390D02*
X181046666Y-91091009D01*
X181046666Y-91091009D02*
X180951428Y-91138628D01*
X180951428Y-91138628D02*
X180570476Y-91138628D01*
X181522857Y-90710057D02*
X181570476Y-90662438D01*
X181570476Y-90662438D02*
X181665714Y-90614819D01*
X181665714Y-90614819D02*
X181903809Y-90614819D01*
X181903809Y-90614819D02*
X181999047Y-90662438D01*
X181999047Y-90662438D02*
X182046666Y-90710057D01*
X182046666Y-90710057D02*
X182094285Y-90805295D01*
X182094285Y-90805295D02*
X182094285Y-90900533D01*
X182094285Y-90900533D02*
X182046666Y-91043390D01*
X182046666Y-91043390D02*
X181475238Y-91614819D01*
X181475238Y-91614819D02*
X182094285Y-91614819D01*
X176099047Y-89114819D02*
X176099047Y-89829104D01*
X176099047Y-89829104D02*
X176051428Y-89971961D01*
X176051428Y-89971961D02*
X175956190Y-90067200D01*
X175956190Y-90067200D02*
X175813333Y-90114819D01*
X175813333Y-90114819D02*
X175718095Y-90114819D01*
X176575238Y-89114819D02*
X176575238Y-89924342D01*
X176575238Y-89924342D02*
X176622857Y-90019580D01*
X176622857Y-90019580D02*
X176670476Y-90067200D01*
X176670476Y-90067200D02*
X176765714Y-90114819D01*
X176765714Y-90114819D02*
X176956190Y-90114819D01*
X176956190Y-90114819D02*
X177051428Y-90067200D01*
X177051428Y-90067200D02*
X177099047Y-90019580D01*
X177099047Y-90019580D02*
X177146666Y-89924342D01*
X177146666Y-89924342D02*
X177146666Y-89114819D01*
X177622857Y-90114819D02*
X177622857Y-89114819D01*
X177622857Y-89114819D02*
X177956190Y-89829104D01*
X177956190Y-89829104D02*
X178289523Y-89114819D01*
X178289523Y-89114819D02*
X178289523Y-90114819D01*
X178765714Y-90114819D02*
X178765714Y-89114819D01*
X178765714Y-89114819D02*
X179146666Y-89114819D01*
X179146666Y-89114819D02*
X179241904Y-89162438D01*
X179241904Y-89162438D02*
X179289523Y-89210057D01*
X179289523Y-89210057D02*
X179337142Y-89305295D01*
X179337142Y-89305295D02*
X179337142Y-89448152D01*
X179337142Y-89448152D02*
X179289523Y-89543390D01*
X179289523Y-89543390D02*
X179241904Y-89591009D01*
X179241904Y-89591009D02*
X179146666Y-89638628D01*
X179146666Y-89638628D02*
X178765714Y-89638628D01*
X179765714Y-89591009D02*
X180099047Y-89591009D01*
X180241904Y-90114819D02*
X179765714Y-90114819D01*
X179765714Y-90114819D02*
X179765714Y-89114819D01*
X179765714Y-89114819D02*
X180241904Y-89114819D01*
X181241904Y-90114819D02*
X180908571Y-89638628D01*
X180670476Y-90114819D02*
X180670476Y-89114819D01*
X180670476Y-89114819D02*
X181051428Y-89114819D01*
X181051428Y-89114819D02*
X181146666Y-89162438D01*
X181146666Y-89162438D02*
X181194285Y-89210057D01*
X181194285Y-89210057D02*
X181241904Y-89305295D01*
X181241904Y-89305295D02*
X181241904Y-89448152D01*
X181241904Y-89448152D02*
X181194285Y-89543390D01*
X181194285Y-89543390D02*
X181146666Y-89591009D01*
X181146666Y-89591009D02*
X181051428Y-89638628D01*
X181051428Y-89638628D02*
X180670476Y-89638628D01*
X182194285Y-90114819D02*
X181622857Y-90114819D01*
X181908571Y-90114819D02*
X181908571Y-89114819D01*
X181908571Y-89114819D02*
X181813333Y-89257676D01*
X181813333Y-89257676D02*
X181718095Y-89352914D01*
X181718095Y-89352914D02*
X181622857Y-89400533D01*
X167285714Y-114669104D02*
X167761904Y-114669104D01*
X167190476Y-114954819D02*
X167523809Y-113954819D01*
X167523809Y-113954819D02*
X167857142Y-114954819D01*
X168714285Y-114954819D02*
X168142857Y-114954819D01*
X168428571Y-114954819D02*
X168428571Y-113954819D01*
X168428571Y-113954819D02*
X168333333Y-114097676D01*
X168333333Y-114097676D02*
X168238095Y-114192914D01*
X168238095Y-114192914D02*
X168142857Y-114240533D01*
X167833333Y-97454819D02*
X167500000Y-96978628D01*
X167261905Y-97454819D02*
X167261905Y-96454819D01*
X167261905Y-96454819D02*
X167642857Y-96454819D01*
X167642857Y-96454819D02*
X167738095Y-96502438D01*
X167738095Y-96502438D02*
X167785714Y-96550057D01*
X167785714Y-96550057D02*
X167833333Y-96645295D01*
X167833333Y-96645295D02*
X167833333Y-96788152D01*
X167833333Y-96788152D02*
X167785714Y-96883390D01*
X167785714Y-96883390D02*
X167738095Y-96931009D01*
X167738095Y-96931009D02*
X167642857Y-96978628D01*
X167642857Y-96978628D02*
X167261905Y-96978628D01*
X168309524Y-97454819D02*
X168500000Y-97454819D01*
X168500000Y-97454819D02*
X168595238Y-97407200D01*
X168595238Y-97407200D02*
X168642857Y-97359580D01*
X168642857Y-97359580D02*
X168738095Y-97216723D01*
X168738095Y-97216723D02*
X168785714Y-97026247D01*
X168785714Y-97026247D02*
X168785714Y-96645295D01*
X168785714Y-96645295D02*
X168738095Y-96550057D01*
X168738095Y-96550057D02*
X168690476Y-96502438D01*
X168690476Y-96502438D02*
X168595238Y-96454819D01*
X168595238Y-96454819D02*
X168404762Y-96454819D01*
X168404762Y-96454819D02*
X168309524Y-96502438D01*
X168309524Y-96502438D02*
X168261905Y-96550057D01*
X168261905Y-96550057D02*
X168214286Y-96645295D01*
X168214286Y-96645295D02*
X168214286Y-96883390D01*
X168214286Y-96883390D02*
X168261905Y-96978628D01*
X168261905Y-96978628D02*
X168309524Y-97026247D01*
X168309524Y-97026247D02*
X168404762Y-97073866D01*
X168404762Y-97073866D02*
X168595238Y-97073866D01*
X168595238Y-97073866D02*
X168690476Y-97026247D01*
X168690476Y-97026247D02*
X168738095Y-96978628D01*
X168738095Y-96978628D02*
X168785714Y-96883390D01*
X162333333Y-90954819D02*
X162000000Y-90478628D01*
X161761905Y-90954819D02*
X161761905Y-89954819D01*
X161761905Y-89954819D02*
X162142857Y-89954819D01*
X162142857Y-89954819D02*
X162238095Y-90002438D01*
X162238095Y-90002438D02*
X162285714Y-90050057D01*
X162285714Y-90050057D02*
X162333333Y-90145295D01*
X162333333Y-90145295D02*
X162333333Y-90288152D01*
X162333333Y-90288152D02*
X162285714Y-90383390D01*
X162285714Y-90383390D02*
X162238095Y-90431009D01*
X162238095Y-90431009D02*
X162142857Y-90478628D01*
X162142857Y-90478628D02*
X161761905Y-90478628D01*
X162904762Y-90383390D02*
X162809524Y-90335771D01*
X162809524Y-90335771D02*
X162761905Y-90288152D01*
X162761905Y-90288152D02*
X162714286Y-90192914D01*
X162714286Y-90192914D02*
X162714286Y-90145295D01*
X162714286Y-90145295D02*
X162761905Y-90050057D01*
X162761905Y-90050057D02*
X162809524Y-90002438D01*
X162809524Y-90002438D02*
X162904762Y-89954819D01*
X162904762Y-89954819D02*
X163095238Y-89954819D01*
X163095238Y-89954819D02*
X163190476Y-90002438D01*
X163190476Y-90002438D02*
X163238095Y-90050057D01*
X163238095Y-90050057D02*
X163285714Y-90145295D01*
X163285714Y-90145295D02*
X163285714Y-90192914D01*
X163285714Y-90192914D02*
X163238095Y-90288152D01*
X163238095Y-90288152D02*
X163190476Y-90335771D01*
X163190476Y-90335771D02*
X163095238Y-90383390D01*
X163095238Y-90383390D02*
X162904762Y-90383390D01*
X162904762Y-90383390D02*
X162809524Y-90431009D01*
X162809524Y-90431009D02*
X162761905Y-90478628D01*
X162761905Y-90478628D02*
X162714286Y-90573866D01*
X162714286Y-90573866D02*
X162714286Y-90764342D01*
X162714286Y-90764342D02*
X162761905Y-90859580D01*
X162761905Y-90859580D02*
X162809524Y-90907200D01*
X162809524Y-90907200D02*
X162904762Y-90954819D01*
X162904762Y-90954819D02*
X163095238Y-90954819D01*
X163095238Y-90954819D02*
X163190476Y-90907200D01*
X163190476Y-90907200D02*
X163238095Y-90859580D01*
X163238095Y-90859580D02*
X163285714Y-90764342D01*
X163285714Y-90764342D02*
X163285714Y-90573866D01*
X163285714Y-90573866D02*
X163238095Y-90478628D01*
X163238095Y-90478628D02*
X163190476Y-90431009D01*
X163190476Y-90431009D02*
X163095238Y-90383390D01*
X176099047Y-87614819D02*
X176099047Y-88329104D01*
X176099047Y-88329104D02*
X176051428Y-88471961D01*
X176051428Y-88471961D02*
X175956190Y-88567200D01*
X175956190Y-88567200D02*
X175813333Y-88614819D01*
X175813333Y-88614819D02*
X175718095Y-88614819D01*
X176575238Y-87614819D02*
X176575238Y-88424342D01*
X176575238Y-88424342D02*
X176622857Y-88519580D01*
X176622857Y-88519580D02*
X176670476Y-88567200D01*
X176670476Y-88567200D02*
X176765714Y-88614819D01*
X176765714Y-88614819D02*
X176956190Y-88614819D01*
X176956190Y-88614819D02*
X177051428Y-88567200D01*
X177051428Y-88567200D02*
X177099047Y-88519580D01*
X177099047Y-88519580D02*
X177146666Y-88424342D01*
X177146666Y-88424342D02*
X177146666Y-87614819D01*
X177622857Y-88614819D02*
X177622857Y-87614819D01*
X177622857Y-87614819D02*
X177956190Y-88329104D01*
X177956190Y-88329104D02*
X178289523Y-87614819D01*
X178289523Y-87614819D02*
X178289523Y-88614819D01*
X178765714Y-88614819D02*
X178765714Y-87614819D01*
X178765714Y-87614819D02*
X179146666Y-87614819D01*
X179146666Y-87614819D02*
X179241904Y-87662438D01*
X179241904Y-87662438D02*
X179289523Y-87710057D01*
X179289523Y-87710057D02*
X179337142Y-87805295D01*
X179337142Y-87805295D02*
X179337142Y-87948152D01*
X179337142Y-87948152D02*
X179289523Y-88043390D01*
X179289523Y-88043390D02*
X179241904Y-88091009D01*
X179241904Y-88091009D02*
X179146666Y-88138628D01*
X179146666Y-88138628D02*
X178765714Y-88138628D01*
X179765714Y-88091009D02*
X180099047Y-88091009D01*
X180241904Y-88614819D02*
X179765714Y-88614819D01*
X179765714Y-88614819D02*
X179765714Y-87614819D01*
X179765714Y-87614819D02*
X180241904Y-87614819D01*
X181241904Y-88614819D02*
X180908571Y-88138628D01*
X180670476Y-88614819D02*
X180670476Y-87614819D01*
X180670476Y-87614819D02*
X181051428Y-87614819D01*
X181051428Y-87614819D02*
X181146666Y-87662438D01*
X181146666Y-87662438D02*
X181194285Y-87710057D01*
X181194285Y-87710057D02*
X181241904Y-87805295D01*
X181241904Y-87805295D02*
X181241904Y-87948152D01*
X181241904Y-87948152D02*
X181194285Y-88043390D01*
X181194285Y-88043390D02*
X181146666Y-88091009D01*
X181146666Y-88091009D02*
X181051428Y-88138628D01*
X181051428Y-88138628D02*
X180670476Y-88138628D01*
X181575238Y-87614819D02*
X182194285Y-87614819D01*
X182194285Y-87614819D02*
X181860952Y-87995771D01*
X181860952Y-87995771D02*
X182003809Y-87995771D01*
X182003809Y-87995771D02*
X182099047Y-88043390D01*
X182099047Y-88043390D02*
X182146666Y-88091009D01*
X182146666Y-88091009D02*
X182194285Y-88186247D01*
X182194285Y-88186247D02*
X182194285Y-88424342D01*
X182194285Y-88424342D02*
X182146666Y-88519580D01*
X182146666Y-88519580D02*
X182099047Y-88567200D01*
X182099047Y-88567200D02*
X182003809Y-88614819D01*
X182003809Y-88614819D02*
X181718095Y-88614819D01*
X181718095Y-88614819D02*
X181622857Y-88567200D01*
X181622857Y-88567200D02*
X181575238Y-88519580D01*
X181333333Y-113359580D02*
X181285714Y-113407200D01*
X181285714Y-113407200D02*
X181142857Y-113454819D01*
X181142857Y-113454819D02*
X181047619Y-113454819D01*
X181047619Y-113454819D02*
X180904762Y-113407200D01*
X180904762Y-113407200D02*
X180809524Y-113311961D01*
X180809524Y-113311961D02*
X180761905Y-113216723D01*
X180761905Y-113216723D02*
X180714286Y-113026247D01*
X180714286Y-113026247D02*
X180714286Y-112883390D01*
X180714286Y-112883390D02*
X180761905Y-112692914D01*
X180761905Y-112692914D02*
X180809524Y-112597676D01*
X180809524Y-112597676D02*
X180904762Y-112502438D01*
X180904762Y-112502438D02*
X181047619Y-112454819D01*
X181047619Y-112454819D02*
X181142857Y-112454819D01*
X181142857Y-112454819D02*
X181285714Y-112502438D01*
X181285714Y-112502438D02*
X181333333Y-112550057D01*
X181809524Y-113454819D02*
X182000000Y-113454819D01*
X182000000Y-113454819D02*
X182095238Y-113407200D01*
X182095238Y-113407200D02*
X182142857Y-113359580D01*
X182142857Y-113359580D02*
X182238095Y-113216723D01*
X182238095Y-113216723D02*
X182285714Y-113026247D01*
X182285714Y-113026247D02*
X182285714Y-112645295D01*
X182285714Y-112645295D02*
X182238095Y-112550057D01*
X182238095Y-112550057D02*
X182190476Y-112502438D01*
X182190476Y-112502438D02*
X182095238Y-112454819D01*
X182095238Y-112454819D02*
X181904762Y-112454819D01*
X181904762Y-112454819D02*
X181809524Y-112502438D01*
X181809524Y-112502438D02*
X181761905Y-112550057D01*
X181761905Y-112550057D02*
X181714286Y-112645295D01*
X181714286Y-112645295D02*
X181714286Y-112883390D01*
X181714286Y-112883390D02*
X181761905Y-112978628D01*
X181761905Y-112978628D02*
X181809524Y-113026247D01*
X181809524Y-113026247D02*
X181904762Y-113073866D01*
X181904762Y-113073866D02*
X182095238Y-113073866D01*
X182095238Y-113073866D02*
X182190476Y-113026247D01*
X182190476Y-113026247D02*
X182238095Y-112978628D01*
X182238095Y-112978628D02*
X182285714Y-112883390D01*
X180357142Y-125859580D02*
X180309523Y-125907200D01*
X180309523Y-125907200D02*
X180166666Y-125954819D01*
X180166666Y-125954819D02*
X180071428Y-125954819D01*
X180071428Y-125954819D02*
X179928571Y-125907200D01*
X179928571Y-125907200D02*
X179833333Y-125811961D01*
X179833333Y-125811961D02*
X179785714Y-125716723D01*
X179785714Y-125716723D02*
X179738095Y-125526247D01*
X179738095Y-125526247D02*
X179738095Y-125383390D01*
X179738095Y-125383390D02*
X179785714Y-125192914D01*
X179785714Y-125192914D02*
X179833333Y-125097676D01*
X179833333Y-125097676D02*
X179928571Y-125002438D01*
X179928571Y-125002438D02*
X180071428Y-124954819D01*
X180071428Y-124954819D02*
X180166666Y-124954819D01*
X180166666Y-124954819D02*
X180309523Y-125002438D01*
X180309523Y-125002438D02*
X180357142Y-125050057D01*
X181309523Y-125954819D02*
X180738095Y-125954819D01*
X181023809Y-125954819D02*
X181023809Y-124954819D01*
X181023809Y-124954819D02*
X180928571Y-125097676D01*
X180928571Y-125097676D02*
X180833333Y-125192914D01*
X180833333Y-125192914D02*
X180738095Y-125240533D01*
X181928571Y-124954819D02*
X182023809Y-124954819D01*
X182023809Y-124954819D02*
X182119047Y-125002438D01*
X182119047Y-125002438D02*
X182166666Y-125050057D01*
X182166666Y-125050057D02*
X182214285Y-125145295D01*
X182214285Y-125145295D02*
X182261904Y-125335771D01*
X182261904Y-125335771D02*
X182261904Y-125573866D01*
X182261904Y-125573866D02*
X182214285Y-125764342D01*
X182214285Y-125764342D02*
X182166666Y-125859580D01*
X182166666Y-125859580D02*
X182119047Y-125907200D01*
X182119047Y-125907200D02*
X182023809Y-125954819D01*
X182023809Y-125954819D02*
X181928571Y-125954819D01*
X181928571Y-125954819D02*
X181833333Y-125907200D01*
X181833333Y-125907200D02*
X181785714Y-125859580D01*
X181785714Y-125859580D02*
X181738095Y-125764342D01*
X181738095Y-125764342D02*
X181690476Y-125573866D01*
X181690476Y-125573866D02*
X181690476Y-125335771D01*
X181690476Y-125335771D02*
X181738095Y-125145295D01*
X181738095Y-125145295D02*
X181785714Y-125050057D01*
X181785714Y-125050057D02*
X181833333Y-125002438D01*
X181833333Y-125002438D02*
X181928571Y-124954819D01*
X208076666Y-129404819D02*
X208076666Y-130119104D01*
X208076666Y-130119104D02*
X208029047Y-130261961D01*
X208029047Y-130261961D02*
X207933809Y-130357200D01*
X207933809Y-130357200D02*
X207790952Y-130404819D01*
X207790952Y-130404819D02*
X207695714Y-130404819D01*
X208505238Y-129500057D02*
X208552857Y-129452438D01*
X208552857Y-129452438D02*
X208648095Y-129404819D01*
X208648095Y-129404819D02*
X208886190Y-129404819D01*
X208886190Y-129404819D02*
X208981428Y-129452438D01*
X208981428Y-129452438D02*
X209029047Y-129500057D01*
X209029047Y-129500057D02*
X209076666Y-129595295D01*
X209076666Y-129595295D02*
X209076666Y-129690533D01*
X209076666Y-129690533D02*
X209029047Y-129833390D01*
X209029047Y-129833390D02*
X208457619Y-130404819D01*
X208457619Y-130404819D02*
X209076666Y-130404819D01*
X174385595Y-140477319D02*
X174385595Y-141286842D01*
X174385595Y-141286842D02*
X174433214Y-141382080D01*
X174433214Y-141382080D02*
X174480833Y-141429700D01*
X174480833Y-141429700D02*
X174576071Y-141477319D01*
X174576071Y-141477319D02*
X174766547Y-141477319D01*
X174766547Y-141477319D02*
X174861785Y-141429700D01*
X174861785Y-141429700D02*
X174909404Y-141382080D01*
X174909404Y-141382080D02*
X174957023Y-141286842D01*
X174957023Y-141286842D02*
X174957023Y-140477319D01*
X175385595Y-140572557D02*
X175433214Y-140524938D01*
X175433214Y-140524938D02*
X175528452Y-140477319D01*
X175528452Y-140477319D02*
X175766547Y-140477319D01*
X175766547Y-140477319D02*
X175861785Y-140524938D01*
X175861785Y-140524938D02*
X175909404Y-140572557D01*
X175909404Y-140572557D02*
X175957023Y-140667795D01*
X175957023Y-140667795D02*
X175957023Y-140763033D01*
X175957023Y-140763033D02*
X175909404Y-140905890D01*
X175909404Y-140905890D02*
X175337976Y-141477319D01*
X175337976Y-141477319D02*
X175957023Y-141477319D01*
X180333333Y-128359580D02*
X180285714Y-128407200D01*
X180285714Y-128407200D02*
X180142857Y-128454819D01*
X180142857Y-128454819D02*
X180047619Y-128454819D01*
X180047619Y-128454819D02*
X179904762Y-128407200D01*
X179904762Y-128407200D02*
X179809524Y-128311961D01*
X179809524Y-128311961D02*
X179761905Y-128216723D01*
X179761905Y-128216723D02*
X179714286Y-128026247D01*
X179714286Y-128026247D02*
X179714286Y-127883390D01*
X179714286Y-127883390D02*
X179761905Y-127692914D01*
X179761905Y-127692914D02*
X179809524Y-127597676D01*
X179809524Y-127597676D02*
X179904762Y-127502438D01*
X179904762Y-127502438D02*
X180047619Y-127454819D01*
X180047619Y-127454819D02*
X180142857Y-127454819D01*
X180142857Y-127454819D02*
X180285714Y-127502438D01*
X180285714Y-127502438D02*
X180333333Y-127550057D01*
X181285714Y-128454819D02*
X180714286Y-128454819D01*
X181000000Y-128454819D02*
X181000000Y-127454819D01*
X181000000Y-127454819D02*
X180904762Y-127597676D01*
X180904762Y-127597676D02*
X180809524Y-127692914D01*
X180809524Y-127692914D02*
X180714286Y-127740533D01*
X189126666Y-131261009D02*
X188793333Y-131261009D01*
X188793333Y-131784819D02*
X188793333Y-130784819D01*
X188793333Y-130784819D02*
X189269523Y-130784819D01*
X190174285Y-131784819D02*
X189602857Y-131784819D01*
X189888571Y-131784819D02*
X189888571Y-130784819D01*
X189888571Y-130784819D02*
X189793333Y-130927676D01*
X189793333Y-130927676D02*
X189698095Y-131022914D01*
X189698095Y-131022914D02*
X189602857Y-131070533D01*
X167555714Y-82789104D02*
X168031904Y-82789104D01*
X167460476Y-83074819D02*
X167793809Y-82074819D01*
X167793809Y-82074819D02*
X168127142Y-83074819D01*
X168412857Y-82170057D02*
X168460476Y-82122438D01*
X168460476Y-82122438D02*
X168555714Y-82074819D01*
X168555714Y-82074819D02*
X168793809Y-82074819D01*
X168793809Y-82074819D02*
X168889047Y-82122438D01*
X168889047Y-82122438D02*
X168936666Y-82170057D01*
X168936666Y-82170057D02*
X168984285Y-82265295D01*
X168984285Y-82265295D02*
X168984285Y-82360533D01*
X168984285Y-82360533D02*
X168936666Y-82503390D01*
X168936666Y-82503390D02*
X168365238Y-83074819D01*
X168365238Y-83074819D02*
X168984285Y-83074819D01*
X180428571Y-60359580D02*
X180380952Y-60407200D01*
X180380952Y-60407200D02*
X180238095Y-60454819D01*
X180238095Y-60454819D02*
X180142857Y-60454819D01*
X180142857Y-60454819D02*
X180000000Y-60407200D01*
X180000000Y-60407200D02*
X179904762Y-60311961D01*
X179904762Y-60311961D02*
X179857143Y-60216723D01*
X179857143Y-60216723D02*
X179809524Y-60026247D01*
X179809524Y-60026247D02*
X179809524Y-59883390D01*
X179809524Y-59883390D02*
X179857143Y-59692914D01*
X179857143Y-59692914D02*
X179904762Y-59597676D01*
X179904762Y-59597676D02*
X180000000Y-59502438D01*
X180000000Y-59502438D02*
X180142857Y-59454819D01*
X180142857Y-59454819D02*
X180238095Y-59454819D01*
X180238095Y-59454819D02*
X180380952Y-59502438D01*
X180380952Y-59502438D02*
X180428571Y-59550057D01*
X181380952Y-60454819D02*
X180809524Y-60454819D01*
X181095238Y-60454819D02*
X181095238Y-59454819D01*
X181095238Y-59454819D02*
X181000000Y-59597676D01*
X181000000Y-59597676D02*
X180904762Y-59692914D01*
X180904762Y-59692914D02*
X180809524Y-59740533D01*
X181714286Y-59454819D02*
X182333333Y-59454819D01*
X182333333Y-59454819D02*
X182000000Y-59835771D01*
X182000000Y-59835771D02*
X182142857Y-59835771D01*
X182142857Y-59835771D02*
X182238095Y-59883390D01*
X182238095Y-59883390D02*
X182285714Y-59931009D01*
X182285714Y-59931009D02*
X182333333Y-60026247D01*
X182333333Y-60026247D02*
X182333333Y-60264342D01*
X182333333Y-60264342D02*
X182285714Y-60359580D01*
X182285714Y-60359580D02*
X182238095Y-60407200D01*
X182238095Y-60407200D02*
X182142857Y-60454819D01*
X182142857Y-60454819D02*
X181857143Y-60454819D01*
X181857143Y-60454819D02*
X181761905Y-60407200D01*
X181761905Y-60407200D02*
X181714286Y-60359580D01*
X183333333Y-60454819D02*
X183000000Y-59978628D01*
X182761905Y-60454819D02*
X182761905Y-59454819D01*
X182761905Y-59454819D02*
X183142857Y-59454819D01*
X183142857Y-59454819D02*
X183238095Y-59502438D01*
X183238095Y-59502438D02*
X183285714Y-59550057D01*
X183285714Y-59550057D02*
X183333333Y-59645295D01*
X183333333Y-59645295D02*
X183333333Y-59788152D01*
X183333333Y-59788152D02*
X183285714Y-59883390D01*
X183285714Y-59883390D02*
X183238095Y-59931009D01*
X183238095Y-59931009D02*
X183142857Y-59978628D01*
X183142857Y-59978628D02*
X182761905Y-59978628D01*
X183714286Y-60169104D02*
X184190476Y-60169104D01*
X183619048Y-60454819D02*
X183952381Y-59454819D01*
X183952381Y-59454819D02*
X184285714Y-60454819D01*
X184619048Y-60454819D02*
X184619048Y-59454819D01*
X184619048Y-59454819D02*
X184857143Y-59454819D01*
X184857143Y-59454819D02*
X185000000Y-59502438D01*
X185000000Y-59502438D02*
X185095238Y-59597676D01*
X185095238Y-59597676D02*
X185142857Y-59692914D01*
X185142857Y-59692914D02*
X185190476Y-59883390D01*
X185190476Y-59883390D02*
X185190476Y-60026247D01*
X185190476Y-60026247D02*
X185142857Y-60216723D01*
X185142857Y-60216723D02*
X185095238Y-60311961D01*
X185095238Y-60311961D02*
X185000000Y-60407200D01*
X185000000Y-60407200D02*
X184857143Y-60454819D01*
X184857143Y-60454819D02*
X184619048Y-60454819D01*
X161333333Y-59454819D02*
X161000000Y-58978628D01*
X160761905Y-59454819D02*
X160761905Y-58454819D01*
X160761905Y-58454819D02*
X161142857Y-58454819D01*
X161142857Y-58454819D02*
X161238095Y-58502438D01*
X161238095Y-58502438D02*
X161285714Y-58550057D01*
X161285714Y-58550057D02*
X161333333Y-58645295D01*
X161333333Y-58645295D02*
X161333333Y-58788152D01*
X161333333Y-58788152D02*
X161285714Y-58883390D01*
X161285714Y-58883390D02*
X161238095Y-58931009D01*
X161238095Y-58931009D02*
X161142857Y-58978628D01*
X161142857Y-58978628D02*
X160761905Y-58978628D01*
X161666667Y-58454819D02*
X162333333Y-58454819D01*
X162333333Y-58454819D02*
X161904762Y-59454819D01*
X165589047Y-51449819D02*
X165589047Y-52164104D01*
X165589047Y-52164104D02*
X165541428Y-52306961D01*
X165541428Y-52306961D02*
X165446190Y-52402200D01*
X165446190Y-52402200D02*
X165303333Y-52449819D01*
X165303333Y-52449819D02*
X165208095Y-52449819D01*
X166065238Y-51449819D02*
X166065238Y-52259342D01*
X166065238Y-52259342D02*
X166112857Y-52354580D01*
X166112857Y-52354580D02*
X166160476Y-52402200D01*
X166160476Y-52402200D02*
X166255714Y-52449819D01*
X166255714Y-52449819D02*
X166446190Y-52449819D01*
X166446190Y-52449819D02*
X166541428Y-52402200D01*
X166541428Y-52402200D02*
X166589047Y-52354580D01*
X166589047Y-52354580D02*
X166636666Y-52259342D01*
X166636666Y-52259342D02*
X166636666Y-51449819D01*
X167112857Y-52449819D02*
X167112857Y-51449819D01*
X167112857Y-51449819D02*
X167446190Y-52164104D01*
X167446190Y-52164104D02*
X167779523Y-51449819D01*
X167779523Y-51449819D02*
X167779523Y-52449819D01*
X168255714Y-52449819D02*
X168255714Y-51449819D01*
X168255714Y-51449819D02*
X168636666Y-51449819D01*
X168636666Y-51449819D02*
X168731904Y-51497438D01*
X168731904Y-51497438D02*
X168779523Y-51545057D01*
X168779523Y-51545057D02*
X168827142Y-51640295D01*
X168827142Y-51640295D02*
X168827142Y-51783152D01*
X168827142Y-51783152D02*
X168779523Y-51878390D01*
X168779523Y-51878390D02*
X168731904Y-51926009D01*
X168731904Y-51926009D02*
X168636666Y-51973628D01*
X168636666Y-51973628D02*
X168255714Y-51973628D01*
X169255714Y-51926009D02*
X169589047Y-51926009D01*
X169731904Y-52449819D02*
X169255714Y-52449819D01*
X169255714Y-52449819D02*
X169255714Y-51449819D01*
X169255714Y-51449819D02*
X169731904Y-51449819D01*
X170731904Y-52449819D02*
X170398571Y-51973628D01*
X170160476Y-52449819D02*
X170160476Y-51449819D01*
X170160476Y-51449819D02*
X170541428Y-51449819D01*
X170541428Y-51449819D02*
X170636666Y-51497438D01*
X170636666Y-51497438D02*
X170684285Y-51545057D01*
X170684285Y-51545057D02*
X170731904Y-51640295D01*
X170731904Y-51640295D02*
X170731904Y-51783152D01*
X170731904Y-51783152D02*
X170684285Y-51878390D01*
X170684285Y-51878390D02*
X170636666Y-51926009D01*
X170636666Y-51926009D02*
X170541428Y-51973628D01*
X170541428Y-51973628D02*
X170160476Y-51973628D01*
X171636666Y-51449819D02*
X171160476Y-51449819D01*
X171160476Y-51449819D02*
X171112857Y-51926009D01*
X171112857Y-51926009D02*
X171160476Y-51878390D01*
X171160476Y-51878390D02*
X171255714Y-51830771D01*
X171255714Y-51830771D02*
X171493809Y-51830771D01*
X171493809Y-51830771D02*
X171589047Y-51878390D01*
X171589047Y-51878390D02*
X171636666Y-51926009D01*
X171636666Y-51926009D02*
X171684285Y-52021247D01*
X171684285Y-52021247D02*
X171684285Y-52259342D01*
X171684285Y-52259342D02*
X171636666Y-52354580D01*
X171636666Y-52354580D02*
X171589047Y-52402200D01*
X171589047Y-52402200D02*
X171493809Y-52449819D01*
X171493809Y-52449819D02*
X171255714Y-52449819D01*
X171255714Y-52449819D02*
X171160476Y-52402200D01*
X171160476Y-52402200D02*
X171112857Y-52354580D01*
X174389047Y-57174819D02*
X174389047Y-57889104D01*
X174389047Y-57889104D02*
X174341428Y-58031961D01*
X174341428Y-58031961D02*
X174246190Y-58127200D01*
X174246190Y-58127200D02*
X174103333Y-58174819D01*
X174103333Y-58174819D02*
X174008095Y-58174819D01*
X174865238Y-57174819D02*
X174865238Y-57984342D01*
X174865238Y-57984342D02*
X174912857Y-58079580D01*
X174912857Y-58079580D02*
X174960476Y-58127200D01*
X174960476Y-58127200D02*
X175055714Y-58174819D01*
X175055714Y-58174819D02*
X175246190Y-58174819D01*
X175246190Y-58174819D02*
X175341428Y-58127200D01*
X175341428Y-58127200D02*
X175389047Y-58079580D01*
X175389047Y-58079580D02*
X175436666Y-57984342D01*
X175436666Y-57984342D02*
X175436666Y-57174819D01*
X175912857Y-58174819D02*
X175912857Y-57174819D01*
X175912857Y-57174819D02*
X176246190Y-57889104D01*
X176246190Y-57889104D02*
X176579523Y-57174819D01*
X176579523Y-57174819D02*
X176579523Y-58174819D01*
X177055714Y-58174819D02*
X177055714Y-57174819D01*
X177055714Y-57174819D02*
X177436666Y-57174819D01*
X177436666Y-57174819D02*
X177531904Y-57222438D01*
X177531904Y-57222438D02*
X177579523Y-57270057D01*
X177579523Y-57270057D02*
X177627142Y-57365295D01*
X177627142Y-57365295D02*
X177627142Y-57508152D01*
X177627142Y-57508152D02*
X177579523Y-57603390D01*
X177579523Y-57603390D02*
X177531904Y-57651009D01*
X177531904Y-57651009D02*
X177436666Y-57698628D01*
X177436666Y-57698628D02*
X177055714Y-57698628D01*
X178055714Y-57651009D02*
X178389047Y-57651009D01*
X178531904Y-58174819D02*
X178055714Y-58174819D01*
X178055714Y-58174819D02*
X178055714Y-57174819D01*
X178055714Y-57174819D02*
X178531904Y-57174819D01*
X179531904Y-58174819D02*
X179198571Y-57698628D01*
X178960476Y-58174819D02*
X178960476Y-57174819D01*
X178960476Y-57174819D02*
X179341428Y-57174819D01*
X179341428Y-57174819D02*
X179436666Y-57222438D01*
X179436666Y-57222438D02*
X179484285Y-57270057D01*
X179484285Y-57270057D02*
X179531904Y-57365295D01*
X179531904Y-57365295D02*
X179531904Y-57508152D01*
X179531904Y-57508152D02*
X179484285Y-57603390D01*
X179484285Y-57603390D02*
X179436666Y-57651009D01*
X179436666Y-57651009D02*
X179341428Y-57698628D01*
X179341428Y-57698628D02*
X178960476Y-57698628D01*
X180389047Y-57508152D02*
X180389047Y-58174819D01*
X180150952Y-57127200D02*
X179912857Y-57841485D01*
X179912857Y-57841485D02*
X180531904Y-57841485D01*
X175333333Y-59454819D02*
X175000000Y-58978628D01*
X174761905Y-59454819D02*
X174761905Y-58454819D01*
X174761905Y-58454819D02*
X175142857Y-58454819D01*
X175142857Y-58454819D02*
X175238095Y-58502438D01*
X175238095Y-58502438D02*
X175285714Y-58550057D01*
X175285714Y-58550057D02*
X175333333Y-58645295D01*
X175333333Y-58645295D02*
X175333333Y-58788152D01*
X175333333Y-58788152D02*
X175285714Y-58883390D01*
X175285714Y-58883390D02*
X175238095Y-58931009D01*
X175238095Y-58931009D02*
X175142857Y-58978628D01*
X175142857Y-58978628D02*
X174761905Y-58978628D01*
X176238095Y-58454819D02*
X175761905Y-58454819D01*
X175761905Y-58454819D02*
X175714286Y-58931009D01*
X175714286Y-58931009D02*
X175761905Y-58883390D01*
X175761905Y-58883390D02*
X175857143Y-58835771D01*
X175857143Y-58835771D02*
X176095238Y-58835771D01*
X176095238Y-58835771D02*
X176190476Y-58883390D01*
X176190476Y-58883390D02*
X176238095Y-58931009D01*
X176238095Y-58931009D02*
X176285714Y-59026247D01*
X176285714Y-59026247D02*
X176285714Y-59264342D01*
X176285714Y-59264342D02*
X176238095Y-59359580D01*
X176238095Y-59359580D02*
X176190476Y-59407200D01*
X176190476Y-59407200D02*
X176095238Y-59454819D01*
X176095238Y-59454819D02*
X175857143Y-59454819D01*
X175857143Y-59454819D02*
X175761905Y-59407200D01*
X175761905Y-59407200D02*
X175714286Y-59359580D01*
X155889047Y-53374819D02*
X155889047Y-54089104D01*
X155889047Y-54089104D02*
X155841428Y-54231961D01*
X155841428Y-54231961D02*
X155746190Y-54327200D01*
X155746190Y-54327200D02*
X155603333Y-54374819D01*
X155603333Y-54374819D02*
X155508095Y-54374819D01*
X156365238Y-53374819D02*
X156365238Y-54184342D01*
X156365238Y-54184342D02*
X156412857Y-54279580D01*
X156412857Y-54279580D02*
X156460476Y-54327200D01*
X156460476Y-54327200D02*
X156555714Y-54374819D01*
X156555714Y-54374819D02*
X156746190Y-54374819D01*
X156746190Y-54374819D02*
X156841428Y-54327200D01*
X156841428Y-54327200D02*
X156889047Y-54279580D01*
X156889047Y-54279580D02*
X156936666Y-54184342D01*
X156936666Y-54184342D02*
X156936666Y-53374819D01*
X157412857Y-54374819D02*
X157412857Y-53374819D01*
X157412857Y-53374819D02*
X157746190Y-54089104D01*
X157746190Y-54089104D02*
X158079523Y-53374819D01*
X158079523Y-53374819D02*
X158079523Y-54374819D01*
X158555714Y-54374819D02*
X158555714Y-53374819D01*
X158555714Y-53374819D02*
X158936666Y-53374819D01*
X158936666Y-53374819D02*
X159031904Y-53422438D01*
X159031904Y-53422438D02*
X159079523Y-53470057D01*
X159079523Y-53470057D02*
X159127142Y-53565295D01*
X159127142Y-53565295D02*
X159127142Y-53708152D01*
X159127142Y-53708152D02*
X159079523Y-53803390D01*
X159079523Y-53803390D02*
X159031904Y-53851009D01*
X159031904Y-53851009D02*
X158936666Y-53898628D01*
X158936666Y-53898628D02*
X158555714Y-53898628D01*
X159555714Y-53851009D02*
X159889047Y-53851009D01*
X160031904Y-54374819D02*
X159555714Y-54374819D01*
X159555714Y-54374819D02*
X159555714Y-53374819D01*
X159555714Y-53374819D02*
X160031904Y-53374819D01*
X161031904Y-54374819D02*
X160698571Y-53898628D01*
X160460476Y-54374819D02*
X160460476Y-53374819D01*
X160460476Y-53374819D02*
X160841428Y-53374819D01*
X160841428Y-53374819D02*
X160936666Y-53422438D01*
X160936666Y-53422438D02*
X160984285Y-53470057D01*
X160984285Y-53470057D02*
X161031904Y-53565295D01*
X161031904Y-53565295D02*
X161031904Y-53708152D01*
X161031904Y-53708152D02*
X160984285Y-53803390D01*
X160984285Y-53803390D02*
X160936666Y-53851009D01*
X160936666Y-53851009D02*
X160841428Y-53898628D01*
X160841428Y-53898628D02*
X160460476Y-53898628D01*
X161889047Y-53374819D02*
X161698571Y-53374819D01*
X161698571Y-53374819D02*
X161603333Y-53422438D01*
X161603333Y-53422438D02*
X161555714Y-53470057D01*
X161555714Y-53470057D02*
X161460476Y-53612914D01*
X161460476Y-53612914D02*
X161412857Y-53803390D01*
X161412857Y-53803390D02*
X161412857Y-54184342D01*
X161412857Y-54184342D02*
X161460476Y-54279580D01*
X161460476Y-54279580D02*
X161508095Y-54327200D01*
X161508095Y-54327200D02*
X161603333Y-54374819D01*
X161603333Y-54374819D02*
X161793809Y-54374819D01*
X161793809Y-54374819D02*
X161889047Y-54327200D01*
X161889047Y-54327200D02*
X161936666Y-54279580D01*
X161936666Y-54279580D02*
X161984285Y-54184342D01*
X161984285Y-54184342D02*
X161984285Y-53946247D01*
X161984285Y-53946247D02*
X161936666Y-53851009D01*
X161936666Y-53851009D02*
X161889047Y-53803390D01*
X161889047Y-53803390D02*
X161793809Y-53755771D01*
X161793809Y-53755771D02*
X161603333Y-53755771D01*
X161603333Y-53755771D02*
X161508095Y-53803390D01*
X161508095Y-53803390D02*
X161460476Y-53851009D01*
X161460476Y-53851009D02*
X161412857Y-53946247D01*
X180859580Y-83666666D02*
X180907200Y-83714285D01*
X180907200Y-83714285D02*
X180954819Y-83857142D01*
X180954819Y-83857142D02*
X180954819Y-83952380D01*
X180954819Y-83952380D02*
X180907200Y-84095237D01*
X180907200Y-84095237D02*
X180811961Y-84190475D01*
X180811961Y-84190475D02*
X180716723Y-84238094D01*
X180716723Y-84238094D02*
X180526247Y-84285713D01*
X180526247Y-84285713D02*
X180383390Y-84285713D01*
X180383390Y-84285713D02*
X180192914Y-84238094D01*
X180192914Y-84238094D02*
X180097676Y-84190475D01*
X180097676Y-84190475D02*
X180002438Y-84095237D01*
X180002438Y-84095237D02*
X179954819Y-83952380D01*
X179954819Y-83952380D02*
X179954819Y-83857142D01*
X179954819Y-83857142D02*
X180002438Y-83714285D01*
X180002438Y-83714285D02*
X180050057Y-83666666D01*
X180383390Y-83095237D02*
X180335771Y-83190475D01*
X180335771Y-83190475D02*
X180288152Y-83238094D01*
X180288152Y-83238094D02*
X180192914Y-83285713D01*
X180192914Y-83285713D02*
X180145295Y-83285713D01*
X180145295Y-83285713D02*
X180050057Y-83238094D01*
X180050057Y-83238094D02*
X180002438Y-83190475D01*
X180002438Y-83190475D02*
X179954819Y-83095237D01*
X179954819Y-83095237D02*
X179954819Y-82904761D01*
X179954819Y-82904761D02*
X180002438Y-82809523D01*
X180002438Y-82809523D02*
X180050057Y-82761904D01*
X180050057Y-82761904D02*
X180145295Y-82714285D01*
X180145295Y-82714285D02*
X180192914Y-82714285D01*
X180192914Y-82714285D02*
X180288152Y-82761904D01*
X180288152Y-82761904D02*
X180335771Y-82809523D01*
X180335771Y-82809523D02*
X180383390Y-82904761D01*
X180383390Y-82904761D02*
X180383390Y-83095237D01*
X180383390Y-83095237D02*
X180431009Y-83190475D01*
X180431009Y-83190475D02*
X180478628Y-83238094D01*
X180478628Y-83238094D02*
X180573866Y-83285713D01*
X180573866Y-83285713D02*
X180764342Y-83285713D01*
X180764342Y-83285713D02*
X180859580Y-83238094D01*
X180859580Y-83238094D02*
X180907200Y-83190475D01*
X180907200Y-83190475D02*
X180954819Y-83095237D01*
X180954819Y-83095237D02*
X180954819Y-82904761D01*
X180954819Y-82904761D02*
X180907200Y-82809523D01*
X180907200Y-82809523D02*
X180859580Y-82761904D01*
X180859580Y-82761904D02*
X180764342Y-82714285D01*
X180764342Y-82714285D02*
X180573866Y-82714285D01*
X180573866Y-82714285D02*
X180478628Y-82761904D01*
X180478628Y-82761904D02*
X180431009Y-82809523D01*
X180431009Y-82809523D02*
X180383390Y-82904761D01*
X166833333Y-65454819D02*
X166500000Y-64978628D01*
X166261905Y-65454819D02*
X166261905Y-64454819D01*
X166261905Y-64454819D02*
X166642857Y-64454819D01*
X166642857Y-64454819D02*
X166738095Y-64502438D01*
X166738095Y-64502438D02*
X166785714Y-64550057D01*
X166785714Y-64550057D02*
X166833333Y-64645295D01*
X166833333Y-64645295D02*
X166833333Y-64788152D01*
X166833333Y-64788152D02*
X166785714Y-64883390D01*
X166785714Y-64883390D02*
X166738095Y-64931009D01*
X166738095Y-64931009D02*
X166642857Y-64978628D01*
X166642857Y-64978628D02*
X166261905Y-64978628D01*
X167690476Y-64454819D02*
X167500000Y-64454819D01*
X167500000Y-64454819D02*
X167404762Y-64502438D01*
X167404762Y-64502438D02*
X167357143Y-64550057D01*
X167357143Y-64550057D02*
X167261905Y-64692914D01*
X167261905Y-64692914D02*
X167214286Y-64883390D01*
X167214286Y-64883390D02*
X167214286Y-65264342D01*
X167214286Y-65264342D02*
X167261905Y-65359580D01*
X167261905Y-65359580D02*
X167309524Y-65407200D01*
X167309524Y-65407200D02*
X167404762Y-65454819D01*
X167404762Y-65454819D02*
X167595238Y-65454819D01*
X167595238Y-65454819D02*
X167690476Y-65407200D01*
X167690476Y-65407200D02*
X167738095Y-65359580D01*
X167738095Y-65359580D02*
X167785714Y-65264342D01*
X167785714Y-65264342D02*
X167785714Y-65026247D01*
X167785714Y-65026247D02*
X167738095Y-64931009D01*
X167738095Y-64931009D02*
X167690476Y-64883390D01*
X167690476Y-64883390D02*
X167595238Y-64835771D01*
X167595238Y-64835771D02*
X167404762Y-64835771D01*
X167404762Y-64835771D02*
X167309524Y-64883390D01*
X167309524Y-64883390D02*
X167261905Y-64931009D01*
X167261905Y-64931009D02*
X167214286Y-65026247D01*
X184880952Y-73954819D02*
X184880952Y-72954819D01*
X184880952Y-72954819D02*
X185214285Y-73669104D01*
X185214285Y-73669104D02*
X185547618Y-72954819D01*
X185547618Y-72954819D02*
X185547618Y-73954819D01*
X185785714Y-74050057D02*
X186547618Y-74050057D01*
X186976190Y-73478628D02*
X186976190Y-73954819D01*
X186642857Y-72954819D02*
X186976190Y-73478628D01*
X186976190Y-73478628D02*
X187309523Y-72954819D01*
X188166666Y-73954819D02*
X187595238Y-73954819D01*
X187880952Y-73954819D02*
X187880952Y-72954819D01*
X187880952Y-72954819D02*
X187785714Y-73097676D01*
X187785714Y-73097676D02*
X187690476Y-73192914D01*
X187690476Y-73192914D02*
X187595238Y-73240533D01*
X168133333Y-120257200D02*
X168276190Y-120304819D01*
X168276190Y-120304819D02*
X168514285Y-120304819D01*
X168514285Y-120304819D02*
X168609523Y-120257200D01*
X168609523Y-120257200D02*
X168657142Y-120209580D01*
X168657142Y-120209580D02*
X168704761Y-120114342D01*
X168704761Y-120114342D02*
X168704761Y-120019104D01*
X168704761Y-120019104D02*
X168657142Y-119923866D01*
X168657142Y-119923866D02*
X168609523Y-119876247D01*
X168609523Y-119876247D02*
X168514285Y-119828628D01*
X168514285Y-119828628D02*
X168323809Y-119781009D01*
X168323809Y-119781009D02*
X168228571Y-119733390D01*
X168228571Y-119733390D02*
X168180952Y-119685771D01*
X168180952Y-119685771D02*
X168133333Y-119590533D01*
X168133333Y-119590533D02*
X168133333Y-119495295D01*
X168133333Y-119495295D02*
X168180952Y-119400057D01*
X168180952Y-119400057D02*
X168228571Y-119352438D01*
X168228571Y-119352438D02*
X168323809Y-119304819D01*
X168323809Y-119304819D02*
X168561904Y-119304819D01*
X168561904Y-119304819D02*
X168704761Y-119352438D01*
X169133333Y-119781009D02*
X169466666Y-119781009D01*
X169609523Y-120304819D02*
X169133333Y-120304819D01*
X169133333Y-120304819D02*
X169133333Y-119304819D01*
X169133333Y-119304819D02*
X169609523Y-119304819D01*
X170609523Y-120304819D02*
X170276190Y-119828628D01*
X170038095Y-120304819D02*
X170038095Y-119304819D01*
X170038095Y-119304819D02*
X170419047Y-119304819D01*
X170419047Y-119304819D02*
X170514285Y-119352438D01*
X170514285Y-119352438D02*
X170561904Y-119400057D01*
X170561904Y-119400057D02*
X170609523Y-119495295D01*
X170609523Y-119495295D02*
X170609523Y-119638152D01*
X170609523Y-119638152D02*
X170561904Y-119733390D01*
X170561904Y-119733390D02*
X170514285Y-119781009D01*
X170514285Y-119781009D02*
X170419047Y-119828628D01*
X170419047Y-119828628D02*
X170038095Y-119828628D01*
X170895238Y-119304819D02*
X171228571Y-120304819D01*
X171228571Y-120304819D02*
X171561904Y-119304819D01*
X172085714Y-119304819D02*
X172276190Y-119304819D01*
X172276190Y-119304819D02*
X172371428Y-119352438D01*
X172371428Y-119352438D02*
X172466666Y-119447676D01*
X172466666Y-119447676D02*
X172514285Y-119638152D01*
X172514285Y-119638152D02*
X172514285Y-119971485D01*
X172514285Y-119971485D02*
X172466666Y-120161961D01*
X172466666Y-120161961D02*
X172371428Y-120257200D01*
X172371428Y-120257200D02*
X172276190Y-120304819D01*
X172276190Y-120304819D02*
X172085714Y-120304819D01*
X172085714Y-120304819D02*
X171990476Y-120257200D01*
X171990476Y-120257200D02*
X171895238Y-120161961D01*
X171895238Y-120161961D02*
X171847619Y-119971485D01*
X171847619Y-119971485D02*
X171847619Y-119638152D01*
X171847619Y-119638152D02*
X171895238Y-119447676D01*
X171895238Y-119447676D02*
X171990476Y-119352438D01*
X171990476Y-119352438D02*
X172085714Y-119304819D01*
X173466666Y-120304819D02*
X172895238Y-120304819D01*
X173180952Y-120304819D02*
X173180952Y-119304819D01*
X173180952Y-119304819D02*
X173085714Y-119447676D01*
X173085714Y-119447676D02*
X172990476Y-119542914D01*
X172990476Y-119542914D02*
X172895238Y-119590533D01*
X119711428Y-145354819D02*
X119901904Y-145354819D01*
X119901904Y-145354819D02*
X119997142Y-145402438D01*
X119997142Y-145402438D02*
X120092380Y-145497676D01*
X120092380Y-145497676D02*
X120139999Y-145688152D01*
X120139999Y-145688152D02*
X120139999Y-146021485D01*
X120139999Y-146021485D02*
X120092380Y-146211961D01*
X120092380Y-146211961D02*
X119997142Y-146307200D01*
X119997142Y-146307200D02*
X119901904Y-146354819D01*
X119901904Y-146354819D02*
X119711428Y-146354819D01*
X119711428Y-146354819D02*
X119616190Y-146307200D01*
X119616190Y-146307200D02*
X119520952Y-146211961D01*
X119520952Y-146211961D02*
X119473333Y-146021485D01*
X119473333Y-146021485D02*
X119473333Y-145688152D01*
X119473333Y-145688152D02*
X119520952Y-145497676D01*
X119520952Y-145497676D02*
X119616190Y-145402438D01*
X119616190Y-145402438D02*
X119711428Y-145354819D01*
X121044761Y-146354819D02*
X120568571Y-146354819D01*
X120568571Y-146354819D02*
X120568571Y-145354819D01*
X121378095Y-145831009D02*
X121711428Y-145831009D01*
X121854285Y-146354819D02*
X121378095Y-146354819D01*
X121378095Y-146354819D02*
X121378095Y-145354819D01*
X121378095Y-145354819D02*
X121854285Y-145354819D01*
X122282857Y-146354819D02*
X122282857Y-145354819D01*
X122282857Y-145354819D02*
X122520952Y-145354819D01*
X122520952Y-145354819D02*
X122663809Y-145402438D01*
X122663809Y-145402438D02*
X122759047Y-145497676D01*
X122759047Y-145497676D02*
X122806666Y-145592914D01*
X122806666Y-145592914D02*
X122854285Y-145783390D01*
X122854285Y-145783390D02*
X122854285Y-145926247D01*
X122854285Y-145926247D02*
X122806666Y-146116723D01*
X122806666Y-146116723D02*
X122759047Y-146211961D01*
X122759047Y-146211961D02*
X122663809Y-146307200D01*
X122663809Y-146307200D02*
X122520952Y-146354819D01*
X122520952Y-146354819D02*
X122282857Y-146354819D01*
X123806666Y-146354819D02*
X123235238Y-146354819D01*
X123520952Y-146354819D02*
X123520952Y-145354819D01*
X123520952Y-145354819D02*
X123425714Y-145497676D01*
X123425714Y-145497676D02*
X123330476Y-145592914D01*
X123330476Y-145592914D02*
X123235238Y-145640533D01*
X108833333Y-140454819D02*
X108500000Y-139978628D01*
X108261905Y-140454819D02*
X108261905Y-139454819D01*
X108261905Y-139454819D02*
X108642857Y-139454819D01*
X108642857Y-139454819D02*
X108738095Y-139502438D01*
X108738095Y-139502438D02*
X108785714Y-139550057D01*
X108785714Y-139550057D02*
X108833333Y-139645295D01*
X108833333Y-139645295D02*
X108833333Y-139788152D01*
X108833333Y-139788152D02*
X108785714Y-139883390D01*
X108785714Y-139883390D02*
X108738095Y-139931009D01*
X108738095Y-139931009D02*
X108642857Y-139978628D01*
X108642857Y-139978628D02*
X108261905Y-139978628D01*
X109166667Y-139454819D02*
X109785714Y-139454819D01*
X109785714Y-139454819D02*
X109452381Y-139835771D01*
X109452381Y-139835771D02*
X109595238Y-139835771D01*
X109595238Y-139835771D02*
X109690476Y-139883390D01*
X109690476Y-139883390D02*
X109738095Y-139931009D01*
X109738095Y-139931009D02*
X109785714Y-140026247D01*
X109785714Y-140026247D02*
X109785714Y-140264342D01*
X109785714Y-140264342D02*
X109738095Y-140359580D01*
X109738095Y-140359580D02*
X109690476Y-140407200D01*
X109690476Y-140407200D02*
X109595238Y-140454819D01*
X109595238Y-140454819D02*
X109309524Y-140454819D01*
X109309524Y-140454819D02*
X109214286Y-140407200D01*
X109214286Y-140407200D02*
X109166667Y-140359580D01*
X94333333Y-122859580D02*
X94285714Y-122907200D01*
X94285714Y-122907200D02*
X94142857Y-122954819D01*
X94142857Y-122954819D02*
X94047619Y-122954819D01*
X94047619Y-122954819D02*
X93904762Y-122907200D01*
X93904762Y-122907200D02*
X93809524Y-122811961D01*
X93809524Y-122811961D02*
X93761905Y-122716723D01*
X93761905Y-122716723D02*
X93714286Y-122526247D01*
X93714286Y-122526247D02*
X93714286Y-122383390D01*
X93714286Y-122383390D02*
X93761905Y-122192914D01*
X93761905Y-122192914D02*
X93809524Y-122097676D01*
X93809524Y-122097676D02*
X93904762Y-122002438D01*
X93904762Y-122002438D02*
X94047619Y-121954819D01*
X94047619Y-121954819D02*
X94142857Y-121954819D01*
X94142857Y-121954819D02*
X94285714Y-122002438D01*
X94285714Y-122002438D02*
X94333333Y-122050057D01*
X94714286Y-122050057D02*
X94761905Y-122002438D01*
X94761905Y-122002438D02*
X94857143Y-121954819D01*
X94857143Y-121954819D02*
X95095238Y-121954819D01*
X95095238Y-121954819D02*
X95190476Y-122002438D01*
X95190476Y-122002438D02*
X95238095Y-122050057D01*
X95238095Y-122050057D02*
X95285714Y-122145295D01*
X95285714Y-122145295D02*
X95285714Y-122240533D01*
X95285714Y-122240533D02*
X95238095Y-122383390D01*
X95238095Y-122383390D02*
X94666667Y-122954819D01*
X94666667Y-122954819D02*
X95285714Y-122954819D01*
X117333333Y-139859580D02*
X117285714Y-139907200D01*
X117285714Y-139907200D02*
X117142857Y-139954819D01*
X117142857Y-139954819D02*
X117047619Y-139954819D01*
X117047619Y-139954819D02*
X116904762Y-139907200D01*
X116904762Y-139907200D02*
X116809524Y-139811961D01*
X116809524Y-139811961D02*
X116761905Y-139716723D01*
X116761905Y-139716723D02*
X116714286Y-139526247D01*
X116714286Y-139526247D02*
X116714286Y-139383390D01*
X116714286Y-139383390D02*
X116761905Y-139192914D01*
X116761905Y-139192914D02*
X116809524Y-139097676D01*
X116809524Y-139097676D02*
X116904762Y-139002438D01*
X116904762Y-139002438D02*
X117047619Y-138954819D01*
X117047619Y-138954819D02*
X117142857Y-138954819D01*
X117142857Y-138954819D02*
X117285714Y-139002438D01*
X117285714Y-139002438D02*
X117333333Y-139050057D01*
X117666667Y-138954819D02*
X118333333Y-138954819D01*
X118333333Y-138954819D02*
X117904762Y-139954819D01*
X95476189Y-133954819D02*
X95476189Y-132954819D01*
X95476189Y-133335771D02*
X95571427Y-133288152D01*
X95571427Y-133288152D02*
X95761903Y-133288152D01*
X95761903Y-133288152D02*
X95857141Y-133335771D01*
X95857141Y-133335771D02*
X95904760Y-133383390D01*
X95904760Y-133383390D02*
X95952379Y-133478628D01*
X95952379Y-133478628D02*
X95952379Y-133764342D01*
X95952379Y-133764342D02*
X95904760Y-133859580D01*
X95904760Y-133859580D02*
X95857141Y-133907200D01*
X95857141Y-133907200D02*
X95761903Y-133954819D01*
X95761903Y-133954819D02*
X95571427Y-133954819D01*
X95571427Y-133954819D02*
X95476189Y-133907200D01*
X96523808Y-133954819D02*
X96428570Y-133907200D01*
X96428570Y-133907200D02*
X96380951Y-133859580D01*
X96380951Y-133859580D02*
X96333332Y-133764342D01*
X96333332Y-133764342D02*
X96333332Y-133478628D01*
X96333332Y-133478628D02*
X96380951Y-133383390D01*
X96380951Y-133383390D02*
X96428570Y-133335771D01*
X96428570Y-133335771D02*
X96523808Y-133288152D01*
X96523808Y-133288152D02*
X96666665Y-133288152D01*
X96666665Y-133288152D02*
X96761903Y-133335771D01*
X96761903Y-133335771D02*
X96809522Y-133383390D01*
X96809522Y-133383390D02*
X96857141Y-133478628D01*
X96857141Y-133478628D02*
X96857141Y-133764342D01*
X96857141Y-133764342D02*
X96809522Y-133859580D01*
X96809522Y-133859580D02*
X96761903Y-133907200D01*
X96761903Y-133907200D02*
X96666665Y-133954819D01*
X96666665Y-133954819D02*
X96523808Y-133954819D01*
X97714284Y-133288152D02*
X97714284Y-133954819D01*
X97285713Y-133288152D02*
X97285713Y-133811961D01*
X97285713Y-133811961D02*
X97333332Y-133907200D01*
X97333332Y-133907200D02*
X97428570Y-133954819D01*
X97428570Y-133954819D02*
X97571427Y-133954819D01*
X97571427Y-133954819D02*
X97666665Y-133907200D01*
X97666665Y-133907200D02*
X97714284Y-133859580D01*
X98047618Y-133288152D02*
X98428570Y-133288152D01*
X98190475Y-132954819D02*
X98190475Y-133811961D01*
X98190475Y-133811961D02*
X98238094Y-133907200D01*
X98238094Y-133907200D02*
X98333332Y-133954819D01*
X98333332Y-133954819D02*
X98428570Y-133954819D01*
X98904761Y-133954819D02*
X98809523Y-133907200D01*
X98809523Y-133907200D02*
X98761904Y-133859580D01*
X98761904Y-133859580D02*
X98714285Y-133764342D01*
X98714285Y-133764342D02*
X98714285Y-133478628D01*
X98714285Y-133478628D02*
X98761904Y-133383390D01*
X98761904Y-133383390D02*
X98809523Y-133335771D01*
X98809523Y-133335771D02*
X98904761Y-133288152D01*
X98904761Y-133288152D02*
X99047618Y-133288152D01*
X99047618Y-133288152D02*
X99142856Y-133335771D01*
X99142856Y-133335771D02*
X99190475Y-133383390D01*
X99190475Y-133383390D02*
X99238094Y-133478628D01*
X99238094Y-133478628D02*
X99238094Y-133764342D01*
X99238094Y-133764342D02*
X99190475Y-133859580D01*
X99190475Y-133859580D02*
X99142856Y-133907200D01*
X99142856Y-133907200D02*
X99047618Y-133954819D01*
X99047618Y-133954819D02*
X98904761Y-133954819D01*
X99666666Y-133288152D02*
X99666666Y-133954819D01*
X99666666Y-133383390D02*
X99714285Y-133335771D01*
X99714285Y-133335771D02*
X99809523Y-133288152D01*
X99809523Y-133288152D02*
X99952380Y-133288152D01*
X99952380Y-133288152D02*
X100047618Y-133335771D01*
X100047618Y-133335771D02*
X100095237Y-133431009D01*
X100095237Y-133431009D02*
X100095237Y-133954819D01*
X100333333Y-134050057D02*
X101095237Y-134050057D01*
X101333333Y-133954819D02*
X101333333Y-133288152D01*
X101333333Y-133478628D02*
X101380952Y-133383390D01*
X101380952Y-133383390D02*
X101428571Y-133335771D01*
X101428571Y-133335771D02*
X101523809Y-133288152D01*
X101523809Y-133288152D02*
X101619047Y-133288152D01*
X102333333Y-133907200D02*
X102238095Y-133954819D01*
X102238095Y-133954819D02*
X102047619Y-133954819D01*
X102047619Y-133954819D02*
X101952381Y-133907200D01*
X101952381Y-133907200D02*
X101904762Y-133811961D01*
X101904762Y-133811961D02*
X101904762Y-133431009D01*
X101904762Y-133431009D02*
X101952381Y-133335771D01*
X101952381Y-133335771D02*
X102047619Y-133288152D01*
X102047619Y-133288152D02*
X102238095Y-133288152D01*
X102238095Y-133288152D02*
X102333333Y-133335771D01*
X102333333Y-133335771D02*
X102380952Y-133431009D01*
X102380952Y-133431009D02*
X102380952Y-133526247D01*
X102380952Y-133526247D02*
X101904762Y-133621485D01*
X102761905Y-133907200D02*
X102857143Y-133954819D01*
X102857143Y-133954819D02*
X103047619Y-133954819D01*
X103047619Y-133954819D02*
X103142857Y-133907200D01*
X103142857Y-133907200D02*
X103190476Y-133811961D01*
X103190476Y-133811961D02*
X103190476Y-133764342D01*
X103190476Y-133764342D02*
X103142857Y-133669104D01*
X103142857Y-133669104D02*
X103047619Y-133621485D01*
X103047619Y-133621485D02*
X102904762Y-133621485D01*
X102904762Y-133621485D02*
X102809524Y-133573866D01*
X102809524Y-133573866D02*
X102761905Y-133478628D01*
X102761905Y-133478628D02*
X102761905Y-133431009D01*
X102761905Y-133431009D02*
X102809524Y-133335771D01*
X102809524Y-133335771D02*
X102904762Y-133288152D01*
X102904762Y-133288152D02*
X103047619Y-133288152D01*
X103047619Y-133288152D02*
X103142857Y-133335771D01*
X104000000Y-133907200D02*
X103904762Y-133954819D01*
X103904762Y-133954819D02*
X103714286Y-133954819D01*
X103714286Y-133954819D02*
X103619048Y-133907200D01*
X103619048Y-133907200D02*
X103571429Y-133811961D01*
X103571429Y-133811961D02*
X103571429Y-133431009D01*
X103571429Y-133431009D02*
X103619048Y-133335771D01*
X103619048Y-133335771D02*
X103714286Y-133288152D01*
X103714286Y-133288152D02*
X103904762Y-133288152D01*
X103904762Y-133288152D02*
X104000000Y-133335771D01*
X104000000Y-133335771D02*
X104047619Y-133431009D01*
X104047619Y-133431009D02*
X104047619Y-133526247D01*
X104047619Y-133526247D02*
X103571429Y-133621485D01*
X104333334Y-133288152D02*
X104714286Y-133288152D01*
X104476191Y-132954819D02*
X104476191Y-133811961D01*
X104476191Y-133811961D02*
X104523810Y-133907200D01*
X104523810Y-133907200D02*
X104619048Y-133954819D01*
X104619048Y-133954819D02*
X104714286Y-133954819D01*
X105571429Y-133954819D02*
X105000001Y-133954819D01*
X105285715Y-133954819D02*
X105285715Y-132954819D01*
X105285715Y-132954819D02*
X105190477Y-133097676D01*
X105190477Y-133097676D02*
X105095239Y-133192914D01*
X105095239Y-133192914D02*
X105000001Y-133240533D01*
X163857142Y-112454819D02*
X163523809Y-111978628D01*
X163285714Y-112454819D02*
X163285714Y-111454819D01*
X163285714Y-111454819D02*
X163666666Y-111454819D01*
X163666666Y-111454819D02*
X163761904Y-111502438D01*
X163761904Y-111502438D02*
X163809523Y-111550057D01*
X163809523Y-111550057D02*
X163857142Y-111645295D01*
X163857142Y-111645295D02*
X163857142Y-111788152D01*
X163857142Y-111788152D02*
X163809523Y-111883390D01*
X163809523Y-111883390D02*
X163761904Y-111931009D01*
X163761904Y-111931009D02*
X163666666Y-111978628D01*
X163666666Y-111978628D02*
X163285714Y-111978628D01*
X164809523Y-112454819D02*
X164238095Y-112454819D01*
X164523809Y-112454819D02*
X164523809Y-111454819D01*
X164523809Y-111454819D02*
X164428571Y-111597676D01*
X164428571Y-111597676D02*
X164333333Y-111692914D01*
X164333333Y-111692914D02*
X164238095Y-111740533D01*
X165761904Y-112454819D02*
X165190476Y-112454819D01*
X165476190Y-112454819D02*
X165476190Y-111454819D01*
X165476190Y-111454819D02*
X165380952Y-111597676D01*
X165380952Y-111597676D02*
X165285714Y-111692914D01*
X165285714Y-111692914D02*
X165190476Y-111740533D01*
X114333333Y-67859580D02*
X114285714Y-67907200D01*
X114285714Y-67907200D02*
X114142857Y-67954819D01*
X114142857Y-67954819D02*
X114047619Y-67954819D01*
X114047619Y-67954819D02*
X113904762Y-67907200D01*
X113904762Y-67907200D02*
X113809524Y-67811961D01*
X113809524Y-67811961D02*
X113761905Y-67716723D01*
X113761905Y-67716723D02*
X113714286Y-67526247D01*
X113714286Y-67526247D02*
X113714286Y-67383390D01*
X113714286Y-67383390D02*
X113761905Y-67192914D01*
X113761905Y-67192914D02*
X113809524Y-67097676D01*
X113809524Y-67097676D02*
X113904762Y-67002438D01*
X113904762Y-67002438D02*
X114047619Y-66954819D01*
X114047619Y-66954819D02*
X114142857Y-66954819D01*
X114142857Y-66954819D02*
X114285714Y-67002438D01*
X114285714Y-67002438D02*
X114333333Y-67050057D01*
X115238095Y-66954819D02*
X114761905Y-66954819D01*
X114761905Y-66954819D02*
X114714286Y-67431009D01*
X114714286Y-67431009D02*
X114761905Y-67383390D01*
X114761905Y-67383390D02*
X114857143Y-67335771D01*
X114857143Y-67335771D02*
X115095238Y-67335771D01*
X115095238Y-67335771D02*
X115190476Y-67383390D01*
X115190476Y-67383390D02*
X115238095Y-67431009D01*
X115238095Y-67431009D02*
X115285714Y-67526247D01*
X115285714Y-67526247D02*
X115285714Y-67764342D01*
X115285714Y-67764342D02*
X115238095Y-67859580D01*
X115238095Y-67859580D02*
X115190476Y-67907200D01*
X115190476Y-67907200D02*
X115095238Y-67954819D01*
X115095238Y-67954819D02*
X114857143Y-67954819D01*
X114857143Y-67954819D02*
X114761905Y-67907200D01*
X114761905Y-67907200D02*
X114714286Y-67859580D01*
X114334819Y-60091666D02*
X113858628Y-60424999D01*
X114334819Y-60663094D02*
X113334819Y-60663094D01*
X113334819Y-60663094D02*
X113334819Y-60282142D01*
X113334819Y-60282142D02*
X113382438Y-60186904D01*
X113382438Y-60186904D02*
X113430057Y-60139285D01*
X113430057Y-60139285D02*
X113525295Y-60091666D01*
X113525295Y-60091666D02*
X113668152Y-60091666D01*
X113668152Y-60091666D02*
X113763390Y-60139285D01*
X113763390Y-60139285D02*
X113811009Y-60186904D01*
X113811009Y-60186904D02*
X113858628Y-60282142D01*
X113858628Y-60282142D02*
X113858628Y-60663094D01*
X113430057Y-59710713D02*
X113382438Y-59663094D01*
X113382438Y-59663094D02*
X113334819Y-59567856D01*
X113334819Y-59567856D02*
X113334819Y-59329761D01*
X113334819Y-59329761D02*
X113382438Y-59234523D01*
X113382438Y-59234523D02*
X113430057Y-59186904D01*
X113430057Y-59186904D02*
X113525295Y-59139285D01*
X113525295Y-59139285D02*
X113620533Y-59139285D01*
X113620533Y-59139285D02*
X113763390Y-59186904D01*
X113763390Y-59186904D02*
X114334819Y-59758332D01*
X114334819Y-59758332D02*
X114334819Y-59139285D01*
X113833333Y-78954819D02*
X113500000Y-78478628D01*
X113261905Y-78954819D02*
X113261905Y-77954819D01*
X113261905Y-77954819D02*
X113642857Y-77954819D01*
X113642857Y-77954819D02*
X113738095Y-78002438D01*
X113738095Y-78002438D02*
X113785714Y-78050057D01*
X113785714Y-78050057D02*
X113833333Y-78145295D01*
X113833333Y-78145295D02*
X113833333Y-78288152D01*
X113833333Y-78288152D02*
X113785714Y-78383390D01*
X113785714Y-78383390D02*
X113738095Y-78431009D01*
X113738095Y-78431009D02*
X113642857Y-78478628D01*
X113642857Y-78478628D02*
X113261905Y-78478628D01*
X114785714Y-78954819D02*
X114214286Y-78954819D01*
X114500000Y-78954819D02*
X114500000Y-77954819D01*
X114500000Y-77954819D02*
X114404762Y-78097676D01*
X114404762Y-78097676D02*
X114309524Y-78192914D01*
X114309524Y-78192914D02*
X114214286Y-78240533D01*
X111004819Y-70758333D02*
X111719104Y-70758333D01*
X111719104Y-70758333D02*
X111861961Y-70805952D01*
X111861961Y-70805952D02*
X111957200Y-70901190D01*
X111957200Y-70901190D02*
X112004819Y-71044047D01*
X112004819Y-71044047D02*
X112004819Y-71139285D01*
X112004819Y-69758333D02*
X112004819Y-70329761D01*
X112004819Y-70044047D02*
X111004819Y-70044047D01*
X111004819Y-70044047D02*
X111147676Y-70139285D01*
X111147676Y-70139285D02*
X111242914Y-70234523D01*
X111242914Y-70234523D02*
X111290533Y-70329761D01*
X92666666Y-142454819D02*
X92333333Y-141978628D01*
X92095238Y-142454819D02*
X92095238Y-141454819D01*
X92095238Y-141454819D02*
X92476190Y-141454819D01*
X92476190Y-141454819D02*
X92571428Y-141502438D01*
X92571428Y-141502438D02*
X92619047Y-141550057D01*
X92619047Y-141550057D02*
X92666666Y-141645295D01*
X92666666Y-141645295D02*
X92666666Y-141788152D01*
X92666666Y-141788152D02*
X92619047Y-141883390D01*
X92619047Y-141883390D02*
X92571428Y-141931009D01*
X92571428Y-141931009D02*
X92476190Y-141978628D01*
X92476190Y-141978628D02*
X92095238Y-141978628D01*
X93095238Y-141931009D02*
X93428571Y-141931009D01*
X93571428Y-142454819D02*
X93095238Y-142454819D01*
X93095238Y-142454819D02*
X93095238Y-141454819D01*
X93095238Y-141454819D02*
X93571428Y-141454819D01*
X94333333Y-141931009D02*
X94000000Y-141931009D01*
X94000000Y-142454819D02*
X94000000Y-141454819D01*
X94000000Y-141454819D02*
X94476190Y-141454819D01*
X95000000Y-141454819D02*
X95000000Y-141692914D01*
X94761905Y-141597676D02*
X95000000Y-141692914D01*
X95000000Y-141692914D02*
X95238095Y-141597676D01*
X94857143Y-141883390D02*
X95000000Y-141692914D01*
X95000000Y-141692914D02*
X95142857Y-141883390D01*
X95761905Y-141454819D02*
X95761905Y-141692914D01*
X95523810Y-141597676D02*
X95761905Y-141692914D01*
X95761905Y-141692914D02*
X96000000Y-141597676D01*
X95619048Y-141883390D02*
X95761905Y-141692914D01*
X95761905Y-141692914D02*
X95904762Y-141883390D01*
X112733333Y-134454819D02*
X112400000Y-133978628D01*
X112161905Y-134454819D02*
X112161905Y-133454819D01*
X112161905Y-133454819D02*
X112542857Y-133454819D01*
X112542857Y-133454819D02*
X112638095Y-133502438D01*
X112638095Y-133502438D02*
X112685714Y-133550057D01*
X112685714Y-133550057D02*
X112733333Y-133645295D01*
X112733333Y-133645295D02*
X112733333Y-133788152D01*
X112733333Y-133788152D02*
X112685714Y-133883390D01*
X112685714Y-133883390D02*
X112638095Y-133931009D01*
X112638095Y-133931009D02*
X112542857Y-133978628D01*
X112542857Y-133978628D02*
X112161905Y-133978628D01*
X113590476Y-133788152D02*
X113590476Y-134454819D01*
X113352381Y-133407200D02*
X113114286Y-134121485D01*
X113114286Y-134121485D02*
X113733333Y-134121485D01*
X92476190Y-119431009D02*
X92142857Y-119431009D01*
X92142857Y-119954819D02*
X92142857Y-118954819D01*
X92142857Y-118954819D02*
X92619047Y-118954819D01*
X93000000Y-119954819D02*
X93000000Y-119288152D01*
X93000000Y-118954819D02*
X92952381Y-119002438D01*
X92952381Y-119002438D02*
X93000000Y-119050057D01*
X93000000Y-119050057D02*
X93047619Y-119002438D01*
X93047619Y-119002438D02*
X93000000Y-118954819D01*
X93000000Y-118954819D02*
X93000000Y-119050057D01*
X93476190Y-119288152D02*
X93476190Y-119954819D01*
X93476190Y-119383390D02*
X93523809Y-119335771D01*
X93523809Y-119335771D02*
X93619047Y-119288152D01*
X93619047Y-119288152D02*
X93761904Y-119288152D01*
X93761904Y-119288152D02*
X93857142Y-119335771D01*
X93857142Y-119335771D02*
X93904761Y-119431009D01*
X93904761Y-119431009D02*
X93904761Y-119954819D01*
X94952380Y-119859580D02*
X94904761Y-119907200D01*
X94904761Y-119907200D02*
X94761904Y-119954819D01*
X94761904Y-119954819D02*
X94666666Y-119954819D01*
X94666666Y-119954819D02*
X94523809Y-119907200D01*
X94523809Y-119907200D02*
X94428571Y-119811961D01*
X94428571Y-119811961D02*
X94380952Y-119716723D01*
X94380952Y-119716723D02*
X94333333Y-119526247D01*
X94333333Y-119526247D02*
X94333333Y-119383390D01*
X94333333Y-119383390D02*
X94380952Y-119192914D01*
X94380952Y-119192914D02*
X94428571Y-119097676D01*
X94428571Y-119097676D02*
X94523809Y-119002438D01*
X94523809Y-119002438D02*
X94666666Y-118954819D01*
X94666666Y-118954819D02*
X94761904Y-118954819D01*
X94761904Y-118954819D02*
X94904761Y-119002438D01*
X94904761Y-119002438D02*
X94952380Y-119050057D01*
X95904761Y-119954819D02*
X95333333Y-119954819D01*
X95619047Y-119954819D02*
X95619047Y-118954819D01*
X95619047Y-118954819D02*
X95523809Y-119097676D01*
X95523809Y-119097676D02*
X95428571Y-119192914D01*
X95428571Y-119192914D02*
X95333333Y-119240533D01*
X100833333Y-114359580D02*
X100785714Y-114407200D01*
X100785714Y-114407200D02*
X100642857Y-114454819D01*
X100642857Y-114454819D02*
X100547619Y-114454819D01*
X100547619Y-114454819D02*
X100404762Y-114407200D01*
X100404762Y-114407200D02*
X100309524Y-114311961D01*
X100309524Y-114311961D02*
X100261905Y-114216723D01*
X100261905Y-114216723D02*
X100214286Y-114026247D01*
X100214286Y-114026247D02*
X100214286Y-113883390D01*
X100214286Y-113883390D02*
X100261905Y-113692914D01*
X100261905Y-113692914D02*
X100309524Y-113597676D01*
X100309524Y-113597676D02*
X100404762Y-113502438D01*
X100404762Y-113502438D02*
X100547619Y-113454819D01*
X100547619Y-113454819D02*
X100642857Y-113454819D01*
X100642857Y-113454819D02*
X100785714Y-113502438D01*
X100785714Y-113502438D02*
X100833333Y-113550057D01*
X101166667Y-113454819D02*
X101785714Y-113454819D01*
X101785714Y-113454819D02*
X101452381Y-113835771D01*
X101452381Y-113835771D02*
X101595238Y-113835771D01*
X101595238Y-113835771D02*
X101690476Y-113883390D01*
X101690476Y-113883390D02*
X101738095Y-113931009D01*
X101738095Y-113931009D02*
X101785714Y-114026247D01*
X101785714Y-114026247D02*
X101785714Y-114264342D01*
X101785714Y-114264342D02*
X101738095Y-114359580D01*
X101738095Y-114359580D02*
X101690476Y-114407200D01*
X101690476Y-114407200D02*
X101595238Y-114454819D01*
X101595238Y-114454819D02*
X101309524Y-114454819D01*
X101309524Y-114454819D02*
X101214286Y-114407200D01*
X101214286Y-114407200D02*
X101166667Y-114359580D01*
X164761905Y-125142319D02*
X164761905Y-124142319D01*
X164761905Y-124142319D02*
X165000000Y-124142319D01*
X165000000Y-124142319D02*
X165142857Y-124189938D01*
X165142857Y-124189938D02*
X165238095Y-124285176D01*
X165238095Y-124285176D02*
X165285714Y-124380414D01*
X165285714Y-124380414D02*
X165333333Y-124570890D01*
X165333333Y-124570890D02*
X165333333Y-124713747D01*
X165333333Y-124713747D02*
X165285714Y-124904223D01*
X165285714Y-124904223D02*
X165238095Y-124999461D01*
X165238095Y-124999461D02*
X165142857Y-125094700D01*
X165142857Y-125094700D02*
X165000000Y-125142319D01*
X165000000Y-125142319D02*
X164761905Y-125142319D01*
X165714286Y-124237557D02*
X165761905Y-124189938D01*
X165761905Y-124189938D02*
X165857143Y-124142319D01*
X165857143Y-124142319D02*
X166095238Y-124142319D01*
X166095238Y-124142319D02*
X166190476Y-124189938D01*
X166190476Y-124189938D02*
X166238095Y-124237557D01*
X166238095Y-124237557D02*
X166285714Y-124332795D01*
X166285714Y-124332795D02*
X166285714Y-124428033D01*
X166285714Y-124428033D02*
X166238095Y-124570890D01*
X166238095Y-124570890D02*
X165666667Y-125142319D01*
X165666667Y-125142319D02*
X166285714Y-125142319D01*
X163261905Y-115454819D02*
X163261905Y-114454819D01*
X163261905Y-114454819D02*
X163500000Y-114454819D01*
X163500000Y-114454819D02*
X163642857Y-114502438D01*
X163642857Y-114502438D02*
X163738095Y-114597676D01*
X163738095Y-114597676D02*
X163785714Y-114692914D01*
X163785714Y-114692914D02*
X163833333Y-114883390D01*
X163833333Y-114883390D02*
X163833333Y-115026247D01*
X163833333Y-115026247D02*
X163785714Y-115216723D01*
X163785714Y-115216723D02*
X163738095Y-115311961D01*
X163738095Y-115311961D02*
X163642857Y-115407200D01*
X163642857Y-115407200D02*
X163500000Y-115454819D01*
X163500000Y-115454819D02*
X163261905Y-115454819D01*
X164785714Y-115454819D02*
X164214286Y-115454819D01*
X164500000Y-115454819D02*
X164500000Y-114454819D01*
X164500000Y-114454819D02*
X164404762Y-114597676D01*
X164404762Y-114597676D02*
X164309524Y-114692914D01*
X164309524Y-114692914D02*
X164214286Y-114740533D01*
X176833333Y-128209580D02*
X176785714Y-128257200D01*
X176785714Y-128257200D02*
X176642857Y-128304819D01*
X176642857Y-128304819D02*
X176547619Y-128304819D01*
X176547619Y-128304819D02*
X176404762Y-128257200D01*
X176404762Y-128257200D02*
X176309524Y-128161961D01*
X176309524Y-128161961D02*
X176261905Y-128066723D01*
X176261905Y-128066723D02*
X176214286Y-127876247D01*
X176214286Y-127876247D02*
X176214286Y-127733390D01*
X176214286Y-127733390D02*
X176261905Y-127542914D01*
X176261905Y-127542914D02*
X176309524Y-127447676D01*
X176309524Y-127447676D02*
X176404762Y-127352438D01*
X176404762Y-127352438D02*
X176547619Y-127304819D01*
X176547619Y-127304819D02*
X176642857Y-127304819D01*
X176642857Y-127304819D02*
X176785714Y-127352438D01*
X176785714Y-127352438D02*
X176833333Y-127400057D01*
X177690476Y-127304819D02*
X177500000Y-127304819D01*
X177500000Y-127304819D02*
X177404762Y-127352438D01*
X177404762Y-127352438D02*
X177357143Y-127400057D01*
X177357143Y-127400057D02*
X177261905Y-127542914D01*
X177261905Y-127542914D02*
X177214286Y-127733390D01*
X177214286Y-127733390D02*
X177214286Y-128114342D01*
X177214286Y-128114342D02*
X177261905Y-128209580D01*
X177261905Y-128209580D02*
X177309524Y-128257200D01*
X177309524Y-128257200D02*
X177404762Y-128304819D01*
X177404762Y-128304819D02*
X177595238Y-128304819D01*
X177595238Y-128304819D02*
X177690476Y-128257200D01*
X177690476Y-128257200D02*
X177738095Y-128209580D01*
X177738095Y-128209580D02*
X177785714Y-128114342D01*
X177785714Y-128114342D02*
X177785714Y-127876247D01*
X177785714Y-127876247D02*
X177738095Y-127781009D01*
X177738095Y-127781009D02*
X177690476Y-127733390D01*
X177690476Y-127733390D02*
X177595238Y-127685771D01*
X177595238Y-127685771D02*
X177404762Y-127685771D01*
X177404762Y-127685771D02*
X177309524Y-127733390D01*
X177309524Y-127733390D02*
X177261905Y-127781009D01*
X177261905Y-127781009D02*
X177214286Y-127876247D01*
X92476190Y-125931009D02*
X92142857Y-125931009D01*
X92142857Y-126454819D02*
X92142857Y-125454819D01*
X92142857Y-125454819D02*
X92619047Y-125454819D01*
X93000000Y-126454819D02*
X93000000Y-125788152D01*
X93000000Y-125454819D02*
X92952381Y-125502438D01*
X92952381Y-125502438D02*
X93000000Y-125550057D01*
X93000000Y-125550057D02*
X93047619Y-125502438D01*
X93047619Y-125502438D02*
X93000000Y-125454819D01*
X93000000Y-125454819D02*
X93000000Y-125550057D01*
X93476190Y-125788152D02*
X93476190Y-126454819D01*
X93476190Y-125883390D02*
X93523809Y-125835771D01*
X93523809Y-125835771D02*
X93619047Y-125788152D01*
X93619047Y-125788152D02*
X93761904Y-125788152D01*
X93761904Y-125788152D02*
X93857142Y-125835771D01*
X93857142Y-125835771D02*
X93904761Y-125931009D01*
X93904761Y-125931009D02*
X93904761Y-126454819D01*
X94952380Y-126359580D02*
X94904761Y-126407200D01*
X94904761Y-126407200D02*
X94761904Y-126454819D01*
X94761904Y-126454819D02*
X94666666Y-126454819D01*
X94666666Y-126454819D02*
X94523809Y-126407200D01*
X94523809Y-126407200D02*
X94428571Y-126311961D01*
X94428571Y-126311961D02*
X94380952Y-126216723D01*
X94380952Y-126216723D02*
X94333333Y-126026247D01*
X94333333Y-126026247D02*
X94333333Y-125883390D01*
X94333333Y-125883390D02*
X94380952Y-125692914D01*
X94380952Y-125692914D02*
X94428571Y-125597676D01*
X94428571Y-125597676D02*
X94523809Y-125502438D01*
X94523809Y-125502438D02*
X94666666Y-125454819D01*
X94666666Y-125454819D02*
X94761904Y-125454819D01*
X94761904Y-125454819D02*
X94904761Y-125502438D01*
X94904761Y-125502438D02*
X94952380Y-125550057D01*
X95333333Y-125550057D02*
X95380952Y-125502438D01*
X95380952Y-125502438D02*
X95476190Y-125454819D01*
X95476190Y-125454819D02*
X95714285Y-125454819D01*
X95714285Y-125454819D02*
X95809523Y-125502438D01*
X95809523Y-125502438D02*
X95857142Y-125550057D01*
X95857142Y-125550057D02*
X95904761Y-125645295D01*
X95904761Y-125645295D02*
X95904761Y-125740533D01*
X95904761Y-125740533D02*
X95857142Y-125883390D01*
X95857142Y-125883390D02*
X95285714Y-126454819D01*
X95285714Y-126454819D02*
X95904761Y-126454819D01*
X207666666Y-142954819D02*
X207333333Y-142478628D01*
X207095238Y-142954819D02*
X207095238Y-141954819D01*
X207095238Y-141954819D02*
X207476190Y-141954819D01*
X207476190Y-141954819D02*
X207571428Y-142002438D01*
X207571428Y-142002438D02*
X207619047Y-142050057D01*
X207619047Y-142050057D02*
X207666666Y-142145295D01*
X207666666Y-142145295D02*
X207666666Y-142288152D01*
X207666666Y-142288152D02*
X207619047Y-142383390D01*
X207619047Y-142383390D02*
X207571428Y-142431009D01*
X207571428Y-142431009D02*
X207476190Y-142478628D01*
X207476190Y-142478628D02*
X207095238Y-142478628D01*
X208095238Y-142431009D02*
X208428571Y-142431009D01*
X208571428Y-142954819D02*
X208095238Y-142954819D01*
X208095238Y-142954819D02*
X208095238Y-141954819D01*
X208095238Y-141954819D02*
X208571428Y-141954819D01*
X209333333Y-142431009D02*
X209000000Y-142431009D01*
X209000000Y-142954819D02*
X209000000Y-141954819D01*
X209000000Y-141954819D02*
X209476190Y-141954819D01*
X210000000Y-141954819D02*
X210000000Y-142192914D01*
X209761905Y-142097676D02*
X210000000Y-142192914D01*
X210000000Y-142192914D02*
X210238095Y-142097676D01*
X209857143Y-142383390D02*
X210000000Y-142192914D01*
X210000000Y-142192914D02*
X210142857Y-142383390D01*
X210761905Y-141954819D02*
X210761905Y-142192914D01*
X210523810Y-142097676D02*
X210761905Y-142192914D01*
X210761905Y-142192914D02*
X211000000Y-142097676D01*
X210619048Y-142383390D02*
X210761905Y-142192914D01*
X210761905Y-142192914D02*
X210904762Y-142383390D01*
X154417080Y-103682857D02*
X154464700Y-103730476D01*
X154464700Y-103730476D02*
X154512319Y-103873333D01*
X154512319Y-103873333D02*
X154512319Y-103968571D01*
X154512319Y-103968571D02*
X154464700Y-104111428D01*
X154464700Y-104111428D02*
X154369461Y-104206666D01*
X154369461Y-104206666D02*
X154274223Y-104254285D01*
X154274223Y-104254285D02*
X154083747Y-104301904D01*
X154083747Y-104301904D02*
X153940890Y-104301904D01*
X153940890Y-104301904D02*
X153750414Y-104254285D01*
X153750414Y-104254285D02*
X153655176Y-104206666D01*
X153655176Y-104206666D02*
X153559938Y-104111428D01*
X153559938Y-104111428D02*
X153512319Y-103968571D01*
X153512319Y-103968571D02*
X153512319Y-103873333D01*
X153512319Y-103873333D02*
X153559938Y-103730476D01*
X153559938Y-103730476D02*
X153607557Y-103682857D01*
X154512319Y-102730476D02*
X154512319Y-103301904D01*
X154512319Y-103016190D02*
X153512319Y-103016190D01*
X153512319Y-103016190D02*
X153655176Y-103111428D01*
X153655176Y-103111428D02*
X153750414Y-103206666D01*
X153750414Y-103206666D02*
X153798033Y-103301904D01*
X154512319Y-101778095D02*
X154512319Y-102349523D01*
X154512319Y-102063809D02*
X153512319Y-102063809D01*
X153512319Y-102063809D02*
X153655176Y-102159047D01*
X153655176Y-102159047D02*
X153750414Y-102254285D01*
X153750414Y-102254285D02*
X153798033Y-102349523D01*
X158833333Y-125359580D02*
X158785714Y-125407200D01*
X158785714Y-125407200D02*
X158642857Y-125454819D01*
X158642857Y-125454819D02*
X158547619Y-125454819D01*
X158547619Y-125454819D02*
X158404762Y-125407200D01*
X158404762Y-125407200D02*
X158309524Y-125311961D01*
X158309524Y-125311961D02*
X158261905Y-125216723D01*
X158261905Y-125216723D02*
X158214286Y-125026247D01*
X158214286Y-125026247D02*
X158214286Y-124883390D01*
X158214286Y-124883390D02*
X158261905Y-124692914D01*
X158261905Y-124692914D02*
X158309524Y-124597676D01*
X158309524Y-124597676D02*
X158404762Y-124502438D01*
X158404762Y-124502438D02*
X158547619Y-124454819D01*
X158547619Y-124454819D02*
X158642857Y-124454819D01*
X158642857Y-124454819D02*
X158785714Y-124502438D01*
X158785714Y-124502438D02*
X158833333Y-124550057D01*
X159690476Y-124788152D02*
X159690476Y-125454819D01*
X159452381Y-124407200D02*
X159214286Y-125121485D01*
X159214286Y-125121485D02*
X159833333Y-125121485D01*
X70666666Y-55604819D02*
X70333333Y-55128628D01*
X70095238Y-55604819D02*
X70095238Y-54604819D01*
X70095238Y-54604819D02*
X70476190Y-54604819D01*
X70476190Y-54604819D02*
X70571428Y-54652438D01*
X70571428Y-54652438D02*
X70619047Y-54700057D01*
X70619047Y-54700057D02*
X70666666Y-54795295D01*
X70666666Y-54795295D02*
X70666666Y-54938152D01*
X70666666Y-54938152D02*
X70619047Y-55033390D01*
X70619047Y-55033390D02*
X70571428Y-55081009D01*
X70571428Y-55081009D02*
X70476190Y-55128628D01*
X70476190Y-55128628D02*
X70095238Y-55128628D01*
X71095238Y-55081009D02*
X71428571Y-55081009D01*
X71571428Y-55604819D02*
X71095238Y-55604819D01*
X71095238Y-55604819D02*
X71095238Y-54604819D01*
X71095238Y-54604819D02*
X71571428Y-54604819D01*
X72333333Y-55081009D02*
X72000000Y-55081009D01*
X72000000Y-55604819D02*
X72000000Y-54604819D01*
X72000000Y-54604819D02*
X72476190Y-54604819D01*
X73000000Y-54604819D02*
X73000000Y-54842914D01*
X72761905Y-54747676D02*
X73000000Y-54842914D01*
X73000000Y-54842914D02*
X73238095Y-54747676D01*
X72857143Y-55033390D02*
X73000000Y-54842914D01*
X73000000Y-54842914D02*
X73142857Y-55033390D01*
X73761905Y-54604819D02*
X73761905Y-54842914D01*
X73523810Y-54747676D02*
X73761905Y-54842914D01*
X73761905Y-54842914D02*
X74000000Y-54747676D01*
X73619048Y-55033390D02*
X73761905Y-54842914D01*
X73761905Y-54842914D02*
X73904762Y-55033390D01*
D12*
%TO.C,M_X1*%
X179880000Y-110690000D02*
X178500000Y-110690000D01*
X179880000Y-109310000D02*
X179880000Y-110690000D01*
X179880000Y-108040000D02*
X179880000Y-100310000D01*
X179880000Y-108040000D02*
X177120000Y-108040000D01*
X179880000Y-100310000D02*
X177120000Y-100310000D01*
X177120000Y-108040000D02*
X177120000Y-100310000D01*
%TO.C,R10*%
X174727064Y-93910000D02*
X173272936Y-93910000D01*
X174727064Y-92090000D02*
X173272936Y-92090000D01*
%TO.C,C12RAD*%
X183270000Y-96500000D02*
G75*
G02*
X176730000Y-96500000I-3270000J0D01*
G01*
X176730000Y-96500000D02*
G75*
G02*
X183270000Y-96500000I3270000J0D01*
G01*
%TO.C,JUMPER2*%
X174880000Y-91380000D02*
X173500000Y-91380000D01*
X174880000Y-90000000D02*
X174880000Y-91380000D01*
X174880000Y-88730000D02*
X174880000Y-86080000D01*
X174880000Y-88730000D02*
X172120000Y-88730000D01*
X174880000Y-86080000D02*
X172120000Y-86080000D01*
X172120000Y-88730000D02*
X172120000Y-86080000D01*
%TO.C,JUMPER1*%
X170880000Y-91380000D02*
X169500000Y-91380000D01*
X170880000Y-90000000D02*
X170880000Y-91380000D01*
X170880000Y-88730000D02*
X170880000Y-86080000D01*
X170880000Y-88730000D02*
X168120000Y-88730000D01*
X170880000Y-86080000D02*
X168120000Y-86080000D01*
X168120000Y-88730000D02*
X168120000Y-86080000D01*
%TO.C,A1*%
X175740000Y-115790000D02*
X175740000Y-114390000D01*
X175740000Y-113120000D02*
X175740000Y-95210000D01*
X175740000Y-95210000D02*
X160240000Y-95210000D01*
X174340000Y-115790000D02*
X175740000Y-115790000D01*
X173070000Y-115790000D02*
X173070000Y-113120000D01*
X173070000Y-113120000D02*
X175740000Y-113120000D01*
X173070000Y-113120000D02*
X173070000Y-95210000D01*
X162910000Y-115790000D02*
X162910000Y-95210000D01*
X160240000Y-115790000D02*
X173070000Y-115790000D01*
X160240000Y-95210000D02*
X160240000Y-115790000D01*
%TO.C,R9*%
X168272936Y-93910000D02*
X169727064Y-93910000D01*
X168272936Y-92090000D02*
X169727064Y-92090000D01*
%TO.C,R8*%
X163310436Y-93910000D02*
X164764564Y-93910000D01*
X163310436Y-92090000D02*
X164764564Y-92090000D01*
%TO.C,JUMPER3*%
X166880000Y-91380000D02*
X165500000Y-91380000D01*
X166880000Y-90000000D02*
X166880000Y-91380000D01*
X166880000Y-88730000D02*
X166880000Y-86080000D01*
X166880000Y-88730000D02*
X164120000Y-88730000D01*
X166880000Y-86080000D02*
X164120000Y-86080000D01*
X164120000Y-88730000D02*
X164120000Y-86080000D01*
%TO.C,C9*%
X178910000Y-114211252D02*
X178910000Y-112788748D01*
X177090000Y-114211252D02*
X177090000Y-112788748D01*
%TO.C,C10*%
X171248748Y-128790000D02*
X172671252Y-128790000D01*
X171248748Y-130610000D02*
X172671252Y-130610000D01*
%TO.C,J2*%
X198860000Y-139450000D02*
X198860000Y-140500000D01*
X199060000Y-131100000D02*
X200960000Y-131100000D01*
X199060000Y-133800000D02*
X199060000Y-131100000D01*
X199060000Y-140300000D02*
X199060000Y-137700000D01*
X199910000Y-140500000D02*
X198860000Y-140500000D01*
X204960000Y-131100000D02*
X213760000Y-131100000D01*
X213760000Y-131100000D02*
X213760000Y-140300000D01*
X213760000Y-140300000D02*
X199060000Y-140300000D01*
%TO.C,U2*%
X168557500Y-131432500D02*
X180277500Y-131432500D01*
X168557500Y-140052500D02*
X168557500Y-131432500D01*
X180277500Y-131432500D02*
X180277500Y-140052500D01*
X180277500Y-140052500D02*
X168557500Y-140052500D01*
X180517500Y-131192500D02*
X179277500Y-131192500D01*
X180517500Y-132432500D02*
X180517500Y-131192500D01*
%TO.C,C1*%
X177671252Y-128790000D02*
X176248748Y-128790000D01*
X177671252Y-130610000D02*
X176248748Y-130610000D01*
%TO.C,F1*%
X181360000Y-132230000D02*
X181360000Y-139170000D01*
X181360000Y-139170000D02*
X197560000Y-139170000D01*
X187860000Y-133700000D02*
X191060000Y-133700000D01*
X188710000Y-135700000D02*
X190210000Y-135700000D01*
X191060000Y-137700000D02*
X187860000Y-137700000D01*
X197560000Y-132230000D02*
X181360000Y-132230000D01*
X197560000Y-139170000D02*
X197560000Y-132230000D01*
%TO.C,A2*%
X160470000Y-63400000D02*
X160470000Y-83980000D01*
X160470000Y-83980000D02*
X173300000Y-83980000D01*
X163140000Y-83980000D02*
X163140000Y-63400000D01*
X173300000Y-81310000D02*
X173300000Y-63400000D01*
X173300000Y-81310000D02*
X175970000Y-81310000D01*
X173300000Y-83980000D02*
X173300000Y-81310000D01*
X174570000Y-83980000D02*
X175970000Y-83980000D01*
X175970000Y-63400000D02*
X160470000Y-63400000D01*
X175970000Y-81310000D02*
X175970000Y-63400000D01*
X175970000Y-83980000D02*
X175970000Y-82580000D01*
%TO.C,C13RAD*%
X183500000Y-64440000D02*
G75*
G02*
X176960000Y-64440000I-3270000J0D01*
G01*
X176960000Y-64440000D02*
G75*
G02*
X183500000Y-64440000I3270000J0D01*
G01*
%TO.C,R7*%
X162002936Y-60280000D02*
X163457064Y-60280000D01*
X162002936Y-62100000D02*
X163457064Y-62100000D01*
%TO.C,JUMPER5*%
X166850000Y-56695000D02*
X166850000Y-54045000D01*
X169610000Y-54045000D02*
X166850000Y-54045000D01*
X169610000Y-56695000D02*
X166850000Y-56695000D01*
X169610000Y-56695000D02*
X169610000Y-54045000D01*
X169610000Y-57965000D02*
X169610000Y-59345000D01*
X169610000Y-59345000D02*
X168230000Y-59345000D01*
%TO.C,JUMPER4*%
X170850000Y-56420000D02*
X170850000Y-53770000D01*
X173610000Y-53770000D02*
X170850000Y-53770000D01*
X173610000Y-56420000D02*
X170850000Y-56420000D01*
X173610000Y-56420000D02*
X173610000Y-53770000D01*
X173610000Y-57690000D02*
X173610000Y-59070000D01*
X173610000Y-59070000D02*
X172230000Y-59070000D01*
%TO.C,R5*%
X173957064Y-60280000D02*
X172502936Y-60280000D01*
X173957064Y-62100000D02*
X172502936Y-62100000D01*
%TO.C,JUMPER6*%
X162850000Y-56420000D02*
X162850000Y-53770000D01*
X165610000Y-53770000D02*
X162850000Y-53770000D01*
X165610000Y-56420000D02*
X162850000Y-56420000D01*
X165610000Y-56420000D02*
X165610000Y-53770000D01*
X165610000Y-57690000D02*
X165610000Y-59070000D01*
X165610000Y-59070000D02*
X164230000Y-59070000D01*
%TO.C,C8*%
X177320000Y-82901252D02*
X177320000Y-81478748D01*
X179140000Y-82901252D02*
X179140000Y-81478748D01*
%TO.C,R6*%
X167002936Y-60280000D02*
X168457064Y-60280000D01*
X167002936Y-62100000D02*
X168457064Y-62100000D01*
%TO.C,M_Y1*%
X176850000Y-76500000D02*
X176850000Y-68770000D01*
X179610000Y-68770000D02*
X176850000Y-68770000D01*
X179610000Y-76500000D02*
X176850000Y-76500000D01*
X179610000Y-76500000D02*
X179610000Y-68770000D01*
X179610000Y-77770000D02*
X179610000Y-79150000D01*
X179610000Y-79150000D02*
X178230000Y-79150000D01*
%TO.C,SERVO1*%
X179420000Y-123880000D02*
X179420000Y-121120000D01*
X174230000Y-123880000D02*
X179420000Y-123880000D01*
X174230000Y-123880000D02*
X174230000Y-121120000D01*
X174230000Y-121120000D02*
X179420000Y-121120000D01*
X172960000Y-123880000D02*
X171580000Y-123880000D01*
X171580000Y-123880000D02*
X171580000Y-122500000D01*
%TO.C,OLED1*%
X128920000Y-141120000D02*
X128920000Y-142500000D01*
X127540000Y-141120000D02*
X128920000Y-141120000D01*
X126270000Y-141120000D02*
X118540000Y-141120000D01*
X126270000Y-141120000D02*
X126270000Y-143880000D01*
X118540000Y-141120000D02*
X118540000Y-143880000D01*
X126270000Y-143880000D02*
X118540000Y-143880000D01*
%TO.C,R3*%
X108272936Y-138910000D02*
X109727064Y-138910000D01*
X108272936Y-137090000D02*
X109727064Y-137090000D01*
%TO.C,R12*%
X162910000Y-120772936D02*
X162910000Y-122227064D01*
X161090000Y-120772936D02*
X161090000Y-122227064D01*
%TO.C,C2*%
X100581252Y-123410000D02*
X99158748Y-123410000D01*
X100581252Y-121590000D02*
X99158748Y-121590000D01*
%TO.C,C7*%
X121711252Y-140410000D02*
X120288748Y-140410000D01*
X121711252Y-138590000D02*
X120288748Y-138590000D01*
%TO.C,bouton_reset1*%
X99300000Y-129560000D02*
X99300000Y-129460000D01*
X99300000Y-131060000D02*
X103700000Y-131060000D01*
X103700000Y-127960000D02*
X99300000Y-127960000D01*
X103700000Y-129560000D02*
X103700000Y-129460000D01*
%TO.C,R11*%
X158910000Y-110772936D02*
X158910000Y-112227064D01*
X157090000Y-110772936D02*
X157090000Y-112227064D01*
%TO.C,C5*%
X112960000Y-68161252D02*
X112960000Y-66738748D01*
X111140000Y-68161252D02*
X111140000Y-66738748D01*
%TO.C,R2*%
X112960000Y-59197936D02*
X112960000Y-60652064D01*
X111140000Y-59197936D02*
X111140000Y-60652064D01*
%TO.C,R1*%
X112960000Y-78652064D02*
X112960000Y-77197936D01*
X111140000Y-78652064D02*
X111140000Y-77197936D01*
%TO.C,J1*%
X109500000Y-56225000D02*
X109500000Y-58725000D01*
X103510000Y-56225000D02*
X109500000Y-56225000D01*
X98360000Y-56225000D02*
X100990000Y-56225000D01*
X89420000Y-56225000D02*
X96840000Y-56225000D01*
X86810000Y-56225000D02*
X87890000Y-56225000D01*
X84860000Y-56225000D02*
X85290000Y-56225000D01*
X78600000Y-56225000D02*
X82340000Y-56225000D01*
X109500000Y-58725000D02*
X108200000Y-58725000D01*
X108200000Y-58725000D02*
X108200000Y-59065000D01*
X109500000Y-80725000D02*
X108200000Y-80725000D01*
X100990000Y-84615000D02*
X84860000Y-84625000D01*
X109500000Y-84625000D02*
X109500000Y-80725000D01*
X109500000Y-84625000D02*
X103510000Y-84625000D01*
X82340000Y-84625000D02*
X78600000Y-84625000D01*
X78600000Y-84625000D02*
X78600000Y-56225000D01*
%TO.C,R4*%
X111410000Y-133272936D02*
X111410000Y-134727064D01*
X109590000Y-133272936D02*
X109590000Y-134727064D01*
%TO.C,FinC1*%
X97040000Y-118170000D02*
X97040000Y-120830000D01*
X102180000Y-118170000D02*
X97040000Y-118170000D01*
X102180000Y-118170000D02*
X102180000Y-120830000D01*
X102180000Y-120830000D02*
X97040000Y-120830000D01*
X104780000Y-119500000D02*
X104780000Y-120830000D01*
X104780000Y-120830000D02*
X103450000Y-120830000D01*
%TO.C,C3*%
X100581252Y-117410000D02*
X99158748Y-117410000D01*
X100581252Y-115590000D02*
X99158748Y-115590000D01*
%TO.C,D2*%
X164500000Y-123997500D02*
X167185000Y-123997500D01*
X167185000Y-122077500D02*
X164500000Y-122077500D01*
X167185000Y-123997500D02*
X167185000Y-122077500D01*
%TO.C,D1*%
X160185000Y-117960000D02*
X160185000Y-116040000D01*
X160185000Y-116040000D02*
X157500000Y-116040000D01*
X157500000Y-117960000D02*
X160185000Y-117960000D01*
%TO.C,C6*%
X177711252Y-125090000D02*
X176288748Y-125090000D01*
X177711252Y-126910000D02*
X176288748Y-126910000D01*
%TO.C,FinC2*%
X96970000Y-124220000D02*
X96970000Y-126880000D01*
X102110000Y-124220000D02*
X96970000Y-124220000D01*
X102110000Y-124220000D02*
X102110000Y-126880000D01*
X102110000Y-126880000D02*
X96970000Y-126880000D01*
X104710000Y-125550000D02*
X104710000Y-126880000D01*
X104710000Y-126880000D02*
X103380000Y-126880000D01*
%TO.C,C11*%
X154711252Y-105090000D02*
X153288748Y-105090000D01*
X154711252Y-106910000D02*
X153288748Y-106910000D01*
%TO.C,C4*%
X158090000Y-122211252D02*
X158090000Y-120788748D01*
X159910000Y-122211252D02*
X159910000Y-120788748D01*
%TD*%
M02*
