%TF.GenerationSoftware,KiCad,Pcbnew,9.0.7*%
%TF.CreationDate,2026-04-23T18:20:30+02:00*%
%TF.ProjectId,carte elec,63617274-6520-4656-9c65-632e6b696361,rev?*%
%TF.SameCoordinates,Original*%
%TF.FileFunction,Soldermask,Top*%
%TF.FilePolarity,Negative*%
%FSLAX46Y46*%
G04 Gerber Fmt 4.6, Leading zero omitted, Abs format (unit mm)*
G04 Created by KiCad (PCBNEW 9.0.7) date 2026-04-23 18:20:30*
%MOMM*%
%LPD*%
G01*
G04 APERTURE LIST*
G04 Aperture macros list*
%AMRoundRect*
0 Rectangle with rounded corners*
0 $1 Rounding radius*
0 $2 $3 $4 $5 $6 $7 $8 $9 X,Y pos of 4 corners*
0 Add a 4 corners polygon primitive as box body*
4,1,4,$2,$3,$4,$5,$6,$7,$8,$9,$2,$3,0*
0 Add four circle primitives for the rounded corners*
1,1,$1+$1,$2,$3*
1,1,$1+$1,$4,$5*
1,1,$1+$1,$6,$7*
1,1,$1+$1,$8,$9*
0 Add four rect primitives between the rounded corners*
20,1,$1+$1,$2,$3,$4,$5,0*
20,1,$1+$1,$4,$5,$6,$7,0*
20,1,$1+$1,$6,$7,$8,$9,0*
20,1,$1+$1,$8,$9,$2,$3,0*%
G04 Aperture macros list end*
%ADD10R,0.900000X1.000000*%
%ADD11RoundRect,0.250000X0.312500X0.625000X-0.312500X0.625000X-0.312500X-0.625000X0.312500X-0.625000X0*%
%ADD12RoundRect,0.250000X0.625000X-0.312500X0.625000X0.312500X-0.625000X0.312500X-0.625000X-0.312500X0*%
%ADD13RoundRect,0.250000X-0.312500X-0.625000X0.312500X-0.625000X0.312500X0.625000X-0.312500X0.625000X0*%
%ADD14RoundRect,0.250000X-0.625000X0.312500X-0.625000X-0.312500X0.625000X-0.312500X0.625000X0.312500X0*%
%ADD15C,1.300000*%
%ADD16R,2.000000X1.100000*%
%ADD17R,1.000000X2.000000*%
%ADD18R,2.000000X2.000000*%
%ADD19C,2.780000*%
%ADD20R,1.700000X1.700000*%
%ADD21C,1.700000*%
%ADD22RoundRect,0.250000X0.650000X-0.325000X0.650000X0.325000X-0.650000X0.325000X-0.650000X-0.325000X0*%
%ADD23RoundRect,0.243750X0.456250X-0.243750X0.456250X0.243750X-0.456250X0.243750X-0.456250X-0.243750X0*%
%ADD24RoundRect,0.250000X-0.325000X-0.650000X0.325000X-0.650000X0.325000X0.650000X-0.325000X0.650000X0*%
%ADD25R,1.600000X1.600000*%
%ADD26O,1.600000X1.600000*%
%ADD27RoundRect,0.250000X-0.650000X0.325000X-0.650000X-0.325000X0.650000X-0.325000X0.650000X0.325000X0*%
%ADD28C,1.600000*%
%ADD29R,1.500000X2.300000*%
%ADD30O,1.500000X2.300000*%
%ADD31RoundRect,0.250000X0.325000X0.650000X-0.325000X0.650000X-0.325000X-0.650000X0.325000X-0.650000X0*%
%ADD32R,3.500000X3.500000*%
%ADD33RoundRect,0.750000X0.750000X1.000000X-0.750000X1.000000X-0.750000X-1.000000X0.750000X-1.000000X0*%
%ADD34RoundRect,0.875000X0.875000X0.875000X-0.875000X0.875000X-0.875000X-0.875000X0.875000X-0.875000X0*%
G04 APERTURE END LIST*
D10*
%TO.C,right1*%
X66607500Y-106800000D03*
X62507500Y-106800000D03*
X66607500Y-105200000D03*
X62507500Y-105200000D03*
%TD*%
D11*
%TO.C,R16*%
X43462500Y-117500000D03*
X40537500Y-117500000D03*
%TD*%
D10*
%TO.C,up1*%
X56950000Y-100700000D03*
X61050000Y-100700000D03*
X56950000Y-102300000D03*
X61050000Y-102300000D03*
%TD*%
%TO.C,left1*%
X50950000Y-105200000D03*
X55050000Y-105200000D03*
X50950000Y-106800000D03*
X55050000Y-106800000D03*
%TD*%
D11*
%TO.C,R15*%
X43962500Y-110000000D03*
X41037500Y-110000000D03*
%TD*%
%TO.C,R14*%
X43962500Y-114000000D03*
X41037500Y-114000000D03*
%TD*%
D12*
%TO.C,R13*%
X52000000Y-100462500D03*
X52000000Y-97537500D03*
%TD*%
D10*
%TO.C,down1*%
X61050000Y-110800000D03*
X56950000Y-110800000D03*
X61050000Y-109200000D03*
X56950000Y-109200000D03*
%TD*%
D13*
%TO.C,R4*%
X48037500Y-134500000D03*
X50962500Y-134500000D03*
%TD*%
D14*
%TO.C,R2*%
X65500000Y-64537500D03*
X65500000Y-67462500D03*
%TD*%
D12*
%TO.C,R1*%
X65500000Y-85462500D03*
X65500000Y-82537500D03*
%TD*%
D15*
%TO.C,J1*%
X60250000Y-64600000D03*
X60250000Y-87000000D03*
D16*
X62450000Y-82575000D03*
X62450000Y-80075000D03*
X62450000Y-77575000D03*
X62450000Y-75075000D03*
X62450000Y-72575000D03*
X62450000Y-70075000D03*
X62450000Y-67650000D03*
X62450000Y-65950000D03*
X62450000Y-85075000D03*
D17*
X51050000Y-62900000D03*
D18*
X55700000Y-62000000D03*
X37050000Y-62000000D03*
X55700000Y-91000000D03*
X37050000Y-91000000D03*
D17*
X39500000Y-62900000D03*
X42100000Y-62900000D03*
%TD*%
D11*
%TO.C,R8*%
X89925000Y-126500000D03*
X87000000Y-126500000D03*
%TD*%
D19*
%TO.C,F1*%
X76580000Y-138500000D03*
X76580000Y-141900000D03*
X86500000Y-138500000D03*
X86500000Y-141900000D03*
%TD*%
D20*
%TO.C,M_Y1*%
X73870000Y-79650000D03*
D21*
X73870000Y-82190000D03*
X73870000Y-84730000D03*
X73870000Y-87270000D03*
%TD*%
D20*
%TO.C,JUMPER3*%
X87000000Y-129500000D03*
D21*
X87000000Y-132040000D03*
%TD*%
D11*
%TO.C,R9*%
X84962500Y-126500000D03*
X82037500Y-126500000D03*
%TD*%
D20*
%TO.C,Fdc1*%
X48960000Y-123000000D03*
D21*
X51500000Y-123000000D03*
X54040000Y-123000000D03*
%TD*%
D20*
%TO.C,JUMPER4*%
X80730000Y-98420000D03*
D21*
X80730000Y-100960000D03*
%TD*%
D22*
%TO.C,C3*%
X58000000Y-124475000D03*
X58000000Y-121525000D03*
%TD*%
D23*
%TO.C,D2*%
X102500000Y-117937500D03*
X102500000Y-116062500D03*
%TD*%
D24*
%TO.C,C11*%
X96525000Y-106500000D03*
X99475000Y-106500000D03*
%TD*%
D25*
%TO.C,A2*%
X78230000Y-74920000D03*
D26*
X78230000Y-77460000D03*
X78230000Y-80000000D03*
X78230000Y-82540000D03*
X78230000Y-85080000D03*
X78230000Y-87620000D03*
X78230000Y-90160000D03*
X78230000Y-92700000D03*
X90930000Y-92700000D03*
X90930000Y-90160000D03*
X90930000Y-87620000D03*
X90930000Y-85080000D03*
X90930000Y-82540000D03*
X90930000Y-80000000D03*
X90930000Y-77460000D03*
X90930000Y-74920000D03*
%TD*%
D20*
%TO.C,Fdc2*%
X48975000Y-126975000D03*
D21*
X51515000Y-126975000D03*
X54055000Y-126975000D03*
%TD*%
D13*
%TO.C,R6*%
X82767500Y-95420000D03*
X85692500Y-95420000D03*
%TD*%
D27*
%TO.C,C9*%
X74500000Y-104525000D03*
X74500000Y-107475000D03*
%TD*%
D23*
%TO.C,D1*%
X102000000Y-106937500D03*
X102000000Y-105062500D03*
%TD*%
D24*
%TO.C,C6*%
X50525000Y-116000000D03*
X53475000Y-116000000D03*
%TD*%
D27*
%TO.C,C5*%
X65500000Y-75025000D03*
X65500000Y-77975000D03*
%TD*%
D28*
%TO.C,Crad1*%
X72500000Y-121750000D03*
X72500000Y-124250000D03*
%TD*%
D13*
%TO.C,R10*%
X77037500Y-126500000D03*
X79962500Y-126500000D03*
%TD*%
D24*
%TO.C,C1*%
X69025000Y-134500000D03*
X71975000Y-134500000D03*
%TD*%
D20*
%TO.C,OLED1*%
X56310000Y-142500000D03*
D21*
X53770000Y-142500000D03*
X51230000Y-142500000D03*
X48690000Y-142500000D03*
%TD*%
D29*
%TO.C,U2*%
X68987500Y-138292500D03*
D30*
X66447500Y-138292500D03*
X63907500Y-138292500D03*
%TD*%
D13*
%TO.C,R3*%
X48537500Y-137000000D03*
X51462500Y-137000000D03*
%TD*%
D20*
%TO.C,SERVO1*%
X48960000Y-119000000D03*
D21*
X51500000Y-119000000D03*
X54040000Y-119000000D03*
%TD*%
D11*
%TO.C,R7*%
X90730000Y-95420000D03*
X87805000Y-95420000D03*
%TD*%
D20*
%TO.C,M_X1*%
X74000000Y-110190000D03*
D21*
X74000000Y-112730000D03*
X74000000Y-115270000D03*
X74000000Y-117810000D03*
%TD*%
D24*
%TO.C,C10*%
X62565000Y-134200000D03*
X65515000Y-134200000D03*
%TD*%
D27*
%TO.C,C8*%
X73870000Y-73755000D03*
X73870000Y-76705000D03*
%TD*%
D31*
%TO.C,C4*%
X99475000Y-122000000D03*
X96525000Y-122000000D03*
%TD*%
D28*
%TO.C,Crad2*%
X71870000Y-91730000D03*
X71870000Y-94230000D03*
%TD*%
D13*
%TO.C,R12*%
X97537500Y-116000000D03*
X100462500Y-116000000D03*
%TD*%
D20*
%TO.C,JUMPER5*%
X84730000Y-98645000D03*
D21*
X84730000Y-101185000D03*
%TD*%
D31*
%TO.C,C7*%
X51245000Y-139500000D03*
X48295000Y-139500000D03*
%TD*%
D20*
%TO.C,JUMPER1*%
X83000000Y-129500000D03*
D21*
X83000000Y-132040000D03*
%TD*%
D20*
%TO.C,JUMPER6*%
X88730000Y-98645000D03*
D21*
X88730000Y-101185000D03*
%TD*%
D13*
%TO.C,R5*%
X77767500Y-95420000D03*
X80692500Y-95420000D03*
%TD*%
D25*
%TO.C,A1*%
X78160000Y-105110000D03*
D26*
X78160000Y-107650000D03*
X78160000Y-110190000D03*
X78160000Y-112730000D03*
X78160000Y-115270000D03*
X78160000Y-117810000D03*
X78160000Y-120350000D03*
X78160000Y-122890000D03*
X90860000Y-122890000D03*
X90860000Y-120350000D03*
X90860000Y-117810000D03*
X90860000Y-115270000D03*
X90860000Y-112730000D03*
X90860000Y-110190000D03*
X90860000Y-107650000D03*
X90860000Y-105110000D03*
%TD*%
D10*
%TO.C,reset1*%
X47950000Y-130200000D03*
X52050000Y-130200000D03*
X47950000Y-131800000D03*
X52050000Y-131800000D03*
%TD*%
D32*
%TO.C,J2*%
X92040000Y-140200000D03*
D33*
X98040000Y-140200000D03*
D34*
X95040000Y-135500000D03*
%TD*%
D25*
%TO.C,U1*%
X94260000Y-127860000D03*
D26*
X94260000Y-125320000D03*
X94260000Y-122780000D03*
X94260000Y-120240000D03*
X94260000Y-117700000D03*
X94260000Y-115160000D03*
X94260000Y-112620000D03*
X94260000Y-110080000D03*
X94260000Y-105000000D03*
X94260000Y-102460000D03*
X94260000Y-99920000D03*
X94260000Y-97380000D03*
X94260000Y-94840000D03*
X94260000Y-92300000D03*
X46000000Y-92300000D03*
X46000000Y-94840000D03*
X46000000Y-97380000D03*
X46000000Y-99920000D03*
X46000000Y-102460000D03*
X46000000Y-105000000D03*
X46000000Y-107540000D03*
X46000000Y-110080000D03*
X46000000Y-114140000D03*
X46000000Y-116680000D03*
X46000000Y-119220000D03*
X46000000Y-121760000D03*
X46000000Y-124300000D03*
X46000000Y-126840000D03*
X46000000Y-129380000D03*
X46000000Y-131920000D03*
X46000000Y-134460000D03*
X46000000Y-137000000D03*
%TD*%
D22*
%TO.C,C2*%
X58000000Y-129975000D03*
X58000000Y-127025000D03*
%TD*%
D13*
%TO.C,R11*%
X97037500Y-103000000D03*
X99962500Y-103000000D03*
%TD*%
D20*
%TO.C,JUMPER2*%
X79000000Y-129500000D03*
D21*
X79000000Y-132040000D03*
%TD*%
M02*
